<svg width="244" height="164" viewBox="0 0 244 164" fill="none" xmlns="http://www.w3.org/2000/svg">
<path d="M21.2183 75.3507C22.1034 75.0854 22.8597 75.1218 23.4872 75.4599C24.1415 75.7899 24.5973 76.384 24.8546 77.2423C24.9189 77.4569 24.9604 77.6929 24.9791 77.9504C25.0166 78.173 25.0327 78.3728 25.0273 78.5498C24.6625 78.6006 24.2615 78.677 23.8244 78.7788C23.3792 78.8538 22.8615 78.9797 22.2715 79.1566C21.1182 79.5023 19.9836 79.9593 18.8678 80.5276C17.7439 81.0691 16.6657 81.5677 15.6331 82.0234C15.4423 83.6298 15.2931 85.1799 15.1855 86.6737C15.0698 88.1407 14.989 89.4803 14.9432 90.6925C14.9241 91.8967 14.9279 92.9332 14.9545 93.8022C15.008 94.6631 15.0816 95.2987 15.1753 95.7091C17.2112 94.6019 19.2805 93.5578 21.3833 92.5767C23.513 91.5876 25.7741 90.6467 28.1666 89.7542C28.5983 90.1217 28.9884 90.5455 29.3369 91.0257C29.7123 91.4978 29.9924 92.0423 30.1773 92.6592C30.2256 92.8201 30.2778 92.9944 30.3341 93.1822C30.3904 93.3699 30.4198 93.5657 30.4225 93.7695C29.6634 93.9678 28.8642 94.1782 28.0247 94.4006C27.1932 94.6498 26.107 94.9754 24.7659 95.3774C23.8808 95.6427 23.04 95.9093 22.2434 96.1774C21.4817 96.4641 20.7106 96.7684 19.9301 97.09C19.1495 97.4117 18.3234 97.7762 17.4517 98.1837C16.6068 98.5831 15.6493 99.0455 14.5791 99.5709C13.2006 99.4579 11.6533 98.6356 9.93724 97.1038C10.1038 96.0016 10.2959 94.3509 10.5136 92.1518C10.7502 89.9178 11.0043 86.9624 11.276 83.2856C9.9565 83.2719 8.9643 82.8385 8.29938 81.9855C8.39328 81.8112 8.73395 81.5337 9.32138 81.153C9.90076 80.7455 10.6277 80.2937 11.5021 79.7978C11.5909 78.6312 11.6528 77.6188 11.6878 76.7606C11.7497 75.8943 11.7874 75.0938 11.801 74.3589C11.8066 73.5973 11.7933 72.8705 11.7613 72.1785C11.7481 71.4517 11.7053 70.6753 11.6331 69.8493C10.6783 70.077 9.86433 70.0433 9.19124 69.7481C8.5101 69.4261 8.05698 68.8897 7.83187 68.1387C7.76756 67.9241 7.718 67.6613 7.68321 67.3502C7.67524 67.031 7.67932 66.7521 7.69547 66.5134C8.25601 66.4331 8.78169 66.334 9.2725 66.2161C9.79014 66.0901 10.4513 65.9066 11.2559 65.6654C12.9456 65.1589 14.516 64.6443 15.967 64.1217C17.41 63.5722 18.7055 63.067 19.8535 62.606C21.0283 62.1369 22.0327 61.7335 22.8669 61.3958C23.693 61.0312 24.334 60.7806 24.79 60.6439C25.4069 60.459 26.0532 60.6161 26.7289 61.115C27.4046 61.614 28.0401 62.4174 28.6352 63.5252C27.7796 63.6939 27.0796 63.8453 26.5352 63.9793C26.0175 64.1052 25.5575 64.2285 25.1552 64.3491C23.6801 64.7913 22.3497 65.2777 21.1642 65.8085C19.9975 66.3043 18.875 66.8016 17.7967 67.3002C17.7081 67.5898 17.6129 67.9545 17.5108 68.3943C17.4357 68.8261 17.3376 69.4255 17.2168 70.1925C17.0959 70.9595 16.9468 71.9249 16.7696 73.0888C16.6191 74.2447 16.4377 75.6875 16.2255 77.4173C17.1964 76.9509 18.1124 76.5448 18.9734 76.199C19.8531 75.8184 20.6015 75.5356 21.2183 75.3507ZM42.3173 69.9909C42.5855 69.9105 42.91 69.8717 43.2908 69.8745C43.6904 69.8424 44.0619 69.8626 44.4051 69.9351C44.7404 69.9808 45.026 70.0559 45.262 70.1606C45.5248 70.2572 45.6763 70.3725 45.7165 70.5066C45.5177 71.7939 45.3632 73.0825 45.2529 74.3725C45.1347 75.6357 45.0714 76.8385 45.063 77.981C45.0547 79.1235 45.0934 80.1788 45.179 81.147C45.2914 82.1072 45.4481 82.9225 45.6491 83.593C45.8742 84.344 46.1436 84.9502 46.4573 85.4115C46.7629 85.8461 47.1356 86.1144 47.5755 86.2164C47.3179 86.5274 46.9544 86.8264 46.485 87.1132C46.0156 87.4001 45.5798 87.6038 45.1775 87.7244C43.7291 88.1585 42.7075 87.3832 42.1126 85.3985C41.6543 83.8697 41.5368 81.6249 41.7601 78.6641C41.5935 80.0587 41.3264 81.4103 40.9586 82.719C40.5829 84.0009 40.1575 85.166 39.6826 86.2146C39.2076 87.2631 38.6751 88.1681 38.0849 88.9296C37.5135 89.6563 36.9354 90.1657 36.3507 90.4579C35.3422 90.7018 34.3969 90.4736 33.5147 89.7734C32.6245 89.0464 31.9703 87.9855 31.5523 86.5909C31.1021 85.0889 30.9496 83.41 31.0948 81.5541C31.2401 79.6983 31.5958 77.9109 32.1621 76.1919C32.7552 74.4649 33.5011 72.9551 34.3999 71.6626C35.2906 70.3433 36.2777 69.4921 37.3613 69.1088C37.6536 69.1089 37.9969 69.1813 38.3911 69.3263C38.8121 69.4631 39.2184 69.6483 39.6099 69.8817C40.0282 70.1071 40.3969 70.3619 40.716 70.6463C41.027 70.9038 41.2322 71.1493 41.3313 71.3826C40.3067 71.8651 39.3504 72.7218 38.4624 73.9526C37.6013 75.1753 36.8902 76.5577 36.3294 78.0997C35.7873 79.6068 35.4342 81.1595 35.2703 82.7579C35.1063 84.3563 35.2092 85.7724 35.5791 87.0061C35.7318 87.5157 36.016 87.7813 36.4317 87.8029C37.1613 87.4088 37.8628 86.4823 38.5363 85.0235C39.2018 83.5379 39.8929 81.3577 40.6096 78.4828C40.7331 77.9197 40.8673 77.2948 41.0123 76.6083C41.1841 75.9137 41.3479 75.1923 41.5036 74.4441C41.6593 73.6958 41.8016 72.9517 41.9306 72.2115C42.0782 71.4364 42.2071 70.6963 42.3173 69.9909ZM61.2874 64.5677C61.4133 65.0853 61.4803 65.6499 61.4882 66.2614C61.5148 66.838 61.4892 67.3864 61.4113 67.9067C61.3254 68.4002 61.206 68.8306 61.053 69.198C60.9001 69.5654 60.7163 69.7812 60.5017 69.8455C60.1987 69.9071 59.964 69.7582 59.7978 69.3988C59.7737 69.3184 59.7644 69.1896 59.7698 69.0126C59.7939 68.8008 59.8141 68.5755 59.8303 68.3368C59.8464 68.0981 59.8491 67.8635 59.8385 67.6328C59.8546 67.3941 59.8386 67.1943 59.7903 67.0334C59.6778 66.6579 59.4914 66.3776 59.2313 66.1925C58.99 65.9725 58.7218 65.9067 58.4268 65.9952C57.354 66.3168 56.7369 67.2325 56.5757 68.7424C56.4144 70.2522 56.7237 72.308 57.5035 74.9096C57.5839 75.1779 57.6456 75.3348 57.6885 75.3804C58.2437 75.1847 58.7358 75.0226 59.165 74.8939C59.6129 74.7304 60.0514 74.5844 60.4806 74.4557C60.5235 74.5013 60.569 74.6046 60.6173 74.7655C60.6896 75.0069 60.6882 75.1973 60.6131 75.3368C60.0364 75.6558 59.5764 75.9252 59.2331 76.1451C58.9085 76.33 58.6644 76.4909 58.5008 76.6276C58.3372 76.7644 58.2446 76.8944 58.2231 77.0178C58.2204 77.1063 58.2432 77.231 58.2914 77.3919C58.3558 77.6065 58.4201 77.8211 58.4844 78.0356C58.5755 78.2422 58.6693 78.5064 58.7658 78.8282C59.4411 81.0812 59.3669 83.0765 58.5432 84.8142C57.7463 86.5438 56.2937 87.8416 54.1855 88.7073C53.802 88.7931 53.3809 88.8024 52.9223 88.7352C52.4637 88.668 52.0025 88.5432 51.5386 88.3608C51.1014 88.1702 50.6925 87.9274 50.3117 87.6323C49.939 87.3641 49.6427 87.0583 49.4229 86.7149C49.1174 85.6957 49.0425 84.6658 49.1983 83.6253C49.3461 82.5579 49.6775 81.567 50.1927 80.6526C50.7266 79.7034 51.4254 78.8654 52.2892 78.1388C53.1717 77.3774 54.1909 76.7795 55.3469 76.3453C55.146 75.6748 54.8819 75.0378 54.5549 74.4343C54.2278 73.8308 53.8954 73.2581 53.5576 72.7163C53.2386 72.1396 52.9276 71.5897 52.6247 71.0667C52.3137 70.5168 52.0738 69.9603 51.905 69.397C51.6879 68.6729 51.6224 67.9179 51.7084 67.1321C51.7863 66.3195 51.9783 65.5458 52.2842 64.811C52.582 64.0494 52.9885 63.3576 53.5036 62.7355C54.0186 62.1134 54.6007 61.6174 55.2498 61.2475C55.569 61.2395 56.0302 61.3643 56.6336 61.6219C57.2558 61.8446 57.8806 62.125 58.5081 62.4631C59.1356 62.8012 59.7134 63.1687 60.2417 63.5658C60.7619 63.936 61.1105 64.27 61.2874 64.5677ZM53.5101 86.8929C54.0734 86.4317 54.5603 85.8619 54.9708 85.1835C55.4081 84.497 55.7448 83.7676 55.981 82.9953C56.2172 82.2229 56.3475 81.4385 56.3718 80.642C56.4229 79.8374 56.344 79.0865 56.135 78.3891C55.6227 78.6304 55.109 79.062 54.5939 79.6841C54.0708 80.2794 53.6161 80.9565 53.2297 81.7154C52.8353 82.4474 52.5428 83.1782 52.3522 83.9076C52.1616 84.6371 52.1347 85.2298 52.2713 85.6857C52.4482 86.2758 52.8611 86.6782 53.5101 86.8929ZM79.3732 69.8011C79.3432 71.944 79.2609 73.9125 79.1264 75.7067C78.9919 77.5008 78.777 79.173 78.4816 80.723C78.1943 82.2999 77.8171 83.7722 77.3502 85.1399C76.8912 86.5344 76.3317 87.8859 75.6717 89.1946C74.8238 90.8518 73.8433 92.2126 72.73 93.2771C71.6248 94.3684 70.4151 95.111 69.1009 95.5049C68.4304 95.7059 67.7357 95.8265 67.017 95.8665C66.3331 95.9254 65.6693 95.9051 65.0257 95.8057C64.3632 95.7412 63.7652 95.5989 63.2316 95.3789C62.6791 95.1937 62.2528 94.9415 61.9525 94.6223C61.856 94.3004 61.9593 93.9625 62.2625 93.6086C62.6727 93.8072 63.0093 93.9547 63.2721 94.0513C63.5349 94.148 63.7897 94.2177 64.0364 94.2607C64.2563 94.3117 64.491 94.3144 64.7404 94.2689C64.963 94.2314 65.2218 94.1685 65.5168 94.08C67.0456 93.6218 68.3975 92.7196 69.5725 91.3736C70.7824 90.0463 71.7818 88.3583 72.5707 86.3094C73.3945 84.2794 73.9891 81.9235 74.3545 79.2417C74.7279 76.5867 74.8559 73.6983 74.7386 70.5765C74.5507 71.2174 74.3186 72.0032 74.0421 72.9337C73.7657 73.8643 73.4356 74.8109 73.0519 75.7737C72.6601 76.7096 72.2214 77.5864 71.7358 78.4043C71.277 79.2141 70.7713 79.8188 70.2187 80.2183C69.7816 80.3201 69.2975 80.3629 68.7664 80.3467C68.2703 80.3493 67.7675 80.2807 67.2579 80.1412C66.7752 79.9936 66.3167 79.7802 65.8822 79.5012C65.4478 79.2222 65.1046 78.8574 64.8526 78.4068C64.6195 77.629 64.4614 77.004 64.3784 76.532C64.2873 76.0331 64.2244 75.482 64.1897 74.8786C64.1256 73.787 64.1285 72.5292 64.1986 71.1051C64.2955 69.673 64.4674 68.2476 64.7145 66.8289C64.9803 65.3754 65.328 63.9996 65.7574 62.7017C66.2055 61.3689 66.7529 60.2694 67.3995 59.4033C67.614 59.339 67.8903 59.2854 68.2282 59.2426C68.5581 59.1729 68.9135 59.1395 69.2943 59.1423C69.6751 59.145 70.0506 59.1786 70.4207 59.2431C70.7827 59.2807 71.1206 59.384 71.4344 59.5531C71.2197 59.9097 70.8453 61.0012 70.3112 62.8274C69.7771 64.6537 69.3367 67.1826 68.99 70.4143C68.9443 70.7495 68.912 71.2269 68.8931 71.8464C68.8742 72.4659 68.8633 73.1122 68.8605 73.7854C68.8845 74.4505 68.9178 75.0982 68.9606 75.7285C69.0034 76.3587 69.077 76.8482 69.1815 77.1969C69.2458 77.4114 69.3209 77.5643 69.4067 77.6555C69.5193 77.7387 69.6105 77.7991 69.6802 77.8366C70.1389 77.6114 70.666 77.0296 71.2616 76.0911C71.8492 75.1257 72.4274 73.7393 72.9964 71.9318C73.3507 70.7733 73.6553 69.6443 73.9104 68.5448C74.1574 67.4184 74.391 66.2961 74.6111 65.1778C74.8581 64.0514 75.1105 62.8942 75.3682 61.7062C75.626 60.5182 75.9159 59.2913 76.238 58.0255C76.5867 57.921 76.9742 57.8486 77.4007 57.8085C77.8271 57.7684 78.2482 57.7591 78.6639 57.7806C79.0715 57.7754 79.4336 57.813 79.75 57.8935C80.0852 57.9392 80.344 58.0224 80.5264 58.1431C80.2255 60.1625 79.9663 62.1256 79.7486 64.0324C79.5309 65.9392 79.4058 67.8621 79.3732 69.8011ZM116.444 41.8522C116.886 43.3274 116.933 44.848 116.584 46.4142C116.261 47.9723 115.623 49.4499 114.668 50.847C113.731 52.2092 112.507 53.4385 110.994 54.5351C109.508 55.6236 107.826 56.4493 105.949 57.012C105.278 57.213 104.718 57.2933 104.267 57.253C103.835 57.1778 103.302 56.9578 102.666 56.5929C102.201 59.9184 101.91 62.9435 101.791 65.6683C101.691 68.3582 101.746 70.9289 101.954 73.3802C100.863 73.4443 99.9026 73.2644 99.074 72.8404C98.2534 72.4433 97.4383 71.8692 96.6285 71.1181C96.744 70.5281 96.8648 69.7611 96.9911 68.8171C97.1174 67.8731 97.2678 66.7172 97.4425 65.3495C97.6091 63.9549 97.7878 62.3083 97.9786 60.4095C98.1883 58.4759 98.4342 56.2245 98.7164 53.6553C98.832 52.4806 98.9341 51.4562 99.0228 50.5819C99.1115 49.7076 99.1761 48.899 99.2165 48.1561C99.2488 47.3864 99.2584 46.6382 99.2451 45.9114C99.2587 45.1765 99.2522 44.3747 99.2256 43.5057C98.0856 44.2859 97.0596 45.105 96.1475 45.963C95.2623 46.8129 94.5594 47.6375 94.039 48.4366C93.7493 48.348 93.4222 48.183 93.0575 47.9415C92.7196 47.692 92.3871 47.4117 92.06 47.1005C91.7249 46.7625 91.4165 46.4165 91.135 46.0624C90.8535 45.7083 90.6511 45.3744 90.5278 45.0606C91.1448 44.291 91.9616 43.5054 92.9782 42.7037C93.9949 41.9021 95.1121 41.1433 96.3298 40.4275C97.5395 39.6849 98.8136 39.0107 100.152 38.4049C101.517 37.7911 102.844 37.2912 104.131 36.9053C105.66 36.447 107.101 36.2342 108.456 36.2667C109.802 36.2723 111.009 36.4952 112.076 36.9353C113.143 37.3754 114.05 38.0098 114.795 38.8387C115.541 39.6676 116.09 40.6721 116.444 41.8522ZM107.836 39.171C106.816 39.4765 105.794 39.8705 104.77 40.353L105.47 40.9325C105.306 41.3616 105.127 41.9851 104.934 42.803C104.741 43.621 104.552 44.5985 104.366 45.7356C104.173 46.8458 103.962 48.0929 103.734 49.4767C103.532 50.8525 103.311 52.3073 103.069 53.8413C105.161 53.2143 107.009 52.4557 108.613 51.5657C110.209 50.6488 111.51 49.6742 112.516 48.6419C113.541 47.5748 114.252 46.4847 114.649 45.3718C115.073 44.2509 115.128 43.1674 114.815 42.1214C114.396 40.7267 113.593 39.7543 112.405 39.2043C111.209 38.6274 109.686 38.6163 107.836 39.171ZM119.716 63.6276C119.617 62.8096 119.54 61.722 119.484 60.365C119.446 58.9731 119.443 57.498 119.472 55.9398C119.494 54.3548 119.543 52.7618 119.618 51.1607C119.694 49.5596 119.8 48.1101 119.937 46.812C120.037 45.8761 120.152 45.1399 120.284 44.6036C120.407 44.0404 120.582 43.5496 120.807 43.1313C121.199 43.0724 121.616 43.0497 122.058 43.0632C122.501 43.0767 122.938 43.1211 123.37 43.1963C123.801 43.2715 124.197 43.3721 124.556 43.4983C124.908 43.5976 125.192 43.717 125.409 43.8565C124.942 44.9318 124.592 46.1037 124.358 47.3722C124.151 48.6327 124.024 50.2056 123.975 52.091C125.037 50.3694 125.942 48.7538 126.687 47.244C127.46 45.7262 128.112 44.0985 128.644 42.3607C128.764 42.1784 129.026 42.0269 129.428 41.9063C129.804 41.7938 130.186 41.7523 130.575 41.7819C130.956 41.7846 131.245 41.8732 131.444 42.0476C131.347 43.4797 131.487 44.8261 131.865 46.0866C132.219 47.2668 132.659 48.0996 133.184 48.5851C133.206 48.7541 133.11 49.1188 132.898 49.6793C132.713 50.2317 132.48 50.7694 132.198 51.2923C131.361 51.1339 130.565 50.8172 129.809 50.3424C129.044 49.8407 128.411 49.2411 127.91 48.5437C126.915 49.8067 126.103 50.9999 125.475 52.1235C124.84 53.2203 124.357 54.3881 124.026 55.6271C123.715 56.8312 123.532 58.1721 123.478 59.6498C123.451 61.1195 123.514 62.84 123.666 64.8112C123.417 64.8568 123.094 64.8513 122.697 64.7949C122.335 64.7573 121.947 64.6834 121.534 64.5734C121.148 64.4553 120.785 64.3157 120.444 64.1548C120.104 63.9938 119.861 63.818 119.716 63.6276ZM142.318 59.2641C140.741 59.5614 139.32 59.2567 138.054 58.3499C136.789 57.4431 135.883 56.0778 135.336 54.254C135.014 53.1812 134.842 52.0199 134.818 50.7701C134.794 49.5203 134.916 48.2706 135.185 47.0209C135.445 45.7443 135.833 44.5027 136.348 43.2959C136.863 42.0892 137.486 40.9965 138.215 40.0177C139.361 38.4759 140.577 37.512 141.865 37.1261C142.86 37.3248 143.99 38.0237 145.256 39.2228C145.39 39.1826 145.51 39.1464 145.618 39.1143C145.717 39.0553 145.834 39.0057 145.968 38.9655C147.389 38.5394 148.478 39.587 149.234 42.1081C149.74 43.7979 149.941 45.4915 149.836 47.1892C149.75 48.8519 149.395 50.4489 148.773 51.9802C148.177 53.5033 147.324 54.8991 146.213 56.1674C145.121 57.4008 143.823 58.433 142.318 59.2641ZM140.572 45.9761C140.3 46.7297 140.072 47.5289 139.887 48.3736C139.702 49.2184 139.574 50.0605 139.504 50.8999C139.426 51.7125 139.411 52.4916 139.46 53.2372C139.5 53.9559 139.6 54.5835 139.761 55.1199C139.954 55.7637 140.246 56.3484 140.637 56.8741C141.029 57.3999 141.371 57.6628 141.663 57.6628C142.79 57.0328 143.741 56.207 144.516 55.1854C145.31 54.1289 145.904 52.9423 146.299 51.6256C146.72 50.3008 146.923 48.8808 146.907 47.3655C146.918 45.8422 146.687 44.2893 146.212 42.7068C146.003 42.0095 145.798 41.4717 145.597 41.0935C145.396 40.7153 145.158 40.4069 144.881 40.1681C143.806 40.8705 142.915 41.7513 142.21 42.8105C141.531 43.8617 140.985 44.9169 140.572 45.9761ZM158.046 32.5389C158.583 32.3781 159.248 32.3541 160.042 32.4669C160.835 32.5797 161.577 32.8105 162.266 33.1594C161.81 32.1267 161.335 31.1732 160.839 30.2988C160.361 29.3895 159.769 28.4855 159.061 27.5869C158.38 26.6803 157.537 25.72 156.531 24.706C155.526 23.692 154.307 22.5519 152.875 21.2857C152.883 21.0202 152.973 20.6863 153.145 20.2841C153.344 19.8738 153.577 19.4823 153.845 19.1096C154.132 18.702 154.432 18.3346 154.743 18.0075C155.081 17.6723 155.416 17.4257 155.749 17.2675C156.749 17.8739 157.773 18.7068 158.821 19.7664C159.862 20.7992 160.854 21.9634 161.798 23.259C162.733 24.5277 163.564 25.8863 164.291 27.3347C165.044 28.7751 165.63 30.1926 166.048 31.5873C166.466 32.982 166.735 34.4651 166.855 36.0368C167.003 37.6003 167.008 39.1773 166.87 40.7677C166.752 42.3231 166.52 43.8397 166.173 45.3174C165.827 46.795 165.374 48.1587 164.813 49.4083C164.279 50.6499 163.648 51.7158 162.921 52.6061C162.202 53.5231 161.411 54.1988 160.547 54.633C158.632 54.9732 157.03 54.7958 155.74 54.1009C154.485 53.4248 153.6 52.2285 153.086 50.5119C152.813 49.6 152.649 48.5674 152.596 47.4142C152.569 46.2529 152.627 45.0809 152.77 43.8982C152.931 42.6807 153.171 41.4833 153.49 40.306C153.829 39.0938 154.226 37.9809 154.682 36.9673C155.165 35.9456 155.684 35.0446 156.239 34.2643C156.795 33.484 157.397 32.9088 158.046 32.5389ZM159.743 53.1203C160.585 52.517 161.311 51.5249 161.92 50.1438C162.529 48.7628 162.988 47.2221 163.297 45.5219C163.598 43.7948 163.723 42.018 163.672 40.1917C163.641 38.3304 163.388 36.6086 162.913 35.0261C162.777 34.5702 162.692 34.2885 162.66 34.1813C162.628 34.074 162.582 33.9707 162.523 33.8715C161.96 34.3326 161.413 34.9936 160.882 35.8544C160.35 36.7151 159.851 37.6832 159.384 38.7585C158.909 39.807 158.499 40.924 158.153 42.1093C157.806 43.2946 157.527 44.4599 157.315 45.605C157.103 46.7501 156.986 47.8228 156.964 48.8232C156.943 49.8235 157.036 50.6724 157.245 51.3697C157.647 52.7108 158.48 53.2943 159.743 53.1203ZM182.99 44.5736C182.352 44.2972 181.842 43.8653 181.462 43.2778C181.108 42.6824 180.862 42.1567 180.726 41.7007C180.557 41.1375 180.479 40.6346 180.493 40.1921C180.385 40.2242 180.208 40.5112 179.961 41.0529C179.715 41.5945 179.452 42.2288 179.173 42.9555C178.92 43.6742 178.664 44.3795 178.404 45.0713C178.143 45.7632 177.946 46.2754 177.812 46.6079C177.576 47.088 177.329 47.4835 177.072 47.7945C176.841 48.0975 176.636 48.2906 176.456 48.3737C176.019 48.4755 175.535 48.5183 175.004 48.5021C174.507 48.5046 174.005 48.4361 173.495 48.2966C173.012 48.1489 172.554 47.9356 172.119 47.6566C171.712 47.3696 171.382 47.0007 171.13 46.5501C170.905 45.7991 170.733 45.1782 170.616 44.6874C170.524 44.1885 170.462 43.6374 170.427 43.0339C170.363 41.9424 170.366 40.6846 170.436 39.2605C170.533 37.8284 170.705 36.403 170.952 34.9843C171.191 33.5388 171.525 32.1671 171.954 30.8691C172.402 29.5363 172.963 28.4328 173.637 27.5587C173.878 27.4863 174.168 27.4287 174.506 27.3859C174.835 27.3163 175.177 27.2868 175.531 27.2976C175.912 27.3004 176.274 27.338 176.618 27.4105C176.98 27.4482 177.304 27.5555 177.591 27.7326C177.43 28.0732 177.083 29.1566 176.548 30.9828C176.041 32.8011 175.614 35.326 175.267 38.5576C175.222 38.8928 175.189 39.3702 175.171 39.9897C175.152 40.6092 175.141 41.2556 175.138 41.9287C175.135 42.6019 175.155 43.2536 175.198 43.8839C175.267 44.5061 175.354 44.9915 175.459 45.3402C175.523 45.5548 175.598 45.7077 175.684 45.7989C175.797 45.882 175.888 45.9424 175.958 45.98C176.312 45.6984 176.689 45.1031 177.088 44.1941C177.488 43.285 178.013 41.9146 178.662 40.083C178.818 39.6272 178.998 39.1056 179.202 38.5183C179.433 37.9229 179.655 37.3008 179.87 36.6518C180.077 35.976 180.252 35.2949 180.397 34.6083C180.569 33.9137 180.674 33.2393 180.712 32.5849C180.723 32.2309 180.744 31.8152 180.776 31.3378C180.827 30.8256 180.901 30.2919 180.998 29.7368C181.121 29.1736 181.272 28.6024 181.449 28.0231C181.645 27.409 181.906 26.819 182.234 26.2532C182.582 26.1487 182.97 26.0764 183.396 26.0363C183.823 25.9961 184.231 25.9909 184.619 26.0205C185.027 26.0152 185.389 26.0528 185.706 26.1333C186.014 26.1871 186.259 26.2743 186.442 26.395C186.313 27.7198 186.126 29.0473 185.882 30.3775C185.637 31.7077 185.429 33.0124 185.257 34.2916C185.077 35.544 184.978 36.7723 184.959 37.9765C184.94 39.1807 185.087 40.3058 185.4 41.3518C185.569 41.915 185.758 42.3992 185.967 42.8042C186.195 43.1743 186.407 43.4909 186.603 43.7537C186.79 43.9898 186.953 44.1896 187.089 44.3532C187.253 44.5088 187.355 44.6537 187.395 44.7878C187.403 44.8146 187.388 44.8629 187.351 44.9326C187.332 44.9675 187.309 44.9889 187.282 44.9969C187.094 45.0532 186.841 45.0854 186.522 45.0933C186.203 45.1013 185.831 45.0811 185.408 45.0327C185.019 45.0031 184.608 44.9507 184.177 44.8756C183.772 44.7923 183.376 44.6917 182.99 44.5736ZM190.115 35.6856C189.657 34.1568 189.523 32.5892 189.714 30.9827C189.923 29.3415 190.373 27.8182 191.062 26.4131C191.771 24.973 192.681 23.7208 193.795 22.6563C194.927 21.557 196.203 20.7943 197.625 20.3682C199.02 19.9501 200.197 19.9772 201.157 20.4495C202.117 20.9217 202.79 21.8015 203.176 23.0889C203.361 23.7058 203.448 24.3374 203.437 24.9838C203.445 25.5952 203.37 26.1732 203.211 26.7176C203.08 27.2539 202.87 27.7259 202.583 28.1335C202.288 28.5142 201.953 28.7609 201.577 28.8734C201.256 28.9699 200.892 28.9765 200.487 28.8933C200.101 28.7752 199.753 28.5874 199.441 28.3299C200.748 26.1551 201.2 24.3972 200.798 23.0562C200.565 22.2784 200.14 21.9819 199.523 22.1669C198.987 22.3276 198.393 22.7834 197.741 23.5342C197.089 24.285 196.512 25.1887 196.01 26.2452C195.243 27.8783 194.788 29.5786 194.646 31.3459C194.522 33.0784 194.717 34.8029 195.232 36.5195C195.883 38.692 196.756 39.8481 197.85 39.9878C198.236 39.8135 198.669 39.5522 199.149 39.2036C199.629 38.8551 200.134 38.4408 200.662 37.9609C201.183 37.4541 201.704 36.9031 202.227 36.3079C202.777 35.7046 203.292 35.0825 203.773 34.4416C203.904 34.4899 204.034 34.5825 204.163 34.7193C204.292 34.8561 204.376 34.9915 204.416 35.1256C204.129 35.8256 203.771 36.5322 203.342 37.2454C202.912 37.9587 202.444 38.6398 201.937 39.2887C201.422 39.9108 200.9 40.4618 200.372 40.9418C199.878 41.4405 199.416 41.7984 198.984 42.0156C198.075 42.2004 197.159 42.168 196.236 41.9184C195.322 41.6956 194.457 41.2971 193.642 40.723C192.853 40.1409 192.14 39.4193 191.502 38.5582C190.891 37.6891 190.428 36.7316 190.115 35.6856ZM206.488 21.7016C206.305 21.5809 206.084 21.2818 205.824 20.8044C205.556 20.3001 205.366 19.8602 205.253 19.4847C205.967 19.3293 206.653 19.182 207.313 19.0427C207.965 18.8766 208.563 18.7265 209.107 18.5925C209.268 17.6673 209.46 16.7475 209.683 15.833C209.925 14.8836 210.164 14.0228 210.4 13.2505C210.655 12.4433 210.902 11.7554 211.141 11.1869C211.406 10.6103 211.626 10.2229 211.801 10.0244C212.069 9.94404 212.42 9.89718 212.855 9.88387C213.308 9.8357 213.773 9.82776 214.25 9.86006C214.72 9.86553 215.153 9.89647 215.55 9.95288C215.947 10.0093 216.236 10.0979 216.419 10.2186C215.92 11.479 215.508 12.6401 215.183 13.7021C214.877 14.7292 214.558 15.9065 214.225 17.234C214.761 17.0732 215.293 16.899 215.822 16.7114C216.377 16.5157 216.928 16.3066 217.475 16.0842C217.65 16.1781 217.809 16.3203 217.954 16.5107C218.091 16.6743 218.191 16.8634 218.256 17.078C217.086 17.9547 215.571 18.7013 213.709 19.3177C213.425 20.8061 213.207 22.2744 213.057 23.7226C212.925 25.1359 212.848 26.4889 212.826 27.7816C212.831 29.0663 212.883 30.2637 212.982 31.3741C213.108 32.4764 213.296 33.4432 213.545 34.2747C213.899 35.4548 214.538 35.9793 215.463 35.8481C216.236 35.4996 216.94 35.0693 217.576 34.5572C218.211 34.0451 218.743 33.4767 219.169 32.8519C219.402 33.045 219.557 33.2181 219.632 33.3709C219.543 33.6606 219.346 34.0266 219.04 34.4691C218.761 34.9035 218.438 35.3365 218.07 35.7682C217.711 36.2267 217.349 36.6276 216.984 36.9708C216.619 37.314 216.333 37.5312 216.127 37.6223C215.448 37.7965 214.734 37.85 213.983 37.7827C213.232 37.7155 212.514 37.5652 211.83 37.3317C211.173 37.0902 210.598 36.7803 210.105 36.402C209.603 35.9969 209.28 35.553 209.136 35.0702C208.943 34.4265 208.782 33.5978 208.653 32.584C208.544 31.5353 208.477 30.3861 208.453 29.1363C208.429 27.8865 208.443 26.567 208.494 25.1778C208.546 23.7886 208.641 22.4007 208.781 21.0142L206.488 21.7016ZM78.4403 116.226C78.6575 116.658 78.8076 116.963 78.8907 117.143C78.9925 117.288 79.0877 117.508 79.1761 117.803C79.4414 118.688 79.4895 119.58 79.3204 120.478C79.17 121.342 78.8077 122.035 78.2337 122.558C77.4802 121.994 76.6382 121.574 75.7076 121.298C74.769 120.995 73.7821 120.823 72.7469 120.782C71.7305 120.707 70.702 120.738 69.6613 120.874C68.6207 121.011 67.6311 121.22 66.6923 121.501C65.7536 121.783 64.8926 122.128 64.1094 122.538C63.345 122.914 62.6811 123.332 62.1178 123.793C61.5733 124.219 61.1695 124.677 60.9066 125.165C60.6705 125.645 60.6248 126.126 60.7695 126.609C61.0268 127.175 61.5698 127.67 62.3984 128.094C63.219 128.491 64.1871 128.844 65.3027 129.152C66.4102 129.434 67.6117 129.688 68.907 129.913C70.2291 130.131 71.5164 130.33 72.7688 130.51C74.3296 130.743 75.6907 130.993 76.8519 131.259C78.005 131.498 79.004 131.856 79.8487 132.334C80.6853 132.784 81.3892 133.377 81.9603 134.112C82.5313 134.847 82.9937 135.805 83.3475 136.985C83.7575 138.353 83.9154 139.709 83.8213 141.052C83.719 142.369 83.358 143.603 82.7382 144.753C82.1453 145.895 81.3043 146.893 80.2152 147.745C79.1342 148.625 77.8293 149.294 76.3005 149.752C74.7985 150.202 73.1075 150.461 71.2275 150.527C69.3475 150.594 67.5224 150.454 65.7525 150.108C64.0173 149.78 62.4874 149.259 61.1627 148.546C59.8568 147.797 59.031 146.846 58.6853 145.693C58.5245 145.156 58.467 144.428 58.5128 143.508C58.5854 142.58 58.8874 141.54 59.4187 140.387C59.7403 141.167 60.4549 141.991 61.5623 142.857C62.6965 143.716 64.1956 144.377 66.0594 144.842C67.7918 145.258 69.4961 145.434 71.1724 145.37C72.8673 145.271 74.3988 145.017 75.7666 144.607C77.2686 144.156 78.4327 143.603 79.2589 142.946C80.0851 142.289 80.69 141.625 81.0737 140.955C81.4493 140.258 81.664 139.609 81.7178 139.008C81.7715 138.407 81.7636 137.942 81.6939 137.612C81.5063 137.084 81.0988 136.651 80.4713 136.312C79.8626 135.94 79.0876 135.646 78.1463 135.431C77.2237 135.181 76.1671 134.972 74.9764 134.803C73.7857 134.633 72.5547 134.476 71.2835 134.331C69.3687 134.087 67.6979 133.827 66.2712 133.554C64.8633 133.245 63.6565 132.876 62.6509 132.446C61.664 131.982 60.8703 131.431 60.2697 130.793C59.6959 130.146 59.2643 129.34 58.9749 128.374C58.5247 126.872 58.5545 125.314 59.0645 123.7C59.5744 122.086 60.5831 120.672 62.0906 119.46C62.8363 118.828 63.6679 118.286 64.5852 117.836C65.5293 117.377 66.4708 117.008 67.4095 116.726C69.1797 116.196 70.982 115.918 72.8164 115.895C74.6509 115.871 76.5255 115.981 78.4403 116.226ZM97.8352 121.812C98.2264 123.507 98.3615 125.031 98.2405 126.382C98.1115 127.707 97.7277 128.962 97.0891 130.147C96.4693 131.298 95.6243 132.428 94.5539 133.538C93.4836 134.648 92.1906 135.796 90.6751 136.981C90.7233 137.142 90.7622 137.32 90.7916 137.516C90.8399 137.677 90.8921 137.851 90.9484 138.039C91.0529 138.388 91.1883 138.742 91.3545 139.101C91.5207 139.46 91.719 139.781 91.9496 140.063C92.1802 140.344 92.4483 140.556 92.7541 140.698C93.0517 140.814 93.3883 140.815 93.7638 140.703C94.488 140.486 95.1505 140.112 95.7513 139.581C96.3522 139.05 96.8928 138.464 97.373 137.823C97.872 137.147 98.3093 136.461 98.6849 135.764C99.0793 135.032 99.4227 134.373 99.7152 133.789C100.056 133.95 100.352 134.109 100.604 134.268C99.8796 136.239 98.9539 137.978 97.8272 139.485C96.7192 140.957 95.5657 142.033 94.3668 142.714C92.4518 143.054 90.8025 142.818 89.4188 142.005C88.0539 141.157 87.1303 139.929 86.6479 138.32C86.3183 137.22 86.1321 136.063 86.0895 134.848C86.0656 133.598 86.1652 132.37 86.388 131.163C86.6297 129.921 86.9719 128.722 87.4147 127.567C87.8843 126.403 88.4303 125.348 89.0527 124.401C89.702 123.446 90.4088 122.635 91.1733 121.968C91.9647 121.292 92.8029 120.821 93.688 120.556C94.97 120.347 96.3524 120.766 97.8352 121.812ZM95.4572 123.972C94.7652 124.296 94.1027 124.816 93.4696 125.532C92.8365 126.248 92.2919 127.113 91.8357 128.127C91.4064 129.132 91.0709 130.256 90.8292 131.498C90.5875 132.739 90.4907 134.025 90.5387 135.356C92.3628 133.64 93.7524 131.791 94.7076 129.809C95.6548 127.8 95.9047 125.855 95.4572 123.972ZM103.878 135.347C103.525 134.167 103.312 132.433 103.24 130.145C103.16 127.831 103.204 125.099 103.371 121.951C103.675 116.92 104.101 112.685 104.649 109.247C105.215 105.774 105.943 102.983 106.831 100.876C107.169 100.833 107.598 100.85 108.118 100.928C108.665 100.998 109.207 101.099 109.744 101.23C110.272 101.335 110.751 101.469 111.18 101.633C111.635 101.789 111.941 101.931 112.097 102.06C110.744 105.154 109.703 108.36 108.973 111.678C108.243 114.995 107.771 118.688 107.558 122.756C107.38 126.259 107.378 129.372 107.552 132.097C107.718 134.795 108.054 136.989 108.56 138.679C108.697 139.135 108.781 139.417 108.813 139.524C108.846 139.631 108.891 139.734 108.95 139.834C108.559 139.893 108.209 139.895 107.9 139.841C107.592 139.788 107.369 139.679 107.233 139.515C107.139 139.397 106.931 139.24 106.609 139.045C106.295 138.876 106.024 138.752 105.797 138.674C105.507 138.586 105.181 138.23 104.819 137.608C104.449 136.959 104.136 136.205 103.878 135.347ZM123.451 114.134C123.843 115.829 123.978 117.352 123.857 118.704C123.728 120.029 123.344 121.284 122.705 122.469C122.085 123.619 121.24 124.75 120.17 125.86C119.1 126.97 117.807 128.117 116.291 129.302C116.339 129.463 116.378 129.642 116.408 129.837C116.456 129.998 116.508 130.173 116.565 130.36C116.669 130.709 116.804 131.063 116.971 131.423C117.137 131.782 117.335 132.103 117.566 132.384C117.796 132.666 118.064 132.878 118.37 133.02C118.668 133.135 119.004 133.137 119.38 133.024C120.104 132.807 120.767 132.433 121.367 131.902C121.968 131.371 122.509 130.786 122.989 130.145C123.488 129.469 123.925 128.783 124.301 128.085C124.695 127.353 125.039 126.695 125.331 126.11C125.672 126.271 125.968 126.431 126.22 126.589C125.496 128.56 124.57 130.299 123.443 131.806C122.335 133.278 121.182 134.355 119.983 135.036C118.068 135.376 116.419 135.14 115.035 134.327C113.67 133.479 112.746 132.25 112.264 130.641C111.934 129.541 111.748 128.384 111.706 127.169C111.682 125.919 111.781 124.691 112.004 123.484C112.246 122.243 112.588 121.044 113.031 119.888C113.5 118.724 114.046 117.669 114.669 116.723C115.318 115.768 116.025 114.957 116.789 114.289C117.581 113.613 118.419 113.143 119.304 112.878C120.586 112.669 121.969 113.088 123.451 114.134ZM121.073 116.294C120.381 116.618 119.719 117.138 119.086 117.854C118.453 118.57 117.908 119.435 117.452 120.448C117.022 121.454 116.687 122.578 116.445 123.819C116.204 125.061 116.107 126.347 116.155 127.677C117.979 125.961 119.369 124.112 120.324 122.131C121.271 120.122 121.521 118.176 121.073 116.294ZM128.425 123.078C127.967 121.549 127.833 119.982 128.024 118.375C128.234 116.734 128.683 115.211 129.373 113.806C130.081 112.366 130.992 111.113 132.105 110.049C133.237 108.95 134.514 108.187 135.936 107.761C137.33 107.343 138.508 107.37 139.468 107.842C140.428 108.314 141.101 109.194 141.487 110.482C141.672 111.098 141.759 111.73 141.748 112.376C141.756 112.988 141.68 113.566 141.522 114.11C141.39 114.647 141.181 115.119 140.894 115.526C140.599 115.907 140.264 116.154 139.888 116.266C139.566 116.363 139.203 116.369 138.798 116.286C138.412 116.168 138.063 115.98 137.752 115.723C139.059 113.548 139.511 111.79 139.109 110.449C138.876 109.671 138.451 109.375 137.834 109.56C137.298 109.72 136.703 110.176 136.052 110.927C135.4 111.678 134.823 112.581 134.321 113.638C133.554 115.271 133.099 116.971 132.956 118.739C132.832 120.471 133.028 122.196 133.542 123.912C134.194 126.085 135.066 127.241 136.16 127.38C136.547 127.206 136.98 126.945 137.46 126.596C137.94 126.248 138.444 125.833 138.973 125.354C139.493 124.847 140.015 124.296 140.538 123.701C141.088 123.097 141.603 122.475 142.083 121.834C142.215 121.883 142.345 121.975 142.474 122.112C142.602 122.249 142.687 122.384 142.727 122.518C142.44 123.218 142.082 123.925 141.652 124.638C141.223 125.351 140.755 126.032 140.248 126.681C139.733 127.303 139.211 127.854 138.683 128.334C138.189 128.833 137.726 129.191 137.294 129.408C136.385 129.593 135.469 129.561 134.547 129.311C133.632 129.088 132.768 128.69 131.952 128.116C131.164 127.534 130.451 126.812 129.813 125.951C129.201 125.082 128.739 124.124 128.425 123.078ZM144.798 109.094C144.616 108.974 144.395 108.674 144.135 108.197C143.867 107.693 143.676 107.253 143.564 106.877C144.277 106.722 144.964 106.575 145.624 106.435C146.275 106.269 146.874 106.119 147.418 105.985C147.579 105.06 147.771 104.14 147.994 103.226C148.235 102.276 148.474 101.415 148.711 100.643C148.966 99.8359 149.212 99.1481 149.451 98.5795C149.717 98.003 149.937 97.6155 150.111 97.4171C150.379 97.3367 150.731 97.2898 151.165 97.2765C151.619 97.2284 152.084 97.2204 152.561 97.2527C153.031 97.2582 153.464 97.2891 153.861 97.3455C154.257 97.4019 154.547 97.4905 154.729 97.6112C154.23 98.8716 153.818 100.033 153.494 101.095C153.188 102.122 152.868 103.299 152.535 104.627C153.072 104.466 153.604 104.292 154.133 104.104C154.688 103.908 155.239 103.699 155.786 103.477C155.96 103.571 156.12 103.713 156.265 103.903C156.401 104.067 156.502 104.256 156.566 104.471C155.397 105.347 153.881 106.094 152.02 106.71C151.735 108.199 151.518 109.667 151.367 111.115C151.236 112.529 151.159 113.882 151.137 115.174C151.142 116.459 151.194 117.656 151.293 118.767C151.419 119.869 151.606 120.836 151.856 121.667C152.209 122.847 152.849 123.372 153.774 123.241C154.547 122.892 155.251 122.462 155.886 121.95C156.522 121.438 157.053 120.869 157.48 120.245C157.713 120.438 157.867 120.611 157.942 120.764C157.854 121.053 157.657 121.419 157.351 121.862C157.072 122.296 156.749 122.729 156.381 123.161C156.022 123.619 155.659 124.02 155.295 124.363C154.93 124.707 154.644 124.924 154.438 125.015C153.759 125.189 153.044 125.243 152.293 125.175C151.542 125.108 150.825 124.958 150.141 124.724C149.484 124.483 148.909 124.173 148.416 123.795C147.914 123.39 147.591 122.946 147.446 122.463C147.253 121.819 147.093 120.99 146.964 119.977C146.854 118.928 146.788 117.779 146.764 116.529C146.74 115.279 146.754 113.96 146.805 112.57C146.856 111.181 146.952 109.793 147.092 108.407L144.798 109.094ZM160.42 118.267C160.347 118.026 160.272 117.727 160.195 117.37C160.136 116.978 160.071 116.472 160.002 115.849C159.924 115.2 159.837 114.423 159.741 113.516C159.671 112.602 159.59 111.501 159.496 110.213C159.469 109.929 159.461 109.464 159.472 108.817C159.483 108.171 159.54 107.482 159.642 106.75C159.763 105.983 159.945 105.226 160.189 104.481C160.46 103.727 160.86 103.11 161.389 102.631C161.877 102.601 162.565 102.702 163.452 102.933C164.332 103.137 165.157 103.547 165.926 104.164C165.518 105.047 165.204 105.901 164.984 106.727C164.791 107.545 164.632 108.381 164.509 109.237C164.412 110.084 164.337 110.955 164.283 111.848C164.256 112.733 164.201 113.67 164.117 114.66C164.048 115.499 164.012 116.357 164.012 117.234C164.004 118.084 164.075 118.808 164.225 119.407C164.37 119.889 164.457 120.229 164.486 120.424C164.551 120.639 164.516 120.766 164.382 120.807C164.274 120.839 164.04 120.836 163.678 120.798C163.315 120.761 162.92 120.66 162.491 120.496C162.081 120.298 161.677 120.024 161.28 119.675C160.883 119.327 160.596 118.857 160.42 118.267ZM162.87 98.5034C162.822 98.3425 162.79 98.089 162.774 97.7431C162.599 97.6492 162.418 97.4842 162.231 97.2481C162.07 97.004 161.957 96.7747 161.893 96.5601C161.821 96.3188 161.751 95.9889 161.684 95.5705C161.636 95.1172 161.593 94.6331 161.556 94.1182C161.518 93.6033 161.504 93.0669 161.512 92.509C161.512 91.9244 161.528 91.3934 161.56 90.916C161.882 90.8195 162.299 90.7968 162.811 90.8479C163.342 90.8641 163.894 90.9474 164.465 91.0977C165.028 91.2212 165.563 91.397 166.07 91.625C166.569 91.8263 166.969 92.0423 167.272 92.273C167.066 92.6565 166.802 93.1888 166.48 93.8699C166.15 94.5242 165.845 95.2147 165.566 95.9415C165.279 96.6414 165.024 97.3024 164.801 97.9246C164.578 98.5467 164.446 98.9812 164.403 99.2279C164.065 99.2707 163.743 99.221 163.437 99.0788C163.123 98.9098 162.934 98.718 162.87 98.5034ZM175.865 118.11C174.288 118.407 172.866 118.103 171.601 117.196C170.335 116.289 169.429 114.924 168.882 113.1C168.56 112.027 168.388 110.866 168.364 109.616C168.34 108.366 168.462 107.116 168.731 105.867C168.991 104.59 169.379 103.349 169.894 102.142C170.409 100.935 171.032 99.8423 171.762 98.8636C172.907 97.3217 174.124 96.3578 175.411 95.9719C176.406 96.1706 177.536 96.8695 178.802 98.0686C178.936 98.0284 179.057 97.9923 179.164 97.9601C179.263 97.9011 179.38 97.8515 179.514 97.8113C180.935 97.3852 182.024 98.4328 182.78 100.954C183.286 102.644 183.487 104.337 183.382 106.035C183.296 107.698 182.941 109.295 182.319 110.826C181.723 112.349 180.87 113.745 179.759 115.013C178.668 116.247 177.369 117.279 175.865 118.11ZM174.118 104.822C173.847 105.576 173.618 106.375 173.433 107.219C173.248 108.064 173.12 108.906 173.05 109.746C172.973 110.558 172.958 111.337 173.006 112.083C173.046 112.802 173.146 113.429 173.307 113.966C173.5 114.609 173.792 115.194 174.184 115.72C174.575 116.246 174.917 116.509 175.209 116.509C176.336 115.879 177.287 115.053 178.062 114.031C178.856 112.975 179.45 111.788 179.845 110.471C180.266 109.147 180.469 107.727 180.453 106.211C180.464 104.688 180.233 103.135 179.758 101.553C179.549 100.855 179.344 100.318 179.143 99.9394C178.942 99.5612 178.704 99.2527 178.427 99.0139C177.352 99.7163 176.461 100.597 175.756 101.656C175.077 102.707 174.531 103.763 174.118 104.822ZM189.122 91.3358C189.884 91.3414 190.686 91.6272 191.528 92.1933C192.362 92.7325 193.059 93.4005 193.619 94.1971C193.541 95.0097 193.347 96.0181 193.035 97.2222C192.724 98.4263 192.42 99.6572 192.125 100.915C191.822 102.146 191.56 103.321 191.34 104.439C191.139 105.522 191.09 106.385 191.194 107.026C191.487 106.441 191.8 105.777 192.132 105.034C192.484 104.257 192.812 103.501 193.118 102.766C193.443 101.996 193.748 101.306 194.032 100.694C194.308 100.056 194.531 99.5799 194.7 99.2662C195.049 98.577 195.468 97.7793 195.956 96.8729C196.436 95.9397 196.959 95.0521 197.525 94.2101C198.11 93.3332 198.727 92.5637 199.376 91.9014C200.018 91.2123 200.66 90.7713 201.304 90.5783C202.001 90.3693 202.65 90.4378 203.251 90.7839C203.87 91.0952 204.39 91.4654 204.811 91.8946C204.827 91.9482 204.744 92.0609 204.562 92.2325C204.398 92.3692 204.193 92.7084 203.946 93.2501C203.715 93.8454 203.487 94.6446 203.262 95.6476C203.055 96.6157 202.872 97.6643 202.714 98.7933C202.574 99.8875 202.51 100.988 202.52 102.096C202.53 103.204 202.66 104.173 202.91 105.005C203.111 105.675 203.32 106.08 203.537 106.22C203.781 106.351 204.064 106.369 204.386 106.272C204.681 106.184 204.969 106.024 205.251 105.794C205.532 105.563 205.767 105.42 205.955 105.363C206.078 105.385 206.195 105.481 206.305 105.653C206.433 105.79 206.518 105.925 206.558 106.06C206.4 106.312 206.201 106.576 205.962 106.852C205.724 107.128 205.468 107.395 205.194 107.652C204.92 107.91 204.639 108.14 204.349 108.344C204.086 108.54 203.834 108.674 203.593 108.746C202.815 108.979 202.135 109.052 201.553 108.963C201.006 108.893 200.529 108.715 200.121 108.428C199.74 108.132 199.42 107.746 199.16 107.269C198.892 106.764 198.669 106.217 198.492 105.627C198.396 105.305 198.314 104.935 198.247 104.517C198.18 104.098 198.147 103.597 198.147 103.012C198.139 102.401 198.17 101.675 198.24 100.836C198.302 99.9697 198.4 98.9318 198.534 97.7223C198.481 97.7384 198.175 98.0347 197.617 98.6111C197.059 99.1876 196.508 99.9813 195.963 100.992C195.064 102.577 194.282 104.112 193.617 105.598C192.978 107.076 192.353 108.695 191.741 110.457C191.4 111.465 191.086 112.32 190.799 113.019C190.547 113.738 190.288 114.24 190.022 114.524C189.362 114.371 188.81 114.04 188.365 113.53C187.928 113.047 187.55 112.517 187.231 111.941C187.078 111.431 186.952 110.767 186.853 109.949C186.781 109.123 186.725 108.205 186.685 107.193C186.664 106.147 186.684 105.045 186.746 103.887C186.808 102.728 186.91 101.557 187.052 100.375C187.364 97.709 187.735 95.581 188.164 93.9907C188.621 92.3924 188.94 91.5074 189.122 91.3358Z" fill="#575757"/>
</svg>
