<svg width="173" height="126" viewBox="0 0 173 126" fill="none" xmlns="http://www.w3.org/2000/svg">
<path d="M160.896 0.76781C160.215 -0.102232 158.958 -0.255859 158.088 0.424667L143.91 11.5144C143.04 12.195 142.886 13.4519 143.567 14.322C144.247 15.192 145.504 15.3456 146.374 14.6651L158.977 4.80754L168.835 17.4102C169.515 18.2803 170.772 18.4339 171.642 17.7534C172.512 17.0729 172.666 15.8159 171.985 14.9459L160.896 0.76781ZM0.320312 121L0.00110417 122.974C42.1536 129.789 79.7209 122.497 108.179 101.934C136.652 81.3596 155.752 47.6841 161.306 2.24264L159.32 2L157.335 1.75737C151.889 46.3159 133.239 78.8904 105.836 98.6914C78.4197 118.503 41.9871 125.711 0.639521 119.026L0.320312 121Z" fill="#FF0000"/>
</svg>
