<svg width="927" height="669" viewBox="0 0 927 669" fill="none" xmlns="http://www.w3.org/2000/svg">
<g filter="url(#filter0_d_2714_66)">
<path d="M843.449 202.221L833.144 208.17V196.271L843.449 202.221ZM834.285 202.221V203.251H828.175V202.221V201.19H834.285V202.221ZM822.066 202.221V203.251H815.956V202.221V201.19H822.066V202.221ZM809.846 202.221V203.251H803.737V202.221V201.19H809.846V202.221ZM797.627 202.221V203.251H791.518V202.221V201.19H797.627V202.221ZM785.408 202.221V203.251H779.298V202.221V201.19H785.408V202.221ZM773.189 202.221V203.251H767.079V202.221V201.19H773.189V202.221ZM760.97 202.221V203.251H757.915V202.221V201.19H760.97V202.221Z" fill="#FF0000"/>
</g>
<g filter="url(#filter1_d_2714_66)">
<path d="M488.945 602.068L494.895 591.763L482.996 591.763L488.945 602.068ZM488.945 592.89L489.976 592.89L489.976 586.771L488.945 586.771L487.915 586.771L487.915 592.89L488.945 592.89ZM488.945 580.653L489.976 580.653L489.976 574.534L488.945 574.534L487.915 574.534L487.915 580.653L488.945 580.653ZM488.945 568.415L489.976 568.415L489.976 562.296L488.945 562.296L487.915 562.296L487.915 568.415L488.945 568.415ZM488.945 556.177L489.976 556.177L489.976 550.059L488.945 550.059L487.915 550.059L487.915 556.177L488.945 556.177ZM488.945 543.94L489.976 543.94L489.976 537.821L488.945 537.821L487.915 537.821L487.915 543.94L488.945 543.94ZM488.945 531.702L489.976 531.702L489.976 525.583L488.945 525.583L487.915 525.583L487.915 531.702L488.945 531.702ZM488.945 519.465L489.976 519.465L489.976 513.346L488.945 513.346L487.915 513.346L487.915 519.465L488.945 519.465ZM488.945 507.227L489.976 507.227L489.976 504.168L488.945 504.168L487.915 504.168L487.915 507.227L488.945 507.227Z" fill="#FF0000"/>
</g>
<g filter="url(#filter2_d_2714_66)">
<rect x="853.453" y="178.518" width="68.6107" height="45.6107" rx="7.21374" fill="black" shape-rendering="crispEdges"/>
<path d="M874.871 195.364L870.568 206.823H868.391L864.071 195.364H866.083L869.479 204.894L872.892 195.364H874.871ZM877.399 196.534C877.059 196.534 876.773 196.419 876.542 196.188C876.311 195.957 876.196 195.671 876.196 195.331C876.196 194.99 876.311 194.704 876.542 194.473C876.773 194.242 877.059 194.127 877.399 194.127C877.729 194.127 878.009 194.242 878.24 194.473C878.471 194.704 878.587 194.99 878.587 195.331C878.587 195.671 878.471 195.957 878.24 196.188C878.009 196.419 877.729 196.534 877.399 196.534ZM878.323 197.738V206.823H876.443V197.738H878.323ZM880.164 202.239C880.164 201.327 880.351 200.519 880.725 199.816C881.109 199.112 881.626 198.568 882.275 198.183C882.934 197.788 883.665 197.59 884.468 197.59C885.061 197.59 885.644 197.722 886.215 197.985C886.798 198.238 887.26 198.579 887.6 199.008V194.622H889.497V206.823H887.6V205.455C887.293 205.894 886.864 206.257 886.314 206.543C885.776 206.829 885.155 206.972 884.451 206.972C883.66 206.972 882.934 206.774 882.275 206.378C881.626 205.971 881.109 205.411 880.725 204.696C880.351 203.971 880.164 203.152 880.164 202.239ZM887.6 202.272C887.6 201.646 887.468 201.102 887.205 200.64C886.952 200.178 886.617 199.827 886.199 199.585C885.781 199.343 885.33 199.222 884.847 199.222C884.363 199.222 883.912 199.343 883.495 199.585C883.077 199.816 882.736 200.162 882.472 200.624C882.22 201.074 882.093 201.613 882.093 202.239C882.093 202.866 882.22 203.416 882.472 203.888C882.736 204.361 883.077 204.724 883.495 204.977C883.923 205.218 884.374 205.339 884.847 205.339C885.33 205.339 885.781 205.218 886.199 204.977C886.617 204.735 886.952 204.383 887.205 203.921C887.468 203.449 887.6 202.899 887.6 202.272ZM900.292 202.058C900.292 202.399 900.27 202.707 900.226 202.981H893.285C893.34 203.707 893.609 204.29 894.092 204.729C894.576 205.169 895.17 205.389 895.873 205.389C896.885 205.389 897.599 204.966 898.017 204.119H900.045C899.77 204.955 899.27 205.642 898.544 206.18C897.83 206.708 896.94 206.972 895.873 206.972C895.005 206.972 894.224 206.779 893.532 206.395C892.85 205.999 892.312 205.449 891.916 204.746C891.531 204.031 891.339 203.207 891.339 202.272C891.339 201.338 891.526 200.519 891.9 199.816C892.284 199.101 892.817 198.551 893.499 198.167C894.191 197.782 894.983 197.59 895.873 197.59C896.731 197.59 897.495 197.777 898.165 198.15C898.836 198.524 899.358 199.052 899.732 199.733C900.105 200.404 900.292 201.179 900.292 202.058ZM898.33 201.464C898.319 200.772 898.072 200.217 897.588 199.799C897.104 199.381 896.505 199.173 895.791 199.173C895.142 199.173 894.587 199.381 894.125 199.799C893.664 200.206 893.389 200.761 893.301 201.464H898.33ZM906.083 206.972C905.225 206.972 904.45 206.779 903.758 206.395C903.065 205.999 902.521 205.449 902.126 204.746C901.73 204.031 901.532 203.207 901.532 202.272C901.532 201.349 901.735 200.53 902.142 199.816C902.549 199.101 903.104 198.551 903.807 198.167C904.511 197.782 905.297 197.59 906.165 197.59C907.034 197.59 907.82 197.782 908.523 198.167C909.227 198.551 909.782 199.101 910.188 199.816C910.595 200.53 910.798 201.349 910.798 202.272C910.798 203.196 910.59 204.015 910.172 204.729C909.754 205.444 909.183 205.999 908.457 206.395C907.743 206.779 906.951 206.972 906.083 206.972ZM906.083 205.339C906.566 205.339 907.017 205.224 907.435 204.993C907.864 204.762 908.21 204.416 908.474 203.954C908.737 203.493 908.869 202.932 908.869 202.272C908.869 201.613 908.743 201.058 908.49 200.607C908.237 200.145 907.902 199.799 907.484 199.568C907.067 199.337 906.616 199.222 906.132 199.222C905.649 199.222 905.198 199.337 904.78 199.568C904.373 199.799 904.049 200.145 903.807 200.607C903.566 201.058 903.445 201.613 903.445 202.272C903.445 203.251 903.692 204.009 904.187 204.548C904.692 205.075 905.324 205.339 906.083 205.339Z" fill="white"/>
</g>
<g filter="url(#filter3_d_2714_66)">
<rect x="433.297" y="614.436" width="107.611" height="45.6107" rx="7.21374" fill="black" shape-rendering="crispEdges"/>
<path d="M451.747 640.4H446.949L446.124 642.741H444.162L448.268 631.265H450.444L454.55 642.741H452.571L451.747 640.4ZM451.219 638.866L449.356 633.541L447.476 638.866H451.219ZM460.919 633.508C461.633 633.508 462.271 633.656 462.832 633.953C463.403 634.25 463.848 634.689 464.167 635.272C464.486 635.854 464.645 636.558 464.645 637.382V642.741H462.782V637.663C462.782 636.849 462.579 636.228 462.172 635.8C461.765 635.36 461.21 635.14 460.507 635.14C459.803 635.14 459.243 635.36 458.825 635.8C458.418 636.228 458.215 636.849 458.215 637.663V642.741H456.335V633.656H458.215V634.695C458.523 634.321 458.913 634.03 459.385 633.821C459.869 633.612 460.38 633.508 460.919 633.508ZM467.999 632.452C467.659 632.452 467.373 632.337 467.142 632.106C466.911 631.875 466.796 631.589 466.796 631.249C466.796 630.908 466.911 630.622 467.142 630.391C467.373 630.16 467.659 630.045 467.999 630.045C468.329 630.045 468.609 630.16 468.84 630.391C469.071 630.622 469.187 630.908 469.187 631.249C469.187 631.589 469.071 631.875 468.84 632.106C468.609 632.337 468.329 632.452 467.999 632.452ZM468.923 633.656V642.741H467.043V633.656H468.923ZM482.388 633.508C483.103 633.508 483.74 633.656 484.301 633.953C484.873 634.25 485.318 634.689 485.637 635.272C485.966 635.854 486.131 636.558 486.131 637.382V642.741H484.268V637.663C484.268 636.849 484.065 636.228 483.658 635.8C483.251 635.36 482.696 635.14 481.993 635.14C481.289 635.14 480.729 635.36 480.311 635.8C479.904 636.228 479.701 636.849 479.701 637.663V642.741H477.838V637.663C477.838 636.849 477.634 636.228 477.228 635.8C476.821 635.36 476.266 635.14 475.562 635.14C474.859 635.14 474.298 635.36 473.88 635.8C473.474 636.228 473.27 636.849 473.27 637.663V642.741H471.391V633.656H473.27V634.695C473.578 634.321 473.968 634.03 474.441 633.821C474.914 633.612 475.419 633.508 475.958 633.508C476.683 633.508 477.332 633.662 477.904 633.969C478.475 634.277 478.915 634.722 479.223 635.305C479.497 634.755 479.926 634.321 480.509 634.002C481.091 633.673 481.718 633.508 482.388 633.508ZM487.897 638.157C487.897 637.245 488.084 636.437 488.457 635.734C488.842 635.03 489.359 634.486 490.007 634.101C490.667 633.705 491.392 633.508 492.184 633.508C492.898 633.508 493.519 633.651 494.047 633.936C494.585 634.211 495.014 634.557 495.333 634.975V633.656H497.229V642.741H495.333V641.389C495.014 641.818 494.58 642.175 494.03 642.461C493.481 642.747 492.854 642.89 492.151 642.89C491.37 642.89 490.656 642.692 490.007 642.296C489.359 641.889 488.842 641.329 488.457 640.614C488.084 639.889 487.897 639.07 487.897 638.157ZM495.333 638.19C495.333 637.564 495.201 637.02 494.937 636.558C494.684 636.096 494.349 635.745 493.931 635.503C493.514 635.261 493.063 635.14 492.579 635.14C492.096 635.14 491.645 635.261 491.227 635.503C490.81 635.734 490.469 636.08 490.205 636.542C489.952 636.992 489.826 637.531 489.826 638.157C489.826 638.784 489.952 639.334 490.205 639.806C490.469 640.279 490.81 640.642 491.227 640.894C491.656 641.136 492.107 641.257 492.579 641.257C493.063 641.257 493.514 641.136 493.931 640.894C494.349 640.653 494.684 640.301 494.937 639.839C495.201 639.367 495.333 638.817 495.333 638.19ZM501.891 635.189V640.218C501.891 640.559 501.968 640.807 502.122 640.96C502.287 641.103 502.562 641.175 502.946 641.175H504.101V642.741H502.617C501.77 642.741 501.122 642.543 500.671 642.148C500.22 641.752 499.995 641.109 499.995 640.218V635.189H498.923V633.656H499.995V631.397H501.891V633.656H504.101V635.189H501.891ZM506.789 632.452C506.449 632.452 506.163 632.337 505.932 632.106C505.701 631.875 505.586 631.589 505.586 631.249C505.586 630.908 505.701 630.622 505.932 630.391C506.163 630.16 506.449 630.045 506.789 630.045C507.119 630.045 507.399 630.16 507.63 630.391C507.861 630.622 507.976 630.908 507.976 631.249C507.976 631.589 507.861 631.875 507.63 632.106C507.399 632.337 507.119 632.452 506.789 632.452ZM507.713 633.656V642.741H505.833V633.656H507.713ZM514.121 642.89C513.264 642.89 512.489 642.697 511.796 642.313C511.104 641.917 510.56 641.367 510.164 640.664C509.768 639.949 509.57 639.125 509.57 638.19C509.57 637.267 509.774 636.448 510.181 635.734C510.587 635.019 511.142 634.469 511.846 634.085C512.549 633.7 513.335 633.508 514.204 633.508C515.072 633.508 515.858 633.7 516.562 634.085C517.265 634.469 517.82 635.019 518.227 635.734C518.634 636.448 518.837 637.267 518.837 638.19C518.837 639.114 518.628 639.933 518.21 640.647C517.793 641.362 517.221 641.917 516.496 642.313C515.781 642.697 514.99 642.89 514.121 642.89ZM514.121 641.257C514.605 641.257 515.056 641.142 515.473 640.911C515.902 640.68 516.248 640.334 516.512 639.872C516.776 639.411 516.908 638.85 516.908 638.19C516.908 637.531 516.781 636.976 516.529 636.525C516.276 636.063 515.941 635.717 515.523 635.486C515.105 635.255 514.654 635.14 514.171 635.14C513.687 635.14 513.236 635.255 512.819 635.486C512.412 635.717 512.088 636.063 511.846 636.525C511.604 636.976 511.483 637.531 511.483 638.19C511.483 639.169 511.73 639.927 512.225 640.466C512.731 640.993 513.363 641.257 514.121 641.257ZM525.279 633.508C525.994 633.508 526.631 633.656 527.192 633.953C527.763 634.25 528.208 634.689 528.527 635.272C528.846 635.854 529.005 636.558 529.005 637.382V642.741H527.142V637.663C527.142 636.849 526.939 636.228 526.532 635.8C526.125 635.36 525.57 635.14 524.867 635.14C524.163 635.14 523.603 635.36 523.185 635.8C522.778 636.228 522.575 636.849 522.575 637.663V642.741H520.695V633.656H522.575V634.695C522.883 634.321 523.273 634.03 523.746 633.821C524.229 633.612 524.74 633.508 525.279 633.508Z" fill="white"/>
</g>
<g filter="url(#filter4_d_2714_66)">
<path d="M98 266L108.305 271.95V260.05L98 266ZM108.125 266V267.031H114.875V266V264.969H108.125V266ZM121.625 266V267.031H128.375V266V264.969H121.625V266ZM135.125 266V267.031H141.875V266V264.969H135.125V266ZM148.625 266V267.031H152V266V264.969H148.625V266Z" fill="#FF0000"/>
</g>
<g filter="url(#filter5_d_2714_66)">
<path d="M98.375 119.779L108.68 125.729V113.83L98.375 119.779ZM107.79 119.779V120.81H114.067V119.779V118.749H107.79V119.779ZM120.344 119.779V120.81H126.621V119.779V118.749H120.344V119.779ZM132.898 119.779V120.81H139.175V119.779V118.749H132.898V119.779ZM145.452 119.779V120.81H151.729V119.779V118.749H145.452V119.779ZM158.005 119.779V120.81H164.282V119.779V118.749H158.005V119.779ZM170.559 119.779V120.81H176.836V119.779V118.749H170.559V119.779ZM183.113 119.779V120.81H189.39V119.779V118.749H183.113V119.779ZM195.667 119.779V120.81H201.944V119.779V118.749H195.667V119.779ZM208.221 119.779V120.81H214.497V119.779V118.749H208.221V119.779ZM220.774 119.779V120.81H227.051V119.779V118.749H220.774V119.779ZM233.328 119.779V120.81H239.605V119.779V118.749H233.328V119.779ZM245.882 119.779V120.81H252.159V119.779V118.749H245.882V119.779ZM258.436 119.779V120.81H264.713V119.779V118.749H258.436V119.779ZM270.989 119.779V120.81H277.266V119.779V118.749H270.989V119.779ZM283.543 119.779V120.81H289.82V119.779V118.749H283.543V119.779ZM296.097 119.779V120.81H302.374V119.779V118.749H296.097V119.779ZM308.651 119.779V120.81H314.928V119.779V118.749H308.651V119.779ZM321.205 119.779V120.81H327.481V119.779V118.749H321.205V119.779ZM333.758 119.779V120.81H340.035V119.779V118.749H333.758V119.779ZM346.312 119.779V120.81H352.589V119.779V118.749H346.312V119.779ZM358.866 119.779V120.81H365.143V119.779V118.749H358.866V119.779ZM371.42 119.779V120.81H374.558V119.779V118.749H371.42V119.779Z" fill="#FF0000"/>
</g>
<g filter="url(#filter6_d_2714_66)">
<path d="M474 227V228.031H475.031V227H474ZM428 225.969H426.969V228.031H428V227V225.969ZM474 26.5V25.4695H472.969V26.5H474ZM531 26.5L520.695 20.5502V32.4498L531 26.5ZM522.45 26.5V25.4695H516.75V26.5V27.5305H522.45V26.5ZM511.05 26.5V25.4695H505.35V26.5V27.5305H511.05V26.5ZM499.65 26.5V25.4695H493.95V26.5V27.5305H499.65V26.5ZM488.25 26.5V25.4695H482.55V26.5V27.5305H488.25V26.5ZM476.85 26.5V25.4695H474V26.5V27.5305H476.85V26.5ZM474 26.5H472.969V29.6328H474H475.031V26.5H474ZM474 35.8984H472.969V42.1641H474H475.031V35.8984H474ZM474 48.4297H472.969V54.6953H474H475.031V48.4297H474ZM474 60.9609H472.969V67.2266H474H475.031V60.9609H474ZM474 73.4922H472.969V79.7578H474H475.031V73.4922H474ZM474 86.0234H472.969V92.2891H474H475.031V86.0234H474ZM474 98.5547H472.969V104.82L474 104.82H475.031V98.5547H474ZM474 111.086L472.969 111.086V117.352L474 117.352H475.031V111.086H474ZM474 123.617L472.969 123.617V129.883H474H475.031V123.617H474ZM474 136.148H472.969V142.414H474H475.031V136.148H474ZM474 148.68H472.969V154.945H474H475.031V148.68H474ZM474 161.211H472.969V167.477H474H475.031V161.211H474ZM474 173.742H472.969V180.008H474H475.031V173.742H474ZM474 186.273H472.969V192.539H474H475.031V186.273H474ZM474 198.805H472.969V205.07H474H475.031V198.805H474ZM474 211.336H472.969V217.602H474H475.031V211.336H474ZM474 223.867H472.969V227H474H475.031V223.867H474ZM474 227V225.969H471.125V227V228.031H474V227ZM465.375 227V225.969H459.625V227V228.031H465.375V227ZM453.875 227V225.969H448.125V227V228.031H453.875V227ZM442.375 227V225.969H436.625V227V228.031H442.375V227ZM430.875 227V225.969H428V227V228.031H430.875V227Z" fill="#FF0000"/>
</g>
<g filter="url(#filter7_d_2714_66)">
<rect x="4" y="241" width="81" height="44" rx="7" fill="black" shape-rendering="crispEdges"/>
<path d="M17.0709 257.88V269H15.2469V257.88H17.0709ZM30.1376 260.04C30.831 260.04 31.4496 260.184 31.9936 260.472C32.5483 260.76 32.9803 261.187 33.2896 261.752C33.6096 262.317 33.7696 263 33.7696 263.8V269H31.9616V264.072C31.9616 263.283 31.7643 262.68 31.3696 262.264C30.975 261.837 30.4363 261.624 29.7536 261.624C29.071 261.624 28.527 261.837 28.1216 262.264C27.727 262.68 27.5296 263.283 27.5296 264.072V269H25.7216V264.072C25.7216 263.283 25.5243 262.68 25.1296 262.264C24.735 261.837 24.1963 261.624 23.5136 261.624C22.831 261.624 22.287 261.837 21.8816 262.264C21.487 262.68 21.2896 263.283 21.2896 264.072V269H19.4656V260.184H21.2896V261.192C21.5883 260.829 21.967 260.547 22.4256 260.344C22.8843 260.141 23.375 260.04 23.8976 260.04C24.6016 260.04 25.231 260.189 25.7856 260.488C26.3403 260.787 26.767 261.219 27.0656 261.784C27.3323 261.251 27.7483 260.829 28.3136 260.52C28.879 260.2 29.487 260.04 30.1376 260.04ZM35.4826 264.552C35.4826 263.667 35.664 262.883 36.0266 262.2C36.4 261.517 36.9013 260.989 37.5306 260.616C38.1706 260.232 38.8746 260.04 39.6426 260.04C40.336 260.04 40.9386 260.179 41.4506 260.456C41.9733 260.723 42.3893 261.059 42.6986 261.464V260.184H44.5386V269H42.6986V267.688C42.3893 268.104 41.968 268.451 41.4346 268.728C40.9013 269.005 40.2933 269.144 39.6106 269.144C38.8533 269.144 38.16 268.952 37.5306 268.568C36.9013 268.173 36.4 267.629 36.0266 266.936C35.664 266.232 35.4826 265.437 35.4826 264.552ZM42.6986 264.584C42.6986 263.976 42.5706 263.448 42.3146 263C42.0693 262.552 41.744 262.211 41.3386 261.976C40.9333 261.741 40.496 261.624 40.0266 261.624C39.5573 261.624 39.12 261.741 38.7146 261.976C38.3093 262.2 37.9786 262.536 37.7226 262.984C37.4773 263.421 37.3546 263.944 37.3546 264.552C37.3546 265.16 37.4773 265.693 37.7226 266.152C37.9786 266.611 38.3093 266.963 38.7146 267.208C39.1306 267.443 39.568 267.56 40.0266 267.56C40.496 267.56 40.9333 267.443 41.3386 267.208C41.744 266.973 42.0693 266.632 42.3146 266.184C42.5706 265.725 42.6986 265.192 42.6986 264.584ZM50.4864 260.04C51.169 260.04 51.7717 260.179 52.2944 260.456C52.8277 260.723 53.2437 261.059 53.5424 261.464V260.184H55.3824V269.144C55.3824 269.955 55.2117 270.675 54.8704 271.304C54.529 271.944 54.033 272.445 53.3824 272.808C52.7424 273.171 51.9744 273.352 51.0784 273.352C49.8837 273.352 48.8917 273.069 48.1024 272.504C47.313 271.949 46.865 271.192 46.7584 270.232H48.5664C48.705 270.691 48.9984 271.059 49.4464 271.336C49.905 271.624 50.449 271.768 51.0784 271.768C51.8144 271.768 52.4064 271.544 52.8544 271.096C53.313 270.648 53.5424 269.997 53.5424 269.144V267.672C53.233 268.088 52.8117 268.44 52.2784 268.728C51.7557 269.005 51.1584 269.144 50.4864 269.144C49.7184 269.144 49.0144 268.952 48.3744 268.568C47.745 268.173 47.2437 267.629 46.8704 266.936C46.5077 266.232 46.3264 265.437 46.3264 264.552C46.3264 263.667 46.5077 262.883 46.8704 262.2C47.2437 261.517 47.745 260.989 48.3744 260.616C49.0144 260.232 49.7184 260.04 50.4864 260.04ZM53.5424 264.584C53.5424 263.976 53.4144 263.448 53.1584 263C52.913 262.552 52.5877 262.211 52.1824 261.976C51.777 261.741 51.3397 261.624 50.8704 261.624C50.401 261.624 49.9637 261.741 49.5584 261.976C49.153 262.2 48.8224 262.536 48.5664 262.984C48.321 263.421 48.1984 263.944 48.1984 264.552C48.1984 265.16 48.321 265.693 48.5664 266.152C48.8224 266.611 49.153 266.963 49.5584 267.208C49.9744 267.443 50.4117 267.56 50.8704 267.56C51.3397 267.56 51.777 267.443 52.1824 267.208C52.5877 266.973 52.913 266.632 53.1584 266.184C53.4144 265.725 53.5424 265.192 53.5424 264.584ZM65.8581 264.376C65.8581 264.707 65.8368 265.005 65.7941 265.272H59.0581C59.1115 265.976 59.3728 266.541 59.8421 266.968C60.3115 267.395 60.8875 267.608 61.5701 267.608C62.5515 267.608 63.2448 267.197 63.6501 266.376H65.6181C65.3515 267.187 64.8661 267.853 64.1621 268.376C63.4688 268.888 62.6048 269.144 61.5701 269.144C60.7275 269.144 59.9701 268.957 59.2981 268.584C58.6368 268.2 58.1141 267.667 57.7301 266.984C57.3568 266.291 57.1701 265.491 57.1701 264.584C57.1701 263.677 57.3515 262.883 57.7141 262.2C58.0875 261.507 58.6048 260.973 59.2661 260.6C59.9381 260.227 60.7061 260.04 61.5701 260.04C62.4021 260.04 63.1435 260.221 63.7941 260.584C64.4448 260.947 64.9515 261.459 65.3141 262.12C65.6768 262.771 65.8581 263.523 65.8581 264.376ZM63.9541 263.8C63.9435 263.128 63.7035 262.589 63.2341 262.184C62.7648 261.779 62.1835 261.576 61.4901 261.576C60.8608 261.576 60.3221 261.779 59.8741 262.184C59.4261 262.579 59.1595 263.117 59.0741 263.8H63.9541ZM70.8531 269.144C70.1598 269.144 69.5358 269.021 68.9811 268.776C68.4371 268.52 68.0051 268.179 67.6851 267.752C67.3651 267.315 67.1945 266.829 67.1731 266.296H69.0611C69.0931 266.669 69.2691 266.984 69.5891 267.24C69.9198 267.485 70.3305 267.608 70.8211 267.608C71.3331 267.608 71.7278 267.512 72.0051 267.32C72.2931 267.117 72.4371 266.861 72.4371 266.552C72.4371 266.221 72.2771 265.976 71.9571 265.816C71.6478 265.656 71.1518 265.48 70.4691 265.288C69.8078 265.107 69.2691 264.931 68.8531 264.76C68.4371 264.589 68.0745 264.328 67.7651 263.976C67.4665 263.624 67.3171 263.16 67.3171 262.584C67.3171 262.115 67.4558 261.688 67.7331 261.304C68.0105 260.909 68.4051 260.6 68.9171 260.376C69.4398 260.152 70.0371 260.04 70.7091 260.04C71.7118 260.04 72.5171 260.296 73.1251 260.808C73.7438 261.309 74.0745 261.997 74.1171 262.872H72.2931C72.2611 262.477 72.1011 262.163 71.8131 261.928C71.5251 261.693 71.1358 261.576 70.6451 261.576C70.1651 261.576 69.7971 261.667 69.5411 261.848C69.2851 262.029 69.1571 262.269 69.1571 262.568C69.1571 262.803 69.2425 263 69.4131 263.16C69.5838 263.32 69.7918 263.448 70.0371 263.544C70.2825 263.629 70.6451 263.741 71.1251 263.88C71.7651 264.051 72.2878 264.227 72.6931 264.408C73.1091 264.579 73.4665 264.835 73.7651 265.176C74.0638 265.517 74.2185 265.971 74.2291 266.536C74.2291 267.037 74.0905 267.485 73.8131 267.88C73.5358 268.275 73.1411 268.584 72.6291 268.808C72.1278 269.032 71.5358 269.144 70.8531 269.144Z" fill="white"/>
</g>
<g filter="url(#filter8_d_2714_66)">
<rect x="18" y="99" width="67" height="44" rx="7" fill="black" shape-rendering="crispEdges"/>
<path d="M36.0915 124.728H31.4355L30.6355 127H28.7315L32.7155 115.864H34.8275L38.8115 127H36.8915L36.0915 124.728ZM35.5795 123.24L33.7715 118.072L31.9475 123.24H35.5795ZM48.5278 118.184V127H46.7038V125.96C46.4158 126.323 46.0371 126.611 45.5678 126.824C45.1091 127.027 44.6184 127.128 44.0958 127.128C43.4024 127.128 42.7784 126.984 42.2238 126.696C41.6798 126.408 41.2478 125.981 40.9278 125.416C40.6184 124.851 40.4638 124.168 40.4638 123.368V118.184H42.2718V123.096C42.2718 123.885 42.4691 124.493 42.8638 124.92C43.2584 125.336 43.7971 125.544 44.4798 125.544C45.1624 125.544 45.7011 125.336 46.0958 124.92C46.5011 124.493 46.7038 123.885 46.7038 123.096V118.184H48.5278ZM50.3264 122.552C50.3264 121.667 50.5077 120.883 50.8704 120.2C51.2437 119.517 51.745 118.989 52.3744 118.616C53.0144 118.232 53.7237 118.04 54.5024 118.04C55.0784 118.04 55.6437 118.168 56.1984 118.424C56.7637 118.669 57.2117 119 57.5424 119.416V115.16H59.3824V127H57.5424V125.672C57.2437 126.099 56.8277 126.451 56.2944 126.728C55.7717 127.005 55.169 127.144 54.4864 127.144C53.7184 127.144 53.0144 126.952 52.3744 126.568C51.745 126.173 51.2437 125.629 50.8704 124.936C50.5077 124.232 50.3264 123.437 50.3264 122.552ZM57.5424 122.584C57.5424 121.976 57.4144 121.448 57.1584 121C56.913 120.552 56.5877 120.211 56.1824 119.976C55.777 119.741 55.3397 119.624 54.8704 119.624C54.401 119.624 53.9637 119.741 53.5584 119.976C53.153 120.2 52.8224 120.536 52.5664 120.984C52.321 121.421 52.1984 121.944 52.1984 122.552C52.1984 123.16 52.321 123.693 52.5664 124.152C52.8224 124.611 53.153 124.963 53.5584 125.208C53.9744 125.443 54.4117 125.56 54.8704 125.56C55.3397 125.56 55.777 125.443 56.1824 125.208C56.5877 124.973 56.913 124.632 57.1584 124.184C57.4144 123.725 57.5424 123.192 57.5424 122.584ZM62.7061 117.016C62.3755 117.016 62.0981 116.904 61.8741 116.68C61.6501 116.456 61.5381 116.179 61.5381 115.848C61.5381 115.517 61.6501 115.24 61.8741 115.016C62.0981 114.792 62.3755 114.68 62.7061 114.68C63.0261 114.68 63.2981 114.792 63.5221 115.016C63.7461 115.24 63.8581 115.517 63.8581 115.848C63.8581 116.179 63.7461 116.456 63.5221 116.68C63.2981 116.904 63.0261 117.016 62.7061 117.016ZM63.6021 118.184V127H61.7781V118.184H63.6021ZM69.8209 127.144C68.9889 127.144 68.2369 126.957 67.5649 126.584C66.8929 126.2 66.3649 125.667 65.9809 124.984C65.5969 124.291 65.4049 123.491 65.4049 122.584C65.4049 121.688 65.6022 120.893 65.9969 120.2C66.3915 119.507 66.9302 118.973 67.6129 118.6C68.2955 118.227 69.0582 118.04 69.9009 118.04C70.7435 118.04 71.5062 118.227 72.1889 118.6C72.8715 118.973 73.4102 119.507 73.8049 120.2C74.1995 120.893 74.3969 121.688 74.3969 122.584C74.3969 123.48 74.1942 124.275 73.7889 124.968C73.3835 125.661 72.8289 126.2 72.1249 126.584C71.4315 126.957 70.6635 127.144 69.8209 127.144ZM69.8209 125.56C70.2902 125.56 70.7275 125.448 71.1329 125.224C71.5489 125 71.8849 124.664 72.1409 124.216C72.3969 123.768 72.5249 123.224 72.5249 122.584C72.5249 121.944 72.4022 121.405 72.1569 120.968C71.9115 120.52 71.5862 120.184 71.1809 119.96C70.7755 119.736 70.3382 119.624 69.8689 119.624C69.3995 119.624 68.9622 119.736 68.5569 119.96C68.1622 120.184 67.8475 120.52 67.6129 120.968C67.3782 121.405 67.2609 121.944 67.2609 122.584C67.2609 123.533 67.5009 124.269 67.9809 124.792C68.4715 125.304 69.0849 125.56 69.8209 125.56Z" fill="white"/>
</g>
<g filter="url(#filter9_d_2714_66)">
<rect x="541" width="42" height="44" rx="7" fill="black" shape-rendering="crispEdges"/>
<path d="M560.342 20.08C560.054 19.5253 559.654 19.1093 559.142 18.832C558.63 18.544 558.038 18.4 557.366 18.4C556.63 18.4 555.974 18.5653 555.398 18.896C554.822 19.2267 554.368 19.696 554.038 20.304C553.718 20.912 553.558 21.616 553.558 22.416C553.558 23.216 553.718 23.9253 554.038 24.544C554.368 25.152 554.822 25.6213 555.398 25.952C555.974 26.2827 556.63 26.448 557.366 26.448C558.358 26.448 559.163 26.1707 559.782 25.616C560.4 25.0613 560.779 24.3093 560.918 23.36H556.742V21.904H562.87V23.328C562.752 24.192 562.443 24.9867 561.942 25.712C561.451 26.4373 560.806 27.0187 560.006 27.456C559.216 27.8827 558.336 28.096 557.366 28.096C556.32 28.096 555.366 27.856 554.502 27.376C553.638 26.8853 552.95 26.208 552.438 25.344C551.936 24.48 551.686 23.504 551.686 22.416C551.686 21.328 551.936 20.352 552.438 19.488C552.95 18.624 553.638 17.952 554.502 17.472C555.376 16.9813 556.331 16.736 557.366 16.736C558.55 16.736 559.6 17.0293 560.518 17.616C561.446 18.192 562.118 19.0133 562.534 20.08H560.342ZM565.597 18.016C565.266 18.016 564.989 17.904 564.765 17.68C564.541 17.456 564.429 17.1787 564.429 16.848C564.429 16.5173 564.541 16.24 564.765 16.016C564.989 15.792 565.266 15.68 565.597 15.68C565.917 15.68 566.189 15.792 566.413 16.016C566.637 16.24 566.749 16.5173 566.749 16.848C566.749 17.1787 566.637 17.456 566.413 17.68C566.189 17.904 565.917 18.016 565.597 18.016ZM566.493 19.184V28H564.669V19.184H566.493ZM572.584 20.672H570.952V28H569.112V20.672H568.072V19.184H569.112V18.56C569.112 17.5467 569.378 16.8107 569.912 16.352C570.456 15.8827 571.304 15.648 572.456 15.648V17.168C571.901 17.168 571.512 17.2747 571.288 17.488C571.064 17.6907 570.952 18.048 570.952 18.56V19.184H572.584V20.672Z" fill="white"/>
</g>
<defs>
<filter id="filter0_d_2714_66" x="756.574" y="195.446" width="88.2145" height="14.5798" filterUnits="userSpaceOnUse" color-interpolation-filters="sRGB">
<feFlood flood-opacity="0" result="BackgroundImageFix"/>
<feColorMatrix in="SourceAlpha" type="matrix" values="0 0 0 0 0 0 0 0 0 0 0 0 0 0 0 0 0 0 127 0" result="hardAlpha"/>
<feOffset dy="0.515267"/>
<feGaussianBlur stdDeviation="0.669847"/>
<feComposite in2="hardAlpha" operator="out"/>
<feColorMatrix type="matrix" values="0 0 0 0 1 0 0 0 0 1 0 0 0 0 1 0 0 0 1 0"/>
<feBlend mode="normal" in2="BackgroundImageFix" result="effect1_dropShadow_2714_66"/>
<feBlend mode="normal" in="SourceGraphic" in2="effect1_dropShadow_2714_66" result="shape"/>
</filter>
<filter id="filter1_d_2714_66" x="481.656" y="503.344" width="14.5778" height="100.58" filterUnits="userSpaceOnUse" color-interpolation-filters="sRGB">
<feFlood flood-opacity="0" result="BackgroundImageFix"/>
<feColorMatrix in="SourceAlpha" type="matrix" values="0 0 0 0 0 0 0 0 0 0 0 0 0 0 0 0 0 0 127 0" result="hardAlpha"/>
<feOffset dy="0.515267"/>
<feGaussianBlur stdDeviation="0.669847"/>
<feComposite in2="hardAlpha" operator="out"/>
<feColorMatrix type="matrix" values="0 0 0 0 1 0 0 0 0 1 0 0 0 0 1 0 0 0 1 0"/>
<feBlend mode="normal" in2="BackgroundImageFix" result="effect1_dropShadow_2714_66"/>
<feBlend mode="normal" in="SourceGraphic" in2="effect1_dropShadow_2714_66" result="shape"/>
</filter>
<filter id="filter2_d_2714_66" x="849.331" y="178.518" width="76.8537" height="53.8546" filterUnits="userSpaceOnUse" color-interpolation-filters="sRGB">
<feFlood flood-opacity="0" result="BackgroundImageFix"/>
<feColorMatrix in="SourceAlpha" type="matrix" values="0 0 0 0 0 0 0 0 0 0 0 0 0 0 0 0 0 0 127 0" result="hardAlpha"/>
<feOffset dy="4.12214"/>
<feGaussianBlur stdDeviation="2.06107"/>
<feComposite in2="hardAlpha" operator="out"/>
<feColorMatrix type="matrix" values="0 0 0 0 0 0 0 0 0 0 0 0 0 0 0 0 0 0 0.09 0"/>
<feBlend mode="normal" in2="BackgroundImageFix" result="effect1_dropShadow_2714_66"/>
<feBlend mode="normal" in="SourceGraphic" in2="effect1_dropShadow_2714_66" result="shape"/>
</filter>
<filter id="filter3_d_2714_66" x="429.175" y="614.436" width="115.854" height="53.8546" filterUnits="userSpaceOnUse" color-interpolation-filters="sRGB">
<feFlood flood-opacity="0" result="BackgroundImageFix"/>
<feColorMatrix in="SourceAlpha" type="matrix" values="0 0 0 0 0 0 0 0 0 0 0 0 0 0 0 0 0 0 127 0" result="hardAlpha"/>
<feOffset dy="4.12214"/>
<feGaussianBlur stdDeviation="2.06107"/>
<feComposite in2="hardAlpha" operator="out"/>
<feColorMatrix type="matrix" values="0 0 0 0 0 0 0 0 0 0 0 0 0 0 0 0 0 0 0.09 0"/>
<feBlend mode="normal" in2="BackgroundImageFix" result="effect1_dropShadow_2714_66"/>
<feBlend mode="normal" in="SourceGraphic" in2="effect1_dropShadow_2714_66" result="shape"/>
</filter>
<filter id="filter4_d_2714_66" x="96.6603" y="259.225" width="56.6794" height="14.5798" filterUnits="userSpaceOnUse" color-interpolation-filters="sRGB">
<feFlood flood-opacity="0" result="BackgroundImageFix"/>
<feColorMatrix in="SourceAlpha" type="matrix" values="0 0 0 0 0 0 0 0 0 0 0 0 0 0 0 0 0 0 127 0" result="hardAlpha"/>
<feOffset dy="0.515267"/>
<feGaussianBlur stdDeviation="0.669847"/>
<feComposite in2="hardAlpha" operator="out"/>
<feColorMatrix type="matrix" values="0 0 0 0 1 0 0 0 0 1 0 0 0 0 1 0 0 0 1 0"/>
<feBlend mode="normal" in2="BackgroundImageFix" result="effect1_dropShadow_2714_66"/>
<feBlend mode="normal" in="SourceGraphic" in2="effect1_dropShadow_2714_66" result="shape"/>
</filter>
<filter id="filter5_d_2714_66" x="97.0353" y="113.005" width="278.863" height="14.5798" filterUnits="userSpaceOnUse" color-interpolation-filters="sRGB">
<feFlood flood-opacity="0" result="BackgroundImageFix"/>
<feColorMatrix in="SourceAlpha" type="matrix" values="0 0 0 0 0 0 0 0 0 0 0 0 0 0 0 0 0 0 127 0" result="hardAlpha"/>
<feOffset dy="0.515267"/>
<feGaussianBlur stdDeviation="0.669847"/>
<feComposite in2="hardAlpha" operator="out"/>
<feColorMatrix type="matrix" values="0 0 0 0 1 0 0 0 0 1 0 0 0 0 1 0 0 0 1 0"/>
<feBlend mode="normal" in2="BackgroundImageFix" result="effect1_dropShadow_2714_66"/>
<feBlend mode="normal" in="SourceGraphic" in2="effect1_dropShadow_2714_66" result="shape"/>
</filter>
<filter id="filter6_d_2714_66" x="425.629" y="19.7254" width="106.711" height="210.16" filterUnits="userSpaceOnUse" color-interpolation-filters="sRGB">
<feFlood flood-opacity="0" result="BackgroundImageFix"/>
<feColorMatrix in="SourceAlpha" type="matrix" values="0 0 0 0 0 0 0 0 0 0 0 0 0 0 0 0 0 0 127 0" result="hardAlpha"/>
<feOffset dy="0.515267"/>
<feGaussianBlur stdDeviation="0.669847"/>
<feComposite in2="hardAlpha" operator="out"/>
<feColorMatrix type="matrix" values="0 0 0 0 1 0 0 0 0 1 0 0 0 0 1 0 0 0 1 0"/>
<feBlend mode="normal" in2="BackgroundImageFix" result="effect1_dropShadow_2714_66"/>
<feBlend mode="normal" in="SourceGraphic" in2="effect1_dropShadow_2714_66" result="shape"/>
</filter>
<filter id="filter7_d_2714_66" x="0" y="241" width="89" height="52" filterUnits="userSpaceOnUse" color-interpolation-filters="sRGB">
<feFlood flood-opacity="0" result="BackgroundImageFix"/>
<feColorMatrix in="SourceAlpha" type="matrix" values="0 0 0 0 0 0 0 0 0 0 0 0 0 0 0 0 0 0 127 0" result="hardAlpha"/>
<feOffset dy="4"/>
<feGaussianBlur stdDeviation="2"/>
<feComposite in2="hardAlpha" operator="out"/>
<feColorMatrix type="matrix" values="0 0 0 0 0 0 0 0 0 0 0 0 0 0 0 0 0 0 0.09 0"/>
<feBlend mode="normal" in2="BackgroundImageFix" result="effect1_dropShadow_2714_66"/>
<feBlend mode="normal" in="SourceGraphic" in2="effect1_dropShadow_2714_66" result="shape"/>
</filter>
<filter id="filter8_d_2714_66" x="14" y="99" width="75" height="52" filterUnits="userSpaceOnUse" color-interpolation-filters="sRGB">
<feFlood flood-opacity="0" result="BackgroundImageFix"/>
<feColorMatrix in="SourceAlpha" type="matrix" values="0 0 0 0 0 0 0 0 0 0 0 0 0 0 0 0 0 0 127 0" result="hardAlpha"/>
<feOffset dy="4"/>
<feGaussianBlur stdDeviation="2"/>
<feComposite in2="hardAlpha" operator="out"/>
<feColorMatrix type="matrix" values="0 0 0 0 0 0 0 0 0 0 0 0 0 0 0 0 0 0 0.09 0"/>
<feBlend mode="normal" in2="BackgroundImageFix" result="effect1_dropShadow_2714_66"/>
<feBlend mode="normal" in="SourceGraphic" in2="effect1_dropShadow_2714_66" result="shape"/>
</filter>
<filter id="filter9_d_2714_66" x="537" y="0" width="50" height="52" filterUnits="userSpaceOnUse" color-interpolation-filters="sRGB">
<feFlood flood-opacity="0" result="BackgroundImageFix"/>
<feColorMatrix in="SourceAlpha" type="matrix" values="0 0 0 0 0 0 0 0 0 0 0 0 0 0 0 0 0 0 127 0" result="hardAlpha"/>
<feOffset dy="4"/>
<feGaussianBlur stdDeviation="2"/>
<feComposite in2="hardAlpha" operator="out"/>
<feColorMatrix type="matrix" values="0 0 0 0 0 0 0 0 0 0 0 0 0 0 0 0 0 0 0.09 0"/>
<feBlend mode="normal" in2="BackgroundImageFix" result="effect1_dropShadow_2714_66"/>
<feBlend mode="normal" in="SourceGraphic" in2="effect1_dropShadow_2714_66" result="shape"/>
</filter>
</defs>
</svg>
