<svg width="64" height="78" viewBox="0 0 64 78" fill="none" xmlns="http://www.w3.org/2000/svg">
<path d="M56.1224 57.13C56.3058 58.7791 55.9851 57.5166 58.4351 63.2309C41.056 68.3862 37.5229 70.3849 36.0604 73.253L35.1502 71.2209C34.0806 68.8329 32.8392 68.1653 27.3745 64.8532C21.3496 61.2039 21.2531 60.9476 19.3837 59.0164C18.7536 58.0093 16.7229 55.9057 18.5143 50.9029L22.0267 41.7837L15.2863 27.1433C13.9755 24.2168 14.3121 21.0053 17.2416 19.693C20.1742 18.3795 22.8476 19.8958 24.1585 22.8223L30.4756 36.9254C34.6017 34.6316 40.0214 33.6029 46.2215 34.4308C52.1027 35.2151 55.4009 38.1427 56.2953 48.4729C56.6126 52.1659 55.9406 55.4765 56.1224 57.13Z" fill="white"/>
<path d="M22.0267 41.7837L15.2863 27.1433C13.9755 24.2168 14.3121 21.0053 17.2416 19.693C20.1742 18.3795 22.8476 19.8958 24.1585 22.8223L30.4756 36.9254C34.6017 34.6316 40.0214 33.6029 46.2215 34.4308C52.1027 35.2151 55.4009 38.1427 56.2953 48.4729C56.6126 52.1659 55.9406 55.4765 56.1224 57.13C56.3058 58.7791 55.9851 57.5166 58.4351 63.2309C41.056 68.3862 37.5229 70.3849 36.0604 73.253L35.1502 71.2209C34.0806 68.8329 32.8392 68.1653 27.3745 64.8532C21.3496 61.2039 21.2531 60.9476 19.3837 59.0164C18.7536 58.0093 16.7229 55.9057 18.5143 50.9029L22.0267 41.7837ZM22.0267 41.7837L26.8327 52.5132" stroke="#FF0000" stroke-width="4" stroke-linecap="round" stroke-linejoin="round"/>
<path d="M6.99204 27.9139C5.53765 25.2051 4.77951 18.8973 8.47134 14.4678C9.88686 12.4093 14.4132 8.17939 20.9935 9.15467C27.4756 10.1228 29.942 14.7159 31.3365 16.973" stroke="#FF0000" stroke-width="4" stroke-linecap="round" stroke-linejoin="round"/>
</svg>
