<svg width="168" height="138" viewBox="0 0 168 138" fill="none" xmlns="http://www.w3.org/2000/svg">
<path d="M21.3607 35.6591C21.9346 35.7209 22.5421 35.8458 23.183 36.0336C23.8159 36.1947 24.4126 36.3812 24.973 36.5932C25.5335 36.8052 26.0135 37.0413 26.4131 37.3016C26.8314 37.527 27.0861 37.7429 27.1773 37.9494C26.6891 37.9788 26.2131 38.0484 25.7491 38.1583C25.2771 38.2413 24.8533 38.3391 24.4778 38.4517C23.2709 38.8135 22.1523 39.4703 21.1223 40.4221C20.119 41.3659 19.2337 42.5082 18.4664 43.849C17.6991 45.1898 17.0644 46.6808 16.5626 48.322C16.0607 49.9632 15.7076 51.6621 15.5034 53.4187C15.326 55.1673 15.2987 56.9293 15.4217 58.7048C15.5447 60.4802 15.8473 62.1726 16.3297 63.7818C16.9568 65.8739 17.7718 67.325 18.7746 68.1351C19.7775 68.9453 20.9494 69.1494 22.2905 68.7474C22.9342 68.5545 23.5913 68.2113 24.2619 67.718C24.9405 67.2515 25.6004 66.6737 26.2416 65.9846C26.8827 65.2955 27.4823 64.5165 28.0403 63.6477C28.5983 62.7789 29.0826 61.8591 29.4932 60.8884C30.0943 59.4805 30.5573 57.9533 30.8821 56.3066C31.199 54.6332 31.371 52.9155 31.3983 51.1535C31.4523 49.3834 31.3602 47.6133 31.1219 45.8432C30.9024 44.0382 30.5474 42.3177 30.057 40.6816C29.8641 40.0379 29.6899 39.5055 29.5344 39.0844C29.3709 38.6365 29.2181 38.2731 29.076 37.9941C28.9528 37.6803 28.8496 37.4336 28.7665 37.2538C28.6834 37.0741 28.6083 36.9212 28.5413 36.7952C28.9114 36.8596 29.3203 36.9563 29.7682 37.0851C30.2348 37.1791 30.6974 37.4058 31.1559 37.7653C31.6332 38.0899 32.0877 38.5822 32.5193 39.242C32.9778 39.8938 33.3799 40.7964 33.7256 41.9497C34.2884 43.8271 34.6151 45.7461 34.7058 47.7066C34.8154 49.6323 34.713 51.5337 34.3988 53.411C34.1114 55.2802 33.6443 57.0864 32.9976 58.8295C32.3509 60.5726 31.5714 62.1654 30.6592 63.6081C29.476 65.512 28.0891 67.1262 26.4985 68.4507C24.9078 69.7752 23.2676 70.6907 21.5779 71.1972C19.1103 71.9368 16.9823 71.7124 15.1937 70.5239C13.44 69.3542 12.1049 67.2405 11.1884 64.1829C10.698 62.5469 10.3538 60.7646 10.1557 58.8363C9.98453 56.8999 9.95548 54.9502 10.0686 52.987C10.2085 51.0159 10.4972 49.1024 10.9348 47.2466C11.3643 45.364 11.9346 43.6584 12.6457 42.1299C13.3755 40.5665 14.2488 39.2378 15.2655 38.1438C16.309 37.0418 17.4879 36.2938 18.8021 35.8999C19.2313 35.7712 19.6456 35.6909 20.0452 35.6588C20.4368 35.5999 20.8753 35.6 21.3607 35.6591ZM40.7817 40.4923C41.5433 40.4978 42.3451 40.7837 43.1871 41.3497C44.0211 41.889 44.7182 42.5569 45.2786 43.3536C45.2006 44.1662 45.0059 45.1746 44.6946 46.3787C44.3832 47.5828 44.0798 48.8137 43.7845 50.0714C43.4812 51.3024 43.2194 52.477 42.9993 53.5953C42.7979 54.6787 42.7494 55.541 42.8539 56.182C43.1463 55.5974 43.4589 54.9337 43.7916 54.1909C44.1431 53.4132 44.4719 52.657 44.7778 51.9222C45.1025 51.1526 45.407 50.462 45.6914 49.8506C45.9678 49.2124 46.1905 48.7364 46.3596 48.4227C46.7084 47.7335 47.1269 46.9357 47.6152 46.0293C48.0955 45.0961 48.6187 44.2086 49.1848 43.3666C49.7696 42.4897 50.3866 41.7201 51.0358 41.0579C51.677 40.3688 52.3194 39.9277 52.9631 39.7348C53.6604 39.5257 54.3094 39.5943 54.9101 39.9404C55.5296 40.2516 56.0498 40.6219 56.4707 41.0511C56.4868 41.1047 56.4036 41.2173 56.2212 41.3889C56.0576 41.5257 55.8524 41.8649 55.6055 42.4066C55.3747 43.0019 55.1466 43.8011 54.9211 44.804C54.7143 45.7722 54.5317 46.8208 54.3732 47.9498C54.2335 49.044 54.1689 50.1449 54.1794 51.2525C54.1898 52.3602 54.3197 53.3297 54.5689 54.1612C54.7699 54.8317 54.979 55.2367 55.1962 55.3762C55.4402 55.5077 55.7232 55.5252 56.045 55.4287C56.3401 55.3403 56.6284 55.1808 56.91 54.9502C57.1917 54.7196 57.4264 54.5762 57.6141 54.5199C57.7375 54.5414 57.8542 54.638 57.9641 54.8096C58.0928 54.9464 58.1772 55.0819 58.2174 55.216C58.0591 55.468 57.8606 55.7322 57.6219 56.0084C57.3831 56.2845 57.1269 56.5513 56.8533 56.8087C56.5797 57.0661 56.298 57.2967 56.0083 57.5005C55.7455 57.6962 55.4933 57.8302 55.2519 57.9026C54.4741 58.1357 53.7943 58.208 53.2123 58.1194C52.6652 58.0495 52.1879 57.871 51.7803 57.584C51.3995 57.2889 51.0791 56.9026 50.8191 56.4252C50.551 55.9209 50.3285 55.3738 50.1517 54.7837C50.0552 54.4618 49.9735 54.0917 49.9065 53.6733C49.8396 53.2549 49.8062 52.7534 49.8063 52.1687C49.7984 51.5573 49.8294 50.8318 49.8993 49.9924C49.9612 49.1261 50.0593 48.0883 50.1937 46.8788C50.1401 46.8948 49.8343 47.1911 49.2763 47.7676C48.7183 48.3441 48.167 49.1378 47.6223 50.1488C46.7235 51.7336 45.9414 53.2688 45.2759 54.7544C44.6373 56.232 44.0121 57.8517 43.4002 59.6136C43.0593 60.6219 42.7454 61.476 42.4582 62.176C42.206 62.8947 41.9471 63.3961 41.6815 63.6803C41.0218 63.5273 40.4694 63.196 40.0243 62.6863C39.5872 62.2035 39.2092 61.6737 38.8902 61.097C38.7374 60.5874 38.6116 59.9236 38.5125 59.1056C38.4403 58.2796 38.3842 57.361 38.3442 56.3499C38.323 55.304 38.3433 54.2017 38.4053 53.0431C38.4672 51.8845 38.5694 50.7139 38.7118 49.5312C39.0235 46.8655 39.3941 44.7375 39.8236 43.1472C40.2799 41.5489 40.5992 40.6639 40.7817 40.4923ZM71.2498 34.4726C71.641 36.1676 71.7761 37.691 71.6551 39.0426C71.526 40.3675 71.1422 41.6225 70.5037 42.8078C69.8839 43.9582 69.0388 45.0884 67.9685 46.1985C66.8981 47.3085 65.6052 48.4561 64.0896 49.6412C64.1379 49.8021 64.1767 49.9804 64.2062 50.1762C64.2544 50.3372 64.3067 50.5115 64.3629 50.6992C64.4675 51.0479 64.6028 51.402 64.769 51.7614C64.9352 52.1208 65.1336 52.4413 65.3642 52.723C65.5948 53.0046 65.8629 53.2166 66.1686 53.3588C66.4663 53.4742 66.8029 53.4756 67.1783 53.363C67.9025 53.146 68.565 52.772 69.1659 52.2411C69.7668 51.7102 70.3073 51.1243 70.7875 50.4835C71.2865 49.8077 71.7238 49.1213 72.0995 48.4241C72.4939 47.692 72.8373 47.0337 73.1298 46.4491C73.4703 46.6101 73.7666 46.7697 74.0187 46.928C73.2941 48.899 72.3685 50.638 71.2417 52.145C70.1338 53.6171 68.9803 54.6937 67.7813 55.3746C65.8664 55.7148 64.217 55.4784 62.8333 54.6654C61.4684 53.8176 60.5448 52.5891 60.0624 50.9799C59.7328 49.8802 59.5467 48.7229 59.5041 47.508C59.4802 46.2582 59.5797 45.0299 59.8026 43.8231C60.0442 42.5814 60.3865 41.3827 60.8292 40.2269C61.2988 39.0631 61.8449 38.0078 62.4673 37.0613C63.1165 36.1067 63.8234 35.2955 64.5879 34.6279C65.3792 33.9523 66.2174 33.4818 67.1025 33.2165C68.3845 33.0076 69.7669 33.4263 71.2498 34.4726ZM68.8718 36.6323C68.1798 36.9566 67.5172 37.4768 66.8841 38.1927C66.251 38.9086 65.7064 39.7734 65.2503 40.7871C64.8209 41.7927 64.4854 42.9164 64.2438 44.158C64.0021 45.3997 63.9053 46.6857 63.9532 48.0159C65.7773 46.2999 67.167 44.451 68.1222 42.4693C69.0694 40.4608 69.3192 38.5151 68.8718 36.6323ZM88.5102 20.8803C87.4373 21.2019 86.5174 21.1561 85.7505 20.7429C85.0023 20.2948 84.4996 19.6417 84.2424 18.7834C84.178 18.5688 84.1285 18.306 84.0937 17.9949C84.0857 17.6757 84.1032 17.3928 84.1462 17.1461C84.5431 17.2025 85.0889 17.1704 85.7835 17.0499C86.4969 16.8945 87.3096 16.6801 88.2215 16.4068C89.5894 15.9968 91.1155 15.4808 92.7999 14.859C94.5031 14.2023 96.1258 13.5698 97.668 12.9613C99.2103 12.3529 100.569 11.8142 101.744 11.3451C102.91 10.8492 103.668 10.549 104.017 10.4445C105.009 10.147 105.832 10.3095 106.487 10.9318C107.16 11.5193 107.788 12.3978 108.373 13.5672C107.659 13.7226 106.95 13.8914 106.245 14.0736C105.558 14.221 104.973 14.367 104.49 14.5117C103.632 14.769 102.769 15.0571 101.9 15.376C101.057 15.687 100.21 16.0287 99.3568 16.4013C99.2145 17.2917 99.0761 18.3416 98.9418 19.5511C98.7993 20.7338 98.673 21.9701 98.5628 23.2601C98.4793 24.542 98.4093 25.82 98.3527 27.0938C98.288 28.3409 98.2449 29.4646 98.2232 30.465C98.1637 32.412 98.1311 34.2049 98.1254 35.8435C98.1465 37.4741 98.1797 38.9988 98.2249 40.4176C98.289 41.8015 98.3772 43.1196 98.4895 44.3721C98.6019 45.6246 98.733 46.8422 98.8829 48.025C97.0055 48.2954 95.1659 47.6191 93.364 45.9962C93.3294 45.1004 93.3148 44.1255 93.3204 43.0715C93.3448 41.9827 93.3733 40.7611 93.4058 39.4067C93.457 38.0175 93.5271 36.4473 93.616 34.696C93.7049 32.9447 93.81 30.9548 93.9312 28.7261C93.9743 27.8947 94.0228 27.0325 94.0766 26.1394C94.1224 25.2196 94.1588 24.3171 94.1858 23.4321C94.2397 22.539 94.2613 21.6848 94.2508 20.8695C94.2671 20.0462 94.2632 19.302 94.2392 18.6368C93.1529 19.1086 92.1163 19.5509 91.1292 19.9637C90.161 20.3416 89.288 20.6471 88.5102 20.8803ZM115.793 21.559C116.062 21.4787 116.386 21.4398 116.767 21.4426C117.167 21.4105 117.538 21.4307 117.881 21.5032C118.217 21.5489 118.502 21.624 118.738 21.7287C119.001 21.8253 119.152 21.9406 119.193 22.0748C118.994 23.362 118.839 24.6507 118.729 25.9406C118.611 27.2038 118.548 28.4066 118.539 29.5491C118.531 30.6916 118.57 31.7469 118.655 32.7151C118.768 33.6753 118.924 34.4906 119.125 35.1611C119.35 35.9121 119.62 36.5183 119.934 36.9797C120.239 37.4142 120.612 37.6825 121.052 37.7845C120.794 38.0955 120.431 38.3945 119.961 38.6813C119.492 38.9682 119.056 39.1719 118.654 39.2925C117.205 39.7267 116.184 38.9513 115.589 36.9666C115.131 35.4378 115.013 33.193 115.236 30.2322C115.07 31.6268 114.803 32.9784 114.435 34.2871C114.059 35.569 113.634 36.7342 113.159 37.7827C112.684 38.8312 112.151 39.7362 111.561 40.4978C110.99 41.2244 110.412 41.7339 109.827 42.026C108.818 42.2699 107.873 42.0417 106.991 41.3415C106.101 40.6145 105.447 39.5537 105.028 38.159C104.578 36.657 104.426 34.9781 104.571 33.1222C104.716 31.2664 105.072 29.479 105.638 27.76C106.231 26.033 106.977 24.5232 107.876 23.2307C108.767 21.9114 109.754 21.0602 110.838 20.6769C111.13 20.677 111.473 20.7495 111.867 20.8944C112.288 21.0312 112.695 21.2164 113.086 21.4498C113.504 21.6752 113.873 21.9301 114.192 22.2144C114.503 22.4719 114.708 22.7174 114.808 22.9507C113.783 23.4332 112.827 24.2899 111.939 25.5207C111.077 26.7434 110.366 28.1258 109.806 29.6678C109.263 31.1749 108.91 32.7276 108.747 34.326C108.583 35.9244 108.685 37.3405 109.055 38.5742C109.208 39.0838 109.492 39.3494 109.908 39.371C110.638 38.9769 111.339 38.0505 112.013 36.5916C112.678 35.106 113.369 32.9258 114.086 30.0509C114.209 29.4878 114.344 28.8629 114.489 28.1764C114.66 27.4818 114.824 26.7604 114.98 26.0122C115.136 25.264 115.278 24.5198 115.407 23.7796C115.554 23.0045 115.683 22.2644 115.793 21.559ZM126.738 50.5054C126.331 50.5107 125.995 50.1727 125.733 49.4914C125.521 49.1749 125.316 48.7833 125.117 48.3166C124.946 47.8418 124.768 47.296 124.583 46.6791C124.414 46.1159 124.275 45.31 124.165 44.2613C124.063 43.2395 123.988 42.0634 123.94 40.7332C123.919 39.3949 123.937 37.9427 123.994 36.3764C124.042 34.7834 124.141 33.1609 124.289 31.5088C124.458 29.4411 124.61 27.6563 124.744 26.1545C124.871 24.6258 124.96 23.3131 125.011 22.2162C125.089 21.1112 125.139 20.2048 125.16 19.4967C125.209 18.7807 125.232 18.1746 125.229 17.6784C125.24 17.3244 125.284 16.8873 125.362 16.367C125.44 15.8467 125.545 15.3184 125.676 14.7821C125.827 14.2108 125.989 13.6799 126.163 13.1891C126.33 12.6715 126.502 12.2693 126.679 11.9824C127.658 11.8351 128.615 11.8112 129.551 11.9106C130.487 12.0101 131.097 12.1926 131.381 12.4581C131.11 12.9194 130.846 13.5978 130.588 14.4935C130.323 15.3624 130.094 16.3077 129.904 17.3295C129.705 18.3244 129.555 19.3341 129.452 20.3586C129.35 21.3831 129.31 22.2721 129.331 23.0258C129.463 22.4894 129.663 21.8887 129.931 21.2236C130.199 20.5586 130.635 19.624 131.239 18.42C131.926 17.1033 132.618 16.0482 133.316 15.2545C134.032 14.4259 134.712 13.9152 135.356 13.7222C136.375 13.4167 137.291 13.4491 138.103 13.8194C138.942 14.1817 139.495 14.8053 139.76 15.6904C140.339 17.6215 140.592 19.6357 140.519 21.733C140.438 23.8034 140.023 25.7839 139.275 27.6744C138.996 28.4012 138.628 29.1252 138.172 29.8465C137.716 30.5679 137.217 31.2436 136.675 31.8737C136.125 32.477 135.564 32.9959 134.993 33.4302C134.422 33.8645 133.881 34.1581 133.372 34.3108C132.889 34.4555 132.432 34.4903 132 34.4151C131.587 34.3051 131.269 34.1226 131.046 33.8678C131.908 32.9374 132.669 31.7736 133.332 30.3765C133.995 28.9793 134.529 27.4454 134.934 25.7747C135.359 24.0691 135.63 22.2924 135.748 20.4445C135.893 18.5887 135.87 16.7543 135.677 14.9412C134.819 15.7832 134.07 16.6506 133.432 17.5435C132.812 18.4016 132.253 19.4608 131.753 20.7212C131.142 22.1908 130.663 23.372 130.316 24.265C129.97 25.158 129.686 25.9156 129.463 26.5377C129.267 27.1519 129.117 27.7231 129.012 28.2514C128.926 28.7448 128.846 29.3536 128.77 30.0777C128.652 31.0485 128.551 32.3211 128.468 33.8954C128.403 35.4348 128.364 37.1565 128.35 39.0607C128.363 40.9568 128.395 42.9642 128.445 45.0829C128.53 47.2205 128.625 49.3405 128.729 51.4432C128.418 51.478 128.099 51.3398 127.772 51.0286C127.485 50.8515 127.272 50.7254 127.132 50.6503C127.02 50.5671 126.888 50.5188 126.738 50.5054ZM24.5035 118.745C24.3212 118.625 24.1 118.325 23.8399 117.848C23.5719 117.344 23.3815 116.904 23.269 116.528C23.9824 116.373 24.669 116.226 25.3288 116.086C25.9805 115.92 26.5786 115.77 27.1231 115.636C27.2842 114.711 27.4762 113.791 27.699 112.877C27.9406 111.927 28.1795 111.066 28.4157 110.294C28.6706 109.487 28.9175 108.799 29.1564 108.231C29.422 107.654 29.642 107.267 29.8164 107.068C30.0846 106.988 30.4359 106.941 30.8704 106.928C31.3237 106.879 31.789 106.871 32.2663 106.904C32.7357 106.909 33.1688 106.94 33.5657 106.997C33.9626 107.053 34.2522 107.142 34.4346 107.262C33.9355 108.523 33.5235 109.684 33.1988 110.746C32.8928 111.773 32.5734 112.95 32.2405 114.278C32.7769 114.117 33.3093 113.943 33.8377 113.755C34.3929 113.559 34.9441 113.35 35.4913 113.128C35.6656 113.222 35.8251 113.364 35.9699 113.554C36.1066 113.718 36.2071 113.907 36.2715 114.122C35.1019 114.998 33.5865 115.745 31.7251 116.361C31.4405 117.85 31.2229 119.318 31.0724 120.766C30.9407 122.18 30.8639 123.533 30.8422 124.825C30.8472 126.11 30.8992 127.307 30.9982 128.418C31.124 129.52 31.3115 130.487 31.5608 131.318C31.9145 132.498 32.554 133.023 33.4793 132.892C34.2518 132.543 34.9559 132.113 35.5916 131.601C36.2273 131.089 36.7585 130.52 37.1851 129.896C37.4183 130.089 37.5725 130.262 37.6476 130.415C37.559 130.704 37.3618 131.07 37.056 131.513C36.7769 131.947 36.4537 132.38 36.0861 132.812C35.7267 133.27 35.3645 133.671 34.9997 134.014C34.6349 134.358 34.3492 134.575 34.1427 134.666C33.4641 134.84 32.7494 134.894 31.9985 134.826C31.2475 134.759 30.5302 134.609 29.8463 134.375C29.1893 134.134 28.6141 133.824 28.1207 133.446C27.6193 133.041 27.2962 132.597 27.1515 132.114C26.9586 131.47 26.7978 130.641 26.6693 129.628C26.5596 128.579 26.4928 127.43 26.469 126.18C26.4451 124.93 26.4588 123.611 26.5101 122.222C26.5614 120.832 26.6569 119.444 26.7967 118.058L24.5035 118.745ZM46.0619 130.611C44.4848 130.908 43.0635 130.604 41.7978 129.697C40.5322 128.79 39.626 127.425 39.0793 125.601C38.7577 124.528 38.585 123.367 38.5612 122.117C38.5373 120.867 38.6596 119.617 38.9281 118.368C39.1885 117.091 39.5764 115.85 40.0916 114.643C40.6068 113.436 41.2292 112.343 41.9589 111.365C43.1045 109.823 44.3209 108.859 45.6083 108.473C46.6033 108.672 47.7335 109.371 48.9991 110.57C49.1332 110.529 49.2539 110.493 49.3612 110.461C49.4605 110.402 49.5771 110.353 49.7112 110.312C51.1327 109.886 52.2214 110.934 52.9771 113.455C53.4836 115.145 53.6843 116.838 53.5794 118.536C53.4932 120.199 53.1388 121.796 52.5162 123.327C51.9205 124.85 51.0673 126.246 49.9567 127.514C48.8649 128.748 47.5666 129.78 46.0619 130.611ZM44.315 117.323C44.0439 118.077 43.8158 118.876 43.6305 119.72C43.4453 120.565 43.3177 121.407 43.2478 122.247C43.1698 123.059 43.1549 123.838 43.203 124.584C43.243 125.303 43.3435 125.93 43.5043 126.467C43.6972 127.11 43.9894 127.695 44.3809 128.221C44.7723 128.747 45.1142 129.01 45.4065 129.01C46.5331 128.38 47.484 127.554 48.2593 126.532C49.0534 125.476 49.6477 124.289 50.0422 122.972C50.4636 121.648 50.6664 120.228 50.6507 118.712C50.6617 117.189 50.4301 115.636 49.9558 114.054C49.7467 113.356 49.5417 112.819 49.3406 112.44C49.1396 112.062 48.901 111.754 48.6248 111.515C47.5492 112.217 46.6586 113.098 45.953 114.157C45.2742 115.208 44.7282 116.264 44.315 117.323ZM86.5011 87.4022C86.7183 87.8341 86.8684 88.1398 86.9515 88.3195C87.0533 88.4644 87.1485 88.6843 87.2369 88.9794C87.5022 89.8645 87.5503 90.7562 87.3811 91.6546C87.2308 92.5181 86.8685 93.2113 86.2945 93.7342C85.541 93.1708 84.699 92.7509 83.7684 92.4744C82.8298 92.1712 81.8429 91.9993 80.8077 91.9588C79.7913 91.8835 78.7628 91.9141 77.7221 92.0507C76.6815 92.1872 75.6919 92.3962 74.7531 92.6775C73.8144 92.9589 72.9534 93.3047 72.1702 93.7149C71.4058 94.0901 70.7419 94.5084 70.1786 94.9695C69.6341 95.3958 69.2303 95.853 68.9674 96.341C68.7313 96.8211 68.6856 97.3025 68.8303 97.7852C69.0876 98.3512 69.6306 98.8461 70.4592 99.27C71.2798 99.6672 72.2479 100.02 73.3635 100.329C74.471 100.611 75.6725 100.864 76.9678 101.09C78.2899 101.307 79.5772 101.506 80.8296 101.686C82.3904 101.92 83.7515 102.17 84.9127 102.435C86.0658 102.674 87.0648 103.033 87.9094 103.51C88.7461 103.961 89.45 104.554 90.021 105.289C90.5921 106.024 91.0545 106.981 91.4083 108.161C91.8183 109.529 91.9762 110.885 91.882 112.229C91.7798 113.545 91.4188 114.779 90.799 115.929C90.2061 117.072 89.3651 118.069 88.276 118.922C87.195 119.801 85.8901 120.47 84.3613 120.928C82.8593 121.379 81.1683 121.637 79.2883 121.704C77.4083 121.77 75.5832 121.63 73.8133 121.284C72.0781 120.956 70.5482 120.436 69.2235 119.722C67.9176 118.973 67.0918 118.023 66.7461 116.869C66.5853 116.333 66.5278 115.605 66.5736 114.685C66.6462 113.757 66.9482 112.716 67.4795 111.563C67.8011 112.344 68.5157 113.167 69.6231 114.034C70.7573 114.892 72.2564 115.554 74.1202 116.018C75.8526 116.434 77.5569 116.61 79.2332 116.546C80.9281 116.447 82.4596 116.193 83.8274 115.783C85.3294 115.333 86.4935 114.779 87.3197 114.122C88.1459 113.465 88.7508 112.802 89.1345 112.131C89.5101 111.434 89.7248 110.785 89.7786 110.184C89.8323 109.584 89.8244 109.118 89.7547 108.789C89.5671 108.26 89.1596 107.827 88.5321 107.489C87.9234 107.116 87.1484 106.822 86.2071 106.607C85.2845 106.358 84.2279 106.148 83.0372 105.979C81.8465 105.81 80.6155 105.653 79.3443 105.508C77.4295 105.263 75.7587 105.004 74.332 104.73C72.924 104.421 71.7173 104.052 70.7117 103.623C69.7248 103.159 68.9311 102.607 68.3305 101.969C67.7567 101.322 67.3251 100.516 67.0357 99.5509C66.5855 98.0489 66.6153 96.4907 67.1253 94.8763C67.6352 93.2619 68.6439 91.8488 70.1514 90.6369C70.8971 90.0041 71.7287 89.4626 72.646 89.0122C73.5901 88.5538 74.5316 88.1839 75.4703 87.9026C77.2405 87.3719 79.0428 87.0948 80.8772 87.0711C82.7117 87.0473 84.5863 87.1577 86.5011 87.4022ZM95.8869 113.396C95.6055 112.457 95.3698 111.329 95.1797 110.012C94.9815 108.669 94.8397 107.22 94.7542 105.668C94.6956 104.107 94.6705 102.463 94.6789 100.736C94.7142 99.0004 94.8031 97.2491 94.9457 95.4818C95.056 93.8995 95.2427 92.2796 95.5059 90.6223C95.796 88.9569 96.1477 87.3022 96.5611 85.6583C96.9745 84.0144 97.4348 82.4295 97.942 80.9036C98.4761 79.3696 99.0423 77.943 99.6406 76.6236C100.07 76.495 100.542 76.412 101.057 76.3745C101.599 76.3291 102.126 76.3319 102.638 76.3829C103.169 76.3992 103.658 76.4717 104.106 76.6005C104.581 76.7213 104.975 76.8662 105.289 77.0353C103.896 79.7034 102.713 82.3382 101.739 84.9394C100.757 87.5138 100.073 89.867 99.6894 91.9991C99.4853 93.171 99.3014 94.2638 99.1375 95.2776C99.0005 96.2833 98.8903 97.2809 98.807 98.2705C98.7156 99.2333 98.655 100.201 98.6253 101.175C98.6143 102.114 98.6329 103.102 98.6809 104.14C101.861 96.0251 104.698 91.5939 107.192 90.8462C107.89 90.6372 108.709 90.6401 109.65 90.8548C110.592 91.0696 111.487 91.4734 112.337 92.0663C111.779 93.2275 111.251 94.5844 110.751 96.1371C110.252 97.6898 109.824 99.2358 109.467 100.775C109.129 102.28 108.887 103.667 108.742 104.939C108.616 106.175 108.633 107.061 108.794 107.598C108.874 107.866 108.971 108.042 109.083 108.125C109.188 108.181 109.374 108.169 109.642 108.089C110.045 107.968 110.35 107.818 110.56 107.638C110.769 107.459 110.9 107.361 110.954 107.345C111.152 107.519 111.277 107.643 111.328 107.715C111.379 107.787 111.412 107.851 111.429 107.904C111.461 108.011 111.348 108.221 111.09 108.532C110.825 108.816 110.496 109.134 110.105 109.485C109.732 109.801 109.355 110.104 108.974 110.394C108.593 110.683 108.295 110.86 108.081 110.925C107.813 111.005 107.52 111.005 107.204 110.924C106.895 110.871 106.598 110.755 106.311 110.578C106.051 110.393 105.809 110.173 105.587 109.918C105.391 109.655 105.245 109.363 105.149 109.041C105.028 108.639 104.958 108.017 104.94 107.175C104.94 106.298 104.984 105.276 105.073 104.109C105.154 102.916 105.287 101.604 105.472 100.175C105.658 98.7454 105.875 97.2771 106.125 95.77C106.093 95.6627 106.023 95.6251 105.916 95.6573C105.836 95.6814 105.653 95.853 105.369 96.1721C105.111 96.4831 104.867 96.7901 104.636 97.0931C103.888 98.1067 103.178 99.2987 102.507 100.669C101.855 102.004 101.249 103.443 100.688 104.985C100.154 106.519 99.6844 108.121 99.279 109.792C98.8925 111.428 98.6172 113.045 98.4532 114.644C98.429 114.855 98.3606 115.066 98.2479 115.275C98.1352 115.484 98.0252 115.605 97.918 115.637C97.8375 115.661 97.6887 115.603 97.4715 115.464C97.2811 115.316 97.0746 115.115 96.8521 114.86C96.6644 114.624 96.4727 114.375 96.277 114.112C96.0813 113.849 95.9512 113.61 95.8869 113.396ZM125.924 87.4238C126.192 87.3434 126.516 87.3046 126.897 87.3074C127.297 87.2753 127.668 87.2955 128.012 87.368C128.347 87.4136 128.632 87.4888 128.868 87.5934C129.131 87.6901 129.283 87.8054 129.323 87.9395C129.124 89.2268 128.97 90.5154 128.859 91.8054C128.741 93.0685 128.678 94.2714 128.669 95.4139C128.661 96.5564 128.7 97.6117 128.785 98.5799C128.898 99.54 129.055 100.355 129.256 101.026C129.481 101.777 129.75 102.383 130.064 102.844C130.369 103.279 130.742 103.547 131.182 103.649C130.924 103.96 130.561 104.259 130.091 104.546C129.622 104.833 129.186 105.037 128.784 105.157C127.336 105.591 126.314 104.816 125.719 102.831C125.261 101.303 125.143 99.0578 125.367 96.097C125.2 97.4915 124.933 98.8432 124.565 100.152C124.189 101.434 123.764 102.599 123.289 103.647C122.814 104.696 122.281 105.601 121.691 106.363C121.12 107.089 120.542 107.599 119.957 107.891C118.949 108.135 118.003 107.906 117.121 107.206C116.231 106.479 115.577 105.418 115.159 104.024C114.708 102.522 114.556 100.843 114.701 98.987C114.846 97.1311 115.202 95.3437 115.769 93.6247C116.362 91.8977 117.108 90.388 118.006 89.0955C118.897 87.7762 119.884 86.9249 120.968 86.5417C121.26 86.5417 121.603 86.6142 121.997 86.7591C122.419 86.896 122.825 87.0812 123.216 87.3146C123.635 87.5399 124.003 87.7948 124.322 88.0792C124.633 88.3367 124.839 88.5821 124.938 88.8155C123.913 89.298 122.957 90.1547 122.069 91.3855C121.208 92.6082 120.497 93.9906 119.936 95.5325C119.394 97.0397 119.041 98.5924 118.877 100.191C118.713 101.789 118.816 103.205 119.185 104.439C119.338 104.949 119.622 105.214 120.038 105.236C120.768 104.842 121.469 103.915 122.143 102.456C122.808 100.971 123.499 98.7905 124.216 95.9157C124.34 95.3525 124.474 94.7277 124.619 94.0411C124.791 93.3466 124.954 92.6252 125.11 91.8769C125.266 91.1287 125.408 90.3845 125.537 89.6443C125.685 88.8693 125.814 88.1291 125.924 87.4238ZM134.607 101.658C134.508 100.84 134.43 99.7525 134.374 98.3954C134.337 97.0035 134.333 95.5284 134.363 93.9702C134.385 92.3852 134.434 90.7922 134.509 89.1911C134.585 87.59 134.691 86.1405 134.828 84.8424C134.927 83.9065 135.043 83.1703 135.174 82.634C135.298 82.0708 135.472 81.58 135.698 81.1617C136.089 81.1028 136.506 81.0801 136.949 81.0936C137.391 81.1071 137.829 81.1515 138.26 81.2267C138.692 81.3019 139.088 81.4025 139.447 81.5287C139.798 81.628 140.083 81.7474 140.3 81.8869C139.833 82.9622 139.483 84.1341 139.249 85.4026C139.042 86.6631 138.914 88.236 138.866 90.1214C139.928 88.3998 140.832 86.7842 141.578 85.2744C142.351 83.7567 143.003 82.1289 143.534 80.3911C143.655 80.2088 143.917 80.0573 144.319 79.9367C144.695 79.8242 145.077 79.7827 145.466 79.8123C145.846 79.815 146.136 79.9036 146.334 80.078C146.238 81.5101 146.378 82.8565 146.756 84.117C147.11 85.2972 147.549 86.13 148.075 86.6155C148.096 86.7845 148.001 87.1492 147.789 87.7097C147.604 88.2621 147.37 88.7998 147.089 89.3227C146.252 89.1643 145.455 88.8476 144.699 88.3728C143.935 87.8711 143.302 87.2715 142.801 86.5741C141.806 87.8371 140.994 89.0303 140.366 90.1539C139.73 91.2507 139.247 92.4185 138.917 93.6575C138.606 94.8616 138.423 96.2025 138.369 97.6802C138.342 99.1499 138.405 100.87 138.557 102.842C138.308 102.887 137.984 102.882 137.588 102.825C137.225 102.788 136.838 102.714 136.425 102.604C136.039 102.486 135.675 102.346 135.335 102.185C134.994 102.024 134.752 101.848 134.607 101.658ZM161.45 76.3363C161.841 78.0314 161.976 79.5547 161.855 80.9064C161.726 82.2312 161.342 83.4863 160.704 84.6715C160.084 85.8219 159.239 86.9522 158.169 88.0622C157.098 89.1723 155.805 90.3199 154.29 91.5049C154.338 91.6658 154.377 91.8442 154.406 92.04C154.455 92.2009 154.507 92.3752 154.563 92.563C154.668 92.9117 154.803 93.2657 154.969 93.6251C155.135 93.9845 155.334 94.3051 155.564 94.5867C155.795 94.8684 156.063 95.0803 156.369 95.2225C156.667 95.3379 157.003 95.3393 157.379 95.2268C158.103 95.0097 158.765 94.6357 159.366 94.1048C159.967 93.574 160.508 92.9881 160.988 92.3472C161.487 91.6715 161.924 90.985 162.3 90.2878C162.694 89.5557 163.038 88.8974 163.33 88.3128C163.671 88.4738 163.967 88.6335 164.219 88.7918C163.494 90.7628 162.569 92.5018 161.442 94.0088C160.334 95.4809 159.181 96.5574 157.982 97.2383C156.067 97.5785 154.417 97.3421 153.034 96.5292C151.669 95.6814 150.745 94.4529 150.263 92.8436C149.933 91.7439 149.747 90.5867 149.704 89.3717C149.68 88.122 149.78 86.8937 150.003 85.6869C150.244 84.4452 150.587 83.2465 151.029 82.0906C151.499 80.9268 152.045 79.8716 152.668 78.925C153.317 77.9704 154.024 77.1593 154.788 76.4917C155.579 75.816 156.418 75.3455 157.303 75.0802C158.585 74.8713 159.967 75.29 161.45 76.3363ZM159.072 78.496C158.38 78.8204 157.717 79.3405 157.084 80.0565C156.451 80.7724 155.907 81.6372 155.45 82.6508C155.021 83.6565 154.686 84.7801 154.444 86.0218C154.202 87.2634 154.106 88.5494 154.153 89.8796C155.978 88.1636 157.367 86.3148 158.322 84.3331C159.27 82.3245 159.519 80.3789 159.072 78.496Z" fill="#606854"/>
</svg>
