<svg width="350" height="57" viewBox="0 0 350 57" fill="none" xmlns="http://www.w3.org/2000/svg">
<path d="M0 10.5406C0 4.7451 4.69822 0.046875 10.4938 0.046875H46.2545C52.0501 0.046875 56.7483 4.7451 56.7483 10.5406V46.3014C56.7483 52.097 52.0501 56.7952 46.2545 56.7952H10.4938C4.69822 56.7952 0 52.097 0 46.3014V10.5406Z" fill="#00AC47"/>
<g clip-path="url(#clip0_2702_65)">
<path d="M6.7325 28.2354C6.73132 32.0494 7.72774 35.7727 9.62208 39.0546L6.55078 50.2683L18.0267 47.2593C21.1887 48.9833 24.7488 49.8923 28.3714 49.8937H28.3807C40.3113 49.8937 50.0235 40.1845 50.0286 28.2527C50.0306 22.4702 47.7806 17.0326 43.6937 12.9421C39.6063 8.85213 34.1716 6.59808 28.3807 6.5957C16.4481 6.5957 6.73726 16.3035 6.7325 28.2354ZM13.5668 38.4894L13.1383 37.8092C11.3371 34.9451 10.3863 31.6354 10.3877 28.2368C10.3914 18.3193 18.4627 10.2506 28.3875 10.2506C33.1938 10.2526 37.7108 12.1262 41.1082 15.5256C44.5054 18.9254 46.3748 23.4447 46.3736 28.2514C46.3691 38.1689 38.2977 46.2386 28.3807 46.2386H28.3736C25.1445 46.2369 21.9776 45.3698 19.2157 43.731L18.5585 43.3412L11.7484 45.1267L13.5668 38.4894Z" fill="white"/>
<path d="M22.9721 19.1874C22.5669 18.2868 22.1404 18.2686 21.755 18.2528C21.4395 18.2392 21.0788 18.2403 20.7184 18.2403C20.3576 18.2403 19.7715 18.376 19.2761 18.9169C18.7802 19.4583 17.3828 20.7667 17.3828 23.4279C17.3828 26.089 19.3211 28.661 19.5913 29.0222C19.8619 29.3828 23.3333 35.0186 28.8312 37.1867C33.4005 38.9885 34.3303 38.6302 35.322 38.5398C36.3138 38.4498 38.5224 37.2317 38.9729 35.9687C39.4239 34.7058 39.4239 33.6232 39.2887 33.397C39.1535 33.1717 38.7927 33.0363 38.2518 32.7659C37.7109 32.4955 35.0514 31.1868 34.5557 31.0063C34.0598 30.8259 33.6992 30.7359 33.3385 31.2775C32.9778 31.8182 31.9419 33.0363 31.6262 33.397C31.3108 33.7586 30.9951 33.8036 30.4543 33.5331C29.9131 33.2617 28.1711 32.6912 26.1044 30.8486C24.4964 29.4149 23.4108 27.6444 23.0952 27.1028C22.7797 26.562 23.0614 26.2689 23.3326 25.9993C23.5757 25.757 23.8737 25.3677 24.1445 25.052C24.4142 24.7361 24.5042 24.5107 24.6845 24.15C24.8651 23.7889 24.7747 23.473 24.6397 23.2025C24.5042 22.9319 23.4531 20.2569 22.9721 19.1874Z" fill="white"/>
</g>
<path d="M73.2891 10.5406C73.2891 4.7451 77.9873 0.046875 83.7828 0.046875H119.544C125.339 0.046875 130.037 4.7451 130.037 10.5406V46.3014C130.037 52.097 125.339 56.7952 119.544 56.7952H83.7828C77.9873 56.7952 73.2891 52.097 73.2891 46.3014V10.5406Z" fill="black"/>
<g clip-path="url(#clip1_2702_65)">
<path d="M104.509 26.0834L115.64 13.1445H113.002L103.338 24.3789L95.6183 13.1445H86.7148L98.388 30.1331L86.7148 43.7013H89.3528L99.5592 31.8374L107.711 43.7013H116.615L104.509 26.0834H104.509ZM100.897 30.2826L99.7137 28.591L90.3031 15.1302H94.3548L101.949 25.9937L103.131 27.6853L113.003 41.8058H108.952L100.897 30.2833V30.2826Z" fill="white"/>
</g>
<path d="M157.072 0.484375H192.833C198.387 0.484562 202.89 4.98706 202.89 10.541V46.3018C202.889 51.8556 198.387 56.3582 192.833 56.3584H157.072C151.518 56.3584 147.016 51.8557 147.016 46.3018V10.541C147.016 4.98695 151.518 0.484375 157.072 0.484375Z" fill="white" stroke="#555555" stroke-width="0.874481"/>
<g clip-path="url(#clip2_2702_65)">
<path d="M165.392 41.3904V27.9676L161.229 24.1593L157.496 22.0459V39.0217C157.496 40.3323 158.558 41.3904 159.865 41.3904H165.392Z" fill="#4285F4"/>
<path d="M184.34 41.3903H189.867C191.178 41.3903 192.236 40.3283 192.236 39.0215V22.0459L188.007 24.4665L184.34 27.9675V41.3903Z" fill="#34A853"/>
<path d="M165.391 27.9665L164.824 22.7218L165.391 17.7021L174.865 24.8083L184.34 17.7021L184.974 22.4508L184.34 27.9665L174.865 35.0727L165.391 27.9665Z" fill="#EA4335"/>
<path d="M184.34 17.7025V27.9669L192.236 22.0452V18.8868C192.236 15.9576 188.892 14.2877 186.551 16.0445L184.34 17.7025Z" fill="#FBBC04"/>
<path d="M157.496 22.0452L161.127 24.7689L165.392 27.967V17.7026L163.181 16.0445C160.836 14.2877 157.496 15.9577 157.496 18.8868V22.0452Z" fill="#C5221F"/>
</g>
<path d="M219.867 10.5406C219.867 4.7451 224.565 0.046875 230.361 0.046875H266.122C271.917 0.046875 276.615 4.7451 276.615 10.5406V46.3014C276.615 52.097 271.917 56.7952 266.122 56.7952H230.361C224.565 56.7952 219.867 52.097 219.867 46.3014V10.5406Z" fill="white"/>
<path d="M219.867 10.5406C219.867 4.7451 224.565 0.046875 230.361 0.046875H266.122C271.917 0.046875 276.615 4.7451 276.615 10.5406V46.3014C276.615 52.097 271.917 56.7952 266.122 56.7952H230.361C224.565 56.7952 219.867 52.097 219.867 46.3014V10.5406Z" fill="url(#paint0_linear_2702_65)"/>
<g clip-path="url(#clip3_2702_65)">
<path d="M248 2C241.106 2 234.488 4.74097 229.617 9.61516C224.741 14.4913 222.001 21.1042 222 28C222 34.8928 224.742 41.5107 229.617 46.3848C234.488 51.259 241.106 54 248 54C254.894 54 261.512 51.259 266.383 46.3848C271.258 41.5107 274 34.8928 274 28C274 21.1072 271.258 14.4893 266.383 9.61516C261.512 4.74097 254.894 2 248 2Z" fill="url(#paint1_linear_2702_65)"/>
<path d="M233.769 27.7251C241.349 24.4231 246.403 22.2461 248.93 21.1942C256.153 18.1908 257.652 17.6692 258.631 17.6515C258.847 17.6481 259.326 17.7013 259.639 17.9542C259.899 18.1675 259.972 18.4559 260.009 18.6584C260.041 18.8607 260.086 19.3218 260.049 19.6818C259.659 23.793 257.965 33.7697 257.104 38.3745C256.742 40.3229 256.023 40.9762 255.329 41.0399C253.817 41.1789 252.672 40.0422 251.209 39.0838C248.922 37.5836 247.63 36.65 245.408 35.1863C242.84 33.4947 244.506 32.5648 245.969 31.0454C246.35 30.6477 253.005 24.5966 253.131 24.0477C253.147 23.9791 253.163 23.7231 253.009 23.5883C252.859 23.453 252.635 23.4993 252.473 23.5358C252.241 23.5878 248.589 26.0042 241.504 30.7846C240.468 31.4971 239.529 31.8445 238.684 31.8262C237.758 31.8063 235.971 31.3013 234.642 30.8699C233.017 30.3405 231.721 30.0606 231.835 29.1616C231.892 28.6936 232.538 28.2146 233.769 27.7251Z" fill="white"/>
</g>
<g clip-path="url(#clip4_2702_65)">
<path d="M336.679 0H306.482C299.125 0 293.16 5.96454 293.16 13.3222V43.5191C293.16 50.8767 299.125 56.8412 306.482 56.8412H336.679C344.037 56.8412 350.001 50.8767 350.001 43.5191V13.3222C350.001 5.96454 344.037 0 336.679 0Z" fill="url(#paint2_radial_2702_65)"/>
<path d="M336.679 0H306.482C299.125 0 293.16 5.96454 293.16 13.3222V43.5191C293.16 50.8767 299.125 56.8412 306.482 56.8412H336.679C344.037 56.8412 350.001 50.8767 350.001 43.5191V13.3222C350.001 5.96454 344.037 0 336.679 0Z" fill="url(#paint3_radial_2702_65)"/>
<path d="M321.581 6.21875C315.551 6.21875 314.794 6.24517 312.425 6.35286C310.062 6.46121 308.448 6.83534 307.036 7.38444C305.576 7.95152 304.337 8.71022 303.103 9.94474C301.868 11.179 301.109 12.4178 300.54 13.8777C299.99 15.2898 299.615 16.904 299.509 19.2667C299.403 21.6352 299.375 22.3923 299.375 28.4226C299.375 34.4529 299.402 35.2073 299.509 37.5756C299.618 39.9394 299.992 41.5529 300.541 42.9646C301.108 44.4252 301.867 45.6639 303.101 46.898C304.335 48.1332 305.574 48.8936 307.033 49.4607C308.446 50.0098 310.06 50.3839 312.423 50.4923C314.792 50.6 315.548 50.6264 321.578 50.6264C327.609 50.6264 328.363 50.6 330.731 50.4923C333.095 50.3839 334.71 50.0098 336.123 49.4607C337.583 48.8936 338.82 48.1332 340.054 46.898C341.289 45.6639 342.047 44.4252 342.617 42.9653C343.162 41.5529 343.537 39.9389 343.648 37.576C343.754 35.2078 343.782 34.4529 343.782 28.4226C343.782 22.3923 343.754 21.6356 343.648 19.2671C343.537 16.9033 343.162 15.29 342.617 13.8783C342.047 12.4178 341.289 11.179 340.054 9.94474C338.819 8.70977 337.584 7.95108 336.122 7.38466C334.706 6.83534 333.092 6.46099 330.728 6.35286C328.36 6.24517 327.606 6.21875 321.574 6.21875H321.581ZM319.589 10.2201C320.18 10.2192 320.84 10.2201 321.581 10.2201C327.509 10.2201 328.212 10.2414 330.553 10.3477C332.718 10.4468 333.893 10.8085 334.675 11.1124C335.712 11.5148 336.45 11.9959 337.227 12.7733C338.004 13.5504 338.485 14.2904 338.889 15.3267C339.193 16.1082 339.555 17.2833 339.653 19.4481C339.76 21.7888 339.783 22.4918 339.783 28.4175C339.783 34.3432 339.76 35.0464 339.653 37.3868C339.554 39.5517 339.193 40.7267 338.889 41.5085C338.486 42.5447 338.004 43.2826 337.227 44.0593C336.45 44.8364 335.712 45.3173 334.675 45.7199C333.894 46.0252 332.718 46.386 330.553 46.485C328.212 46.5914 327.509 46.6144 321.581 46.6144C315.652 46.6144 314.949 46.5914 312.609 46.485C310.444 46.3851 309.269 46.0234 308.485 45.7194C307.449 45.3169 306.709 44.8359 305.932 44.0588C305.155 43.2817 304.674 42.5434 304.27 41.5067C303.966 40.7249 303.604 39.5499 303.506 37.3851C303.399 35.0444 303.378 34.3414 303.378 28.4119C303.378 22.4825 303.399 21.7833 303.506 19.4426C303.605 17.2777 303.966 16.1027 304.27 15.32C304.673 14.2838 305.155 13.5437 305.932 12.7666C306.71 11.9895 307.449 11.5083 308.486 11.1051C309.268 10.7998 310.444 10.439 312.609 10.3395C314.657 10.2469 315.451 10.2192 319.589 10.2145V10.2201ZM333.433 13.9067C331.962 13.9067 330.768 15.0991 330.768 16.5703C330.768 18.0413 331.962 19.2347 333.433 19.2347C334.904 19.2347 336.097 18.0413 336.097 16.5703C336.097 15.0993 334.904 13.9059 333.433 13.9059V13.9067ZM321.581 17.0199C315.284 17.0199 310.178 22.1254 310.178 28.4226C310.178 34.7197 315.284 39.8228 321.581 39.8228C327.878 39.8228 332.981 34.7197 332.981 28.4226C332.981 22.1256 327.877 17.0199 321.58 17.0199H321.581ZM321.581 21.0212C325.668 21.0212 328.982 24.3347 328.982 28.4226C328.982 32.51 325.668 35.8239 321.581 35.8239C317.493 35.8239 314.179 32.51 314.179 28.4226C314.179 24.3347 317.493 21.0212 321.581 21.0212Z" fill="white"/>
</g>
<defs>
<linearGradient id="paint0_linear_2702_65" x1="248.241" y1="0.046875" x2="248.241" y2="56.7952" gradientUnits="userSpaceOnUse">
<stop stop-color="#2AABEE"/>
<stop offset="1" stop-color="#229ED9"/>
</linearGradient>
<linearGradient id="paint1_linear_2702_65" x1="248" y1="2" x2="248" y2="54" gradientUnits="userSpaceOnUse">
<stop stop-color="#2AABEE"/>
<stop offset="1" stop-color="#229ED9"/>
</linearGradient>
<radialGradient id="paint2_radial_2702_65" cx="0" cy="0" r="1" gradientUnits="userSpaceOnUse" gradientTransform="translate(308.259 61.2191) rotate(-90) scale(56.3339 52.395)">
<stop stop-color="#FFDD55"/>
<stop offset="0.1" stop-color="#FFDD55"/>
<stop offset="0.5" stop-color="#FF543E"/>
<stop offset="1" stop-color="#C837AB"/>
</radialGradient>
<radialGradient id="paint3_radial_2702_65" cx="0" cy="0" r="1" gradientUnits="userSpaceOnUse" gradientTransform="translate(283.639 4.09457) rotate(78.681) scale(25.1816 103.799)">
<stop stop-color="#3771C8"/>
<stop offset="0.128" stop-color="#3771C8"/>
<stop offset="1" stop-color="#6600FF" stop-opacity="0"/>
</radialGradient>
<clipPath id="clip0_2702_65">
<rect width="43.4888" height="43.8175" fill="white" transform="translate(6.54688 6.5957)"/>
</clipPath>
<clipPath id="clip1_2702_65">
<rect width="30.5568" height="30.5568" fill="white" transform="translate(86.3867 13.1445)"/>
</clipPath>
<clipPath id="clip2_2702_65">
<rect width="34.7474" height="26.1915" fill="white" transform="translate(157.492 15.3271)"/>
</clipPath>
<clipPath id="clip3_2702_65">
<rect width="52" height="52" fill="white" transform="translate(222 2)"/>
</clipPath>
<clipPath id="clip4_2702_65">
<rect width="56.8412" height="56.8412" fill="white" transform="translate(293.16)"/>
</clipPath>
</defs>
</svg>
