<svg width="106" height="82" viewBox="0 0 106 82" fill="none" xmlns="http://www.w3.org/2000/svg">
<path d="M1.02309 0.41771L-0.000267386 0.539156L0.242623 2.58586L1.26598 2.46442L1.14453 1.44106L1.02309 0.41771ZM98.9715 81.6378C99.4386 81.9631 100.081 81.8482 100.406 81.3812L105.707 73.7707C106.033 73.3037 105.918 72.6614 105.451 72.3361C104.984 72.0107 104.341 72.1256 104.016 72.5926L99.304 79.3575L92.5391 74.6454C92.072 74.3201 91.4297 74.435 91.1044 74.902C90.7791 75.369 90.894 76.0113 91.361 76.3366L98.9715 81.6378ZM1.14453 1.44106L1.26598 2.46442C31.2611 -1.09521 87.3287 18.257 98.5461 80.9736L99.5606 80.7922L100.575 80.6107C89.1207 16.5694 31.8295 -3.23821 1.02309 0.41771L1.14453 1.44106Z" fill="white"/>
</svg>
