<svg width="721" height="573" viewBox="0 0 721 573" fill="none" xmlns="http://www.w3.org/2000/svg">
<path d="M359.207 1.03027L359.207 571.03" stroke="#606060" stroke-width="2.06107" stroke-linecap="round" stroke-dasharray="12.37 12.37"/>
<path d="M719.312 294.008L1.03019 294.008" stroke="#606060" stroke-width="2.06107" stroke-linecap="round" stroke-dasharray="12.37 12.37"/>
<circle cx="359.207" cy="294.03" r="25" fill="#009DCF"/>
<g clip-path="url(#clip0_2608_128)">
<path d="M359.66 286.281V301.739C361.826 299.768 363.183 298.779 366.359 298.132V282.313C364.298 282.674 362.236 283.189 359.66 286.281Z" fill="white"/>
<path fill-rule="evenodd" clip-rule="evenodd" d="M366.425 281.645C366.812 281.64 366.833 281.645 366.959 281.793C367.09 281.945 367.09 281.961 367.09 283.755L367.65 283.714C367.964 283.689 368.555 283.653 368.974 283.628C369.392 283.602 369.963 283.577 370.24 283.577C370.743 283.577 370.758 283.582 371.067 283.882V285.284C371.067 286.054 371.083 286.686 371.104 286.686C371.13 286.686 371.475 286.747 371.878 286.818C372.281 286.89 372.679 286.982 372.768 287.022C372.852 287.058 372.956 287.15 372.988 287.221C373.04 287.323 373.056 289.112 373.056 295.657C373.056 301.076 373.04 304.012 373.003 304.093C372.972 304.164 372.899 304.256 372.831 304.297C372.726 304.368 372.616 304.368 371.695 304.302C371.135 304.256 370.036 304.195 369.262 304.164C368.482 304.134 367.351 304.124 366.75 304.139C366.143 304.159 365.331 304.195 364.944 304.226C364.557 304.251 363.945 304.312 363.584 304.353C363.222 304.399 362.694 304.475 362.406 304.531C362.118 304.588 361.705 304.674 361.49 304.73C361.276 304.781 360.92 304.888 360.705 304.965C360.491 305.036 360.192 305.153 360.051 305.22C359.905 305.291 359.732 305.342 359.659 305.342C359.585 305.342 359.397 305.281 359.24 305.204C359.083 305.133 358.785 305.016 358.586 304.949C358.382 304.883 357.995 304.771 357.722 304.705C357.45 304.639 356.953 304.537 356.623 304.48C356.294 304.424 355.681 304.343 355.263 304.302C354.844 304.256 353.892 304.195 353.143 304.164C352.112 304.119 351.401 304.119 350.187 304.164C349.307 304.195 348.188 304.256 347.701 304.297C347.209 304.338 346.759 304.373 346.691 304.373C346.628 304.373 346.502 304.302 346.262 304.068V295.708C346.262 289.122 346.277 287.323 346.325 287.221C346.361 287.15 346.461 287.058 346.55 287.022C346.633 286.982 347.052 286.885 348.25 286.66V283.882L348.58 283.551L349.58 283.592C350.129 283.612 350.883 283.653 351.259 283.684C351.631 283.709 352.348 283.78 352.84 283.831C353.337 283.888 354.043 283.979 354.41 284.035C354.781 284.091 355.42 284.209 355.838 284.29C356.257 284.372 356.964 284.545 357.408 284.667C357.853 284.79 358.497 284.999 358.832 285.126C359.172 285.254 359.46 285.361 359.476 285.361C359.491 285.361 359.789 285.07 360.14 284.718C360.496 284.362 360.962 283.933 361.176 283.765C361.391 283.597 361.778 283.322 362.04 283.159C362.296 282.996 362.736 282.751 363.008 282.613C363.28 282.476 363.73 282.282 364.002 282.185C364.274 282.083 364.745 281.945 365.049 281.874C365.352 281.803 365.693 281.726 365.808 281.701C365.923 281.67 366.2 281.65 366.42 281.645H366.425ZM365.08 282.868C364.876 282.924 364.546 283.031 364.348 283.103C364.144 283.174 363.709 283.368 363.379 283.536C363.05 283.699 362.553 283.989 362.28 284.178C362.008 284.367 361.506 284.785 361.166 285.106C360.826 285.427 360.454 285.804 360.339 285.947L360.14 286.202L360.135 289.846H359.193V286.329C358.685 286.1 358.246 285.937 357.885 285.819C357.524 285.702 356.854 285.519 356.393 285.407C355.933 285.299 355.142 285.141 354.64 285.06C354.138 284.973 353.3 284.861 352.782 284.805C352.264 284.749 351.511 284.678 351.108 284.652C350.705 284.622 350.124 284.591 349.81 284.576L349.25 284.545V300.015C351.055 300.112 351.919 300.178 352.337 300.219C352.756 300.26 353.51 300.357 354.012 300.428C354.514 300.5 355.268 300.627 355.687 300.709C356.105 300.79 356.796 300.948 357.23 301.06C357.66 301.177 358.319 301.386 358.696 301.524C359.067 301.667 359.413 301.789 359.455 301.804C359.507 301.82 359.685 301.662 359.952 301.356C360.182 301.101 360.616 300.683 360.92 300.428C361.223 300.178 361.715 299.811 362.019 299.618C362.322 299.424 362.825 299.144 363.144 298.991C363.458 298.843 364.002 298.629 364.348 298.517C364.693 298.405 365.201 298.277 365.473 298.226C365.745 298.18 366.001 298.134 366.033 298.124C366.085 298.109 366.101 296.513 366.101 290.381C366.101 283.057 366.095 282.659 366.007 282.664C365.959 282.669 365.813 282.69 365.682 282.72C365.551 282.746 365.279 282.812 365.08 282.868ZM368.272 284.647C367.812 284.678 367.357 284.713 367.262 284.723L367.095 284.749C367.095 296.284 367.079 298.751 367.043 298.817C367.011 298.873 366.907 298.955 366.807 298.996C366.708 299.037 366.535 299.072 366.425 299.072C366.321 299.072 366.033 299.108 365.787 299.154C365.541 299.2 365.049 299.327 364.688 299.444C364.327 299.557 363.772 299.781 363.458 299.939C363.139 300.097 362.668 300.367 362.411 300.54C362.15 300.714 361.867 300.912 361.783 300.984C361.694 301.05 361.637 301.116 361.653 301.132C361.668 301.147 361.998 301.081 362.385 300.984C362.772 300.887 363.385 300.754 363.746 300.683C364.107 300.612 364.703 300.51 365.08 300.454C365.452 300.398 366.08 300.316 366.467 300.27C366.854 300.229 367.665 300.158 368.272 300.117C368.874 300.076 369.528 300.041 369.722 300.041H370.078V284.545C369.654 284.56 369.434 284.571 369.319 284.581C369.204 284.586 368.733 284.616 368.272 284.647ZM347.287 287.833L347.261 303.354C347.769 303.313 348.313 303.283 348.805 303.252C349.292 303.227 350.213 303.191 350.846 303.17C351.479 303.155 352.568 303.165 353.264 303.196C353.965 303.227 354.881 303.288 355.305 303.329C355.734 303.374 356.362 303.456 356.707 303.512C357.053 303.568 357.571 303.67 357.858 303.736C358.146 303.808 358.544 303.92 358.748 303.986C358.947 304.057 359.13 304.098 359.156 304.078C359.177 304.057 359.198 303.767 359.198 303.43C359.198 302.992 359.177 302.803 359.13 302.758C359.093 302.727 358.821 302.605 358.523 302.493C358.23 302.375 357.628 302.182 357.189 302.059C356.754 301.937 355.969 301.753 355.451 301.657C354.933 301.555 354.075 301.412 353.541 301.346C353.007 301.274 352.16 301.183 351.657 301.137C351.155 301.096 350.26 301.04 349.669 301.019C348.884 300.989 348.564 300.958 348.481 300.902C348.418 300.861 348.339 300.78 348.308 300.714C348.271 300.637 348.256 298.466 348.256 294.128C348.256 290.565 348.24 287.66 348.214 287.66C348.193 287.665 347.978 287.705 347.732 287.751L347.287 287.833ZM371.072 294.128C371.072 298.466 371.057 300.637 371.02 300.714C370.989 300.78 370.91 300.861 370.847 300.902C370.763 300.958 370.444 300.989 369.659 301.014C369.068 301.04 368.184 301.091 367.697 301.137C367.205 301.177 366.441 301.259 365.996 301.315C365.551 301.371 364.798 301.488 364.321 301.57C363.845 301.657 363.175 301.794 362.83 301.876C362.485 301.962 361.94 302.115 361.626 302.212C361.307 302.314 360.873 302.462 360.658 302.549C360.444 302.63 360.234 302.727 360.198 302.758C360.151 302.798 360.13 302.992 360.13 303.43C360.13 303.767 360.151 304.057 360.172 304.078C360.192 304.093 360.376 304.052 360.58 303.986C360.779 303.915 361.182 303.803 361.469 303.736C361.757 303.665 362.286 303.563 362.647 303.507C363.008 303.451 363.636 303.369 364.044 303.329C364.457 303.283 365.363 303.227 366.059 303.196C366.76 303.165 367.859 303.155 368.508 303.17C369.157 303.191 370.073 303.227 370.549 303.252C371.025 303.278 371.559 303.313 371.737 303.329L372.067 303.354L372.04 287.838C371.554 287.741 371.334 287.7 371.24 287.685L371.067 287.654L371.072 294.128ZM355.179 288.964C355.21 288.975 355.226 289.382 355.221 290.815H362.129V291.783H355.221V292.726C355.221 293.542 355.21 293.664 355.142 293.644C355.095 293.628 354.42 293.098 352.212 291.309L352.369 291.192C352.453 291.131 353.112 290.596 353.829 290.009C354.546 289.423 355.153 288.954 355.179 288.964ZM359.198 292.752H360.14V296.626H359.198V292.752ZM359.198 297.594H360.14V298.563H359.198V297.594ZM359.198 299.531H360.14V300.5H359.198V299.531Z" fill="white"/>
</g>
<defs>
<clipPath id="clip0_2608_128">
<rect width="26.7939" height="23.7023" fill="white" transform="translate(346.262 281.64)"/>
</clipPath>
</defs>
</svg>
