<svg width="135" height="147" viewBox="0 0 135 147" fill="none" xmlns="http://www.w3.org/2000/svg">
<g filter="url(#filter0_d_2714_63)">
<rect x="4.12109" y="92.5439" width="126.611" height="45.6107" rx="7.21374" fill="black" shape-rendering="crispEdges"/>
<path d="M24.6162 112.688C24.3194 112.116 23.9072 111.687 23.3796 111.402C22.852 111.105 22.2419 110.956 21.5494 110.956C20.7909 110.956 20.1149 111.127 19.5213 111.468C18.9277 111.808 18.4605 112.292 18.1197 112.919C17.79 113.545 17.6251 114.271 17.6251 115.095C17.6251 115.92 17.79 116.651 18.1197 117.288C18.4605 117.915 18.9277 118.398 19.5213 118.739C20.1149 119.08 20.7909 119.25 21.5494 119.25C22.5716 119.25 23.4016 118.964 24.0391 118.393C24.6767 117.821 25.0669 117.046 25.2098 116.068H20.9063V114.567H27.2214V116.035C27.1005 116.925 26.7817 117.744 26.2651 118.492C25.7594 119.239 25.0944 119.838 24.27 120.289C23.4565 120.729 22.5497 120.949 21.5494 120.949C20.4721 120.949 19.4883 120.701 18.5979 120.207C17.7075 119.701 16.9985 119.003 16.4709 118.113C15.9542 117.222 15.6959 116.216 15.6959 115.095C15.6959 113.974 15.9542 112.968 16.4709 112.078C16.9985 111.187 17.7075 110.495 18.5979 110C19.4993 109.494 20.4831 109.242 21.5494 109.242C22.7695 109.242 23.8523 109.544 24.7976 110.149C25.7539 110.742 26.4465 111.589 26.8752 112.688H24.6162ZM28.4488 116.266C28.4488 115.353 28.6357 114.545 29.0094 113.842C29.3941 113.138 29.9108 112.594 30.5593 112.21C31.2189 111.814 31.9444 111.616 32.7358 111.616C33.4503 111.616 34.0714 111.759 34.599 112.045C35.1376 112.32 35.5663 112.666 35.8851 113.084V111.764H37.7813V120.85H35.8851V119.498C35.5663 119.926 35.1321 120.284 34.5825 120.569C34.0329 120.855 33.4063 120.998 32.7028 120.998C31.9224 120.998 31.2079 120.8 30.5593 120.404C29.9108 119.998 29.3941 119.437 29.0094 118.723C28.6357 117.997 28.4488 117.178 28.4488 116.266ZM35.8851 116.299C35.8851 115.672 35.7532 115.128 35.4894 114.666C35.2366 114.205 34.9013 113.853 34.4836 113.611C34.0659 113.369 33.6152 113.248 33.1315 113.248C32.6479 113.248 32.1972 113.369 31.7795 113.611C31.3618 113.842 31.021 114.188 30.7572 114.65C30.5044 115.101 30.3779 115.639 30.3779 116.266C30.3779 116.892 30.5044 117.442 30.7572 117.915C31.021 118.387 31.3618 118.75 31.7795 119.003C32.2082 119.245 32.6589 119.366 33.1315 119.366C33.6152 119.366 34.0659 119.245 34.4836 119.003C34.9013 118.761 35.2366 118.409 35.4894 117.948C35.7532 117.475 35.8851 116.925 35.8851 116.299ZM42.1299 108.648V120.85H40.2502V108.648H42.1299ZM46.4775 108.648V120.85H44.5978V108.648H46.4775ZM57.2721 116.084C57.2721 116.425 57.2501 116.733 57.2061 117.008H50.2644C50.3194 117.733 50.5887 118.316 51.0724 118.756C51.556 119.195 52.1496 119.415 52.8531 119.415C53.8644 119.415 54.5789 118.992 54.9966 118.145H57.0247C56.7499 118.981 56.2498 119.668 55.5243 120.207C54.8098 120.734 53.9194 120.998 52.8531 120.998C51.9847 120.998 51.2043 120.806 50.5118 120.421C49.8302 120.025 49.2916 119.476 48.8959 118.772C48.5111 118.058 48.3188 117.233 48.3188 116.299C48.3188 115.364 48.5056 114.545 48.8794 113.842C49.2641 113.127 49.7973 112.578 50.4788 112.193C51.1713 111.808 51.9627 111.616 52.8531 111.616C53.7105 111.616 54.4745 111.803 55.145 112.177C55.8156 112.55 56.3377 113.078 56.7115 113.76C57.0852 114.43 57.2721 115.205 57.2721 116.084ZM55.3099 115.491C55.2989 114.798 55.0516 114.243 54.5679 113.825C54.0843 113.408 53.4852 113.199 52.7707 113.199C52.1221 113.199 51.567 113.408 51.1053 113.825C50.6437 114.232 50.3689 114.787 50.2809 115.491H55.3099ZM61.0016 113.084C61.2764 112.622 61.6391 112.265 62.0898 112.012C62.5515 111.748 63.0956 111.616 63.7222 111.616V113.562H63.244C62.5075 113.562 61.9469 113.749 61.5622 114.122C61.1884 114.496 61.0016 115.145 61.0016 116.068V120.85H59.1219V111.764H61.0016V113.084ZM73.6283 111.764L68.0552 125.12H66.1095L67.9563 120.701L64.3782 111.764H66.4723L69.028 118.69L71.6827 111.764H73.6283ZM87.3434 112.803C87.3434 113.386 87.206 113.935 86.9312 114.452C86.6564 114.969 86.2167 115.392 85.6121 115.722C85.0076 116.04 84.2326 116.2 83.2873 116.2H81.2097V120.85H79.33V109.39H83.2873C84.1666 109.39 84.9086 109.544 85.5132 109.852C86.1288 110.149 86.585 110.555 86.8818 111.072C87.1895 111.589 87.3434 112.166 87.3434 112.803ZM83.2873 114.666C84.0018 114.666 84.5349 114.507 84.8866 114.188C85.2384 113.858 85.4143 113.397 85.4143 112.803C85.4143 111.55 84.7053 110.924 83.2873 110.924H81.2097V114.666H83.2873ZM88.5096 116.266C88.5096 115.353 88.6965 114.545 89.0702 113.842C89.455 113.138 89.9716 112.594 90.6202 112.21C91.2797 111.814 92.0052 111.616 92.7966 111.616C93.5111 111.616 94.1322 111.759 94.6598 112.045C95.1985 112.32 95.6272 112.666 95.946 113.084V111.764H97.8421V120.85H95.946V119.498C95.6272 119.926 95.193 120.284 94.6434 120.569C94.0937 120.855 93.4672 120.998 92.7637 120.998C91.9832 120.998 91.2687 120.8 90.6202 120.404C89.9716 119.998 89.455 119.437 89.0702 118.723C88.6965 117.997 88.5096 117.178 88.5096 116.266ZM95.946 116.299C95.946 115.672 95.814 115.128 95.5502 114.666C95.2974 114.205 94.9621 113.853 94.5444 113.611C94.1267 113.369 93.676 113.248 93.1924 113.248C92.7087 113.248 92.258 113.369 91.8403 113.611C91.4226 113.842 91.0818 114.188 90.818 114.65C90.5652 115.101 90.4388 115.639 90.4388 116.266C90.4388 116.892 90.5652 117.442 90.818 117.915C91.0818 118.387 91.4226 118.75 91.8403 119.003C92.269 119.245 92.7197 119.366 93.1924 119.366C93.676 119.366 94.1267 119.245 94.5444 119.003C94.9621 118.761 95.2974 118.409 95.5502 117.948C95.814 117.475 95.946 116.925 95.946 116.299ZM103.972 111.616C104.675 111.616 105.296 111.759 105.835 112.045C106.384 112.32 106.813 112.666 107.121 113.084V111.764H109.017V120.998C109.017 121.833 108.841 122.575 108.489 123.224C108.138 123.884 107.626 124.4 106.956 124.774C106.296 125.148 105.505 125.334 104.582 125.334C103.35 125.334 102.328 125.043 101.515 124.461C100.701 123.889 100.24 123.109 100.13 122.119H101.993C102.136 122.592 102.438 122.971 102.9 123.257C103.372 123.554 103.933 123.702 104.582 123.702C105.34 123.702 105.95 123.471 106.412 123.01C106.884 122.548 107.121 121.877 107.121 120.998V119.481C106.802 119.91 106.368 120.273 105.818 120.569C105.28 120.855 104.664 120.998 103.972 120.998C103.18 120.998 102.455 120.8 101.795 120.404C101.146 119.998 100.63 119.437 100.245 118.723C99.8713 117.997 99.6845 117.178 99.6845 116.266C99.6845 115.353 99.8713 114.545 100.245 113.842C100.63 113.138 101.146 112.594 101.795 112.21C102.455 111.814 103.18 111.616 103.972 111.616ZM107.121 116.299C107.121 115.672 106.989 115.128 106.725 114.666C106.472 114.205 106.137 113.853 105.719 113.611C105.302 113.369 104.851 113.248 104.367 113.248C103.884 113.248 103.433 113.369 103.015 113.611C102.597 113.842 102.257 114.188 101.993 114.65C101.74 115.101 101.614 115.639 101.614 116.266C101.614 116.892 101.74 117.442 101.993 117.915C102.257 118.387 102.597 118.75 103.015 119.003C103.444 119.245 103.895 119.366 104.367 119.366C104.851 119.366 105.302 119.245 105.719 119.003C106.137 118.761 106.472 118.409 106.725 117.948C106.989 117.475 107.121 116.925 107.121 116.299ZM119.813 116.084C119.813 116.425 119.791 116.733 119.747 117.008H112.805C112.86 117.733 113.129 118.316 113.613 118.756C114.097 119.195 114.69 119.415 115.394 119.415C116.405 119.415 117.119 118.992 117.537 118.145H119.565C119.29 118.981 118.79 119.668 118.065 120.207C117.35 120.734 116.46 120.998 115.394 120.998C114.525 120.998 113.745 120.806 113.052 120.421C112.371 120.025 111.832 119.476 111.436 118.772C111.052 118.058 110.859 117.233 110.859 116.299C110.859 115.364 111.046 114.545 111.42 113.842C111.805 113.127 112.338 112.578 113.019 112.193C113.712 111.808 114.503 111.616 115.394 111.616C116.251 111.616 117.015 111.803 117.686 112.177C118.356 112.55 118.878 113.078 119.252 113.76C119.626 114.43 119.813 115.205 119.813 116.084ZM117.85 115.491C117.839 114.798 117.592 114.243 117.108 113.825C116.625 113.408 116.026 113.199 115.311 113.199C114.663 113.199 114.108 113.408 113.646 113.825C113.184 114.232 112.909 114.787 112.821 115.491H117.85Z" fill="white"/>
</g>
<g filter="url(#filter1_d_2714_63)">
<path d="M72.1367 81.2061L78.0865 70.9007L66.1869 70.9007L72.1367 81.2061ZM72.1367 72.5937L73.1673 72.5937L73.1673 66.8522L72.1367 66.8522L71.1062 66.8522L71.1062 72.5937L72.1367 72.5937ZM72.1367 61.1106L73.1673 61.1106L73.1673 55.3691L72.1367 55.3691L71.1062 55.3691L71.1062 61.1106L72.1367 61.1106ZM72.1367 49.6275L73.1673 49.6275L73.1673 43.886L72.1367 43.886L71.1062 43.886L71.1062 49.6275L72.1367 49.6275ZM72.1367 38.1444L73.1673 38.1444L73.1673 32.4029L72.1367 32.4029L71.1062 32.4029L71.1062 38.1444L72.1367 38.1444ZM72.1367 26.6613L73.1673 26.6613L73.1673 20.9198L72.1367 20.9198L71.1062 20.9198L71.1062 26.6613L72.1367 26.6613ZM72.1367 15.1782L73.1673 15.1782L73.1673 9.43669L72.1367 9.43669L71.1062 9.43669L71.1062 15.1782L72.1367 15.1782ZM72.1367 3.69514L73.1673 3.69514L73.1673 0.824371L72.1367 0.824371L71.1062 0.824371L71.1062 3.69514L72.1367 3.69514Z" fill="#FF0000"/>
</g>
<defs>
<filter id="filter0_d_2714_63" x="-0.0010438" y="92.5439" width="134.854" height="53.8546" filterUnits="userSpaceOnUse" color-interpolation-filters="sRGB">
<feFlood flood-opacity="0" result="BackgroundImageFix"/>
<feColorMatrix in="SourceAlpha" type="matrix" values="0 0 0 0 0 0 0 0 0 0 0 0 0 0 0 0 0 0 127 0" result="hardAlpha"/>
<feOffset dy="4.12214"/>
<feGaussianBlur stdDeviation="2.06107"/>
<feComposite in2="hardAlpha" operator="out"/>
<feColorMatrix type="matrix" values="0 0 0 0 0 0 0 0 0 0 0 0 0 0 0 0 0 0 0.09 0"/>
<feBlend mode="normal" in2="BackgroundImageFix" result="effect1_dropShadow_2714_63"/>
<feBlend mode="normal" in="SourceGraphic" in2="effect1_dropShadow_2714_63" result="shape"/>
</filter>
<filter id="filter1_d_2714_63" x="64.8478" y="-0.000208437" width="14.5778" height="83.0612" filterUnits="userSpaceOnUse" color-interpolation-filters="sRGB">
<feFlood flood-opacity="0" result="BackgroundImageFix"/>
<feColorMatrix in="SourceAlpha" type="matrix" values="0 0 0 0 0 0 0 0 0 0 0 0 0 0 0 0 0 0 127 0" result="hardAlpha"/>
<feOffset dy="0.515267"/>
<feGaussianBlur stdDeviation="0.669847"/>
<feComposite in2="hardAlpha" operator="out"/>
<feColorMatrix type="matrix" values="0 0 0 0 1 0 0 0 0 1 0 0 0 0 1 0 0 0 1 0"/>
<feBlend mode="normal" in2="BackgroundImageFix" result="effect1_dropShadow_2714_63"/>
<feBlend mode="normal" in="SourceGraphic" in2="effect1_dropShadow_2714_63" result="shape"/>
</filter>
</defs>
</svg>
