<svg width="132" height="147" viewBox="0 0 132 147" fill="none" xmlns="http://www.w3.org/2000/svg">
<g filter="url(#filter0_d_2714_64)">
<rect x="4.12109" y="92.5439" width="123.611" height="45.6107" rx="7.21374" fill="black" shape-rendering="crispEdges"/>
<path d="M17.6497 119.333H21.5245V120.85H15.77V109.39H17.6497V119.333ZM24.0528 110.561C23.712 110.561 23.4262 110.445 23.1954 110.214C22.9646 109.984 22.8491 109.698 22.8491 109.357C22.8491 109.016 22.9646 108.731 23.1954 108.5C23.4262 108.269 23.712 108.153 24.0528 108.153C24.3826 108.153 24.6629 108.269 24.8937 108.5C25.1246 108.731 25.24 109.016 25.24 109.357C25.24 109.698 25.1246 109.984 24.8937 110.214C24.6629 110.445 24.3826 110.561 24.0528 110.561ZM24.9762 111.764V120.85H23.0965V111.764H24.9762ZM29.3237 113.116C29.6425 112.677 30.0767 112.32 30.6263 112.045C31.1869 111.759 31.808 111.616 32.4895 111.616C33.292 111.616 34.0175 111.808 34.666 112.193C35.3146 112.578 35.8257 113.127 36.1994 113.842C36.5732 114.545 36.7601 115.353 36.7601 116.266C36.7601 117.178 36.5732 117.997 36.1994 118.723C35.8257 119.437 35.3091 119.998 34.6495 120.404C34.001 120.8 33.281 120.998 32.4895 120.998C31.786 120.998 31.1594 120.861 30.6098 120.586C30.0712 120.311 29.6425 119.959 29.3237 119.531V120.85H27.444V108.648H29.3237V113.116ZM34.8474 116.266C34.8474 115.639 34.7155 115.101 34.4517 114.65C34.1988 114.188 33.8581 113.842 33.4294 113.611C33.0117 113.369 32.561 113.248 32.0773 113.248C31.6046 113.248 31.154 113.369 30.7252 113.611C30.3075 113.853 29.9668 114.205 29.703 114.666C29.4501 115.128 29.3237 115.672 29.3237 116.299C29.3237 116.925 29.4501 117.475 29.703 117.948C29.9668 118.409 30.3075 118.761 30.7252 119.003C31.154 119.245 31.6046 119.366 32.0773 119.366C32.561 119.366 33.0117 119.245 33.4294 119.003C33.8581 118.75 34.1988 118.387 34.4517 117.915C34.7155 117.442 34.8474 116.892 34.8474 116.266ZM40.4986 113.084C40.7734 112.622 41.1361 112.265 41.5868 112.012C42.0485 111.748 42.5926 111.616 43.2192 111.616V113.562H42.741C42.0045 113.562 41.4439 113.749 41.0592 114.122C40.6855 114.496 40.4986 115.145 40.4986 116.068V120.85H38.6189V111.764H40.4986V113.084ZM44.3204 116.266C44.3204 115.353 44.5073 114.545 44.8811 113.842C45.2658 113.138 45.7824 112.594 46.431 112.21C47.0905 111.814 47.816 111.616 48.6075 111.616C49.322 111.616 49.943 111.759 50.4707 112.045C51.0093 112.32 51.438 112.666 51.7568 113.084V111.764H53.653V120.85H51.7568V119.498C51.438 119.926 51.0038 120.284 50.4542 120.569C49.9046 120.855 49.278 120.998 48.5745 120.998C47.794 120.998 47.0795 120.8 46.431 120.404C45.7824 119.998 45.2658 119.437 44.8811 118.723C44.5073 117.997 44.3204 117.178 44.3204 116.266ZM51.7568 116.299C51.7568 115.672 51.6249 115.128 51.3611 114.666C51.1082 114.205 50.773 113.853 50.3553 113.611C49.9375 113.369 49.4869 113.248 49.0032 113.248C48.5195 113.248 48.0688 113.369 47.6511 113.611C47.2334 113.842 46.8927 114.188 46.6288 114.65C46.376 115.101 46.2496 115.639 46.2496 116.266C46.2496 116.892 46.376 117.442 46.6288 117.915C46.8927 118.387 47.2334 118.75 47.6511 119.003C48.0798 119.245 48.5305 119.366 49.0032 119.366C49.4869 119.366 49.9375 119.245 50.3553 119.003C50.773 118.761 51.1082 118.409 51.3611 117.948C51.6249 117.475 51.7568 116.925 51.7568 116.299ZM58.0016 113.084C58.2764 112.622 58.6391 112.265 59.0898 112.012C59.5515 111.748 60.0956 111.616 60.7222 111.616V113.562H60.244C59.5075 113.562 58.9469 113.749 58.5622 114.122C58.1884 114.496 58.0016 115.145 58.0016 116.068V120.85H56.1219V111.764H58.0016V113.084ZM70.6283 111.764L65.0552 125.12H63.1095L64.9562 120.701L61.3782 111.764H63.4723L66.028 118.69L68.6827 111.764H70.6283ZM84.3434 112.803C84.3434 113.386 84.206 113.935 83.9312 114.452C83.6564 114.969 83.2167 115.392 82.6121 115.722C82.0076 116.04 81.2326 116.2 80.2873 116.2H78.2097V120.85H76.33V109.39H80.2873C81.1666 109.39 81.9086 109.544 82.5132 109.852C83.1288 110.149 83.585 110.555 83.8818 111.072C84.1895 111.589 84.3434 112.166 84.3434 112.803ZM80.2873 114.666C81.0018 114.666 81.5349 114.507 81.8866 114.188C82.2384 113.858 82.4143 113.397 82.4143 112.803C82.4143 111.55 81.7053 110.924 80.2873 110.924H78.2097V114.666H80.2873ZM85.5096 116.266C85.5096 115.353 85.6965 114.545 86.0702 113.842C86.455 113.138 86.9716 112.594 87.6201 112.21C88.2797 111.814 89.0052 111.616 89.7966 111.616C90.5111 111.616 91.1322 111.759 91.6598 112.045C92.1985 112.32 92.6272 112.666 92.9459 113.084V111.764H94.8421V120.85H92.9459V119.498C92.6272 119.926 92.193 120.284 91.6434 120.569C91.0937 120.855 90.4672 120.998 89.7637 120.998C88.9832 120.998 88.2687 120.8 87.6201 120.404C86.9716 119.998 86.455 119.437 86.0702 118.723C85.6965 117.997 85.5096 117.178 85.5096 116.266ZM92.9459 116.299C92.9459 115.672 92.814 115.128 92.5502 114.666C92.2974 114.205 91.9621 113.853 91.5444 113.611C91.1267 113.369 90.676 113.248 90.1924 113.248C89.7087 113.248 89.258 113.369 88.8403 113.611C88.4226 113.842 88.0818 114.188 87.818 114.65C87.5652 115.101 87.4388 115.639 87.4388 116.266C87.4388 116.892 87.5652 117.442 87.818 117.915C88.0818 118.387 88.4226 118.75 88.8403 119.003C89.269 119.245 89.7197 119.366 90.1924 119.366C90.676 119.366 91.1267 119.245 91.5444 119.003C91.9621 118.761 92.2974 118.409 92.5502 117.948C92.814 117.475 92.9459 116.925 92.9459 116.299ZM100.971 111.616C101.675 111.616 102.296 111.759 102.835 112.045C103.384 112.32 103.813 112.666 104.121 113.084V111.764H106.017V120.998C106.017 121.833 105.841 122.575 105.489 123.224C105.138 123.884 104.626 124.4 103.956 124.774C103.296 125.148 102.505 125.334 101.582 125.334C100.35 125.334 99.3281 125.043 98.5147 124.461C97.7013 123.889 97.2396 123.109 97.1297 122.119H98.9929C99.1358 122.592 99.4381 122.971 99.8997 123.257C100.372 123.554 100.933 123.702 101.582 123.702C102.34 123.702 102.95 123.471 103.412 123.01C103.884 122.548 104.121 121.877 104.121 120.998V119.481C103.802 119.91 103.368 120.273 102.818 120.569C102.28 120.855 101.664 120.998 100.971 120.998C100.18 120.998 99.4545 120.8 98.795 120.404C98.1465 119.998 97.6298 119.437 97.2451 118.723C96.8713 117.997 96.6845 117.178 96.6845 116.266C96.6845 115.353 96.8713 114.545 97.2451 113.842C97.6298 113.138 98.1465 112.594 98.795 112.21C99.4545 111.814 100.18 111.616 100.971 111.616ZM104.121 116.299C104.121 115.672 103.989 115.128 103.725 114.666C103.472 114.205 103.137 113.853 102.719 113.611C102.302 113.369 101.851 113.248 101.367 113.248C100.884 113.248 100.433 113.369 100.015 113.611C99.5974 113.842 99.2567 114.188 98.9929 114.65C98.74 115.101 98.6136 115.639 98.6136 116.266C98.6136 116.892 98.74 117.442 98.9929 117.915C99.2567 118.387 99.5974 118.75 100.015 119.003C100.444 119.245 100.895 119.366 101.367 119.366C101.851 119.366 102.302 119.245 102.719 119.003C103.137 118.761 103.472 118.409 103.725 117.948C103.989 117.475 104.121 116.925 104.121 116.299ZM116.813 116.084C116.813 116.425 116.791 116.733 116.747 117.008H109.805C109.86 117.733 110.129 118.316 110.613 118.756C111.097 119.195 111.69 119.415 112.394 119.415C113.405 119.415 114.119 118.992 114.537 118.145H116.565C116.29 118.981 115.79 119.668 115.065 120.207C114.35 120.734 113.46 120.998 112.394 120.998C111.525 120.998 110.745 120.806 110.052 120.421C109.371 120.025 108.832 119.476 108.436 118.772C108.052 118.058 107.859 117.233 107.859 116.299C107.859 115.364 108.046 114.545 108.42 113.842C108.805 113.127 109.338 112.578 110.019 112.193C110.712 111.808 111.503 111.616 112.394 111.616C113.251 111.616 114.015 111.803 114.686 112.177C115.356 112.55 115.878 113.078 116.252 113.76C116.626 114.43 116.813 115.205 116.813 116.084ZM114.85 115.491C114.839 114.798 114.592 114.243 114.108 113.825C113.625 113.408 113.026 113.199 112.311 113.199C111.663 113.199 111.108 113.408 110.646 113.825C110.184 114.232 109.909 114.787 109.821 115.491H114.85Z" fill="white"/>
</g>
<g filter="url(#filter1_d_2714_64)">
<path d="M72.1367 81.2061L78.0865 70.9007L66.1869 70.9007L72.1367 81.2061ZM72.1367 72.5937L73.1673 72.5937L73.1673 66.8522L72.1367 66.8522L71.1062 66.8522L71.1062 72.5937L72.1367 72.5937ZM72.1367 61.1106L73.1673 61.1106L73.1673 55.3691L72.1367 55.3691L71.1062 55.3691L71.1062 61.1106L72.1367 61.1106ZM72.1367 49.6275L73.1673 49.6275L73.1673 43.886L72.1367 43.886L71.1062 43.886L71.1062 49.6275L72.1367 49.6275ZM72.1367 38.1444L73.1673 38.1444L73.1673 32.4029L72.1367 32.4029L71.1062 32.4029L71.1062 38.1444L72.1367 38.1444ZM72.1367 26.6613L73.1673 26.6613L73.1673 20.9198L72.1367 20.9198L71.1062 20.9198L71.1062 26.6613L72.1367 26.6613ZM72.1367 15.1782L73.1673 15.1782L73.1673 9.43669L72.1367 9.43669L71.1062 9.43669L71.1062 15.1782L72.1367 15.1782ZM72.1367 3.69514L73.1673 3.69514L73.1673 0.824371L72.1367 0.824371L71.1062 0.824371L71.1062 3.69514L72.1367 3.69514Z" fill="#FF0000"/>
</g>
<defs>
<filter id="filter0_d_2714_64" x="-0.0010438" y="92.5439" width="131.854" height="53.8546" filterUnits="userSpaceOnUse" color-interpolation-filters="sRGB">
<feFlood flood-opacity="0" result="BackgroundImageFix"/>
<feColorMatrix in="SourceAlpha" type="matrix" values="0 0 0 0 0 0 0 0 0 0 0 0 0 0 0 0 0 0 127 0" result="hardAlpha"/>
<feOffset dy="4.12214"/>
<feGaussianBlur stdDeviation="2.06107"/>
<feComposite in2="hardAlpha" operator="out"/>
<feColorMatrix type="matrix" values="0 0 0 0 0 0 0 0 0 0 0 0 0 0 0 0 0 0 0.09 0"/>
<feBlend mode="normal" in2="BackgroundImageFix" result="effect1_dropShadow_2714_64"/>
<feBlend mode="normal" in="SourceGraphic" in2="effect1_dropShadow_2714_64" result="shape"/>
</filter>
<filter id="filter1_d_2714_64" x="64.8478" y="-0.000208437" width="14.5778" height="83.0612" filterUnits="userSpaceOnUse" color-interpolation-filters="sRGB">
<feFlood flood-opacity="0" result="BackgroundImageFix"/>
<feColorMatrix in="SourceAlpha" type="matrix" values="0 0 0 0 0 0 0 0 0 0 0 0 0 0 0 0 0 0 127 0" result="hardAlpha"/>
<feOffset dy="0.515267"/>
<feGaussianBlur stdDeviation="0.669847"/>
<feComposite in2="hardAlpha" operator="out"/>
<feColorMatrix type="matrix" values="0 0 0 0 1 0 0 0 0 1 0 0 0 0 1 0 0 0 1 0"/>
<feBlend mode="normal" in2="BackgroundImageFix" result="effect1_dropShadow_2714_64"/>
<feBlend mode="normal" in="SourceGraphic" in2="effect1_dropShadow_2714_64" result="shape"/>
</filter>
</defs>
</svg>
