<svg width="212" height="43" viewBox="0 0 212 43" fill="none" xmlns="http://www.w3.org/2000/svg">
<path d="M17.0385 0.289825V14.8066H13.5024V6.10069L10.2557 14.8066H7.40198L4.13467 6.08001V14.8066H0.598518V0.289825H4.77572L8.84953 10.3399L12.882 0.289825H17.0385ZM28.6182 12.2424H23.2003L22.3317 14.8066H18.6302L23.8827 0.289825H27.9772L33.2297 14.8066H29.4867L28.6182 12.2424ZM27.7083 9.51276L25.9092 4.1982L24.1308 9.51276H27.7083ZM47.8148 14.8066H44.2787L38.3644 5.85254V14.8066H34.8283V0.289825H38.3644L44.2787 9.28529V0.289825H47.8148V14.8066ZM59.4149 12.2424H53.997L53.1284 14.8066H49.4269L54.6794 0.289825H58.7739L64.0264 14.8066H60.2834L59.4149 12.2424ZM58.505 9.51276L56.7059 4.1982L54.9275 9.51276H58.505ZM75.2615 4.88061C74.9996 4.3981 74.6204 4.03276 74.1241 3.78461C73.6416 3.52268 73.0695 3.39171 72.4078 3.39171C71.2635 3.39171 70.3467 3.77083 69.6574 4.52907C68.9681 5.27352 68.6235 6.27301 68.6235 7.52755C68.6235 8.86481 68.9819 9.91256 69.6988 10.6708C70.4295 11.4152 71.429 11.7875 72.6973 11.7875C73.5658 11.7875 74.2965 11.5669 74.8893 11.1257C75.4959 10.6846 75.937 10.0504 76.2127 9.22325H71.7254V6.61767H79.418V9.90566C79.1561 10.788 78.708 11.6083 78.0739 12.3665C77.4535 13.1247 76.6608 13.7382 75.6958 14.2069C74.7307 14.6757 73.6416 14.91 72.4284 14.91C70.9947 14.91 69.7126 14.5998 68.5821 13.9795C67.4654 13.3453 66.59 12.4699 65.9559 11.3532C65.3355 10.2365 65.0253 8.96131 65.0253 7.52755C65.0253 6.09379 65.3355 4.81858 65.9559 3.7019C66.59 2.57143 67.4654 1.69601 68.5821 1.07564C69.6988 0.441472 70.974 0.124391 72.4078 0.124391C74.1448 0.124391 75.6062 0.544868 76.7918 1.38582C77.9912 2.22678 78.7839 3.39171 79.1699 4.88061H75.2615ZM84.9129 3.12288V6.05933H89.6484V8.78899H84.9129V11.9736H90.2688V14.8066H81.3767V0.289825H90.2688V3.12288H84.9129ZM108.051 14.8066L106.707 13.5038C105.37 14.524 103.771 15.0341 101.91 15.0341C100.793 15.0341 99.8212 14.8549 98.994 14.4965C98.1668 14.1242 97.5258 13.6072 97.0708 12.9455C96.6297 12.27 96.4091 11.4842 96.4091 10.5881C96.4091 9.67819 96.6503 8.85792 97.1329 8.12725C97.6292 7.3828 98.3667 6.77621 99.3455 6.30748C98.9871 5.86632 98.732 5.44584 98.5804 5.04605C98.4288 4.63246 98.3529 4.18441 98.3529 3.7019C98.3529 3.01259 98.5321 2.38532 98.8906 1.82009C99.249 1.25486 99.766 0.813698 100.442 0.496617C101.131 0.16575 101.944 0.000315807 102.882 0.000315807C103.833 0.000315807 104.639 0.172643 105.301 0.517296C105.963 0.86195 106.459 1.32379 106.79 1.9028C107.121 2.48182 107.273 3.11599 107.245 3.80529H103.916C103.929 3.43307 103.833 3.15045 103.626 2.95744C103.433 2.75065 103.171 2.64726 102.84 2.64726C102.509 2.64726 102.234 2.74376 102.013 2.93677C101.793 3.12977 101.682 3.37792 101.682 3.68122C101.682 3.97073 101.772 4.27402 101.951 4.5911C102.144 4.90819 102.441 5.27352 102.84 5.6871L106.376 9.14053C106.404 9.0716 106.439 8.98889 106.48 8.89238C106.535 8.79588 106.59 8.68559 106.645 8.56151L107.41 7.25872H110.947L109.954 9.05782C109.582 9.8712 109.154 10.6432 108.672 11.3739L112.167 14.8066H108.051ZM102.075 12.1804C102.999 12.1804 103.819 11.9184 104.536 11.3946L101.31 8.27201C100.317 8.78209 99.8212 9.4714 99.8212 10.3399C99.8212 10.8638 100.021 11.305 100.421 11.6634C100.834 12.0081 101.386 12.1804 102.075 12.1804ZM126.865 12.2424H121.447L120.578 14.8066H116.877L122.129 0.289825H126.224L131.476 14.8066H127.733L126.865 12.2424ZM125.955 9.51276L124.156 4.1982L122.377 9.51276H125.955ZM132.475 7.52755C132.475 6.09379 132.785 4.81858 133.406 3.7019C134.026 2.57143 134.888 1.69601 135.991 1.07564C137.107 0.441472 138.369 0.124391 139.775 0.124391C141.498 0.124391 142.973 0.579334 144.2 1.48922C145.427 2.39911 146.247 3.63986 146.661 5.21148H142.773C142.484 4.60489 142.07 4.14305 141.533 3.82597C141.009 3.50889 140.409 3.35035 139.734 3.35035C138.644 3.35035 137.762 3.72947 137.087 4.48771C136.411 5.24595 136.073 6.25923 136.073 7.52755C136.073 8.79588 136.411 9.80916 137.087 10.5674C137.762 11.3256 138.644 11.7048 139.734 11.7048C140.409 11.7048 141.009 11.5462 141.533 11.2291C142.07 10.9121 142.484 10.4502 142.773 9.84363H146.661C146.247 11.4152 145.427 12.656 144.2 13.5659C142.973 14.462 141.498 14.91 139.775 14.91C138.369 14.91 137.107 14.5998 135.991 13.9795C134.888 13.3453 134.026 12.4699 133.406 11.3532C132.785 10.2365 132.475 8.96131 132.475 7.52755ZM148.227 7.52755C148.227 6.09379 148.537 4.81858 149.157 3.7019C149.778 2.57143 150.639 1.69601 151.742 1.07564C152.859 0.441472 154.12 0.124391 155.527 0.124391C157.25 0.124391 158.725 0.579334 159.952 1.48922C161.179 2.39911 161.999 3.63986 162.413 5.21148H158.525C158.236 4.60489 157.822 4.14305 157.284 3.82597C156.76 3.50889 156.161 3.35035 155.485 3.35035C154.396 3.35035 153.514 3.72947 152.838 4.48771C152.163 5.24595 151.825 6.25923 151.825 7.52755C151.825 8.79588 152.163 9.80916 152.838 10.5674C153.514 11.3256 154.396 11.7048 155.485 11.7048C156.161 11.7048 156.76 11.5462 157.284 11.2291C157.822 10.9121 158.236 10.4502 158.525 9.84363H162.413C161.999 11.4152 161.179 12.656 159.952 13.5659C158.725 14.462 157.25 14.91 155.527 14.91C154.12 14.91 152.859 14.5998 151.742 13.9795C150.639 13.3453 149.778 12.4699 149.157 11.3532C148.537 10.2365 148.227 8.96131 148.227 7.52755ZM168.114 3.12288V6.05933H172.85V8.78899H168.114V11.9736H173.47V14.8066H164.578V0.289825H173.47V3.12288H168.114ZM181.019 14.9514C179.957 14.9514 179.006 14.7791 178.165 14.4344C177.324 14.0898 176.648 13.5797 176.138 12.9042C175.642 12.2286 175.38 11.4152 175.353 10.464H179.116C179.171 11.0017 179.357 11.4152 179.674 11.7048C179.992 11.9805 180.405 12.1183 180.915 12.1183C181.439 12.1183 181.853 12.0012 182.156 11.7668C182.459 11.5186 182.611 11.1809 182.611 10.7535C182.611 10.3951 182.487 10.0987 182.239 9.86431C182.004 9.62994 181.708 9.43694 181.349 9.28529C181.005 9.13364 180.509 8.96131 179.861 8.76831C178.923 8.4788 178.158 8.18929 177.565 7.89978C176.972 7.61027 176.462 7.1829 176.035 6.61767C175.608 6.05244 175.394 5.31488 175.394 4.40499C175.394 3.05395 175.883 1.99931 176.862 1.24107C177.841 0.469045 179.116 0.0830329 180.688 0.0830329C182.287 0.0830329 183.576 0.469045 184.555 1.24107C185.534 1.99931 186.057 3.06084 186.126 4.42567H182.301C182.273 3.95694 182.101 3.59161 181.784 3.32967C181.467 3.05395 181.06 2.91609 180.564 2.91609C180.136 2.91609 179.792 3.03327 179.53 3.26763C179.268 3.48821 179.137 3.81219 179.137 4.23956C179.137 4.70829 179.357 5.07362 179.799 5.33556C180.24 5.59749 180.929 5.88011 181.866 6.1834C182.804 6.50049 183.562 6.80378 184.141 7.09329C184.734 7.3828 185.244 7.80328 185.671 8.35472C186.099 8.90617 186.312 9.61616 186.312 10.4847C186.312 11.3119 186.099 12.0632 185.671 12.7387C185.258 13.4142 184.651 13.9519 183.852 14.3517C183.052 14.7515 182.108 14.9514 181.019 14.9514ZM193.741 14.9514C192.68 14.9514 191.728 14.7791 190.887 14.4344C190.046 14.0898 189.371 13.5797 188.861 12.9042C188.365 12.2286 188.103 11.4152 188.075 10.464H191.839C191.894 11.0017 192.08 11.4152 192.397 11.7048C192.714 11.9805 193.128 12.1183 193.638 12.1183C194.162 12.1183 194.575 12.0012 194.879 11.7668C195.182 11.5186 195.333 11.1809 195.333 10.7535C195.333 10.3951 195.209 10.0987 194.961 9.86431C194.727 9.62994 194.43 9.43694 194.072 9.28529C193.727 9.13364 193.231 8.96131 192.583 8.76831C191.646 8.4788 190.881 8.18929 190.288 7.89978C189.695 7.61027 189.185 7.1829 188.757 6.61767C188.33 6.05244 188.116 5.31488 188.116 4.40499C188.116 3.05395 188.606 1.99931 189.585 1.24107C190.563 0.469045 191.839 0.0830329 193.41 0.0830329C195.01 0.0830329 196.299 0.469045 197.277 1.24107C198.256 1.99931 198.78 3.06084 198.849 4.42567H195.023C194.996 3.95694 194.823 3.59161 194.506 3.32967C194.189 3.05395 193.783 2.91609 193.286 2.91609C192.859 2.91609 192.514 3.03327 192.252 3.26763C191.99 3.48821 191.859 3.81219 191.859 4.23956C191.859 4.70829 192.08 5.07362 192.521 5.33556C192.962 5.59749 193.652 5.88011 194.589 6.1834C195.526 6.50049 196.285 6.80378 196.864 7.09329C197.457 7.3828 197.967 7.80328 198.394 8.35472C198.821 8.90617 199.035 9.61616 199.035 10.4847C199.035 11.3119 198.821 12.0632 198.394 12.7387C197.98 13.4142 197.374 13.9519 196.574 14.3517C195.775 14.7515 194.83 14.9514 193.741 14.9514ZM-0.00117936 35.5276C-0.00117936 34.0938 0.309009 32.8186 0.929386 31.7019C1.54976 30.5714 2.4114 29.696 3.51429 29.0756C4.63097 28.4415 5.8924 28.1244 7.29859 28.1244C9.02186 28.1244 10.497 28.5793 11.7239 29.4892C12.9509 30.3991 13.7712 31.6399 14.1848 33.2115H10.2971C10.0076 32.6049 9.59398 32.1431 9.05632 31.826C8.53245 31.5089 7.93275 31.3504 7.25723 31.3504C6.16812 31.3504 5.28581 31.7295 4.61029 32.4877C3.93477 33.2459 3.59701 34.2592 3.59701 35.5276C3.59701 36.7959 3.93477 37.8092 4.61029 38.5674C5.28581 39.3256 6.16812 39.7048 7.25723 39.7048C7.93275 39.7048 8.53245 39.5462 9.05632 39.2291C9.59398 38.9121 10.0076 38.4502 10.2971 37.8436H14.1848C13.7712 39.4152 12.9509 40.656 11.7239 41.5659C10.497 42.462 9.02186 42.91 7.29859 42.91C5.8924 42.91 4.63097 42.5998 3.51429 41.9795C2.4114 41.3453 1.54976 40.4699 0.929386 39.3532C0.309009 38.2365 -0.00117936 36.9613 -0.00117936 35.5276ZM25.3871 40.2424H19.9691L19.1006 42.8066H15.399L20.6515 28.2898H24.746L29.9986 42.8066H26.2556L25.3871 40.2424ZM24.4772 37.5128L22.6781 32.1982L20.8997 37.5128H24.4772ZM42.0402 28.2898V31.1229H38.1938V42.8066H34.6577V31.1229H30.8113V28.2898H42.0402ZM52.8517 40.2424H47.4337L46.5652 42.8066H42.8636L48.1161 28.2898H52.2106L57.4632 42.8066H53.7202L52.8517 40.2424ZM51.9418 37.5128L50.1427 32.1982L48.3643 37.5128H51.9418ZM62.5979 40.077H67.23V42.8066H59.0618V28.2898H62.5979V40.077ZM75.7822 42.9514C74.4174 42.9514 73.1628 42.6343 72.0186 42.0002C70.8881 41.366 69.9851 40.4837 69.3096 39.3532C68.6479 38.209 68.317 36.9268 68.317 35.5069C68.317 34.0869 68.6479 32.8117 69.3096 31.6812C69.9851 30.5508 70.8881 29.6684 72.0186 29.0343C73.1628 28.4001 74.4174 28.083 75.7822 28.083C77.147 28.083 78.3947 28.4001 79.5251 29.0343C80.6694 29.6684 81.5655 30.5508 82.2134 31.6812C82.8752 32.8117 83.206 34.0869 83.206 35.5069C83.206 36.9268 82.8752 38.209 82.2134 39.3532C81.5517 40.4837 80.6556 41.366 79.5251 42.0002C78.3947 42.6343 77.147 42.9514 75.7822 42.9514ZM75.7822 39.7254C76.9402 39.7254 77.8639 39.3394 78.5532 38.5674C79.2563 37.7954 79.6079 36.7752 79.6079 35.5069C79.6079 34.2248 79.2563 33.2046 78.5532 32.4463C77.8639 31.6743 76.9402 31.2883 75.7822 31.2883C74.6104 31.2883 73.6729 31.6674 72.9698 32.4257C72.2805 33.1839 71.9359 34.211 71.9359 35.5069C71.9359 36.789 72.2805 37.8161 72.9698 38.5881C73.6729 39.3463 74.6104 39.7254 75.7822 39.7254ZM94.8098 32.8806C94.5479 32.3981 94.1688 32.0328 93.6725 31.7846C93.19 31.5227 92.6178 31.3917 91.9561 31.3917C90.8119 31.3917 89.8951 31.7708 89.2058 32.5291C88.5165 33.2735 88.1718 34.273 88.1718 35.5276C88.1718 36.8648 88.5302 37.9126 89.2471 38.6708C89.9778 39.4152 90.9773 39.7875 92.2456 39.7875C93.1141 39.7875 93.8448 39.5669 94.4376 39.1257C95.0442 38.6846 95.4854 38.0504 95.7611 37.2232H91.2737V34.6177H98.9664V37.9057C98.7044 38.788 98.2564 39.6083 97.6222 40.3665C97.0018 41.1247 96.2091 41.7382 95.2441 42.2069C94.2791 42.6757 93.19 42.91 91.9768 42.91C90.543 42.91 89.2609 42.5998 88.1304 41.9795C87.0138 41.3453 86.1383 40.4699 85.5042 39.3532C84.8838 38.2365 84.5736 36.9613 84.5736 35.5276C84.5736 34.0938 84.8838 32.8186 85.5042 31.7019C86.1383 30.5714 87.0138 29.696 88.1304 29.0756C89.2471 28.4415 90.5223 28.1244 91.9561 28.1244C93.6932 28.1244 95.1545 28.5449 96.3401 29.3858C97.5395 30.2268 98.3322 31.3917 98.7182 32.8806H94.8098ZM104.399 28.2898V36.9751C104.399 37.8436 104.613 38.5123 105.04 38.981C105.468 39.4497 106.095 39.6841 106.922 39.6841C107.749 39.6841 108.383 39.4497 108.825 38.981C109.266 38.5123 109.486 37.8436 109.486 36.9751V28.2898H113.022V36.9544C113.022 38.2503 112.747 39.3463 112.195 40.2424C111.644 41.1385 110.899 41.814 109.962 42.269C109.038 42.7239 108.004 42.9514 106.86 42.9514C105.716 42.9514 104.689 42.7308 103.779 42.2897C102.883 41.8347 102.173 41.1592 101.649 40.2631C101.125 39.3532 100.863 38.2503 100.863 36.9544V28.2898H104.399ZM119.042 31.1229V34.0593H123.777V36.789H119.042V39.9736H124.398V42.8066H115.506V28.2898H124.398V31.1229H119.042ZM131.946 42.9514C130.884 42.9514 129.933 42.7791 129.092 42.4344C128.251 42.0898 127.576 41.5797 127.066 40.9042C126.569 40.2286 126.307 39.4152 126.28 38.464H130.043C130.099 39.0017 130.285 39.4152 130.602 39.7048C130.919 39.9805 131.332 40.1183 131.842 40.1183C132.366 40.1183 132.78 40.0012 133.083 39.7668C133.386 39.5186 133.538 39.1809 133.538 38.7535C133.538 38.3951 133.414 38.0987 133.166 37.8643C132.932 37.6299 132.635 37.4369 132.277 37.2853C131.932 37.1336 131.436 36.9613 130.788 36.7683C129.85 36.4788 129.085 36.1893 128.492 35.8998C127.9 35.6103 127.39 35.1829 126.962 34.6177C126.535 34.0524 126.321 33.3149 126.321 32.405C126.321 31.0539 126.811 29.9993 127.789 29.2411C128.768 28.469 130.043 28.083 131.615 28.083C133.214 28.083 134.503 28.469 135.482 29.2411C136.461 29.9993 136.985 31.0608 137.054 32.4257H133.228C133.2 31.9569 133.028 31.5916 132.711 31.3297C132.394 31.0539 131.987 30.9161 131.491 30.9161C131.064 30.9161 130.719 31.0333 130.457 31.2676C130.195 31.4882 130.064 31.8122 130.064 32.2396C130.064 32.7083 130.285 33.0736 130.726 33.3356C131.167 33.5975 131.856 33.8801 132.794 34.1834C133.731 34.5005 134.489 34.8038 135.068 35.0933C135.661 35.3828 136.171 35.8033 136.599 36.3547C137.026 36.9062 137.24 37.6162 137.24 38.4847C137.24 39.3119 137.026 40.0632 136.599 40.7387C136.185 41.4142 135.578 41.9519 134.779 42.3517C133.979 42.7515 133.035 42.9514 131.946 42.9514Z" fill="black"/>
<path d="M147.334 31.1229V34.0593H152.07V36.789H147.334V39.9736H152.69V42.8066H143.798V28.2898H152.69V31.1229H147.334ZM164.023 40.2424H158.605L157.736 42.8066H154.035L159.287 28.2898H163.382L168.634 42.8066H164.891L164.023 40.2424ZM163.113 37.5128L161.314 32.1982L159.535 37.5128H163.113ZM175.485 42.9514C174.424 42.9514 173.473 42.7791 172.632 42.4344C171.791 42.0898 171.115 41.5797 170.605 40.9042C170.109 40.2286 169.847 39.4152 169.819 38.464H173.583C173.638 39.0017 173.824 39.4152 174.141 39.7048C174.458 39.9805 174.872 40.1183 175.382 40.1183C175.906 40.1183 176.319 40.0012 176.623 39.7668C176.926 39.5186 177.078 39.1809 177.078 38.7535C177.078 38.3951 176.954 38.0987 176.705 37.8643C176.471 37.6299 176.175 37.4369 175.816 37.2853C175.472 37.1336 174.975 36.9613 174.327 36.7683C173.39 36.4788 172.625 36.1893 172.032 35.8998C171.439 35.6103 170.929 35.1829 170.502 34.6177C170.074 34.0524 169.861 33.3149 169.861 32.405C169.861 31.0539 170.35 29.9993 171.329 29.2411C172.308 28.469 173.583 28.083 175.154 28.083C176.754 28.083 178.043 28.469 179.021 29.2411C180 29.9993 180.524 31.0608 180.593 32.4257H176.767C176.74 31.9569 176.568 31.5916 176.25 31.3297C175.933 31.0539 175.527 30.9161 175.03 30.9161C174.603 30.9161 174.258 31.0333 173.996 31.2676C173.734 31.4882 173.603 31.8122 173.603 32.2396C173.603 32.7083 173.824 33.0736 174.265 33.3356C174.706 33.5975 175.396 33.8801 176.333 34.1834C177.271 34.5005 178.029 34.8038 178.608 35.0933C179.201 35.3828 179.711 35.8033 180.138 36.3547C180.565 36.9062 180.779 37.6162 180.779 38.4847C180.779 39.3119 180.565 40.0632 180.138 40.7387C179.725 41.4142 179.118 41.9519 178.318 42.3517C177.519 42.7515 176.574 42.9514 175.485 42.9514ZM186.491 28.2898V42.8066H182.955V28.2898H186.491ZM192.59 40.077H197.222V42.8066H189.054V28.2898H192.59V40.077ZM211.358 28.2898L206.333 38.0091V42.8066H202.797V38.0091L197.772 28.2898H201.783L204.596 34.3695L207.388 28.2898H211.358Z" fill="#626262"/>
</svg>
