<svg width="207" height="141" viewBox="0 0 207 141" fill="none" xmlns="http://www.w3.org/2000/svg">
<path d="M12.4911 23.2084C10.3608 23.2084 8.40254 22.7134 6.61647 21.7236C4.85191 20.7337 3.44242 19.3565 2.38799 17.5919C1.35508 15.8059 0.838626 13.8046 0.838626 11.5881C0.838626 9.37168 1.35508 7.38118 2.38799 5.61662C3.44242 3.85207 4.85191 2.47486 6.61647 1.48499C8.40254 0.495115 10.3608 0.000178646 12.4911 0.000178646C14.6215 0.000178646 16.569 0.495115 18.3335 1.48499C20.1196 2.47486 21.5183 3.85207 22.5297 5.61662C23.5626 7.38118 24.0791 9.37168 24.0791 11.5881C24.0791 13.8046 23.5626 15.8059 22.5297 17.5919C21.4968 19.3565 20.0981 20.7337 18.3335 21.7236C16.569 22.7134 14.6215 23.2084 12.4911 23.2084ZM12.4911 18.1729C14.2987 18.1729 15.7405 17.5704 16.8164 16.3653C17.9139 15.1603 18.4627 13.5679 18.4627 11.5881C18.4627 9.58687 17.9139 7.99447 16.8164 6.81093C15.7405 5.60587 14.2987 5.00333 12.4911 5.00333C10.662 5.00333 9.19874 5.59511 8.10127 6.77865C7.02533 7.96219 6.48735 9.56535 6.48735 11.5881C6.48735 13.5894 7.02533 15.1926 8.10127 16.3976C9.19874 17.5812 10.662 18.1729 12.4911 18.1729ZM38.7055 22.9824L33.9929 14.4286H32.6694V22.9824H27.1498V0.322963H36.4137C38.1998 0.322963 39.7169 0.634987 40.965 1.25904C42.2346 1.88309 43.1815 2.74384 43.8055 3.84131C44.4296 4.91726 44.7416 6.12232 44.7416 7.4565C44.7416 8.96282 44.3112 10.3078 43.4504 11.4913C42.6112 12.6748 41.3631 13.5141 39.7061 14.009L44.9353 22.9824H38.7055ZM32.6694 10.5229H36.091C37.1024 10.5229 37.8555 10.2755 38.3504 9.78054C38.8669 9.28561 39.1251 8.58624 39.1251 7.68244C39.1251 6.82169 38.8669 6.14384 38.3504 5.6489C37.8555 5.15397 37.1024 4.9065 36.091 4.9065H32.6694V10.5229ZM63.2482 7.48877C62.8394 6.73561 62.2476 6.16536 61.4729 5.77802C60.7197 5.36916 59.8267 5.16473 58.7938 5.16473C57.0077 5.16473 55.5767 5.7565 54.5008 6.94004C53.4248 8.10206 52.8868 9.66219 52.8868 11.6204C52.8868 13.7078 53.4463 15.3432 54.5653 16.5267C55.7058 17.6888 57.2659 18.2698 59.2457 18.2698C60.6014 18.2698 61.7419 17.9255 62.6672 17.2369C63.614 16.5483 64.3026 15.5584 64.733 14.2672H57.7286V10.2002H69.7362V15.3324C69.3273 16.7096 68.628 17.99 67.6381 19.1736C66.6697 20.3571 65.4324 21.3147 63.9261 22.0463C62.4197 22.778 60.7197 23.1438 58.8261 23.1438C56.5881 23.1438 54.5868 22.6596 52.8223 21.6913C51.0792 20.7014 49.7128 19.335 48.7229 17.5919C47.7546 15.8489 47.2704 13.8584 47.2704 11.6204C47.2704 9.38244 47.7546 7.39194 48.7229 5.6489C49.7128 3.88435 51.0792 2.5179 52.8223 1.54954C54.5653 0.559671 56.5558 0.0647347 58.7938 0.0647347C61.5052 0.0647347 63.7862 0.721063 65.6368 2.03372C67.509 3.34638 68.7463 5.16473 69.3488 7.48877H63.2482ZM86.8992 18.9799H78.4423L77.0866 22.9824H71.3087L79.5075 0.322963H85.8986L94.0973 22.9824H88.2549L86.8992 18.9799ZM85.479 14.7191L82.6708 6.42359L79.8948 14.7191H85.479ZM116.863 22.9824H111.344L102.112 9.00586V22.9824H96.5926V0.322963H102.112L111.344 14.3641V0.322963H116.863V22.9824ZM126.384 0.322963V22.9824H120.864V0.322963H126.384ZM136.259 18.4634H146.007V22.9824H129.997V18.7862L139.68 4.84194H129.997V0.322963H146.007V4.51916L136.259 18.4634ZM155.132 4.74511V9.32865H162.524V13.5894H155.132V18.5603H163.492V22.9824H149.612V0.322963H163.492V4.74511H155.132Z" fill="#626262"/>
<path d="M21.2063 39.323L13.3627 54.4938V61.9824H7.84305V54.4938L-0.000613476 39.323H6.2614L10.6513 48.8128L15.0089 39.323H21.2063ZM34.1467 62.2084C32.0163 62.2084 30.0581 61.7134 28.272 60.7236C26.5075 59.7337 25.098 58.3565 24.0435 56.5919C23.0106 54.8059 22.4942 52.8046 22.4942 50.5881C22.4942 48.3717 23.0106 46.3812 24.0435 44.6166C25.098 42.8521 26.5075 41.4749 28.272 40.485C30.0581 39.4951 32.0163 39.0002 34.1467 39.0002C36.2771 39.0002 38.2245 39.4951 39.9891 40.485C41.7752 41.4749 43.1739 42.8521 44.1853 44.6166C45.2182 46.3812 45.7346 48.3717 45.7346 50.5881C45.7346 52.8046 45.2182 54.8059 44.1853 56.5919C43.1524 58.3565 41.7536 59.7337 39.9891 60.7236C38.2245 61.7134 36.2771 62.2084 34.1467 62.2084ZM34.1467 57.1729C35.9543 57.1729 37.396 56.5704 38.472 55.3653C39.5695 54.1603 40.1182 52.5679 40.1182 50.5881C40.1182 48.5869 39.5695 46.9945 38.472 45.8109C37.396 44.6059 35.9543 44.0033 34.1467 44.0033C32.3176 44.0033 30.8543 44.5951 29.7568 45.7786C28.6809 46.9622 28.1429 48.5654 28.1429 50.5881C28.1429 52.5894 28.6809 54.1926 29.7568 55.3976C30.8543 56.5812 32.3176 57.1729 34.1467 57.1729ZM54.2282 39.323V52.8799C54.2282 54.2356 54.5617 55.2793 55.2288 56.0109C55.8959 56.7426 56.875 57.1084 58.1661 57.1084C59.4573 57.1084 60.4471 56.7426 61.1357 56.0109C61.8243 55.2793 62.1687 54.2356 62.1687 52.8799V39.323H67.6883V52.8476C67.6883 54.8704 67.2579 56.5812 66.3971 57.9799C65.5364 59.3786 64.3743 60.4331 62.9111 61.1432C61.4693 61.8533 59.8554 62.2084 58.0693 62.2084C56.2832 62.2084 54.6801 61.8641 53.2598 61.1755C51.8611 60.4653 50.7528 59.4109 49.9351 58.0122C49.1174 56.5919 48.7085 54.8704 48.7085 52.8476V39.323H54.2282ZM83.1199 61.9824L78.4072 53.4286H77.0838V61.9824H71.5642V39.323H80.8281C82.6142 39.323 84.1313 39.635 85.3794 40.259C86.649 40.8831 87.5958 41.7438 88.2199 42.8413C88.8439 43.9173 89.1559 45.1223 89.1559 46.4565C89.1559 47.9628 88.7256 49.3078 87.8648 50.4913C87.0256 51.6748 85.7775 52.5141 84.1205 53.009L89.3496 61.9824H83.1199ZM77.0838 49.5229H80.5053C81.5167 49.5229 82.2699 49.2755 82.7648 48.7805C83.2813 48.2856 83.5395 47.5862 83.5395 46.6824C83.5395 45.8217 83.2813 45.1438 82.7648 44.6489C82.2699 44.154 81.5167 43.9065 80.5053 43.9065H77.0838V49.5229ZM0.838626 89.6204C0.838626 87.3824 1.3228 85.3919 2.29116 83.6489C3.25951 81.8843 4.60444 80.5179 6.32596 79.5495C8.06899 78.5597 10.038 78.0647 12.2329 78.0647C14.9228 78.0647 17.2253 78.7749 19.1405 80.1951C21.0557 81.6154 22.3361 83.5521 22.9816 86.0052H16.9133C16.4614 85.0584 15.8158 84.3375 14.9766 83.8426C14.1589 83.3476 13.2228 83.1002 12.1684 83.1002C10.4684 83.1002 9.09114 83.6919 8.03672 84.8755C6.98229 86.059 6.45507 87.6407 6.45507 89.6204C6.45507 91.6002 6.98229 93.1818 8.03672 94.3653C9.09114 95.5489 10.4684 96.1407 12.1684 96.1407C13.2228 96.1407 14.1589 95.8932 14.9766 95.3983C15.8158 94.9033 16.4614 94.1824 16.9133 93.2356H22.9816C22.3361 95.6888 21.0557 97.6255 19.1405 99.0457C17.2253 100.444 14.9228 101.144 12.2329 101.144C10.038 101.144 8.06899 100.66 6.32596 99.6913C4.60444 98.7014 3.25951 97.335 2.29116 95.5919C1.3228 93.8489 0.838626 91.8584 0.838626 89.6204ZM37.0782 101.208C34.9478 101.208 32.9896 100.713 31.2036 99.7236C29.439 98.7337 28.0295 97.3565 26.9751 95.5919C25.9422 93.8059 25.4257 91.8046 25.4257 89.5881C25.4257 87.3717 25.9422 85.3812 26.9751 83.6166C28.0295 81.8521 29.439 80.4749 31.2036 79.485C32.9896 78.4951 34.9478 78.0002 37.0782 78.0002C39.2086 78.0002 41.1561 78.4951 42.9206 79.485C44.7067 80.4749 46.1054 81.8521 47.1168 83.6166C48.1497 85.3812 48.6662 87.3717 48.6662 89.5881C48.6662 91.8046 48.1497 93.8059 47.1168 95.5919C46.0839 97.3565 44.6852 98.7337 42.9206 99.7236C41.1561 100.713 39.2086 101.208 37.0782 101.208ZM37.0782 96.1729C38.8858 96.1729 40.3276 95.5704 41.4035 94.3653C42.501 93.1603 43.0497 91.5679 43.0497 89.5881C43.0497 87.5869 42.501 85.9945 41.4035 84.8109C40.3276 83.6059 38.8858 83.0033 37.0782 83.0033C35.2491 83.0033 33.7858 83.5951 32.6884 84.7786C31.6124 85.9622 31.0744 87.5654 31.0744 89.5881C31.0744 91.5894 31.6124 93.1926 32.6884 94.3976C33.7858 95.5812 35.2491 96.1729 37.0782 96.1729ZM72.0078 100.982H66.4882L57.2565 87.0059V100.982H51.7369V78.323H57.2565L66.4882 92.3641V78.323H72.0078V100.982ZM92.3094 78.323V82.7451H86.3056V100.982H80.786V82.7451H74.7822V78.323H92.3094ZM100.599 82.7451V87.3286H107.991V91.5894H100.599V96.5603H108.959V100.982H95.0795V78.323H108.959V82.7451H100.599ZM132.814 100.982H127.294L118.062 87.0059V100.982H112.543V78.323H118.062L127.294 92.3641V78.323H132.814V100.982ZM153.115 78.323V82.7451H147.111V100.982H141.592V82.7451H135.588V78.323H153.115ZM15.493 128.362C16.8057 128.642 17.8601 129.298 18.6563 130.331C19.4525 131.343 19.8506 132.505 19.8506 133.817C19.8506 135.711 19.1835 137.217 17.8494 138.336C16.5367 139.434 14.6968 139.982 12.3297 139.982H1.7747V117.323H11.9747C14.2772 117.323 16.074 117.85 17.3652 118.905C18.6778 119.959 19.3342 121.39 19.3342 123.198C19.3342 124.532 18.9791 125.64 18.269 126.522C17.5804 127.405 16.6551 128.018 15.493 128.362ZM7.29431 126.49H10.9095C11.8133 126.49 12.5019 126.296 12.9753 125.909C13.4703 125.5 13.7177 124.908 13.7177 124.134C13.7177 123.359 13.4703 122.767 12.9753 122.358C12.5019 121.95 11.8133 121.745 10.9095 121.745H7.29431V126.49ZM11.3614 135.528C12.2867 135.528 12.9968 135.324 13.4918 134.915C14.0082 134.484 14.2665 133.871 14.2665 133.075C14.2665 132.279 13.9975 131.655 13.4595 131.203C12.943 130.751 12.2222 130.525 11.2968 130.525H7.29431V135.528H11.3614ZM28.5716 121.745V126.329H35.9634V130.589H28.5716V135.56H36.9317V139.982H23.052V117.323H36.9317V121.745H28.5716ZM54.6208 135.98H46.1638L44.8082 139.982H39.0303L47.229 117.323H53.6202L61.8189 139.982H55.9765L54.6208 135.98ZM53.2005 131.719L50.3923 123.424L47.6164 131.719H53.2005ZM69.7369 117.323V130.88C69.7369 132.236 70.0705 133.279 70.7376 134.011C71.4047 134.743 72.3838 135.108 73.6749 135.108C74.966 135.108 75.9559 134.743 76.6445 134.011C77.3331 133.279 77.6774 132.236 77.6774 130.88V117.323H83.197V130.848C83.197 132.87 82.7667 134.581 81.9059 135.98C81.0451 137.379 79.8831 138.433 78.4198 139.143C76.9781 139.853 75.3641 140.208 73.5781 140.208C71.792 140.208 70.1888 139.864 68.7686 139.175C67.3699 138.465 66.2616 137.411 65.4439 136.012C64.6262 134.592 64.2173 132.87 64.2173 130.848V117.323H69.7369ZM103.374 117.323V121.745H97.3698V139.982H91.8502V121.745H85.8464V117.323H103.374ZM111.663 117.323V139.982H106.144V117.323H111.663ZM130.415 117.323V121.745H121.183V126.522H128.091V130.815H121.183V139.982H115.663V117.323H130.415ZM138.738 117.323V130.88C138.738 132.236 139.072 133.279 139.739 134.011C140.406 134.743 141.385 135.108 142.676 135.108C143.967 135.108 144.957 134.743 145.646 134.011C146.335 133.279 146.679 132.236 146.679 130.88V117.323H152.198V130.848C152.198 132.87 151.768 134.581 150.907 135.98C150.047 137.379 148.885 138.433 147.421 139.143C145.98 139.853 144.366 140.208 142.58 140.208C140.793 140.208 139.19 139.864 137.77 139.175C136.371 138.465 135.263 137.411 134.445 136.012C133.628 134.592 133.219 132.87 133.219 130.848V117.323H138.738ZM161.594 135.722H168.824V139.982H156.074V117.323H161.594V135.722ZM176.977 135.722H184.207V139.982H171.457V117.323H176.977V135.722ZM206.271 117.323L198.428 132.494V139.982H192.908V132.494L185.064 117.323H191.327L195.716 126.813L200.074 117.323H206.271Z" fill="black"/>
</svg>
