<svg width="107" height="85" viewBox="0 0 107 85" fill="none" xmlns="http://www.w3.org/2000/svg">
<path d="M3.35435 7.35692C2.72751 7.35692 2.15883 7.21152 1.64831 6.92071C1.1378 6.62345 0.733905 6.2131 0.436641 5.68965C0.14584 5.15975 0.000438877 4.56199 0.000438877 3.89638C0.000438877 3.23076 0.14584 2.63624 0.436641 2.11279C0.733905 1.58289 1.1378 1.17253 1.64831 0.881733C2.15883 0.584469 2.72751 0.435837 3.35435 0.435837C3.98765 0.435837 4.55956 0.584469 5.07008 0.881733C5.5806 1.17253 5.98126 1.58289 6.27206 2.11279C6.56286 2.63624 6.70826 3.23076 6.70826 3.89638C6.70826 4.56199 6.56286 5.15975 6.27206 5.68965C5.98126 6.2131 5.5806 6.62345 5.07008 6.92071C4.55956 7.21152 3.98765 7.35692 3.35435 7.35692ZM3.35435 6.76562C3.85841 6.76562 4.31077 6.6493 4.71143 6.41666C5.11209 6.18402 5.42874 5.85121 5.66138 5.41824C5.89402 4.9788 6.01034 4.47152 6.01034 3.89638C6.01034 3.32124 5.89402 2.81718 5.66138 2.38421C5.42874 1.95124 5.11209 1.61843 4.71143 1.38579C4.31077 1.15315 3.85841 1.03683 3.35435 1.03683C2.8503 1.03683 2.39794 1.15315 1.99728 1.38579C1.59662 1.61843 1.27997 1.95124 1.04732 2.38421C0.814684 2.81718 0.698363 3.32124 0.698363 3.89638C0.698363 4.47152 0.814684 4.9788 1.04732 5.41824C1.27997 5.85121 1.59662 6.18402 1.99728 6.41666C2.39794 6.6493 2.8503 6.76562 3.35435 6.76562ZM8.62839 2.93673C8.77702 2.60716 9.0032 2.3519 9.30692 2.17095C9.61711 1.99001 9.99515 1.89954 10.4411 1.89954V2.60716H10.2569C9.76574 2.60716 9.37155 2.73963 9.07428 3.00458C8.77702 3.26954 8.62839 3.7122 8.62839 4.33258V7.28906H7.94985V1.99647H8.62839V2.93673ZM13.6816 1.91893C14.1792 1.91893 14.6122 2.03525 14.9805 2.26789C15.3489 2.50053 15.6138 2.79456 15.7754 3.14999V1.99647H16.4539V7.42477C16.4539 7.90944 16.3473 8.33918 16.134 8.71399C15.9272 9.0888 15.6364 9.37637 15.2616 9.5767C14.8868 9.78349 14.4603 9.88689 13.9821 9.88689C13.3036 9.88689 12.7381 9.72533 12.2857 9.40222C11.8399 9.07911 11.562 8.63967 11.4521 8.08392H12.121C12.2373 8.45227 12.457 8.7463 12.7801 8.96602C13.1097 9.18574 13.5103 9.29559 13.9821 9.29559C14.3246 9.29559 14.6315 9.22128 14.903 9.07265C15.1744 8.93048 15.3876 8.71722 15.5427 8.43288C15.6978 8.14854 15.7754 7.81251 15.7754 7.42477V6.11616C15.6073 6.47805 15.3392 6.77854 14.9708 7.01765C14.6089 7.25029 14.1792 7.36661 13.6816 7.36661C13.1969 7.36661 12.7607 7.25352 12.373 7.02734C11.9917 6.80116 11.6912 6.48128 11.4715 6.0677C11.2582 5.65411 11.1516 5.1759 11.1516 4.63307C11.1516 4.09024 11.2582 3.61527 11.4715 3.20815C11.6912 2.79456 11.9917 2.47791 12.373 2.25819C12.7607 2.03201 13.1969 1.91893 13.6816 1.91893ZM15.7754 4.64277C15.7754 4.21626 15.6881 3.84145 15.5136 3.51833C15.3392 3.19522 15.1001 2.94642 14.7963 2.77194C14.4991 2.59746 14.1695 2.51022 13.8076 2.51022C13.4328 2.51022 13.0968 2.59423 12.7995 2.76225C12.5022 2.93027 12.2664 3.17583 12.0919 3.49895C11.9239 3.8156 11.8399 4.19364 11.8399 4.63307C11.8399 5.06605 11.9239 5.44732 12.0919 5.77689C12.2664 6.10001 12.5022 6.3488 12.7995 6.52328C13.0968 6.6913 13.4328 6.77531 13.8076 6.77531C14.1695 6.77531 14.4991 6.68807 14.7963 6.51359C15.1001 6.33911 15.3392 6.09031 15.5136 5.7672C15.6881 5.44409 15.7754 5.06928 15.7754 4.64277ZM17.6928 4.63307C17.6928 4.09024 17.7994 3.61527 18.0126 3.20815C18.2324 2.79456 18.5329 2.47791 18.9141 2.25819C19.3019 2.03201 19.7381 1.91893 20.2227 1.91893C20.7268 1.91893 21.1598 2.03525 21.5217 2.26789C21.89 2.50053 22.155 2.79779 22.3165 3.15968V1.99647H22.995V7.28906H22.3165V6.11616C22.1485 6.47805 21.8803 6.77854 21.512 7.01765C21.1501 7.25029 20.7171 7.36661 20.213 7.36661C19.7348 7.36661 19.3019 7.25352 18.9141 7.02734C18.5329 6.80116 18.2324 6.48128 18.0126 6.0677C17.7994 5.65411 17.6928 5.1759 17.6928 4.63307ZM22.3165 4.64277C22.3165 4.21626 22.2293 3.84145 22.0548 3.51833C21.8803 3.19522 21.6412 2.94642 21.3375 2.77194C21.0402 2.59746 20.7106 2.51022 20.3488 2.51022C19.9739 2.51022 19.6379 2.59423 19.3406 2.76225C19.0434 2.93027 18.8075 3.17583 18.633 3.49895C18.465 3.8156 18.381 4.19364 18.381 4.63307C18.381 5.06605 18.465 5.44732 18.633 5.77689C18.8075 6.10001 19.0434 6.3488 19.3406 6.52328C19.6379 6.6913 19.9739 6.77531 20.3488 6.77531C20.7106 6.77531 21.0402 6.68807 21.3375 6.51359C21.6412 6.33911 21.8803 6.09031 22.0548 5.7672C22.2293 5.44409 22.3165 5.06928 22.3165 4.64277ZM27.0256 1.89954C27.6589 1.89954 28.1759 2.09664 28.5765 2.49084C28.9772 2.87857 29.1775 3.44402 29.1775 4.18718V7.28906H28.5087V4.26473C28.5087 3.68958 28.3633 3.25015 28.0725 2.94642C27.7882 2.6427 27.3972 2.49084 26.8996 2.49084C26.3891 2.49084 25.9819 2.65239 25.6782 2.9755C25.3745 3.29862 25.2226 3.77359 25.2226 4.40043V7.28906H24.5441V1.99647H25.2226V2.89796C25.3907 2.57484 25.633 2.32928 25.9496 2.16126C26.2663 1.98678 26.6249 1.89954 27.0256 1.89954ZM31.0175 0.998053C30.8818 0.998053 30.7654 0.949586 30.6685 0.852653C30.5716 0.755719 30.5231 0.636167 30.5231 0.493997C30.5231 0.351827 30.5716 0.235507 30.6685 0.145035C30.7654 0.0481013 30.8818 -0.000365593 31.0175 -0.000365593C31.1532 -0.000365593 31.2695 0.0481013 31.3664 0.145035C31.4634 0.235507 31.5118 0.351827 31.5118 0.493997C31.5118 0.636167 31.4634 0.755719 31.3664 0.852653C31.2695 0.949586 31.1532 0.998053 31.0175 0.998053ZM31.3567 1.99647V7.28906H30.6782V1.99647H31.3567ZM33.2519 6.72685H36.0242V7.28906H32.4765V6.72685L35.2003 2.55869H32.5249V1.99647H35.9758V2.55869L33.2519 6.72685ZM41.9605 4.37135C41.9605 4.60399 41.9541 4.78171 41.9412 4.90449H37.55C37.5694 5.30515 37.6664 5.64765 37.8408 5.93199C38.0153 6.21633 38.2447 6.43281 38.5291 6.58145C38.8134 6.72361 39.1236 6.7947 39.4596 6.7947C39.8991 6.7947 40.2674 6.68807 40.5647 6.47482C40.8684 6.26156 41.0687 5.97399 41.1657 5.61211H41.883C41.7537 6.12909 41.4759 6.55236 41.0494 6.88194C40.6293 7.20505 40.0994 7.36661 39.4596 7.36661C38.9621 7.36661 38.5162 7.25675 38.122 7.03703C37.7278 6.81086 37.4176 6.4942 37.1914 6.08708C36.9717 5.6735 36.8618 5.19206 36.8618 4.64277C36.8618 4.09348 36.9717 3.61204 37.1914 3.19845C37.4111 2.78487 37.7181 2.46822 38.1123 2.2485C38.5065 2.02878 38.9556 1.91893 39.4596 1.91893C39.9637 1.91893 40.4031 2.02878 40.7779 2.2485C41.1592 2.46822 41.45 2.76548 41.6504 3.14029C41.8571 3.50864 41.9605 3.91899 41.9605 4.37135ZM41.2723 4.35197C41.2788 3.95777 41.198 3.62173 41.03 3.34385C40.8684 3.06598 40.6455 2.85595 40.3611 2.71378C40.0768 2.57161 39.7666 2.50053 39.4306 2.50053C38.9265 2.50053 38.4968 2.66209 38.1413 2.9852C37.7859 3.30831 37.5888 3.7639 37.55 4.35197H41.2723ZM46.5308 3.15968C46.6988 2.80425 46.9638 2.51022 47.3257 2.27758C47.694 2.03848 48.1302 1.91893 48.6343 1.91893C49.1125 1.91893 49.5422 2.03201 49.9235 2.25819C50.3112 2.47791 50.6117 2.79456 50.825 3.20815C51.0447 3.61527 51.1546 4.09024 51.1546 4.63307C51.1546 5.1759 51.0447 5.65411 50.825 6.0677C50.6117 6.48128 50.3112 6.80116 49.9235 7.02734C49.5422 7.25352 49.1125 7.36661 48.6343 7.36661C48.1367 7.36661 47.7037 7.25029 47.3354 7.01765C46.967 6.77854 46.6988 6.48128 46.5308 6.12586V9.78996H45.862V1.99647H46.5308V3.15968ZM50.4663 4.63307C50.4663 4.19364 50.3791 3.8156 50.2046 3.49895C50.0366 3.17583 49.804 2.93027 49.5067 2.76225C49.2094 2.59423 48.8734 2.51022 48.4986 2.51022C48.1367 2.51022 47.8039 2.59746 47.5002 2.77194C47.2029 2.94642 46.967 3.19522 46.7925 3.51833C46.6181 3.84145 46.5308 4.21626 46.5308 4.64277C46.5308 5.06928 46.6181 5.44409 46.7925 5.7672C46.967 6.09031 47.2029 6.33911 47.5002 6.51359C47.8039 6.68807 48.1367 6.77531 48.4986 6.77531C48.8734 6.77531 49.2094 6.6913 49.5067 6.52328C49.804 6.3488 50.0366 6.10001 50.2046 5.77689C50.3791 5.44732 50.4663 5.06605 50.4663 4.63307ZM53.0817 2.93673C53.2303 2.60716 53.4565 2.3519 53.7602 2.17095C54.0704 1.99001 54.4484 1.89954 54.8943 1.89954V2.60716H54.7101C54.219 2.60716 53.8248 2.73963 53.5276 3.00458C53.2303 3.26954 53.0817 3.7122 53.0817 4.33258V7.28906H52.4031V1.99647H53.0817V2.93673ZM58.2318 7.36661C57.7342 7.36661 57.2851 7.25675 56.8844 7.03703C56.4902 6.81086 56.1768 6.4942 55.9442 6.08708C55.718 5.6735 55.6049 5.19206 55.6049 4.64277C55.6049 4.09348 55.7212 3.61527 55.9539 3.20815C56.1865 2.79456 56.5031 2.47791 56.9038 2.25819C57.3045 2.03201 57.7536 1.91893 58.2512 1.91893C58.7488 1.91893 59.1979 2.03201 59.5986 2.25819C60.0057 2.47791 60.3223 2.79456 60.5485 3.20815C60.7812 3.61527 60.8975 4.09348 60.8975 4.64277C60.8975 5.1856 60.7812 5.6638 60.5485 6.07739C60.3159 6.49097 59.996 6.81086 59.5889 7.03703C59.1818 7.25675 58.7294 7.36661 58.2318 7.36661ZM58.2318 6.77531C58.5808 6.77531 58.9039 6.69777 59.2011 6.54267C59.4984 6.38112 59.7375 6.14201 59.9185 5.82536C60.1059 5.50225 60.1996 5.10805 60.1996 4.64277C60.1996 4.17748 60.1091 3.78652 59.9281 3.46987C59.7472 3.14675 59.5081 2.90765 59.2108 2.75256C58.9136 2.591 58.5905 2.51022 58.2415 2.51022C57.8925 2.51022 57.5694 2.591 57.2722 2.75256C56.9749 2.90765 56.7358 3.14675 56.5548 3.46987C56.3804 3.78652 56.2931 4.17748 56.2931 4.64277C56.2931 5.10805 56.3804 5.50225 56.5548 5.82536C56.7358 6.14201 56.9717 6.38112 57.2625 6.54267C57.5597 6.69777 57.8828 6.77531 58.2318 6.77531ZM61.8242 4.63307C61.8242 4.09024 61.934 3.61527 62.1538 3.20815C62.3735 2.79456 62.674 2.47791 63.0552 2.25819C63.443 2.03201 63.8792 1.91893 64.3639 1.91893C64.8291 1.91893 65.2492 2.03201 65.624 2.25819C65.9988 2.48437 66.2734 2.77841 66.4479 3.14029V0.115955H67.1265V7.28906H66.4479V6.10647C66.2864 6.47482 66.0214 6.77854 65.6531 7.01765C65.2847 7.25029 64.8518 7.36661 64.3542 7.36661C63.8695 7.36661 63.4333 7.25352 63.0456 7.02734C62.6643 6.80116 62.3638 6.48128 62.1441 6.0677C61.9308 5.65411 61.8242 5.1759 61.8242 4.63307ZM66.4479 4.64277C66.4479 4.21626 66.3607 3.84145 66.1862 3.51833C66.0117 3.19522 65.7726 2.94642 65.4689 2.77194C65.1716 2.59746 64.8421 2.51022 64.4802 2.51022C64.1054 2.51022 63.7693 2.59423 63.4721 2.76225C63.1748 2.93027 62.9389 3.17583 62.7644 3.49895C62.5964 3.8156 62.5124 4.19364 62.5124 4.63307C62.5124 5.06605 62.5964 5.44732 62.7644 5.77689C62.9389 6.10001 63.1748 6.3488 63.4721 6.52328C63.7693 6.6913 64.1054 6.77531 64.4802 6.77531C64.8421 6.77531 65.1716 6.68807 65.4689 6.51359C65.7726 6.33911 66.0117 6.09031 66.1862 5.7672C66.3607 5.44409 66.4479 5.06928 66.4479 4.64277ZM73.2605 1.99647V7.28906H72.582V6.3585C72.4269 6.68807 72.1878 6.9401 71.8646 7.11458C71.5415 7.28906 71.1796 7.3763 70.779 7.3763C70.1457 7.3763 69.6287 7.18244 69.228 6.7947C68.8274 6.4005 68.6271 5.83182 68.6271 5.08866V1.99647H69.2959V5.01112C69.2959 5.58626 69.4381 6.02569 69.7224 6.32942C70.0132 6.63314 70.4074 6.78501 70.905 6.78501C71.4155 6.78501 71.8226 6.62345 72.1264 6.30034C72.4301 5.97722 72.582 5.50225 72.582 4.87541V1.99647H73.2605ZM74.4994 4.64277C74.4994 4.09348 74.6093 3.61527 74.829 3.20815C75.0487 2.79456 75.3524 2.47791 75.7402 2.25819C76.1279 2.03201 76.5706 1.91893 77.0682 1.91893C77.7209 1.91893 78.2572 2.08048 78.6773 2.40359C79.1038 2.72671 79.3784 3.16614 79.5012 3.7219H78.7742C78.6837 3.34062 78.4866 3.04336 78.1829 2.8301C77.8856 2.61039 77.5141 2.50053 77.0682 2.50053C76.7127 2.50053 76.3929 2.58131 76.1085 2.74286C75.8242 2.90442 75.598 3.14675 75.43 3.46987C75.2684 3.78652 75.1877 4.17748 75.1877 4.64277C75.1877 5.10805 75.2684 5.50225 75.43 5.82536C75.598 6.14847 75.8242 6.39081 76.1085 6.55236C76.3929 6.71392 76.7127 6.7947 77.0682 6.7947C77.5141 6.7947 77.8856 6.68807 78.1829 6.47482C78.4866 6.2551 78.6837 5.95137 78.7742 5.56364H79.5012C79.3784 6.10647 79.1038 6.54267 78.6773 6.87225C78.2508 7.20182 77.7144 7.36661 77.0682 7.36661C76.5706 7.36661 76.1279 7.25675 75.7402 7.03703C75.3524 6.81086 75.0487 6.4942 74.829 6.08708C74.6093 5.6735 74.4994 5.19206 74.4994 4.64277ZM81.6365 2.56838V5.85444C81.6365 6.17755 81.6979 6.4005 81.8207 6.52328C81.9434 6.64607 82.1599 6.70746 82.4701 6.70746H83.0905V7.28906H82.3635C81.8853 7.28906 81.5299 7.1792 81.2972 6.95949C81.0646 6.73331 80.9483 6.36496 80.9483 5.85444V2.56838H80.2116V1.99647H80.9483V0.668478H81.6365V1.99647H83.0905V2.56838H81.6365ZM86.0319 7.36661C85.4245 7.36661 84.9269 7.22767 84.5391 6.94979C84.1578 6.66545 83.9446 6.28095 83.8994 5.79628H84.5973C84.6296 6.09354 84.7685 6.33588 85.0141 6.52328C85.2661 6.70423 85.6022 6.7947 86.0222 6.7947C86.3906 6.7947 86.6781 6.70746 86.8849 6.53298C87.0982 6.3585 87.2048 6.14201 87.2048 5.88352C87.2048 5.70258 87.1466 5.55395 87.0303 5.43763C86.914 5.3213 86.7654 5.23083 86.5844 5.16621C86.4099 5.09513 86.1708 5.02081 85.8671 4.94326C85.4729 4.83987 85.153 4.73647 84.9075 4.63307C84.6619 4.52968 84.4519 4.37781 84.2774 4.17748C84.1094 3.97069 84.0254 3.69605 84.0254 3.35355C84.0254 3.09506 84.1029 2.85595 84.258 2.63624C84.4131 2.41652 84.6328 2.24204 84.9172 2.11279C85.2015 1.98355 85.5246 1.91893 85.8865 1.91893C86.4552 1.91893 86.914 2.06433 87.263 2.35513C87.6119 2.63947 87.7993 3.03366 87.8252 3.53772H87.1466C87.1273 3.22753 87.0045 2.97874 86.7783 2.79133C86.5586 2.59746 86.2549 2.50053 85.8671 2.50053C85.5246 2.50053 85.2467 2.58131 85.0335 2.74286C84.8202 2.90442 84.7136 3.10475 84.7136 3.34385C84.7136 3.55065 84.775 3.7219 84.8978 3.8576C85.027 3.98685 85.1853 4.09024 85.3728 4.16779C85.5602 4.23888 85.8122 4.31965 86.1288 4.41013C86.5101 4.51352 86.8138 4.61369 87.04 4.71062C87.2662 4.80756 87.4601 4.94972 87.6216 5.13713C87.7832 5.32454 87.8672 5.57333 87.8736 5.88352C87.8736 6.16786 87.7961 6.42312 87.641 6.6493C87.4859 6.86902 87.2694 7.0435 86.9915 7.17274C86.7137 7.30199 86.3938 7.36661 86.0319 7.36661ZM89.7713 6.16463L88.7632 8.7043H88.2979L89.0152 6.16463H89.7713ZM6.61133 16.8995C7.23171 16.8995 7.73576 17.0966 8.1235 17.4908C8.5177 17.8786 8.71479 18.444 8.71479 19.1872V22.2891H8.04595V19.2647C8.04595 18.6896 7.90701 18.2502 7.62914 17.9464C7.35126 17.6427 6.97322 17.4908 6.49501 17.4908C5.99742 17.4908 5.59999 17.6556 5.30272 17.9852C5.00546 18.3148 4.85683 18.793 4.85683 19.4198V22.2891H4.18798V19.2647C4.18798 18.6896 4.04904 18.2502 3.77117 17.9464C3.49329 17.6427 3.11202 17.4908 2.62735 17.4908C2.12975 17.4908 1.73232 17.6556 1.43506 17.9852C1.1378 18.3148 0.989165 18.793 0.989165 19.4198V22.2891H0.310627V16.9965H0.989165V17.9077C1.15718 17.5781 1.39629 17.3293 1.70648 17.1613C2.01666 16.9868 2.36239 16.8995 2.74367 16.8995C3.20249 16.8995 3.60315 17.0094 3.94565 17.2291C4.29461 17.4488 4.54664 17.7719 4.70173 18.1985C4.8439 17.7784 5.08624 17.4585 5.42874 17.2388C5.7777 17.0126 6.1719 16.8995 6.61133 16.8995ZM15.0103 19.3714C15.0103 19.604 15.0038 19.7817 14.9909 19.9045H10.5998C10.6192 20.3051 10.7161 20.6476 10.8906 20.932C11.0651 21.2163 11.2945 21.4328 11.5788 21.5814C11.8632 21.7236 12.1733 21.7947 12.5094 21.7947C12.9488 21.7947 13.3172 21.6881 13.6144 21.4748C13.9182 21.2616 14.1185 20.974 14.2154 20.6121H14.9327C14.8035 21.1291 14.5256 21.5524 14.0991 21.8819C13.679 22.2051 13.1491 22.3666 12.5094 22.3666C12.0118 22.3666 11.5659 22.2568 11.1717 22.037C10.7775 21.8109 10.4673 21.4942 10.2411 21.0871C10.0214 20.6735 9.91155 20.1921 9.91155 19.6428C9.91155 19.0935 10.0214 18.612 10.2411 18.1985C10.4608 17.7849 10.7678 17.4682 11.162 17.2485C11.5562 17.0288 12.0053 16.9189 12.5094 16.9189C13.0134 16.9189 13.4529 17.0288 13.8277 17.2485C14.209 17.4682 14.4998 17.7655 14.7001 18.1403C14.9069 18.5086 15.0103 18.919 15.0103 19.3714ZM14.322 19.352C14.3285 18.9578 14.2477 18.6217 14.0797 18.3439C13.9182 18.066 13.6952 17.856 13.4109 17.7138C13.1265 17.5716 12.8163 17.5005 12.4803 17.5005C11.9762 17.5005 11.5465 17.6621 11.1911 17.9852C10.8357 18.3083 10.6386 18.7639 10.5998 19.352H14.322ZM15.9415 19.6331C15.9415 19.0902 16.0514 18.6153 16.2711 18.2081C16.4908 17.7946 16.7913 17.4779 17.1726 17.2582C17.5603 17.032 17.9965 16.9189 18.4812 16.9189C18.9465 16.9189 19.3665 17.032 19.7413 17.2582C20.1161 17.4844 20.3908 17.7784 20.5653 18.1403V15.116H21.2438V22.2891H20.5653V21.1065C20.4037 21.4748 20.1388 21.7785 19.7704 22.0176C19.4021 22.2503 18.9691 22.3666 18.4715 22.3666C17.9868 22.3666 17.5506 22.2535 17.1629 22.0273C16.7816 21.8012 16.4811 21.4813 16.2614 21.0677C16.0481 20.6541 15.9415 20.1759 15.9415 19.6331ZM20.5653 19.6428C20.5653 19.2163 20.478 18.8414 20.3035 18.5183C20.1291 18.1952 19.89 17.9464 19.5862 17.7719C19.289 17.5975 18.9594 17.5102 18.5975 17.5102C18.2227 17.5102 17.8867 17.5942 17.5894 17.7623C17.2921 17.9303 17.0563 18.1758 16.8818 18.4989C16.7138 18.8156 16.6297 19.1936 16.6297 19.6331C16.6297 20.066 16.7138 20.4473 16.8818 20.7769C17.0563 21.1 17.2921 21.3488 17.5894 21.5233C17.8867 21.6913 18.2227 21.7753 18.5975 21.7753C18.9594 21.7753 19.289 21.6881 19.5862 21.5136C19.89 21.3391 20.1291 21.0903 20.3035 20.7672C20.478 20.4441 20.5653 20.0693 20.5653 19.6428ZM23.1321 15.9981C22.9964 15.9981 22.8801 15.9496 22.7832 15.8527C22.6862 15.7557 22.6378 15.6362 22.6378 15.494C22.6378 15.3518 22.6862 15.2355 22.7832 15.145C22.8801 15.0481 22.9964 14.9996 23.1321 14.9996C23.2678 14.9996 23.3841 15.0481 23.4811 15.145C23.578 15.2355 23.6265 15.3518 23.6265 15.494C23.6265 15.6362 23.578 15.7557 23.4811 15.8527C23.3841 15.9496 23.2678 15.9981 23.1321 15.9981ZM23.4714 16.9965V22.2891H22.7929V16.9965H23.4714ZM24.6978 19.6331C24.6978 19.0902 24.8044 18.6153 25.0176 18.2081C25.2374 17.7946 25.5378 17.4779 25.9191 17.2582C26.3069 17.032 26.7431 16.9189 27.2277 16.9189C27.7318 16.9189 28.1648 17.0352 28.5266 17.2679C28.895 17.5005 29.1599 17.7978 29.3215 18.1597V16.9965H30V22.2891H29.3215V21.1162C29.1535 21.478 28.8853 21.7785 28.5169 22.0176C28.1551 22.2503 27.7221 22.3666 27.218 22.3666C26.7398 22.3666 26.3069 22.2535 25.9191 22.0273C25.5378 21.8012 25.2374 21.4813 25.0176 21.0677C24.8044 20.6541 24.6978 20.1759 24.6978 19.6331ZM29.3215 19.6428C29.3215 19.2163 29.2343 18.8414 29.0598 18.5183C28.8853 18.1952 28.6462 17.9464 28.3425 17.7719C28.0452 17.5975 27.7156 17.5102 27.3537 17.5102C26.9789 17.5102 26.6429 17.5942 26.3456 17.7623C26.0484 17.9303 25.8125 18.1758 25.638 18.4989C25.47 18.8156 25.386 19.1936 25.386 19.6331C25.386 20.066 25.47 20.4473 25.638 20.7769C25.8125 21.1 26.0484 21.3488 26.3456 21.5233C26.6429 21.6913 26.9789 21.7753 27.3537 21.7753C27.7156 21.7753 28.0452 21.6881 28.3425 21.5136C28.6462 21.3391 28.8853 21.0903 29.0598 20.7672C29.2343 20.4441 29.3215 20.0693 29.3215 19.6428ZM32.1695 21.1646L31.1613 23.7043H30.6961L31.4134 21.1646H32.1695ZM35.5744 19.6331C35.5744 19.0902 35.681 18.6153 35.8943 18.2081C36.114 17.7946 36.4145 17.4779 36.7958 17.2582C37.1835 17.032 37.6197 16.9189 38.1044 16.9189C38.6084 16.9189 39.0414 17.0352 39.4033 17.2679C39.7717 17.5005 40.0366 17.7978 40.1982 18.1597V16.9965H40.8767V22.2891H40.1982V21.1162C40.0301 21.478 39.762 21.7785 39.3936 22.0176C39.0317 22.2503 38.5988 22.3666 38.0947 22.3666C37.6165 22.3666 37.1835 22.2535 36.7958 22.0273C36.4145 21.8012 36.114 21.4813 35.8943 21.0677C35.681 20.6541 35.5744 20.1759 35.5744 19.6331ZM40.1982 19.6428C40.1982 19.2163 40.1109 18.8414 39.9364 18.5183C39.762 18.1952 39.5229 17.9464 39.2191 17.7719C38.9219 17.5975 38.5923 17.5102 38.2304 17.5102C37.8556 17.5102 37.5196 17.5942 37.2223 17.7623C36.925 17.9303 36.6892 18.1758 36.5147 18.4989C36.3467 18.8156 36.2626 19.1936 36.2626 19.6331C36.2626 20.066 36.3467 20.4473 36.5147 20.7769C36.6892 21.1 36.925 21.3488 37.2223 21.5233C37.5196 21.6913 37.8556 21.7753 38.2304 21.7753C38.5923 21.7753 38.9219 21.6881 39.2191 21.5136C39.5229 21.3391 39.762 21.0903 39.9364 20.7672C40.1109 20.4441 40.1982 20.0693 40.1982 19.6428ZM44.9073 16.8995C45.5406 16.8995 46.0575 17.0966 46.4582 17.4908C46.8589 17.8786 47.0592 18.444 47.0592 19.1872V22.2891H46.3903V19.2647C46.3903 18.6896 46.2449 18.2502 45.9541 17.9464C45.6698 17.6427 45.2788 17.4908 44.7812 17.4908C44.2707 17.4908 43.8636 17.6524 43.5599 17.9755C43.2561 18.2986 43.1043 18.7736 43.1043 19.4004V22.2891H42.4257V16.9965H43.1043V17.898C43.2723 17.5748 43.5146 17.3293 43.8313 17.1613C44.1479 16.9868 44.5066 16.8995 44.9073 16.8995ZM48.2497 19.6331C48.2497 19.0902 48.3595 18.6153 48.5792 18.2081C48.7989 17.7946 49.0994 17.4779 49.4807 17.2582C49.8685 17.032 50.3047 16.9189 50.7893 16.9189C51.2546 16.9189 51.6747 17.032 52.0495 17.2582C52.4243 17.4844 52.6989 17.7784 52.8734 18.1403V15.116H53.5519V22.2891H52.8734V21.1065C52.7118 21.4748 52.4469 21.7785 52.0785 22.0176C51.7102 22.2503 51.2772 22.3666 50.7796 22.3666C50.295 22.3666 49.8588 22.2535 49.471 22.0273C49.0898 21.8012 48.7893 21.4813 48.5695 21.0677C48.3563 20.6541 48.2497 20.1759 48.2497 19.6331ZM52.8734 19.6428C52.8734 19.2163 52.7862 18.8414 52.6117 18.5183C52.4372 18.1952 52.1981 17.9464 51.8944 17.7719C51.5971 17.5975 51.2675 17.5102 50.9056 17.5102C50.5308 17.5102 50.1948 17.5942 49.8975 17.7623C49.6003 17.9303 49.3644 18.1758 49.1899 18.4989C49.0219 18.8156 48.9379 19.1936 48.9379 19.6331C48.9379 20.066 49.0219 20.4473 49.1899 20.7769C49.3644 21.1 49.6003 21.3488 49.8975 21.5233C50.1948 21.6913 50.5308 21.7753 50.9056 21.7753C51.2675 21.7753 51.5971 21.6881 51.8944 21.5136C52.1981 21.3391 52.4372 21.0903 52.6117 20.7672C52.7862 20.4441 52.8734 20.0693 52.8734 19.6428ZM0.000438877 34.6428C0.000438877 34.0935 0.110297 33.6153 0.330014 33.2081C0.549731 32.7946 0.853457 32.4779 1.24119 32.2582C1.62893 32.032 2.07159 31.9189 2.56919 31.9189C3.22188 31.9189 3.75824 32.0805 4.17829 32.4036C4.6048 32.7267 4.87944 33.1661 5.00223 33.7219H4.27522C4.18475 33.3406 3.98765 33.0434 3.68393 32.8301C3.38666 32.6104 3.01508 32.5005 2.56919 32.5005C2.21376 32.5005 1.89388 32.5813 1.60954 32.7429C1.3252 32.9044 1.09902 33.1468 0.931004 33.4699C0.769448 33.7865 0.688669 34.1775 0.688669 34.6428C0.688669 35.1081 0.769448 35.5022 0.931004 35.8254C1.09902 36.1485 1.3252 36.3908 1.60954 36.5524C1.89388 36.7139 2.21376 36.7947 2.56919 36.7947C3.01508 36.7947 3.38666 36.6881 3.68393 36.4748C3.98765 36.2551 4.18475 35.9514 4.27522 35.5636H5.00223C4.87944 36.1065 4.6048 36.5427 4.17829 36.8722C3.75178 37.2018 3.21541 37.3666 2.56919 37.3666C2.07159 37.3666 1.62893 37.2568 1.24119 37.037C0.853457 36.8109 0.549731 36.4942 0.330014 36.0871C0.110297 35.6735 0.000438877 35.1921 0.000438877 34.6428ZM5.94521 34.6331C5.94521 34.0902 6.05184 33.6153 6.26509 33.2081C6.48481 32.7946 6.78531 32.4779 7.16658 32.2582C7.55431 32.032 7.99052 31.9189 8.47519 31.9189C8.97924 31.9189 9.41221 32.0352 9.7741 32.2679C10.1424 32.5005 10.4074 32.7978 10.569 33.1597V31.9965H11.2475V37.2891H10.569V36.1162C10.4009 36.478 10.1328 36.7785 9.76441 37.0176C9.40252 37.2503 8.96955 37.3666 8.46549 37.3666C7.98729 37.3666 7.55431 37.2535 7.16658 37.0273C6.78531 36.8012 6.48481 36.4813 6.26509 36.0677C6.05184 35.6541 5.94521 35.1759 5.94521 34.6331ZM10.569 34.6428C10.569 34.2163 10.4817 33.8414 10.3072 33.5183C10.1328 33.1952 9.89365 32.9464 9.58993 32.7719C9.29266 32.5975 8.96309 32.5102 8.6012 32.5102C8.22639 32.5102 7.89035 32.5942 7.59309 32.7623C7.29582 32.9303 7.05995 33.1758 6.88547 33.4989C6.71745 33.8156 6.63344 34.1936 6.63344 34.6331C6.63344 35.066 6.71745 35.4473 6.88547 35.7769C7.05995 36.1 7.29582 36.3488 7.59309 36.5233C7.89035 36.6913 8.22639 36.7753 8.6012 36.7753C8.96309 36.7753 9.29266 36.6881 9.58993 36.5136C9.89365 36.3391 10.1328 36.0903 10.3072 35.7672C10.4817 35.4441 10.569 35.0693 10.569 34.6428ZM13.6786 32.5684V35.8544C13.6786 36.1776 13.74 36.4005 13.8628 36.5233C13.9856 36.6461 14.2021 36.7075 14.5123 36.7075H15.1327V37.2891H14.4056C13.9274 37.2891 13.572 37.1792 13.3394 36.9595C13.1067 36.7333 12.9904 36.365 12.9904 35.8544V32.5684H12.2537V31.9965H12.9904V30.6685H13.6786V31.9965H15.1327V32.5684H13.6786ZM15.9415 34.6331C15.9415 34.0902 16.0481 33.6153 16.2614 33.2081C16.4811 32.7946 16.7816 32.4779 17.1629 32.2582C17.5506 32.032 17.9868 31.9189 18.4715 31.9189C18.9755 31.9189 19.4085 32.0352 19.7704 32.2679C20.1388 32.5005 20.4037 32.7978 20.5653 33.1597V31.9965H21.2438V37.2891H20.5653V36.1162C20.3972 36.478 20.1291 36.7785 19.7607 37.0176C19.3988 37.2503 18.9659 37.3666 18.4618 37.3666C17.9836 37.3666 17.5506 37.2535 17.1629 37.0273C16.7816 36.8012 16.4811 36.4813 16.2614 36.0677C16.0481 35.6541 15.9415 35.1759 15.9415 34.6331ZM20.5653 34.6428C20.5653 34.2163 20.478 33.8414 20.3035 33.5183C20.1291 33.1952 19.89 32.9464 19.5862 32.7719C19.289 32.5975 18.9594 32.5102 18.5975 32.5102C18.2227 32.5102 17.8867 32.5942 17.5894 32.7623C17.2921 32.9303 17.0563 33.1758 16.8818 33.4989C16.7138 33.8156 16.6297 34.1936 16.6297 34.6331C16.6297 35.066 16.7138 35.4473 16.8818 35.7769C17.0563 36.1 17.2921 36.3488 17.5894 36.5233C17.8867 36.6913 18.2227 36.7753 18.5975 36.7753C18.9594 36.7753 19.289 36.6881 19.5862 36.5136C19.89 36.3391 20.1291 36.0903 20.3035 35.7672C20.478 35.4441 20.5653 35.0693 20.5653 34.6428ZM23.4714 30.116V37.2891H22.7929V30.116H23.4714ZM27.3247 37.3666C26.8271 37.3666 26.3779 37.2568 25.9773 37.037C25.5831 36.8109 25.2697 36.4942 25.037 36.0871C24.8108 35.6735 24.6978 35.1921 24.6978 34.6428C24.6978 34.0935 24.8141 33.6153 25.0467 33.2081C25.2794 32.7946 25.596 32.4779 25.9967 32.2582C26.3973 32.032 26.8465 31.9189 27.344 31.9189C27.8416 31.9189 28.2908 32.032 28.6914 32.2582C29.0986 32.4779 29.4152 32.7946 29.6414 33.2081C29.874 33.6153 29.9903 34.0935 29.9903 34.6428C29.9903 35.1856 29.874 35.6638 29.6414 36.0774C29.4087 36.491 29.0889 36.8109 28.6817 37.037C28.2746 37.2568 27.8223 37.3666 27.3247 37.3666ZM27.3247 36.7753C27.6736 36.7753 27.9967 36.6978 28.294 36.5427C28.5913 36.3811 28.8304 36.142 29.0113 35.8254C29.1987 35.5022 29.2924 35.1081 29.2924 34.6428C29.2924 34.1775 29.2019 33.7865 29.021 33.4699C28.8401 33.1468 28.601 32.9077 28.3037 32.7526C28.0064 32.591 27.6833 32.5102 27.3344 32.5102C26.9854 32.5102 26.6623 32.591 26.365 32.7526C26.0678 32.9077 25.8286 33.1468 25.6477 33.4699C25.4732 33.7865 25.386 34.1775 25.386 34.6428C25.386 35.1081 25.4732 35.5022 25.6477 35.8254C25.8286 36.142 26.0645 36.3811 26.3553 36.5427C26.6526 36.6978 26.9757 36.7753 27.3247 36.7753ZM33.447 31.9189C33.9446 31.9189 34.3776 32.0352 34.7459 32.2679C35.1143 32.5005 35.3792 32.7946 35.5408 33.15V31.9965H36.2193V37.4248C36.2193 37.9094 36.1127 38.3392 35.8994 38.714C35.6927 39.0888 35.4019 39.3764 35.027 39.5767C34.6522 39.7835 34.2257 39.8869 33.7475 39.8869C33.069 39.8869 32.5035 39.7253 32.0512 39.4022C31.6053 39.0791 31.3274 38.6397 31.2175 38.0839H31.8864C32.0027 38.4523 32.2224 38.7463 32.5455 38.966C32.8751 39.1857 33.2758 39.2956 33.7475 39.2956C34.09 39.2956 34.397 39.2213 34.6684 39.0726C34.9398 38.9305 35.1531 38.7172 35.3082 38.4329C35.4632 38.1485 35.5408 37.8125 35.5408 37.4248V36.1162C35.3728 36.478 35.1046 36.7785 34.7362 37.0176C34.3744 37.2503 33.9446 37.3666 33.447 37.3666C32.9624 37.3666 32.5261 37.2535 32.1384 37.0273C31.7571 36.8012 31.4566 36.4813 31.2369 36.0677C31.0237 35.6541 30.917 35.1759 30.917 34.6331C30.917 34.0902 31.0237 33.6153 31.2369 33.2081C31.4566 32.7946 31.7571 32.4779 32.1384 32.2582C32.5261 32.032 32.9624 31.9189 33.447 31.9189ZM35.5408 34.6428C35.5408 34.2163 35.4536 33.8414 35.2791 33.5183C35.1046 33.1952 34.8655 32.9464 34.5618 32.7719C34.2645 32.5975 33.9349 32.5102 33.573 32.5102C33.1982 32.5102 32.8622 32.5942 32.5649 32.7623C32.2677 32.9303 32.0318 33.1758 31.8573 33.4989C31.6893 33.8156 31.6053 34.1936 31.6053 34.6331C31.6053 35.066 31.6893 35.4473 31.8573 35.7769C32.0318 36.1 32.2677 36.3488 32.5649 36.5233C32.8622 36.6913 33.1982 36.7753 33.573 36.7753C33.9349 36.7753 34.2645 36.6881 34.5618 36.5136C34.8655 36.3391 35.1046 36.0903 35.2791 35.7672C35.4536 35.4441 35.5408 35.0693 35.5408 34.6428ZM42.3533 31.9965V37.2891H41.6748V36.3585C41.5197 36.6881 41.2806 36.9401 40.9575 37.1146C40.6344 37.2891 40.2725 37.3763 39.8718 37.3763C39.2385 37.3763 38.7216 37.1824 38.3209 36.7947C37.9202 36.4005 37.7199 35.8318 37.7199 35.0887V31.9965H38.3888V35.0111C38.3888 35.5863 38.5309 36.0257 38.8153 36.3294C39.1061 36.6331 39.5003 36.785 39.9979 36.785C40.5084 36.785 40.9155 36.6234 41.2192 36.3003C41.5229 35.9772 41.6748 35.5022 41.6748 34.8754V31.9965H42.3533ZM48.691 34.3714C48.691 34.604 48.6845 34.7817 48.6716 34.9045H44.2805C44.2999 35.3051 44.3968 35.6476 44.5713 35.932C44.7458 36.2163 44.9752 36.4328 45.2595 36.5814C45.5439 36.7236 45.8541 36.7947 46.1901 36.7947C46.6295 36.7947 46.9979 36.6881 47.2952 36.4748C47.5989 36.2616 47.7992 35.974 47.8961 35.6121H48.6135C48.4842 36.1291 48.2063 36.5524 47.7798 36.8819C47.3598 37.2051 46.8299 37.3666 46.1901 37.3666C45.6925 37.3666 45.2466 37.2568 44.8524 37.037C44.4582 36.8109 44.148 36.4942 43.9219 36.0871C43.7021 35.6735 43.5923 35.1921 43.5923 34.6428C43.5923 34.0935 43.7021 33.612 43.9219 33.1985C44.1416 32.7849 44.4485 32.4682 44.8427 32.2485C45.2369 32.0288 45.6861 31.9189 46.1901 31.9189C46.6942 31.9189 47.1336 32.0288 47.5084 32.2485C47.8897 32.4682 48.1805 32.7655 48.3808 33.1403C48.5876 33.5086 48.691 33.919 48.691 34.3714ZM48.0028 34.352C48.0092 33.9578 47.9285 33.6217 47.7604 33.3439C47.5989 33.066 47.3759 32.856 47.0916 32.7138C46.8073 32.5716 46.4971 32.5005 46.161 32.5005C45.657 32.5005 45.2272 32.6621 44.8718 32.9852C44.5164 33.3083 44.3193 33.7639 44.2805 34.352H48.0028ZM51.7548 37.3666C51.1473 37.3666 50.6498 37.2277 50.262 36.9498C49.8807 36.6655 49.6675 36.281 49.6223 35.7963H50.3202C50.3525 36.0935 50.4914 36.3359 50.737 36.5233C50.989 36.7042 51.3251 36.7947 51.7451 36.7947C52.1135 36.7947 52.401 36.7075 52.6078 36.533C52.8211 36.3585 52.9277 36.142 52.9277 35.8835C52.9277 35.7026 52.8695 35.5539 52.7532 35.4376C52.6369 35.3213 52.4883 35.2308 52.3073 35.1662C52.1328 35.0951 51.8937 35.0208 51.59 34.9433C51.1958 34.8399 50.8759 34.7365 50.6304 34.6331C50.3848 34.5297 50.1748 34.3778 50.0003 34.1775C49.8323 33.9707 49.7483 33.696 49.7483 33.3535C49.7483 33.0951 49.8258 32.856 49.9809 32.6362C50.136 32.4165 50.3557 32.242 50.6401 32.1128C50.9244 31.9835 51.2475 31.9189 51.6094 31.9189C52.1781 31.9189 52.6369 32.0643 52.9859 32.3551C53.3348 32.6395 53.5222 33.0337 53.5481 33.5377H52.8695C52.8502 33.2275 52.7274 32.9787 52.5012 32.7913C52.2815 32.5975 51.9777 32.5005 51.59 32.5005C51.2475 32.5005 50.9696 32.5813 50.7564 32.7429C50.5431 32.9044 50.4365 33.1047 50.4365 33.3439C50.4365 33.5506 50.4979 33.7219 50.6207 33.8576C50.7499 33.9868 50.9082 34.0902 51.0956 34.1678C51.2831 34.2389 51.5351 34.3197 51.8517 34.4101C52.233 34.5135 52.5367 34.6137 52.7629 34.7106C52.9891 34.8076 53.183 34.9497 53.3445 35.1371C53.5061 35.3245 53.5901 35.5733 53.5965 35.8835C53.5965 36.1679 53.519 36.4231 53.3639 36.6493C53.2088 36.869 52.9923 37.0435 52.7144 37.1727C52.4366 37.302 52.1167 37.3666 51.7548 37.3666ZM58.2026 33.1694C58.3771 32.801 58.6453 32.5005 59.0072 32.2679C59.3755 32.0352 59.8085 31.9189 60.3061 31.9189C60.7908 31.9189 61.2238 32.032 61.605 32.2582C61.9863 32.4779 62.2836 32.7946 62.4968 33.2081C62.7165 33.6153 62.8264 34.0902 62.8264 34.6331C62.8264 35.1759 62.7165 35.6541 62.4968 36.0677C62.2836 36.4813 61.9831 36.8012 61.5953 37.0273C61.2141 37.2535 60.7843 37.3666 60.3061 37.3666C59.8021 37.3666 59.3659 37.2535 58.9975 37.0273C58.6356 36.7947 58.3707 36.4942 58.2026 36.1259V37.2891H57.5338V30.116H58.2026V33.1694ZM62.1382 34.6331C62.1382 34.1936 62.0509 33.8156 61.8764 33.4989C61.7084 33.1758 61.4758 32.9303 61.1785 32.7623C60.8813 32.5942 60.5452 32.5102 60.1704 32.5102C59.8085 32.5102 59.4757 32.5975 59.172 32.7719C58.8747 32.9464 58.6388 33.1952 58.4644 33.5183C58.2899 33.8414 58.2026 34.2163 58.2026 34.6428C58.2026 35.0693 58.2899 35.4441 58.4644 35.7672C58.6388 36.0903 58.8747 36.3391 59.172 36.5136C59.4757 36.6881 59.8085 36.7753 60.1704 36.7753C60.5452 36.7753 60.8813 36.6913 61.1785 36.5233C61.4758 36.3488 61.7084 36.1 61.8764 35.7769C62.0509 35.4473 62.1382 35.066 62.1382 34.6331ZM68.8635 34.3714C68.8635 34.604 68.857 34.7817 68.8441 34.9045H64.453C64.4724 35.3051 64.5693 35.6476 64.7438 35.932C64.9183 36.2163 65.1477 36.4328 65.432 36.5814C65.7164 36.7236 66.0265 36.7947 66.3626 36.7947C66.802 36.7947 67.1704 36.6881 67.4676 36.4748C67.7714 36.2616 67.9717 35.974 68.0686 35.6121H68.7859C68.6567 36.1291 68.3788 36.5524 67.9523 36.8819C67.5323 37.2051 67.0023 37.3666 66.3626 37.3666C65.865 37.3666 65.4191 37.2568 65.0249 37.037C64.6307 36.8109 64.3205 36.4942 64.0943 36.0871C63.8746 35.6735 63.7648 35.1921 63.7648 34.6428C63.7648 34.0935 63.8746 33.612 64.0943 33.1985C64.314 32.7849 64.621 32.4682 65.0152 32.2485C65.4094 32.0288 65.8585 31.9189 66.3626 31.9189C66.8666 31.9189 67.3061 32.0288 67.6809 32.2485C68.0622 32.4682 68.353 32.7655 68.5533 33.1403C68.7601 33.5086 68.8635 33.919 68.8635 34.3714ZM68.1752 34.352C68.1817 33.9578 68.1009 33.6217 67.9329 33.3439C67.7714 33.066 67.5484 32.856 67.2641 32.7138C66.9797 32.5716 66.6695 32.5005 66.3335 32.5005C65.8294 32.5005 65.3997 32.6621 65.0443 32.9852C64.6889 33.3083 64.4918 33.7639 64.453 34.352H68.1752ZM69.7947 34.6331C69.7947 34.0902 69.9014 33.6153 70.1146 33.2081C70.3343 32.7946 70.6348 32.4779 71.0161 32.2582C71.4038 32.032 71.84 31.9189 72.3247 31.9189C72.8288 31.9189 73.2617 32.0352 73.6236 32.2679C73.992 32.5005 74.2569 32.7978 74.4185 33.1597V31.9965H75.097V37.2891H74.4185V36.1162C74.2505 36.478 73.9823 36.7785 73.6139 37.0176C73.252 37.2503 72.8191 37.3666 72.315 37.3666C71.8368 37.3666 71.4038 37.2535 71.0161 37.0273C70.6348 36.8012 70.3343 36.4813 70.1146 36.0677C69.9014 35.6541 69.7947 35.1759 69.7947 34.6331ZM74.4185 34.6428C74.4185 34.2163 74.3312 33.8414 74.1568 33.5183C73.9823 33.1952 73.7432 32.9464 73.4394 32.7719C73.1422 32.5975 72.8126 32.5102 72.4507 32.5102C72.0759 32.5102 71.7399 32.5942 71.4426 32.7623C71.1453 32.9303 70.9095 33.1758 70.735 33.4989C70.567 33.8156 70.483 34.1936 70.483 34.6331C70.483 35.066 70.567 35.4473 70.735 35.7769C70.9095 36.1 71.1453 36.3488 71.4426 36.5233C71.7399 36.6913 72.0759 36.7753 72.4507 36.7753C72.8126 36.7753 73.1422 36.6881 73.4394 36.5136C73.7432 36.3391 73.9823 36.0903 74.1568 35.7672C74.3312 35.4441 74.4185 35.0693 74.4185 34.6428ZM81.231 31.9965V37.2891H80.5525V36.3585C80.3974 36.6881 80.1583 36.9401 79.8352 37.1146C79.5121 37.2891 79.1502 37.3763 78.7495 37.3763C78.1162 37.3763 77.5992 37.1824 77.1986 36.7947C76.7979 36.4005 76.5976 35.8318 76.5976 35.0887V31.9965H77.2664V35.0111C77.2664 35.5863 77.4086 36.0257 77.6929 36.3294C77.9837 36.6331 78.3779 36.785 78.8755 36.785C79.3861 36.785 79.7932 36.6234 80.0969 36.3003C80.4006 35.9772 80.5525 35.5022 80.5525 34.8754V31.9965H81.231ZM83.6623 32.5684V35.8544C83.6623 36.1776 83.7236 36.4005 83.8464 36.5233C83.9692 36.6461 84.1857 36.7075 84.4959 36.7075H85.1163V37.2891H84.3893C83.9111 37.2891 83.5556 37.1792 83.323 36.9595C83.0903 36.7333 82.974 36.365 82.974 35.8544V32.5684H82.2373V31.9965H82.974V30.6685H83.6623V31.9965H85.1163V32.5684H83.6623ZM86.5746 30.9981C86.4389 30.9981 86.3226 30.9496 86.2256 30.8527C86.1287 30.7557 86.0802 30.6362 86.0802 30.494C86.0802 30.3518 86.1287 30.2355 86.2256 30.145C86.3226 30.0481 86.4389 29.9996 86.5746 29.9996C86.7103 29.9996 86.8266 30.0481 86.9235 30.145C87.0205 30.2355 87.0689 30.3518 87.0689 30.494C87.0689 30.6362 87.0205 30.7557 86.9235 30.8527C86.8266 30.9496 86.7103 30.9981 86.5746 30.9981ZM86.9139 31.9965V37.2891H86.2353V31.9965H86.9139ZM90.5345 32.5684H89.3034V37.2891H88.6249V32.5684H87.8882V31.9965H88.6249V31.6281C88.6249 31.053 88.7703 30.6297 89.0611 30.3583C89.3584 30.0869 89.8366 29.9512 90.4957 29.9512V30.5328C90.0563 30.5328 89.7461 30.6168 89.5651 30.7848C89.3907 30.9528 89.3034 31.2339 89.3034 31.6281V31.9965H90.5345V32.5684ZM96.1876 31.9965V37.2891H95.5091V36.3585C95.354 36.6881 95.1149 36.9401 94.7918 37.1146C94.4687 37.2891 94.1068 37.3763 93.7061 37.3763C93.0728 37.3763 92.5558 37.1824 92.1552 36.7947C91.7545 36.4005 91.5542 35.8318 91.5542 35.0887V31.9965H92.223V35.0111C92.223 35.5863 92.3652 36.0257 92.6495 36.3294C92.9403 36.6331 93.3345 36.785 93.8321 36.785C94.3426 36.785 94.7498 36.6234 95.0535 36.3003C95.3572 35.9772 95.5091 35.5022 95.5091 34.8754V31.9965H96.1876ZM98.4153 30.116V37.2891H97.7367V30.116H98.4153ZM100.63 30.116V37.2891H99.9518V30.116H100.63ZM106.529 31.9965L103.388 39.7803H102.681L103.708 37.26L101.537 31.9965H102.283L104.086 36.5136L105.831 31.9965H106.529ZM4.8956 46.9965V52.2891H4.21706V51.3585C4.06197 51.6881 3.82287 51.9401 3.49975 52.1146C3.17664 52.2891 2.81475 52.3763 2.41409 52.3763C1.78079 52.3763 1.26381 52.1824 0.86315 51.7947C0.46249 51.4005 0.26216 50.8318 0.26216 50.0887V46.9965H0.931004V50.0111C0.931004 50.5863 1.07317 51.0257 1.35751 51.3294C1.64831 51.6331 2.04251 51.785 2.54011 51.785C3.05063 51.785 3.45775 51.6234 3.76147 51.3003C4.0652 50.9772 4.21706 50.5022 4.21706 49.8754V46.9965H4.8956ZM8.26708 52.3666C7.65963 52.3666 7.16204 52.2277 6.7743 51.9498C6.39303 51.6655 6.17977 51.281 6.13454 50.7963H6.83246C6.86477 51.0935 7.00371 51.3359 7.24928 51.5233C7.5013 51.7042 7.83734 51.7947 8.25739 51.7947C8.62574 51.7947 8.91331 51.7075 9.1201 51.533C9.33335 51.3585 9.43998 51.142 9.43998 50.8835C9.43998 50.7026 9.38182 50.5539 9.2655 50.4376C9.14918 50.3213 9.00055 50.2308 8.8196 50.1662C8.64512 50.0951 8.40602 50.0208 8.10229 49.9433C7.7081 49.8399 7.38821 49.7365 7.14265 49.6331C6.89708 49.5297 6.68706 49.3778 6.51258 49.1775C6.34456 48.9707 6.26055 48.696 6.26055 48.3535C6.26055 48.0951 6.3381 47.856 6.49319 47.6362C6.64829 47.4165 6.868 47.242 7.15234 47.1128C7.43668 46.9835 7.75979 46.9189 8.12168 46.9189C8.69036 46.9189 9.14918 47.0643 9.49814 47.3551C9.8471 47.6395 10.0345 48.0337 10.0604 48.5377H9.38182C9.36243 48.2275 9.23965 47.9787 9.01347 47.7913C8.79376 47.5975 8.49003 47.5005 8.10229 47.5005C7.75979 47.5005 7.48192 47.5813 7.26866 47.7429C7.05541 47.9044 6.94878 48.1047 6.94878 48.3439C6.94878 48.5506 7.01017 48.7219 7.13296 48.8576C7.2622 48.9868 7.42053 49.0902 7.60793 49.1678C7.79534 49.2389 8.04736 49.3197 8.36402 49.4101C8.74529 49.5135 9.04901 49.6137 9.27519 49.7106C9.50137 49.8076 9.69524 49.9497 9.8568 50.1371C10.0184 50.3245 10.1024 50.5733 10.1088 50.8835C10.1088 51.1679 10.0313 51.4231 9.87618 51.6493C9.72109 51.869 9.5046 52.0435 9.22673 52.1727C8.94885 52.302 8.62897 52.3666 8.26708 52.3666ZM11.7253 45.9981C11.5896 45.9981 11.4733 45.9496 11.3764 45.8527C11.2795 45.7557 11.231 45.6362 11.231 45.494C11.231 45.3518 11.2795 45.2355 11.3764 45.145C11.4733 45.0481 11.5896 44.9996 11.7253 44.9996C11.8611 44.9996 11.9774 45.0481 12.0743 45.145C12.1712 45.2355 12.2197 45.3518 12.2197 45.494C12.2197 45.6362 12.1712 45.7557 12.0743 45.8527C11.9774 45.9496 11.8611 45.9981 11.7253 45.9981ZM12.0646 46.9965V52.2891H11.3861V46.9965H12.0646ZM16.0827 46.8995C16.716 46.8995 17.233 47.0966 17.6336 47.4908C18.0343 47.8786 18.2346 48.444 18.2346 49.1872V52.2891H17.5658V49.2647C17.5658 48.6896 17.4204 48.2502 17.1296 47.9464C16.8452 47.6427 16.4543 47.4908 15.9567 47.4908C15.4461 47.4908 15.039 47.6524 14.7353 47.9755C14.4316 48.2986 14.2797 48.7736 14.2797 49.4004V52.2891H13.6012V46.9965H14.2797V47.898C14.4477 47.5748 14.6901 47.3293 15.0067 47.1613C15.3234 46.9868 15.682 46.8995 16.0827 46.8995ZM21.9551 46.9189C22.4526 46.9189 22.8856 47.0352 23.254 47.2679C23.6223 47.5005 23.8873 47.7946 24.0488 48.15V46.9965H24.7274V52.4248C24.7274 52.9094 24.6207 53.3392 24.4075 53.714C24.2007 54.0888 23.9099 54.3764 23.5351 54.5767C23.1603 54.7835 22.7338 54.8869 22.2555 54.8869C21.577 54.8869 21.0116 54.7253 20.5592 54.4022C20.1133 54.0791 19.8354 53.6397 19.7256 53.0839H20.3944C20.5107 53.4523 20.7305 53.7463 21.0536 53.966C21.3831 54.1857 21.7838 54.2956 22.2555 54.2956C22.598 54.2956 22.905 54.2213 23.1764 54.0726C23.4478 53.9305 23.6611 53.7172 23.8162 53.4329C23.9713 53.1485 24.0488 52.8125 24.0488 52.4248V51.1162C23.8808 51.478 23.6126 51.7785 23.2443 52.0176C22.8824 52.2503 22.4526 52.3666 21.9551 52.3666C21.4704 52.3666 21.0342 52.2535 20.6464 52.0273C20.2652 51.8012 19.9647 51.4813 19.745 51.0677C19.5317 50.6541 19.4251 50.1759 19.4251 49.6331C19.4251 49.0902 19.5317 48.6153 19.745 48.2081C19.9647 47.7946 20.2652 47.4779 20.6464 47.2582C21.0342 47.032 21.4704 46.9189 21.9551 46.9189ZM24.0488 49.6428C24.0488 49.2163 23.9616 48.8414 23.7871 48.5183C23.6126 48.1952 23.3735 47.9464 23.0698 47.7719C22.7725 47.5975 22.443 47.5102 22.0811 47.5102C21.7063 47.5102 21.3702 47.5942 21.073 47.7623C20.7757 47.9303 20.5398 48.1758 20.3653 48.4989C20.1973 48.8156 20.1133 49.1936 20.1133 49.6331C20.1133 50.066 20.1973 50.4473 20.3653 50.7769C20.5398 51.1 20.7757 51.3488 21.073 51.5233C21.3702 51.6913 21.7063 51.7753 22.0811 51.7753C22.443 51.7753 22.7725 51.6881 23.0698 51.5136C23.3735 51.3391 23.6126 51.0903 23.7871 50.7672C23.9616 50.4441 24.0488 50.0693 24.0488 49.6428ZM28.6262 49.6331C28.6262 49.0902 28.7361 48.6153 28.9558 48.2081C29.1755 47.7946 29.476 47.4779 29.8573 47.2582C30.245 47.032 30.6812 46.9189 31.1659 46.9189C31.6312 46.9189 32.0512 47.032 32.426 47.2582C32.8008 47.4844 33.0755 47.7784 33.25 48.1403V45.116H33.9285V52.2891H33.25V51.1065C33.0884 51.4748 32.8235 51.7785 32.4551 52.0176C32.0868 52.2503 31.6538 52.3666 31.1562 52.3666C30.6715 52.3666 30.2353 52.2535 29.8476 52.0273C29.4663 51.8012 29.1658 51.4813 28.9461 51.0677C28.7329 50.6541 28.6262 50.1759 28.6262 49.6331ZM33.25 49.6428C33.25 49.2163 33.1627 48.8414 32.9882 48.5183C32.8138 48.1952 32.5747 47.9464 32.2709 47.7719C31.9737 47.5975 31.6441 47.5102 31.2822 47.5102C30.9074 47.5102 30.5714 47.5942 30.2741 47.7623C29.9768 47.9303 29.741 48.1758 29.5665 48.4989C29.3985 48.8156 29.3145 49.1936 29.3145 49.6331C29.3145 50.066 29.3985 50.4473 29.5665 50.7769C29.741 51.1 29.9768 51.3488 30.2741 51.5233C30.5714 51.6913 30.9074 51.7753 31.2822 51.7753C31.6441 51.7753 31.9737 51.6881 32.2709 51.5136C32.5747 51.3391 32.8138 51.0903 32.9882 50.7672C33.1627 50.4441 33.25 50.0693 33.25 49.6428ZM40.2661 49.3714C40.2661 49.604 40.2596 49.7817 40.2467 49.9045H35.8556C35.875 50.3051 35.9719 50.6476 36.1464 50.932C36.3209 51.2163 36.5503 51.4328 36.8346 51.5814C37.119 51.7236 37.4292 51.7947 37.7652 51.7947C38.2046 51.7947 38.573 51.6881 38.8702 51.4748C39.174 51.2616 39.3743 50.974 39.4712 50.6121H40.1885C40.0593 51.1291 39.7814 51.5524 39.3549 51.8819C38.9349 52.2051 38.405 52.3666 37.7652 52.3666C37.2676 52.3666 36.8217 52.2568 36.4275 52.037C36.0333 51.8109 35.7231 51.4942 35.4969 51.0871C35.2772 50.6735 35.1674 50.1921 35.1674 49.6428C35.1674 49.0935 35.2772 48.612 35.4969 48.1985C35.7167 47.7849 36.0236 47.4682 36.4178 47.2485C36.812 47.0288 37.2611 46.9189 37.7652 46.9189C38.2693 46.9189 38.7087 47.0288 39.0835 47.2485C39.4648 47.4682 39.7556 47.7655 39.9559 48.1403C40.1627 48.5086 40.2661 48.919 40.2661 49.3714ZM39.5779 49.352C39.5843 48.9578 39.5035 48.6217 39.3355 48.3439C39.174 48.066 38.951 47.856 38.6667 47.7138C38.3823 47.5716 38.0722 47.5005 37.7361 47.5005C37.2321 47.5005 36.8023 47.6621 36.4469 47.9852C36.0915 48.3083 35.8944 48.7639 35.8556 49.352H39.5779ZM41.1973 49.6331C41.1973 49.0902 41.3072 48.6153 41.5269 48.2081C41.7466 47.7946 42.0471 47.4779 42.4284 47.2582C42.8161 47.032 43.2523 46.9189 43.737 46.9189C44.2023 46.9189 44.6223 47.032 44.9971 47.2582C45.372 47.4844 45.6466 47.7784 45.8211 48.1403V45.116H46.4996V52.2891H45.8211V51.1065C45.6595 51.4748 45.3946 51.7785 45.0262 52.0176C44.6579 52.2503 44.2249 52.3666 43.7273 52.3666C43.2426 52.3666 42.8064 52.2535 42.4187 52.0273C42.0374 51.8012 41.7369 51.4813 41.5172 51.0677C41.304 50.6541 41.1973 50.1759 41.1973 49.6331ZM45.8211 49.6428C45.8211 49.2163 45.7338 48.8414 45.5594 48.5183C45.3849 48.1952 45.1458 47.9464 44.8421 47.7719C44.5448 47.5975 44.2152 47.5102 43.8533 47.5102C43.4785 47.5102 43.1425 47.5942 42.8452 47.7623C42.548 47.9303 42.3121 48.1758 42.1376 48.4989C41.9696 48.8156 41.8856 49.1936 41.8856 49.6331C41.8856 50.066 41.9696 50.4473 42.1376 50.7769C42.3121 51.1 42.548 51.3488 42.8452 51.5233C43.1425 51.6913 43.4785 51.7753 43.8533 51.7753C44.2152 51.7753 44.5448 51.6881 44.8421 51.5136C45.1458 51.3391 45.3849 51.0903 45.5594 50.7672C45.7338 50.4441 45.8211 50.0693 45.8211 49.6428ZM48.3879 45.9981C48.2522 45.9981 48.1359 45.9496 48.039 45.8527C47.942 45.7557 47.8936 45.6362 47.8936 45.494C47.8936 45.3518 47.942 45.2355 48.039 45.145C48.1359 45.0481 48.2522 44.9996 48.3879 44.9996C48.5236 44.9996 48.64 45.0481 48.7369 45.145C48.8338 45.2355 48.8823 45.3518 48.8823 45.494C48.8823 45.6362 48.8338 45.7557 48.7369 45.8527C48.64 45.9496 48.5236 45.9981 48.3879 45.9981ZM48.7272 46.9965V52.2891H48.0487V46.9965H48.7272ZM49.9536 49.6428C49.9536 49.0935 50.0634 48.6153 50.2831 48.2081C50.5029 47.7946 50.8066 47.4779 51.1943 47.2582C51.5821 47.032 52.0247 46.9189 52.5223 46.9189C53.175 46.9189 53.7114 47.0805 54.1314 47.4036C54.5579 47.7267 54.8326 48.1661 54.9554 48.7219H54.2284C54.1379 48.3406 53.9408 48.0434 53.6371 47.8301C53.3398 47.6104 52.9682 47.5005 52.5223 47.5005C52.1669 47.5005 51.847 47.5813 51.5627 47.7429C51.2783 47.9044 51.0522 48.1468 50.8841 48.4699C50.7226 48.7865 50.6418 49.1775 50.6418 49.6428C50.6418 50.1081 50.7226 50.5022 50.8841 50.8254C51.0522 51.1485 51.2783 51.3908 51.5627 51.5524C51.847 51.7139 52.1669 51.7947 52.5223 51.7947C52.9682 51.7947 53.3398 51.6881 53.6371 51.4748C53.9408 51.2551 54.1379 50.9514 54.2284 50.5636H54.9554C54.8326 51.1065 54.5579 51.5427 54.1314 51.8722C53.7049 52.2018 53.1685 52.3666 52.5223 52.3666C52.0247 52.3666 51.5821 52.2568 51.1943 52.037C50.8066 51.8109 50.5029 51.4942 50.2831 51.0871C50.0634 50.6735 49.9536 50.1921 49.9536 49.6428ZM55.8983 49.6331C55.8983 49.0902 56.005 48.6153 56.2182 48.2081C56.4379 47.7946 56.7384 47.4779 57.1197 47.2582C57.5074 47.032 57.9437 46.9189 58.4283 46.9189C58.9324 46.9189 59.3653 47.0352 59.7272 47.2679C60.0956 47.5005 60.3605 47.7978 60.5221 48.1597V46.9965H61.2006V52.2891H60.5221V51.1162C60.3541 51.478 60.0859 51.7785 59.7175 52.0176C59.3557 52.2503 58.9227 52.3666 58.4186 52.3666C57.9404 52.3666 57.5074 52.2535 57.1197 52.0273C56.7384 51.8012 56.4379 51.4813 56.2182 51.0677C56.005 50.6541 55.8983 50.1759 55.8983 49.6331ZM60.5221 49.6428C60.5221 49.2163 60.4349 48.8414 60.2604 48.5183C60.0859 48.1952 59.8468 47.9464 59.5431 47.7719C59.2458 47.5975 58.9162 47.5102 58.5543 47.5102C58.1795 47.5102 57.8435 47.5942 57.5462 47.7623C57.249 47.9303 57.0131 48.1758 56.8386 48.4989C56.6706 48.8156 56.5866 49.1936 56.5866 49.6331C56.5866 50.066 56.6706 50.4473 56.8386 50.7769C57.0131 51.1 57.249 51.3488 57.5462 51.5233C57.8435 51.6913 58.1795 51.7753 58.5543 51.7753C58.9162 51.7753 59.2458 51.6881 59.5431 51.5136C59.8468 51.3391 60.0859 51.0903 60.2604 50.7672C60.4349 50.4441 60.5221 50.0693 60.5221 49.6428ZM63.6318 47.5684V50.8544C63.6318 51.1776 63.6932 51.4005 63.8159 51.5233C63.9387 51.6461 64.1552 51.7075 64.4654 51.7075H65.0858V52.2891H64.3588C63.8806 52.2891 63.5251 52.1792 63.2925 51.9595C63.0599 51.7333 62.9435 51.365 62.9435 50.8544V47.5684H62.2068V46.9965H62.9435V45.6685H63.6318V46.9965H65.0858V47.5684H63.6318ZM70.9934 49.3714C70.9934 49.604 70.9869 49.7817 70.974 49.9045H66.5829C66.6023 50.3051 66.6992 50.6476 66.8737 50.932C67.0482 51.2163 67.2776 51.4328 67.5619 51.5814C67.8463 51.7236 68.1564 51.7947 68.4925 51.7947C68.9319 51.7947 69.3003 51.6881 69.5975 51.4748C69.9013 51.2616 70.1016 50.974 70.1985 50.6121H70.9158C70.7866 51.1291 70.5087 51.5524 70.0822 51.8819C69.6621 52.2051 69.1322 52.3666 68.4925 52.3666C67.9949 52.3666 67.549 52.2568 67.1548 52.037C66.7606 51.8109 66.4504 51.4942 66.2242 51.0871C66.0045 50.6735 65.8946 50.1921 65.8946 49.6428C65.8946 49.0935 66.0045 48.612 66.2242 48.1985C66.4439 47.7849 66.7509 47.4682 67.1451 47.2485C67.5393 47.0288 67.9884 46.9189 68.4925 46.9189C68.9965 46.9189 69.436 47.0288 69.8108 47.2485C70.1921 47.4682 70.4829 47.7655 70.6832 48.1403C70.89 48.5086 70.9934 48.919 70.9934 49.3714ZM70.3051 49.352C70.3116 48.9578 70.2308 48.6217 70.0628 48.3439C69.9013 48.066 69.6783 47.856 69.394 47.7138C69.1096 47.5716 68.7994 47.5005 68.4634 47.5005C67.9593 47.5005 67.5296 47.6621 67.1742 47.9852C66.8188 48.3083 66.6217 48.7639 66.5829 49.352H70.3051ZM71.9246 49.6331C71.9246 49.0902 72.0345 48.6153 72.2542 48.2081C72.4739 47.7946 72.7744 47.4779 73.1557 47.2582C73.5434 47.032 73.9796 46.9189 74.4643 46.9189C74.9296 46.9189 75.3496 47.032 75.7244 47.2582C76.0992 47.4844 76.3739 47.7784 76.5484 48.1403V45.116H77.2269V52.2891H76.5484V51.1065C76.3868 51.4748 76.1219 51.7785 75.7535 52.0176C75.3852 52.2503 74.9522 52.3666 74.4546 52.3666C73.9699 52.3666 73.5337 52.2535 73.146 52.0273C72.7647 51.8012 72.4642 51.4813 72.2445 51.0677C72.0312 50.6541 71.9246 50.1759 71.9246 49.6331ZM76.5484 49.6428C76.5484 49.2163 76.4611 48.8414 76.2866 48.5183C76.1122 48.1952 75.8731 47.9464 75.5693 47.7719C75.2721 47.5975 74.9425 47.5102 74.5806 47.5102C74.2058 47.5102 73.8698 47.5942 73.5725 47.7623C73.2752 47.9303 73.0394 48.1758 72.8649 48.4989C72.6969 48.8156 72.6128 49.1936 72.6128 49.6331C72.6128 50.066 72.6969 50.4473 72.8649 50.7769C73.0394 51.1 73.2752 51.3488 73.5725 51.5233C73.8698 51.6913 74.2058 51.7753 74.5806 51.7753C74.9425 51.7753 75.2721 51.6881 75.5693 51.5136C75.8731 51.3391 76.1122 51.0903 76.2866 50.7672C76.4611 50.4441 76.5484 50.0693 76.5484 49.6428ZM2.53041 61.9189C3.02801 61.9189 3.46098 62.0352 3.82933 62.2679C4.19768 62.5005 4.46263 62.7946 4.62419 63.15V61.9965H5.30272V67.4248C5.30272 67.9094 5.1961 68.3392 4.98284 68.714C4.77605 69.0888 4.48525 69.3764 4.11044 69.5767C3.73562 69.7835 3.30912 69.8869 2.83091 69.8869C2.15237 69.8869 1.58692 69.7253 1.13457 69.4022C0.688669 69.0791 0.410792 68.6397 0.300934 68.0839H0.969778C1.0861 68.4523 1.30582 68.7463 1.62893 68.966C1.9585 69.1857 2.35916 69.2956 2.83091 69.2956C3.17341 69.2956 3.48037 69.2213 3.75178 69.0726C4.0232 68.9305 4.23645 68.7172 4.39154 68.4329C4.54664 68.1485 4.62419 67.8125 4.62419 67.4248V66.1162C4.45617 66.478 4.18798 66.7785 3.81963 67.0176C3.45775 67.2503 3.02801 67.3666 2.53041 67.3666C2.04574 67.3666 1.60954 67.2535 1.22181 67.0273C0.840533 66.8012 0.540037 66.4813 0.320321 66.0677C0.107066 65.6541 0.000438877 65.1759 0.000438877 64.6331C0.000438877 64.0902 0.107066 63.6153 0.320321 63.2081C0.540037 62.7946 0.840533 62.4779 1.22181 62.2582C1.60954 62.032 2.04574 61.9189 2.53041 61.9189ZM4.62419 64.6428C4.62419 64.2163 4.53694 63.8414 4.36246 63.5183C4.18798 63.1952 3.94888 62.9464 3.64515 62.7719C3.34789 62.5975 3.01831 62.5102 2.65643 62.5102C2.28162 62.5102 1.94558 62.5942 1.64831 62.7623C1.35105 62.9303 1.11518 63.1758 0.940698 63.4989C0.772679 63.8156 0.688669 64.1936 0.688669 64.6331C0.688669 65.066 0.772679 65.4473 0.940698 65.7769C1.11518 66.1 1.35105 66.3488 1.64831 66.5233C1.94558 66.6913 2.28162 66.7753 2.65643 66.7753C3.01831 66.7753 3.34789 66.6881 3.64515 66.5136C3.94888 66.3391 4.18798 66.0903 4.36246 65.7672C4.53694 65.4441 4.62419 65.0693 4.62419 64.6428ZM6.54158 64.6331C6.54158 64.0902 6.64821 63.6153 6.86146 63.2081C7.08118 62.7946 7.38168 62.4779 7.76295 62.2582C8.15068 62.032 8.58689 61.9189 9.07156 61.9189C9.57561 61.9189 10.0086 62.0352 10.3705 62.2679C10.7388 62.5005 11.0038 62.7978 11.1653 63.1597V61.9965H11.8439V67.2891H11.1653V66.1162C10.9973 66.478 10.7291 66.7785 10.3608 67.0176C9.99889 67.2503 9.56592 67.3666 9.06186 67.3666C8.58366 67.3666 8.15068 67.2535 7.76295 67.0273C7.38168 66.8012 7.08118 66.4813 6.86146 66.0677C6.64821 65.6541 6.54158 65.1759 6.54158 64.6331ZM11.1653 64.6428C11.1653 64.2163 11.0781 63.8414 10.9036 63.5183C10.7291 63.1952 10.49 62.9464 10.1863 62.7719C9.88903 62.5975 9.55946 62.5102 9.19757 62.5102C8.82276 62.5102 8.48672 62.5942 8.18946 62.7623C7.89219 62.9303 7.65632 63.1758 7.48184 63.4989C7.31382 63.8156 7.22981 64.1936 7.22981 64.6331C7.22981 65.066 7.31382 65.4473 7.48184 65.7769C7.65632 66.1 7.89219 66.3488 8.18946 66.5233C8.48672 66.6913 8.82276 66.7753 9.19757 66.7753C9.55946 66.7753 9.88903 66.6881 10.1863 66.5136C10.49 66.3391 10.7291 66.0903 10.9036 65.7672C11.0781 65.4441 11.1653 65.0693 11.1653 64.6428ZM14.0715 60.116V67.2891H13.3929V60.116H14.0715ZM16.2865 60.116V67.2891H15.608V60.116H16.2865ZM22.6116 64.3714C22.6116 64.604 22.6052 64.7817 22.5922 64.9045H18.2011C18.2205 65.3051 18.3175 65.6476 18.4919 65.932C18.6664 66.2163 18.8958 66.4328 19.1802 66.5814C19.4645 66.7236 19.7747 66.7947 20.1107 66.7947C20.5502 66.7947 20.9185 66.6881 21.2158 66.4748C21.5195 66.2616 21.7198 65.974 21.8168 65.6121H22.5341C22.4048 66.1291 22.127 66.5524 21.7005 66.8819C21.2804 67.2051 20.7505 67.3666 20.1107 67.3666C19.6131 67.3666 19.1672 67.2568 18.773 67.037C18.3788 66.8109 18.0687 66.4942 17.8425 66.0871C17.6228 65.6735 17.5129 65.1921 17.5129 64.6428C17.5129 64.0935 17.6228 63.612 17.8425 63.1985C18.0622 62.7849 18.3692 62.4682 18.7634 62.2485C19.1576 62.0288 19.6067 61.9189 20.1107 61.9189C20.6148 61.9189 21.0542 62.0288 21.429 62.2485C21.8103 62.4682 22.1011 62.7655 22.3014 63.1403C22.5082 63.5086 22.6116 63.919 22.6116 64.3714ZM21.9234 64.352C21.9299 63.9578 21.8491 63.6217 21.6811 63.3439C21.5195 63.066 21.2966 62.856 21.0122 62.7138C20.7279 62.5716 20.4177 62.5005 20.0817 62.5005C19.5776 62.5005 19.1479 62.6621 18.7924 62.9852C18.437 63.3083 18.2399 63.7639 18.2011 64.352H21.9234ZM24.5316 62.9367C24.6802 62.6072 24.9064 62.3519 25.2101 62.171C25.5203 61.99 25.8984 61.8995 26.3443 61.8995V62.6072H26.1601C25.669 62.6072 25.2748 62.7396 24.9775 63.0046C24.6802 63.2695 24.5316 63.7122 24.5316 64.3326V67.2891H23.8531V61.9965H24.5316V62.9367ZM31.727 61.9965L28.5864 69.7803H27.8788L28.9063 67.26L26.735 61.9965H27.4813L29.2843 66.5136L31.0291 61.9965H31.727ZM35.976 63.1597C36.144 62.8043 36.409 62.5102 36.7709 62.2776C37.1392 62.0385 37.5754 61.9189 38.0795 61.9189C38.5577 61.9189 38.9874 62.032 39.3687 62.2582C39.7564 62.4779 40.0569 62.7946 40.2702 63.2081C40.4899 63.6153 40.5998 64.0902 40.5998 64.6331C40.5998 65.1759 40.4899 65.6541 40.2702 66.0677C40.0569 66.4813 39.7564 66.8012 39.3687 67.0273C38.9874 67.2535 38.5577 67.3666 38.0795 67.3666C37.5819 67.3666 37.1489 67.2503 36.7806 67.0176C36.4122 66.7785 36.144 66.4813 35.976 66.1259V69.79H35.3072V61.9965H35.976V63.1597ZM39.9115 64.6331C39.9115 64.1936 39.8243 63.8156 39.6498 63.4989C39.4818 63.1758 39.2491 62.9303 38.9519 62.7623C38.6546 62.5942 38.3186 62.5102 37.9438 62.5102C37.5819 62.5102 37.2491 62.5975 36.9453 62.7719C36.6481 62.9464 36.4122 63.1952 36.2377 63.5183C36.0632 63.8414 35.976 64.2163 35.976 64.6428C35.976 65.0693 36.0632 65.4441 36.2377 65.7672C36.4122 66.0903 36.6481 66.3391 36.9453 66.5136C37.2491 66.6881 37.5819 66.7753 37.9438 66.7753C38.3186 66.7753 38.6546 66.6913 38.9519 66.5233C39.2491 66.3488 39.4818 66.1 39.6498 65.7769C39.8243 65.4473 39.9115 65.066 39.9115 64.6331ZM41.5381 64.6331C41.5381 64.0902 41.6447 63.6153 41.858 63.2081C42.0777 62.7946 42.3782 62.4779 42.7595 62.2582C43.1472 62.032 43.5834 61.9189 44.0681 61.9189C44.5722 61.9189 45.0051 62.0352 45.367 62.2679C45.7354 62.5005 46.0003 62.7978 46.1619 63.1597V61.9965H46.8404V67.2891H46.1619V66.1162C45.9938 66.478 45.7257 66.7785 45.3573 67.0176C44.9954 67.2503 44.5625 67.3666 44.0584 67.3666C43.5802 67.3666 43.1472 67.2535 42.7595 67.0273C42.3782 66.8012 42.0777 66.4813 41.858 66.0677C41.6447 65.6541 41.5381 65.1759 41.5381 64.6331ZM46.1619 64.6428C46.1619 64.2163 46.0746 63.8414 45.9001 63.5183C45.7257 63.1952 45.4866 62.9464 45.1828 62.7719C44.8856 62.5975 44.556 62.5102 44.1941 62.5102C43.8193 62.5102 43.4833 62.5942 43.186 62.7623C42.8887 62.9303 42.6529 63.1758 42.4784 63.4989C42.3104 63.8156 42.2264 64.1936 42.2264 64.6331C42.2264 65.066 42.3104 65.4473 42.4784 65.7769C42.6529 66.1 42.8887 66.3488 43.186 66.5233C43.4833 66.6913 43.8193 66.7753 44.1941 66.7753C44.556 66.7753 44.8856 66.6881 45.1828 66.5136C45.4866 66.3391 45.7257 66.0903 45.9001 65.7672C46.0746 65.4441 46.1619 65.0693 46.1619 64.6428ZM50.6092 61.9189C51.1068 61.9189 51.5398 62.0352 51.9082 62.2679C52.2765 62.5005 52.5415 62.7946 52.703 63.15V61.9965H53.3815V67.4248C53.3815 67.9094 53.2749 68.3392 53.0617 68.714C52.8549 69.0888 52.5641 69.3764 52.1893 69.5767C51.8144 69.7835 51.3879 69.8869 50.9097 69.8869C50.2312 69.8869 49.6657 69.7253 49.2134 69.4022C48.7675 69.0791 48.4896 68.6397 48.3798 68.0839H49.0486C49.1649 68.4523 49.3846 68.7463 49.7078 68.966C50.0373 69.1857 50.438 69.2956 50.9097 69.2956C51.2522 69.2956 51.5592 69.2213 51.8306 69.0726C52.102 68.9305 52.3153 68.7172 52.4704 68.4329C52.6255 68.1485 52.703 67.8125 52.703 67.4248V66.1162C52.535 66.478 52.2668 66.7785 51.8985 67.0176C51.5366 67.2503 51.1068 67.3666 50.6092 67.3666C50.1246 67.3666 49.6884 67.2535 49.3006 67.0273C48.9194 66.8012 48.6189 66.4813 48.3991 66.0677C48.1859 65.6541 48.0793 65.1759 48.0793 64.6331C48.0793 64.0902 48.1859 63.6153 48.3991 63.2081C48.6189 62.7946 48.9194 62.4779 49.3006 62.2582C49.6884 62.032 50.1246 61.9189 50.6092 61.9189ZM52.703 64.6428C52.703 64.2163 52.6158 63.8414 52.4413 63.5183C52.2668 63.1952 52.0277 62.9464 51.724 62.7719C51.4267 62.5975 51.0971 62.5102 50.7353 62.5102C50.3604 62.5102 50.0244 62.5942 49.7271 62.7623C49.4299 62.9303 49.194 63.1758 49.0195 63.4989C48.8515 63.8156 48.7675 64.1936 48.7675 64.6331C48.7675 65.066 48.8515 65.4473 49.0195 65.7769C49.194 66.1 49.4299 66.3488 49.7271 66.5233C50.0244 66.6913 50.3604 66.7753 50.7353 66.7753C51.0971 66.7753 51.4267 66.6881 51.724 66.5136C52.0277 66.3391 52.2668 66.0903 52.4413 65.7672C52.6158 65.4441 52.703 65.0693 52.703 64.6428ZM59.7191 64.3714C59.7191 64.604 59.7127 64.7817 59.6997 64.9045H55.3086C55.328 65.3051 55.425 65.6476 55.5994 65.932C55.7739 66.2163 56.0033 66.4328 56.2877 66.5814C56.572 66.7236 56.8822 66.7947 57.2182 66.7947C57.6577 66.7947 58.026 66.6881 58.3233 66.4748C58.627 66.2616 58.8273 65.974 58.9243 65.6121H59.6416C59.5123 66.1291 59.2345 66.5524 58.808 66.8819C58.3879 67.2051 57.858 67.3666 57.2182 67.3666C56.7206 67.3666 56.2747 67.2568 55.8805 67.037C55.4863 66.8109 55.1762 66.4942 54.95 66.0871C54.7303 65.6735 54.6204 65.1921 54.6204 64.6428C54.6204 64.0935 54.7303 63.612 54.95 63.1985C55.1697 62.7849 55.4767 62.4682 55.8709 62.2485C56.2651 62.0288 56.7142 61.9189 57.2182 61.9189C57.7223 61.9189 58.1617 62.0288 58.5365 62.2485C58.9178 62.4682 59.2086 62.7655 59.4089 63.1403C59.6157 63.5086 59.7191 63.919 59.7191 64.3714ZM59.0309 64.352C59.0374 63.9578 58.9566 63.6217 58.7886 63.3439C58.627 63.066 58.4041 62.856 58.1197 62.7138C57.8354 62.5716 57.5252 62.5005 57.1892 62.5005C56.6851 62.5005 56.2554 62.6621 55.8999 62.9852C55.5445 63.3083 55.3474 63.7639 55.3086 64.352H59.0309ZM62.7829 67.3666C62.1755 67.3666 61.6779 67.2277 61.2901 66.9498C60.9089 66.6655 60.6956 66.281 60.6504 65.7963H61.3483C61.3806 66.0935 61.5195 66.3359 61.7651 66.5233C62.0171 66.7042 62.3532 66.7947 62.7732 66.7947C63.1416 66.7947 63.4291 66.7075 63.6359 66.533C63.8492 66.3585 63.9558 66.142 63.9558 65.8835C63.9558 65.7026 63.8977 65.5539 63.7813 65.4376C63.665 65.3213 63.5164 65.2308 63.3354 65.1662C63.161 65.0951 62.9219 65.0208 62.6181 64.9433C62.2239 64.8399 61.9041 64.7365 61.6585 64.6331C61.4129 64.5297 61.2029 64.3778 61.0284 64.1775C60.8604 63.9707 60.7764 63.696 60.7764 63.3535C60.7764 63.0951 60.8539 62.856 61.009 62.6362C61.1641 62.4165 61.3838 62.242 61.6682 62.1128C61.9525 61.9835 62.2756 61.9189 62.6375 61.9189C63.2062 61.9189 63.665 62.0643 64.014 62.3551C64.3629 62.6395 64.5503 63.0337 64.5762 63.5377H63.8977C63.8783 63.2275 63.7555 62.9787 63.5293 62.7913C63.3096 62.5975 63.0059 62.5005 62.6181 62.5005C62.2756 62.5005 61.9978 62.5813 61.7845 62.7429C61.5712 62.9044 61.4646 63.1047 61.4646 63.3439C61.4646 63.5506 61.526 63.7219 61.6488 63.8576C61.778 63.9868 61.9364 64.0902 62.1238 64.1678C62.3112 64.2389 62.5632 64.3197 62.8799 64.4101C63.2611 64.5135 63.5649 64.6137 63.791 64.7106C64.0172 64.8076 64.2111 64.9497 64.3726 65.1371C64.5342 65.3245 64.6182 65.5733 64.6247 65.8835C64.6247 66.1679 64.5471 66.4231 64.392 66.6493C64.2369 66.869 64.0204 67.0435 63.7426 67.1727C63.4647 67.302 63.1448 67.3666 62.7829 67.3666ZM68.2517 64.6331C68.2517 64.0902 68.3584 63.6153 68.5716 63.2081C68.7913 62.7946 69.0918 62.4779 69.4731 62.2582C69.8608 62.032 70.297 61.9189 70.7817 61.9189C71.2858 61.9189 71.7187 62.0352 72.0806 62.2679C72.449 62.5005 72.7139 62.7978 72.8755 63.1597V61.9965H73.554V67.2891H72.8755V66.1162C72.7075 66.478 72.4393 66.7785 72.0709 67.0176C71.709 67.2503 71.2761 67.3666 70.772 67.3666C70.2938 67.3666 69.8608 67.2535 69.4731 67.0273C69.0918 66.8012 68.7913 66.4813 68.5716 66.0677C68.3584 65.6541 68.2517 65.1759 68.2517 64.6331ZM72.8755 64.6428C72.8755 64.2163 72.7882 63.8414 72.6138 63.5183C72.4393 63.1952 72.2002 62.9464 71.8964 62.7719C71.5992 62.5975 71.2696 62.5102 70.9077 62.5102C70.5329 62.5102 70.1969 62.5942 69.8996 62.7623C69.6023 62.9303 69.3665 63.1758 69.192 63.4989C69.024 63.8156 68.94 64.1936 68.94 64.6331C68.94 65.066 69.024 65.4473 69.192 65.7769C69.3665 66.1 69.6023 66.3488 69.8996 66.5233C70.1969 66.6913 70.5329 66.7753 70.9077 66.7753C71.2696 66.7753 71.5992 66.6881 71.8964 66.5136C72.2002 66.3391 72.4393 66.0903 72.6138 65.7672C72.7882 65.4441 72.8755 65.0693 72.8755 64.6428ZM77.5846 61.8995C78.2179 61.8995 78.7349 62.0966 79.1355 62.4908C79.5362 62.8786 79.7365 63.444 79.7365 64.1872V67.2891H79.0677V64.2647C79.0677 63.6896 78.9223 63.2502 78.6315 62.9464C78.3471 62.6427 77.9561 62.4908 77.4586 62.4908C76.948 62.4908 76.5409 62.6524 76.2372 62.9755C75.9335 63.2986 75.7816 63.7736 75.7816 64.4004V67.2891H75.1031V61.9965H75.7816V62.898C75.9496 62.5748 76.192 62.3293 76.5086 62.1613C76.8253 61.9868 77.1839 61.8995 77.5846 61.8995ZM80.927 64.6331C80.927 64.0902 81.0368 63.6153 81.2566 63.2081C81.4763 62.7946 81.7768 62.4779 82.158 62.2582C82.5458 62.032 82.982 61.9189 83.4666 61.9189C83.9319 61.9189 84.352 62.032 84.7268 62.2582C85.1016 62.4844 85.3762 62.7784 85.5507 63.1403V60.116H86.2293V67.2891H85.5507V66.1065C85.3892 66.4748 85.1242 66.7785 84.7559 67.0176C84.3875 67.2503 83.9545 67.3666 83.4569 67.3666C82.9723 67.3666 82.5361 67.2535 82.1483 67.0273C81.7671 66.8012 81.4666 66.4813 81.2469 66.0677C81.0336 65.6541 80.927 65.1759 80.927 64.6331ZM85.5507 64.6428C85.5507 64.2163 85.4635 63.8414 85.289 63.5183C85.1145 63.1952 84.8754 62.9464 84.5717 62.7719C84.2744 62.5975 83.9449 62.5102 83.583 62.5102C83.2082 62.5102 82.8721 62.5942 82.5749 62.7623C82.2776 62.9303 82.0417 63.1758 81.8672 63.4989C81.6992 63.8156 81.6152 64.1936 81.6152 64.6331C81.6152 65.066 81.6992 65.4473 81.8672 65.7769C82.0417 66.1 82.2776 66.3488 82.5749 66.5233C82.8721 66.6913 83.2082 66.7753 83.583 66.7753C83.9449 66.7753 84.2744 66.6881 84.5717 66.5136C84.8754 66.3391 85.1145 66.0903 85.289 65.7672C85.4635 65.4441 85.5507 65.0693 85.5507 64.6428ZM0.000438877 79.6331C0.000438877 79.0902 0.110297 78.6153 0.330014 78.2081C0.549731 77.7946 0.850226 77.4779 1.2315 77.2582C1.61923 77.032 2.05544 76.9189 2.54011 76.9189C3.00539 76.9189 3.42544 77.032 3.80025 77.2582C4.17506 77.4844 4.4497 77.7784 4.62419 78.1403V75.116H5.30272V82.2891H4.62419V81.1065C4.46263 81.4748 4.19768 81.7785 3.82933 82.0176C3.46098 82.2503 3.02801 82.3666 2.53041 82.3666C2.04574 82.3666 1.60954 82.2535 1.22181 82.0273C0.840533 81.8012 0.540037 81.4813 0.320321 81.0677C0.107066 80.6541 0.000438877 80.1759 0.000438877 79.6331ZM4.62419 79.6428C4.62419 79.2163 4.53694 78.8414 4.36246 78.5183C4.18798 78.1952 3.94888 77.9464 3.64515 77.7719C3.34789 77.5975 3.01831 77.5102 2.65643 77.5102C2.28162 77.5102 1.94558 77.5942 1.64831 77.7623C1.35105 77.9303 1.11518 78.1758 0.940698 78.4989C0.772679 78.8156 0.688669 79.1936 0.688669 79.6331C0.688669 80.066 0.772679 80.4473 0.940698 80.7769C1.11518 81.1 1.35105 81.3488 1.64831 81.5233C1.94558 81.6913 2.28162 81.7753 2.65643 81.7753C3.01831 81.7753 3.34789 81.6881 3.64515 81.5136C3.94888 81.3391 4.18798 81.0903 4.36246 80.7672C4.53694 80.4441 4.62419 80.0693 4.62419 79.6428ZM7.19104 75.9981C7.05533 75.9981 6.93901 75.9496 6.84208 75.8527C6.74514 75.7557 6.69668 75.6362 6.69668 75.494C6.69668 75.3518 6.74514 75.2355 6.84208 75.145C6.93901 75.0481 7.05533 74.9996 7.19104 74.9996C7.32675 74.9996 7.44307 75.0481 7.54 75.145C7.63694 75.2355 7.6854 75.3518 7.6854 75.494C7.6854 75.6362 7.63694 75.7557 7.54 75.8527C7.44307 75.9496 7.32675 75.9981 7.19104 75.9981ZM7.53031 76.9965V82.2891H6.85177V76.9965H7.53031ZM11.2866 76.9189C11.7842 76.9189 12.2172 77.0352 12.5856 77.2679C12.9539 77.5005 13.2189 77.7946 13.3804 78.15V76.9965H14.059V82.4248C14.059 82.9094 13.9523 83.3392 13.7391 83.714C13.5323 84.0888 13.2415 84.3764 12.8667 84.5767C12.4919 84.7835 12.0653 84.8869 11.5871 84.8869C10.9086 84.8869 10.3432 84.7253 9.8908 84.4022C9.4449 84.0791 9.16703 83.6397 9.05717 83.0839H9.72601C9.84233 83.4523 10.062 83.7463 10.3852 83.966C10.7147 84.1857 11.1154 84.2956 11.5871 84.2956C11.9296 84.2956 12.2366 84.2213 12.508 84.0726C12.7794 83.9305 12.9927 83.7172 13.1478 83.4329C13.3029 83.1485 13.3804 82.8125 13.3804 82.4248V81.1162C13.2124 81.478 12.9442 81.7785 12.5759 82.0176C12.214 82.2503 11.7842 82.3666 11.2866 82.3666C10.802 82.3666 10.3658 82.2535 9.97804 82.0273C9.59677 81.8012 9.29627 81.4813 9.07655 81.0677C8.8633 80.6541 8.75667 80.1759 8.75667 79.6331C8.75667 79.0902 8.8633 78.6153 9.07655 78.2081C9.29627 77.7946 9.59677 77.4779 9.97804 77.2582C10.3658 77.032 10.802 76.9189 11.2866 76.9189ZM13.3804 79.6428C13.3804 79.2163 13.2932 78.8414 13.1187 78.5183C12.9442 78.1952 12.7051 77.9464 12.4014 77.7719C12.1041 77.5975 11.7745 77.5102 11.4127 77.5102C11.0379 77.5102 10.7018 77.5942 10.4045 77.7623C10.1073 77.9303 9.87141 78.1758 9.69693 78.4989C9.52891 78.8156 9.4449 79.1936 9.4449 79.6331C9.4449 80.066 9.52891 80.4473 9.69693 80.7769C9.87141 81.1 10.1073 81.3488 10.4045 81.5233C10.7018 81.6913 11.0379 81.7753 11.4127 81.7753C11.7745 81.7753 12.1041 81.6881 12.4014 81.5136C12.7051 81.3391 12.9442 81.0903 13.1187 80.7672C13.2932 80.4441 13.3804 80.0693 13.3804 79.6428ZM15.9473 75.9981C15.8116 75.9981 15.6952 75.9496 15.5983 75.8527C15.5014 75.7557 15.4529 75.6362 15.4529 75.494C15.4529 75.3518 15.5014 75.2355 15.5983 75.145C15.6952 75.0481 15.8116 74.9996 15.9473 74.9996C16.083 74.9996 16.1993 75.0481 16.2962 75.145C16.3932 75.2355 16.4416 75.3518 16.4416 75.494C16.4416 75.6362 16.3932 75.7557 16.2962 75.8527C16.1993 75.9496 16.083 75.9981 15.9473 75.9981ZM16.2865 76.9965V82.2891H15.608V76.9965H16.2865ZM18.7052 77.5684V80.8544C18.7052 81.1776 18.7666 81.4005 18.8894 81.5233C19.0122 81.6461 19.2286 81.7075 19.5388 81.7075H20.1592V82.2891H19.4322C18.954 82.2891 18.5986 82.1792 18.3659 81.9595C18.1333 81.7333 18.017 81.365 18.017 80.8544V77.5684H17.2803V76.9965H18.017V75.6685H18.7052V76.9965H20.1592V77.5684H18.7052ZM20.9681 79.6331C20.9681 79.0902 21.0747 78.6153 21.288 78.2081C21.5077 77.7946 21.8082 77.4779 22.1894 77.2582C22.5772 77.032 23.0134 76.9189 23.498 76.9189C24.0021 76.9189 24.4351 77.0352 24.797 77.2679C25.1653 77.5005 25.4303 77.7978 25.5918 78.1597V76.9965H26.2704V82.2891H25.5918V81.1162C25.4238 81.478 25.1556 81.7785 24.7873 82.0176C24.4254 82.2503 23.9924 82.3666 23.4884 82.3666C23.0101 82.3666 22.5772 82.2535 22.1894 82.0273C21.8082 81.8012 21.5077 81.4813 21.288 81.0677C21.0747 80.6541 20.9681 80.1759 20.9681 79.6331ZM25.5918 79.6428C25.5918 79.2163 25.5046 78.8414 25.3301 78.5183C25.1556 78.1952 24.9165 77.9464 24.6128 77.7719C24.3155 77.5975 23.9859 77.5102 23.6241 77.5102C23.2492 77.5102 22.9132 77.5942 22.6159 77.7623C22.3187 77.9303 22.0828 78.1758 21.9083 78.4989C21.7403 78.8156 21.6563 79.1936 21.6563 79.6331C21.6563 80.066 21.7403 80.4473 21.9083 80.7769C22.0828 81.1 22.3187 81.3488 22.6159 81.5233C22.9132 81.6913 23.2492 81.7753 23.6241 81.7753C23.9859 81.7753 24.3155 81.6881 24.6128 81.5136C24.9165 81.3391 25.1556 81.0903 25.3301 80.7672C25.5046 80.4441 25.5918 80.0693 25.5918 79.6428ZM28.4979 75.116V82.2891H27.8194V75.116H28.4979ZM33.373 75.116V82.2891H32.6945V75.116H33.373ZM35.2489 75.9981C35.1131 75.9981 34.9968 75.9496 34.8999 75.8527C34.803 75.7557 34.7545 75.6362 34.7545 75.494C34.7545 75.3518 34.803 75.2355 34.8999 75.145C34.9968 75.0481 35.1131 74.9996 35.2489 74.9996C35.3846 74.9996 35.5009 75.0481 35.5978 75.145C35.6947 75.2355 35.7432 75.3518 35.7432 75.494C35.7432 75.6362 35.6947 75.7557 35.5978 75.8527C35.5009 75.9496 35.3846 75.9981 35.2489 75.9981ZM35.5881 76.9965V82.2891H34.9096V76.9965H35.5881ZM37.7935 78.1694C37.968 77.801 38.2362 77.5005 38.5981 77.2679C38.9664 77.0352 39.3994 76.9189 39.897 76.9189C40.3817 76.9189 40.8146 77.032 41.1959 77.2582C41.5772 77.4779 41.8744 77.7946 42.0877 78.2081C42.3074 78.6153 42.4173 79.0902 42.4173 79.6331C42.4173 80.1759 42.3074 80.6541 42.0877 81.0677C41.8744 81.4813 41.5739 81.8012 41.1862 82.0273C40.8049 82.2535 40.3752 82.3666 39.897 82.3666C39.3929 82.3666 38.9567 82.2535 38.5884 82.0273C38.2265 81.7947 37.9615 81.4942 37.7935 81.1259V82.2891H37.1247V75.116H37.7935V78.1694ZM41.729 79.6331C41.729 79.1936 41.6418 78.8156 41.4673 78.4989C41.2993 78.1758 41.0667 77.9303 40.7694 77.7623C40.4721 77.5942 40.1361 77.5102 39.7613 77.5102C39.3994 77.5102 39.0666 77.5975 38.7629 77.7719C38.4656 77.9464 38.2297 78.1952 38.0552 78.5183C37.8808 78.8414 37.7935 79.2163 37.7935 79.6428C37.7935 80.0693 37.8808 80.4441 38.0552 80.7672C38.2297 81.0903 38.4656 81.3391 38.7629 81.5136C39.0666 81.6881 39.3994 81.7753 39.7613 81.7753C40.1361 81.7753 40.4721 81.6913 40.7694 81.5233C41.0667 81.3488 41.2993 81.1 41.4673 80.7769C41.6418 80.4473 41.729 80.066 41.729 79.6331ZM44.3444 77.9367C44.493 77.6072 44.7192 77.3519 45.0229 77.171C45.3331 76.99 45.7111 76.8995 46.157 76.8995V77.6072H45.9728C45.4817 77.6072 45.0875 77.7396 44.7903 78.0046C44.493 78.2695 44.3444 78.7122 44.3444 79.3326V82.2891H43.6658V76.9965H44.3444V77.9367ZM46.8676 79.6331C46.8676 79.0902 46.9742 78.6153 47.1875 78.2081C47.4072 77.7946 47.7077 77.4779 48.089 77.2582C48.4767 77.032 48.9129 76.9189 49.3976 76.9189C49.9016 76.9189 50.3346 77.0352 50.6965 77.2679C51.0648 77.5005 51.3298 77.7978 51.4913 78.1597V76.9965H52.1699V82.2891H51.4913V81.1162C51.3233 81.478 51.0551 81.7785 50.6868 82.0176C50.3249 82.2503 49.8919 82.3666 49.3879 82.3666C48.9097 82.3666 48.4767 82.2535 48.089 82.0273C47.7077 81.8012 47.4072 81.4813 47.1875 81.0677C46.9742 80.6541 46.8676 80.1759 46.8676 79.6331ZM51.4913 79.6428C51.4913 79.2163 51.4041 78.8414 51.2296 78.5183C51.0551 78.1952 50.816 77.9464 50.5123 77.7719C50.215 77.5975 49.8855 77.5102 49.5236 77.5102C49.1488 77.5102 48.8127 77.5942 48.5155 77.7623C48.2182 77.9303 47.9823 78.1758 47.8078 78.4989C47.6398 78.8156 47.5558 79.1936 47.5558 79.6331C47.5558 80.066 47.6398 80.4473 47.8078 80.7769C47.9823 81.1 48.2182 81.3488 48.5155 81.5233C48.8127 81.6913 49.1488 81.7753 49.5236 81.7753C49.8855 81.7753 50.215 81.6881 50.5123 81.5136C50.816 81.3391 51.0551 81.0903 51.2296 80.7672C51.4041 80.4441 51.4913 80.0693 51.4913 79.6428ZM54.3975 77.9367C54.5461 77.6072 54.7723 77.3519 55.076 77.171C55.3862 76.99 55.7642 76.8995 56.2101 76.8995V77.6072H56.0259C55.5348 77.6072 55.1406 77.7396 54.8434 78.0046C54.5461 78.2695 54.3975 78.7122 54.3975 79.3326V82.2891H53.7189V76.9965H54.3975V77.9367ZM61.5929 76.9965L58.4522 84.7803H57.7446L58.7721 82.26L56.6008 76.9965H57.3472L59.1502 81.5136L60.895 76.9965H61.5929ZM66.9954 82.3666C66.3879 82.3666 65.8903 82.2277 65.5026 81.9498C65.1213 81.6655 64.9081 81.281 64.8628 80.7963H65.5608C65.5931 81.0935 65.732 81.3359 65.9776 81.5233C66.2296 81.7042 66.5656 81.7947 66.9857 81.7947C67.354 81.7947 67.6416 81.7075 67.8484 81.533C68.0617 81.3585 68.1683 81.142 68.1683 80.8835C68.1683 80.7026 68.1101 80.5539 67.9938 80.4376C67.8775 80.3213 67.7288 80.2308 67.5479 80.1662C67.3734 80.0951 67.1343 80.0208 66.8306 79.9433C66.4364 79.8399 66.1165 79.7365 65.8709 79.6331C65.6254 79.5297 65.4154 79.3778 65.2409 79.1775C65.0729 78.9707 64.9888 78.696 64.9888 78.3535C64.9888 78.0951 65.0664 77.856 65.2215 77.6362C65.3766 77.4165 65.5963 77.242 65.8806 77.1128C66.165 76.9835 66.4881 76.9189 66.85 76.9189C67.4187 76.9189 67.8775 77.0643 68.2264 77.3551C68.5754 77.6395 68.7628 78.0337 68.7887 78.5377H68.1101C68.0907 78.2275 67.968 77.9787 67.7418 77.7913C67.5221 77.5975 67.2183 77.5005 66.8306 77.5005C66.4881 77.5005 66.2102 77.5813 65.997 77.7429C65.7837 77.9044 65.6771 78.1047 65.6771 78.3439C65.6771 78.5506 65.7385 78.7219 65.8613 78.8576C65.9905 78.9868 66.1488 79.0902 66.3362 79.1678C66.5236 79.2389 66.7757 79.3197 67.0923 79.4101C67.4736 79.5135 67.7773 79.6137 68.0035 79.7106C68.2297 79.8076 68.4235 79.9497 68.5851 80.1371C68.7467 80.3245 68.8307 80.5733 68.8371 80.8835C68.8371 81.1679 68.7596 81.4231 68.6045 81.6493C68.4494 81.869 68.2329 82.0435 67.955 82.1727C67.6771 82.302 67.3573 82.3666 66.9954 82.3666ZM74.9029 79.3714C74.9029 79.604 74.8964 79.7817 74.8835 79.9045H70.4924C70.5118 80.3051 70.6087 80.6476 70.7832 80.932C70.9577 81.2163 71.1871 81.4328 71.4715 81.5814C71.7558 81.7236 72.066 81.7947 72.402 81.7947C72.8414 81.7947 73.2098 81.6881 73.5071 81.4748C73.8108 81.2616 74.0111 80.974 74.1081 80.6121H74.8254C74.6961 81.1291 74.4182 81.5524 73.9917 81.8819C73.5717 82.2051 73.0418 82.3666 72.402 82.3666C71.9044 82.3666 71.4585 82.2568 71.0643 82.037C70.6701 81.8109 70.3599 81.4942 70.1338 81.0871C69.914 80.6735 69.8042 80.1921 69.8042 79.6428C69.8042 79.0935 69.914 78.612 70.1338 78.1985C70.3535 77.7849 70.6604 77.4682 71.0546 77.2485C71.4488 77.0288 71.898 76.9189 72.402 76.9189C72.9061 76.9189 73.3455 77.0288 73.7203 77.2485C74.1016 77.4682 74.3924 77.7655 74.5927 78.1403C74.7995 78.5086 74.9029 78.919 74.9029 79.3714ZM74.2147 79.352C74.2211 78.9578 74.1404 78.6217 73.9723 78.3439C73.8108 78.066 73.5878 77.856 73.3035 77.7138C73.0192 77.5716 72.709 77.5005 72.3729 77.5005C71.8689 77.5005 71.4391 77.6621 71.0837 77.9852C70.7283 78.3083 70.5312 78.7639 70.4924 79.352H74.2147ZM75.8342 79.6428C75.8342 79.0935 75.944 78.6153 76.1637 78.2081C76.3834 77.7946 76.6872 77.4779 77.0749 77.2582C77.4626 77.032 77.9053 76.9189 78.4029 76.9189C79.0556 76.9189 79.592 77.0805 80.012 77.4036C80.4385 77.7267 80.7132 78.1661 80.8359 78.7219H80.1089C80.0185 78.3406 79.8214 78.0434 79.5176 77.8301C79.2204 77.6104 78.8488 77.5005 78.4029 77.5005C78.0475 77.5005 77.7276 77.5813 77.4433 77.7429C77.1589 77.9044 76.9327 78.1468 76.7647 78.4699C76.6032 78.7865 76.5224 79.1775 76.5224 79.6428C76.5224 80.1081 76.6032 80.5022 76.7647 80.8254C76.9327 81.1485 77.1589 81.3908 77.4433 81.5524C77.7276 81.7139 78.0475 81.7947 78.4029 81.7947C78.8488 81.7947 79.2204 81.6881 79.5176 81.4748C79.8214 81.2551 80.0185 80.9514 80.1089 80.5636H80.8359C80.7132 81.1065 80.4385 81.5427 80.012 81.8722C79.5855 82.2018 79.0491 82.3666 78.4029 82.3666C77.9053 82.3666 77.4626 82.2568 77.0749 82.037C76.6872 81.8109 76.3834 81.4942 76.1637 81.0871C75.944 80.6735 75.8342 80.1921 75.8342 79.6428ZM82.9712 77.5684V80.8544C82.9712 81.1776 83.0326 81.4005 83.1554 81.5233C83.2782 81.6461 83.4947 81.7075 83.8049 81.7075H84.4252V82.2891H83.6982C83.22 82.2891 82.8646 82.1792 82.632 81.9595C82.3993 81.7333 82.283 81.365 82.283 80.8544V77.5684H81.5463V76.9965H82.283V75.6685H82.9712V76.9965H84.4252V77.5684H82.9712ZM85.8836 75.9981C85.7478 75.9981 85.6315 75.9496 85.5346 75.8527C85.4377 75.7557 85.3892 75.6362 85.3892 75.494C85.3892 75.3518 85.4377 75.2355 85.5346 75.145C85.6315 75.0481 85.7478 74.9996 85.8836 74.9996C86.0193 74.9996 86.1356 75.0481 86.2325 75.145C86.3294 75.2355 86.3779 75.3518 86.3779 75.494C86.3779 75.6362 86.3294 75.7557 86.2325 75.8527C86.1356 75.9496 86.0193 75.9981 85.8836 75.9981ZM86.2228 76.9965V82.2891H85.5443V76.9965H86.2228ZM90.0761 82.3666C89.5785 82.3666 89.1294 82.2568 88.7287 82.037C88.3345 81.8109 88.0211 81.4942 87.7885 81.0871C87.5623 80.6735 87.4492 80.1921 87.4492 79.6428C87.4492 79.0935 87.5655 78.6153 87.7981 78.2081C88.0308 77.7946 88.3474 77.4779 88.7481 77.2582C89.1488 77.032 89.5979 76.9189 90.0955 76.9189C90.5931 76.9189 91.0422 77.032 91.4429 77.2582C91.85 77.4779 92.1666 77.7946 92.3928 78.2081C92.6255 78.6153 92.7418 79.0935 92.7418 79.6428C92.7418 80.1856 92.6255 80.6638 92.3928 81.0774C92.1602 81.491 91.8403 81.8109 91.4332 82.037C91.026 82.2568 90.5737 82.3666 90.0761 82.3666ZM90.0761 81.7753C90.4251 81.7753 90.7482 81.6978 91.0454 81.5427C91.3427 81.3811 91.5818 81.142 91.7627 80.8254C91.9501 80.5022 92.0439 80.1081 92.0439 79.6428C92.0439 79.1775 91.9534 78.7865 91.7724 78.4699C91.5915 78.1468 91.3524 77.9077 91.0551 77.7526C90.7579 77.591 90.4347 77.5102 90.0858 77.5102C89.7368 77.5102 89.4137 77.591 89.1164 77.7526C88.8192 77.9077 88.5801 78.1468 88.3991 78.4699C88.2247 78.7865 88.1374 79.1775 88.1374 79.6428C88.1374 80.1081 88.2247 80.5022 88.3991 80.8254C88.5801 81.142 88.816 81.3811 89.1068 81.5427C89.404 81.6978 89.7271 81.7753 90.0761 81.7753ZM96.4602 76.8995C97.0935 76.8995 97.6105 77.0966 98.0111 77.4908C98.4118 77.8786 98.6121 78.444 98.6121 79.1872V82.2891H97.9433V79.2647C97.9433 78.6896 97.7979 78.2502 97.5071 77.9464C97.2227 77.6427 96.8318 77.4908 96.3342 77.4908C95.8236 77.4908 95.4165 77.6524 95.1128 77.9755C94.8091 78.2986 94.6572 78.7736 94.6572 79.4004V82.2891H93.9787V76.9965H94.6572V77.898C94.8252 77.5748 95.0676 77.3293 95.3842 77.1613C95.7009 76.9868 96.0595 76.8995 96.4602 76.8995ZM101.935 82.3666C101.328 82.3666 100.83 82.2277 100.442 81.9498C100.061 81.6655 99.8478 81.281 99.8026 80.7963H100.501C100.533 81.0935 100.672 81.3359 100.917 81.5233C101.169 81.7042 101.505 81.7947 101.925 81.7947C102.294 81.7947 102.581 81.7075 102.788 81.533C103.001 81.3585 103.108 81.142 103.108 80.8835C103.108 80.7026 103.05 80.5539 102.934 80.4376C102.817 80.3213 102.669 80.2308 102.488 80.1662C102.313 80.0951 102.074 80.0208 101.77 79.9433C101.376 79.8399 101.056 79.7365 100.811 79.6331C100.565 79.5297 100.355 79.3778 100.181 79.1775C100.013 78.9707 99.9286 78.696 99.9286 78.3535C99.9286 78.0951 100.006 77.856 100.161 77.6362C100.316 77.4165 100.536 77.242 100.82 77.1128C101.105 76.9835 101.428 76.9189 101.79 76.9189C102.358 76.9189 102.817 77.0643 103.166 77.3551C103.515 77.6395 103.703 78.0337 103.728 78.5377H103.05C103.03 78.2275 102.908 77.9787 102.682 77.7913C102.462 77.5975 102.158 77.5005 101.77 77.5005C101.428 77.5005 101.15 77.5813 100.937 77.7429C100.723 77.9044 100.617 78.1047 100.617 78.3439C100.617 78.5506 100.678 78.7219 100.801 78.8576C100.93 78.9868 101.089 79.0902 101.276 79.1678C101.463 79.2389 101.715 79.3197 102.032 79.4101C102.413 79.5135 102.717 79.6137 102.943 79.7106C103.169 79.8076 103.363 79.9497 103.525 80.1371C103.686 80.3245 103.77 80.5733 103.777 80.8835C103.777 81.1679 103.699 81.4231 103.544 81.6493C103.389 81.869 103.173 82.0435 102.895 82.1727C102.617 82.302 102.297 82.3666 101.935 82.3666ZM105.17 82.3375C105.028 82.3375 104.909 82.2891 104.812 82.1921C104.721 82.0952 104.676 81.9756 104.676 81.8335C104.676 81.6913 104.721 81.575 104.812 81.4845C104.909 81.3876 105.028 81.3391 105.17 81.3391C105.306 81.3391 105.419 81.3876 105.51 81.4845C105.607 81.575 105.655 81.6913 105.655 81.8335C105.655 81.9756 105.607 82.0952 105.51 82.1921C105.419 82.2891 105.306 82.3375 105.17 82.3375Z" fill="black"/>
</svg>
