<svg width="533" height="673" viewBox="0 0 533 673" fill="none" xmlns="http://www.w3.org/2000/svg">
<g filter="url(#filter0_d_2599_17)">
<path d="M100.992 605.953L106.942 595.648L95.0424 595.648L100.992 605.953ZM100.992 596.833L102.023 596.833L102.023 590.753L100.992 590.753L99.9617 590.753L99.9617 596.833L100.992 596.833ZM100.992 584.673L102.023 584.673L102.023 578.592L100.992 578.592L99.9617 578.592L99.9617 584.673L100.992 584.673ZM100.992 572.512L102.023 572.512L102.023 566.432L100.992 566.432L99.9617 566.432L99.9617 572.512L100.992 572.512ZM100.992 560.352L102.023 560.352L102.023 554.272L100.992 554.272L99.9617 554.272L99.9617 560.352L100.992 560.352ZM100.992 548.192L102.023 548.192L102.023 545.152L100.992 545.152L99.9617 545.152L99.9617 548.192L100.992 548.192Z" fill="#FF0000"/>
</g>
<g filter="url(#filter1_d_2599_17)">
<path d="M441.07 22.6719L451.376 28.6217V16.7221L441.07 22.6719ZM530.212 22.6719H531.242V21.6413H530.212V22.6719ZM530.212 195.286V196.317H531.242V195.286H530.212ZM450.621 22.6719V23.7024H456.988V22.6719V21.6413H450.621V22.6719ZM463.356 22.6719V23.7024H469.723V22.6719V21.6413H463.356V22.6719ZM476.09 22.6719V23.7024H482.457V22.6719V21.6413H476.09V22.6719ZM488.825 22.6719V23.7024H495.192V22.6719V21.6413H488.825V22.6719ZM501.559 22.6719V23.7024H507.926V22.6719V21.6413H501.559V22.6719ZM514.293 22.6719V23.7024H520.661V22.6719V21.6413H514.293V22.6719ZM527.028 22.6719V23.7024H530.212V22.6719V21.6413H527.028V22.6719ZM530.212 22.6719H529.181V25.7543H530.212H531.242V22.6719H530.212ZM530.212 31.9191H529.181V38.0839H530.212H531.242V31.9191H530.212ZM530.212 44.2487H529.181V50.4135H530.212H531.242V44.2487H530.212ZM530.212 56.5783H529.181V62.7431H530.212H531.242V56.5783H530.212ZM530.212 68.9079H529.181V75.0727H530.212H531.242V68.9079H530.212ZM530.212 81.2375H529.181V87.4023H530.212H531.242V81.2375H530.212ZM530.212 93.5671H529.181V99.7319H530.212H531.242V93.5671H530.212ZM530.212 105.897H529.181V112.062H530.212H531.242V105.897H530.212ZM530.212 118.226H529.181V124.391H530.212H531.242V118.226H530.212ZM530.212 130.556H529.181V136.721H530.212H531.242V130.556H530.212ZM530.212 142.886H529.181V149.05H530.212H531.242V142.886H530.212ZM530.212 155.215H529.181V161.38H530.212H531.242V155.215H530.212ZM530.212 167.545H529.181V173.71H530.212H531.242V167.545H530.212ZM530.212 179.874H529.181V186.039H530.212H531.242V179.874H530.212ZM530.212 192.204H529.181V195.286H530.212H531.242V192.204H530.212ZM530.212 195.286V194.256H527.077V195.286V196.317H530.212V195.286ZM520.808 195.286V194.256H514.539V195.286V196.317H520.808V195.286ZM508.27 195.286V194.256H502.001V195.286V196.317H508.27V195.286ZM495.732 195.286V194.256H489.462V195.286V196.317H495.732V195.286ZM483.193 195.286V194.256H476.924V195.286V196.317H483.193V195.286ZM470.655 195.286V194.256H464.386V195.286V196.317H470.655V195.286ZM458.117 195.286V194.256H454.983V195.286V196.317H458.117V195.286Z" fill="#FF0000"/>
</g>
<g filter="url(#filter2_d_2599_17)">
<rect x="4.12109" y="618.32" width="177.611" height="45.6107" rx="7.21374" fill="black" shape-rendering="crispEdges"/>
<path d="M17.5421 635.165V646.625H15.6624V635.165H17.5421ZM24.5938 637.391C25.3083 637.391 25.9459 637.54 26.5065 637.837C27.0781 638.133 27.5233 638.573 27.8421 639.156C28.1608 639.738 28.3202 640.442 28.3202 641.266V646.625H26.457V641.547C26.457 640.733 26.2537 640.112 25.8469 639.683C25.4402 639.244 24.8851 639.024 24.1816 639.024C23.4781 639.024 22.9175 639.244 22.4998 639.683C22.093 640.112 21.8897 640.733 21.8897 641.547V646.625H20.01V637.54H21.8897V638.579C22.1975 638.205 22.5877 637.914 23.0604 637.705C23.544 637.496 24.0552 637.391 24.5938 637.391ZM32.9109 639.073V644.102C32.9109 644.443 32.9878 644.69 33.1417 644.844C33.3066 644.987 33.5814 645.059 33.9661 645.059H35.1203V646.625H33.6364C32.7899 646.625 32.1414 646.427 31.6907 646.031C31.24 645.636 31.0147 644.993 31.0147 644.102V639.073H29.9429V637.54H31.0147V635.281H32.9109V637.54H35.1203V639.073H32.9109ZM45.1795 641.86C45.1795 642.201 45.1575 642.508 45.1135 642.783H38.1719C38.2268 643.509 38.4961 644.091 38.9798 644.531C39.4635 644.971 40.0571 645.19 40.7606 645.19C41.7719 645.19 42.4864 644.767 42.9041 643.921H44.9322C44.6574 644.756 44.1572 645.443 43.4317 645.982C42.7172 646.51 41.8268 646.773 40.7606 646.773C39.8922 646.773 39.1117 646.581 38.4192 646.196C37.7377 645.801 37.199 645.251 36.8033 644.547C36.4186 643.833 36.2262 643.009 36.2262 642.074C36.2262 641.14 36.4131 640.321 36.7868 639.617C37.1716 638.903 37.7047 638.353 38.3862 637.969C39.0787 637.584 39.8702 637.391 40.7606 637.391C41.618 637.391 42.3819 637.578 43.0525 637.952C43.723 638.326 44.2452 638.853 44.6189 639.535C44.9926 640.205 45.1795 640.98 45.1795 641.86ZM43.2174 641.266C43.2064 640.574 42.959 640.019 42.4754 639.601C41.9917 639.183 41.3926 638.974 40.6781 638.974C40.0296 638.974 39.4745 639.183 39.0128 639.601C38.5511 640.008 38.2763 640.563 38.1884 641.266H43.2174ZM48.909 638.859C49.1838 638.397 49.5466 638.04 49.9973 637.787C50.4589 637.523 51.0031 637.391 51.6296 637.391V639.337H51.1515C50.415 639.337 49.8544 639.524 49.4696 639.898C49.0959 640.271 48.909 640.92 48.909 641.843V646.625H47.0293V637.54H48.909V638.859ZM52.7309 642.041C52.7309 641.129 52.9177 640.321 53.2915 639.617C53.6762 638.914 54.1929 638.37 54.8414 637.985C55.5009 637.589 56.2264 637.391 57.0179 637.391C57.7324 637.391 58.3535 637.534 58.8811 637.82C59.4197 638.095 59.8484 638.441 60.1672 638.859V637.54H62.0634V646.625H60.1672V645.273C59.8484 645.702 59.4142 646.059 58.8646 646.345C58.315 646.63 57.6884 646.773 56.9849 646.773C56.2045 646.773 55.49 646.576 54.8414 646.18C54.1929 645.773 53.6762 645.212 53.2915 644.498C52.9177 643.772 52.7309 642.954 52.7309 642.041ZM60.1672 642.074C60.1672 641.448 60.0353 640.903 59.7715 640.442C59.5187 639.98 59.1834 639.628 58.7657 639.387C58.348 639.145 57.8973 639.024 57.4136 639.024C56.93 639.024 56.4793 639.145 56.0616 639.387C55.6438 639.617 55.3031 639.964 55.0393 640.425C54.7864 640.876 54.66 641.415 54.66 642.041C54.66 642.668 54.7864 643.217 55.0393 643.69C55.3031 644.163 55.6438 644.525 56.0616 644.778C56.4903 645.02 56.9409 645.141 57.4136 645.141C57.8973 645.141 58.348 645.02 58.7657 644.778C59.1834 644.536 59.5187 644.185 59.7715 643.723C60.0353 643.25 60.1672 642.701 60.1672 642.074ZM63.9057 642.074C63.9057 641.14 64.0926 640.321 64.4663 639.617C64.8511 638.903 65.3787 638.353 66.0492 637.969C66.7198 637.584 67.4892 637.391 68.3576 637.391C69.4569 637.391 70.3637 637.655 71.0783 638.183C71.8037 638.7 72.2929 639.441 72.5457 640.409H70.5176C70.3528 639.958 70.0889 639.606 69.7262 639.354C69.3634 639.101 68.9073 638.974 68.3576 638.974C67.5882 638.974 66.9726 639.249 66.5109 639.799C66.0602 640.337 65.8349 641.096 65.8349 642.074C65.8349 643.052 66.0602 643.816 66.5109 644.366C66.9726 644.916 67.5882 645.19 68.3576 645.19C69.4459 645.19 70.1659 644.712 70.5176 643.756H72.5457C72.2819 644.679 71.7873 645.416 71.0618 645.965C70.3363 646.504 69.4349 646.773 68.3576 646.773C67.4892 646.773 66.7198 646.581 66.0492 646.196C65.3787 645.801 64.8511 645.251 64.4663 644.547C64.0926 643.833 63.9057 643.009 63.9057 642.074ZM76.612 639.073V644.102C76.612 644.443 76.6889 644.69 76.8428 644.844C77.0077 644.987 77.2825 645.059 77.6672 645.059H78.8214V646.625H77.3375C76.491 646.625 75.8425 646.427 75.3918 646.031C74.9411 645.636 74.7158 644.993 74.7158 644.102V639.073H73.644V637.54H74.7158V635.281H76.612V637.54H78.8214V639.073H76.612ZM81.5102 636.336C81.1695 636.336 80.8837 636.221 80.6528 635.99C80.422 635.759 80.3066 635.473 80.3066 635.132C80.3066 634.792 80.422 634.506 80.6528 634.275C80.8837 634.044 81.1695 633.929 81.5102 633.929C81.84 633.929 82.1203 634.044 82.3511 634.275C82.582 634.506 82.6974 634.792 82.6974 635.132C82.6974 635.473 82.582 635.759 82.3511 635.99C82.1203 636.221 81.84 636.336 81.5102 636.336ZM82.4336 637.54V646.625H80.5539V637.54H82.4336ZM88.4135 644.943L90.9857 637.54H92.9808L89.5182 646.625H87.2758L83.8297 637.54H85.8413L88.4135 644.943ZM102.728 641.86C102.728 642.201 102.706 642.508 102.662 642.783H95.7208C95.7757 643.509 96.045 644.091 96.5287 644.531C97.0124 644.971 97.606 645.19 98.3095 645.19C99.3208 645.19 100.035 644.767 100.453 643.921H102.481C102.206 644.756 101.706 645.443 100.981 645.982C100.266 646.51 99.3757 646.773 98.3095 646.773C97.4411 646.773 96.6606 646.581 95.9681 646.196C95.2866 645.801 94.7479 645.251 94.3522 644.547C93.9675 643.833 93.7751 643.009 93.7751 642.074C93.7751 641.14 93.962 640.321 94.3357 639.617C94.7205 638.903 95.2536 638.353 95.9351 637.969C96.6276 637.584 97.4191 637.391 98.3095 637.391C99.1669 637.391 99.9308 637.578 100.601 637.952C101.272 638.326 101.794 638.853 102.168 639.535C102.542 640.205 102.728 640.98 102.728 641.86ZM100.766 641.266C100.755 640.574 100.508 640.019 100.024 639.601C99.5406 639.183 98.9415 638.974 98.227 638.974C97.5785 638.974 97.0234 639.183 96.5617 639.601C96.1 640.008 95.8252 640.563 95.7373 641.266H100.766ZM114.995 640.739C115.611 640.849 116.133 641.173 116.562 641.711C116.99 642.25 117.205 642.86 117.205 643.542C117.205 644.124 117.051 644.652 116.743 645.125C116.446 645.586 116.012 645.954 115.44 646.229C114.869 646.493 114.204 646.625 113.445 646.625H108.861V635.165H113.231C114.011 635.165 114.682 635.297 115.242 635.561C115.803 635.825 116.226 636.182 116.512 636.633C116.798 637.073 116.941 637.567 116.941 638.117C116.941 638.776 116.765 639.326 116.413 639.766C116.061 640.205 115.589 640.53 114.995 640.739ZM110.741 639.98H113.066C113.682 639.98 114.16 639.843 114.5 639.568C114.852 639.282 115.028 638.875 115.028 638.348C115.028 637.831 114.852 637.43 114.5 637.144C114.16 636.847 113.682 636.699 113.066 636.699H110.741V639.98ZM113.28 645.092C113.918 645.092 114.418 644.938 114.781 644.63C115.144 644.322 115.325 643.893 115.325 643.344C115.325 642.783 115.133 642.338 114.748 642.008C114.363 641.678 113.852 641.514 113.214 641.514H110.741V645.092H113.28ZM127.475 637.54V646.625H125.595V645.553C125.299 645.927 124.908 646.224 124.425 646.444C123.952 646.652 123.446 646.757 122.908 646.757C122.193 646.757 121.55 646.609 120.979 646.312C120.418 646.015 119.973 645.575 119.643 644.993C119.324 644.41 119.165 643.707 119.165 642.882V637.54H121.028V642.602C121.028 643.415 121.231 644.042 121.638 644.481C122.045 644.91 122.6 645.125 123.303 645.125C124.007 645.125 124.562 644.91 124.969 644.481C125.386 644.042 125.595 643.415 125.595 642.602V637.54H127.475ZM132.148 639.073V644.102C132.148 644.443 132.225 644.69 132.379 644.844C132.544 644.987 132.819 645.059 133.203 645.059H134.358V646.625H132.874C132.027 646.625 131.379 646.427 130.928 646.031C130.477 645.636 130.252 644.993 130.252 644.102V639.073H129.18V637.54H130.252V635.281H132.148V637.54H134.358V639.073H132.148ZM138.283 639.073V644.102C138.283 644.443 138.36 644.69 138.514 644.844C138.679 644.987 138.954 645.059 139.338 645.059H140.492V646.625H139.009C138.162 646.625 137.514 646.427 137.063 646.031C136.612 645.636 136.387 644.993 136.387 644.102V639.073H135.315V637.54H136.387V635.281H138.283V637.54H140.492V639.073H138.283ZM146.166 646.773C145.308 646.773 144.533 646.581 143.841 646.196C143.148 645.801 142.604 645.251 142.208 644.547C141.813 643.833 141.615 643.009 141.615 642.074C141.615 641.151 141.818 640.332 142.225 639.617C142.632 638.903 143.187 638.353 143.89 637.969C144.594 637.584 145.38 637.391 146.248 637.391C147.117 637.391 147.902 637.584 148.606 637.969C149.31 638.353 149.865 638.903 150.271 639.617C150.678 640.332 150.881 641.151 150.881 642.074C150.881 642.998 150.673 643.816 150.255 644.531C149.837 645.245 149.266 645.801 148.54 646.196C147.826 646.581 147.034 646.773 146.166 646.773ZM146.166 645.141C146.649 645.141 147.1 645.026 147.518 644.795C147.946 644.564 148.293 644.218 148.557 643.756C148.82 643.294 148.952 642.734 148.952 642.074C148.952 641.415 148.826 640.86 148.573 640.409C148.32 639.947 147.985 639.601 147.567 639.37C147.15 639.139 146.699 639.024 146.215 639.024C145.731 639.024 145.281 639.139 144.863 639.37C144.456 639.601 144.132 639.947 143.89 640.409C143.648 640.86 143.528 641.415 143.528 642.074C143.528 643.052 143.775 643.811 144.27 644.35C144.775 644.877 145.407 645.141 146.166 645.141ZM157.323 637.391C158.038 637.391 158.675 637.54 159.236 637.837C159.808 638.133 160.253 638.573 160.572 639.156C160.89 639.738 161.05 640.442 161.05 641.266V646.625H159.187V641.547C159.187 640.733 158.983 640.112 158.577 639.683C158.17 639.244 157.615 639.024 156.911 639.024C156.208 639.024 155.647 639.244 155.229 639.683C154.823 640.112 154.619 640.733 154.619 641.547V646.625H152.74V637.54H154.619V638.579C154.927 638.205 155.317 637.914 155.79 637.705C156.274 637.496 156.785 637.391 157.323 637.391ZM166.745 646.773C166.031 646.773 165.388 646.647 164.816 646.394C164.255 646.13 163.81 645.779 163.48 645.339C163.151 644.888 162.975 644.388 162.953 643.838H164.898C164.931 644.223 165.113 644.547 165.443 644.811C165.783 645.064 166.207 645.19 166.712 645.19C167.24 645.19 167.647 645.092 167.932 644.894C168.229 644.685 168.378 644.421 168.378 644.102C168.378 643.761 168.213 643.509 167.883 643.344C167.564 643.179 167.053 642.998 166.349 642.8C165.668 642.613 165.113 642.431 164.684 642.256C164.255 642.08 163.882 641.81 163.563 641.448C163.255 641.085 163.101 640.607 163.101 640.013C163.101 639.529 163.244 639.09 163.53 638.694C163.816 638.287 164.222 637.969 164.75 637.738C165.289 637.507 165.904 637.391 166.597 637.391C167.63 637.391 168.46 637.655 169.087 638.183C169.724 638.7 170.065 639.409 170.109 640.31H168.229C168.196 639.903 168.031 639.579 167.735 639.337C167.438 639.095 167.036 638.974 166.531 638.974C166.036 638.974 165.657 639.068 165.393 639.255C165.129 639.441 164.997 639.689 164.997 639.997C164.997 640.238 165.085 640.442 165.261 640.607C165.437 640.772 165.651 640.903 165.904 641.002C166.157 641.09 166.531 641.206 167.026 641.349C167.685 641.525 168.224 641.706 168.641 641.893C169.07 642.069 169.438 642.332 169.746 642.684C170.054 643.036 170.213 643.503 170.224 644.086C170.224 644.602 170.081 645.064 169.796 645.471C169.51 645.878 169.103 646.196 168.575 646.427C168.059 646.658 167.449 646.773 166.745 646.773Z" fill="white"/>
</g>
<g filter="url(#filter3_d_2599_17)">
<rect x="323.59" width="94.6107" height="45.6107" rx="7.21374" fill="black" shape-rendering="crispEdges"/>
<path d="M344.282 16.8451V28.3047H342.403V23.2922H337.011V28.3047H335.131V16.8451H337.011V21.7587H342.403V16.8451H344.282ZM350.698 28.4531C349.84 28.4531 349.065 28.2607 348.373 27.876C347.68 27.4803 347.136 26.9306 346.74 26.2271C346.345 25.5126 346.147 24.6882 346.147 23.7538C346.147 22.8305 346.35 22.0116 346.757 21.2971C347.164 20.5825 347.719 20.0329 348.422 19.6482C349.126 19.2635 349.912 19.0711 350.78 19.0711C351.648 19.0711 352.434 19.2635 353.138 19.6482C353.841 20.0329 354.397 20.5825 354.803 21.2971C355.21 22.0116 355.413 22.8305 355.413 23.7538C355.413 24.6772 355.205 25.4961 354.787 26.2106C354.369 26.9251 353.798 27.4803 353.072 27.876C352.357 28.2607 351.566 28.4531 350.698 28.4531ZM350.698 26.8207C351.181 26.8207 351.632 26.7053 352.05 26.4745C352.478 26.2436 352.825 25.8974 353.088 25.4357C353.352 24.974 353.484 24.4134 353.484 23.7538C353.484 23.0943 353.358 22.5392 353.105 22.0885C352.852 21.6268 352.517 21.2806 352.099 21.0497C351.681 20.8189 351.231 20.7035 350.747 20.7035C350.263 20.7035 349.813 20.8189 349.395 21.0497C348.988 21.2806 348.664 21.6268 348.422 22.0885C348.18 22.5392 348.059 23.0943 348.059 23.7538C348.059 24.7322 348.307 25.4906 348.801 26.0293C349.307 26.5569 349.939 26.8207 350.698 26.8207ZM359.465 20.7529V25.7819C359.465 26.1227 359.541 26.37 359.695 26.5239C359.86 26.6668 360.135 26.7383 360.52 26.7383H361.674V28.3047H360.19C359.344 28.3047 358.695 28.1068 358.244 27.7111C357.794 27.3154 357.568 26.6723 357.568 25.7819V20.7529H356.497V19.2195H357.568V16.9606H359.465V19.2195H361.674V20.7529H359.465ZM366.704 28.4531C365.99 28.4531 365.347 28.3267 364.775 28.0738C364.214 27.81 363.769 27.4583 363.439 27.0186C363.11 26.5679 362.934 26.0677 362.912 25.5181H364.857C364.89 25.9029 365.072 26.2271 365.402 26.4909C365.742 26.7438 366.166 26.8702 366.671 26.8702C367.199 26.8702 367.606 26.7713 367.891 26.5734C368.188 26.3645 368.337 26.1007 368.337 25.7819C368.337 25.4412 368.172 25.1884 367.842 25.0235C367.523 24.8586 367.012 24.6772 366.308 24.4793C365.627 24.2925 365.072 24.1111 364.643 23.9352C364.214 23.7593 363.841 23.49 363.522 23.1273C363.214 22.7645 363.06 22.2864 363.06 21.6928C363.06 21.2091 363.203 20.7694 363.489 20.3737C363.775 19.967 364.181 19.6482 364.709 19.4174C365.248 19.1865 365.863 19.0711 366.556 19.0711C367.589 19.0711 368.419 19.3349 369.046 19.8625C369.683 20.3792 370.024 21.0882 370.068 21.9896H368.188C368.155 21.5829 367.99 21.2586 367.693 21.0167C367.397 20.7749 366.995 20.654 366.49 20.654C365.995 20.654 365.616 20.7474 365.352 20.9343C365.088 21.1212 364.956 21.3685 364.956 21.6763C364.956 21.9181 365.044 22.1215 365.22 22.2864C365.396 22.4513 365.61 22.5832 365.863 22.6821C366.116 22.77 366.49 22.8855 366.984 23.0284C367.644 23.2042 368.183 23.3856 368.6 23.5725C369.029 23.7484 369.397 24.0122 369.705 24.3639C370.013 24.7157 370.172 25.1829 370.183 25.7655C370.183 26.2821 370.04 26.7438 369.755 27.1505C369.469 27.5572 369.062 27.876 368.534 28.1068C368.018 28.3377 367.408 28.4531 366.704 28.4531ZM374.094 20.5551C374.413 20.1374 374.847 19.7856 375.397 19.4998C375.946 19.214 376.567 19.0711 377.26 19.0711C378.051 19.0711 378.771 19.269 379.42 19.6647C380.079 20.0494 380.596 20.5935 380.97 21.2971C381.343 22.0006 381.53 22.8085 381.53 23.7209C381.53 24.6332 381.343 25.4522 380.97 26.1777C380.596 26.8922 380.079 27.4528 379.42 27.8595C378.771 28.2552 378.051 28.4531 377.26 28.4531C376.567 28.4531 375.952 28.3157 375.413 28.0409C374.874 27.7551 374.435 27.4033 374.094 26.9856V32.6247H372.214V19.2195H374.094V20.5551ZM379.618 23.7209C379.618 23.0943 379.486 22.5557 379.222 22.105C378.969 21.6433 378.628 21.2971 378.2 21.0662C377.782 20.8244 377.331 20.7035 376.848 20.7035C376.375 20.7035 375.924 20.8244 375.496 21.0662C375.078 21.308 374.737 21.6598 374.473 22.1215C374.22 22.5832 374.094 23.1273 374.094 23.7538C374.094 24.3804 374.22 24.93 374.473 25.4027C374.737 25.8644 375.078 26.2161 375.496 26.458C375.924 26.6998 376.375 26.8207 376.848 26.8207C377.331 26.8207 377.782 26.6998 378.2 26.458C378.628 26.2051 378.969 25.8424 379.222 25.3697C379.486 24.8971 379.618 24.3474 379.618 23.7209ZM387.33 28.4531C386.473 28.4531 385.698 28.2607 385.005 27.876C384.313 27.4803 383.768 26.9306 383.373 26.2271C382.977 25.5126 382.779 24.6882 382.779 23.7538C382.779 22.8305 382.982 22.0116 383.389 21.2971C383.796 20.5825 384.351 20.0329 385.055 19.6482C385.758 19.2635 386.544 19.0711 387.412 19.0711C388.281 19.0711 389.067 19.2635 389.77 19.6482C390.474 20.0329 391.029 20.5825 391.436 21.2971C391.842 22.0116 392.046 22.8305 392.046 23.7538C392.046 24.6772 391.837 25.4961 391.419 26.2106C391.001 26.9251 390.43 27.4803 389.704 27.876C388.99 28.2607 388.198 28.4531 387.33 28.4531ZM387.33 26.8207C387.814 26.8207 388.264 26.7053 388.682 26.4745C389.111 26.2436 389.457 25.8974 389.721 25.4357C389.985 24.974 390.116 24.4134 390.116 23.7538C390.116 23.0943 389.99 22.5392 389.737 22.0885C389.484 21.6268 389.149 21.2806 388.731 21.0497C388.314 20.8189 387.863 20.7035 387.379 20.7035C386.896 20.7035 386.445 20.8189 386.027 21.0497C385.621 21.2806 385.296 21.6268 385.055 22.0885C384.813 22.5392 384.692 23.0943 384.692 23.7538C384.692 24.7322 384.939 25.4906 385.434 26.0293C385.939 26.5569 386.571 26.8207 387.33 26.8207ZM396.097 20.7529V25.7819C396.097 26.1227 396.174 26.37 396.328 26.5239C396.493 26.6668 396.767 26.7383 397.152 26.7383H398.306V28.3047H396.822C395.976 28.3047 395.327 28.1068 394.877 27.7111C394.426 27.3154 394.201 26.6723 394.201 25.7819V20.7529H393.129V19.2195H394.201V16.9606H396.097V19.2195H398.306V20.7529H396.097ZM403.336 28.4531C402.622 28.4531 401.979 28.3267 401.407 28.0738C400.847 27.81 400.401 27.4583 400.072 27.0186C399.742 26.5679 399.566 26.0677 399.544 25.5181H401.49C401.523 25.9029 401.704 26.2271 402.034 26.4909C402.375 26.7438 402.798 26.8702 403.303 26.8702C403.831 26.8702 404.238 26.7713 404.524 26.5734C404.82 26.3645 404.969 26.1007 404.969 25.7819C404.969 25.4412 404.804 25.1884 404.474 25.0235C404.155 24.8586 403.644 24.6772 402.941 24.4793C402.259 24.2925 401.704 24.1111 401.275 23.9352C400.847 23.7593 400.473 23.49 400.154 23.1273C399.846 22.7645 399.692 22.2864 399.692 21.6928C399.692 21.2091 399.835 20.7694 400.121 20.3737C400.407 19.967 400.814 19.6482 401.341 19.4174C401.88 19.1865 402.496 19.0711 403.188 19.0711C404.221 19.0711 405.051 19.3349 405.678 19.8625C406.315 20.3792 406.656 21.0882 406.7 21.9896H404.82C404.787 21.5829 404.623 21.2586 404.326 21.0167C404.029 20.7749 403.628 20.654 403.122 20.654C402.627 20.654 402.248 20.7474 401.984 20.9343C401.721 21.1212 401.589 21.3685 401.589 21.6763C401.589 21.9181 401.677 22.1215 401.852 22.2864C402.028 22.4513 402.243 22.5832 402.496 22.6821C402.748 22.77 403.122 22.8855 403.617 23.0284C404.276 23.2042 404.815 23.3856 405.233 23.5725C405.661 23.7484 406.03 24.0122 406.337 24.3639C406.645 24.7157 406.805 25.1829 406.816 25.7655C406.816 26.2821 406.673 26.7438 406.387 27.1505C406.101 27.5572 405.694 27.876 405.167 28.1068C404.65 28.3377 404.04 28.4531 403.336 28.4531Z" fill="white"/>
</g>
<defs>
<filter id="filter0_d_2599_17" x="93.7033" y="544.328" width="14.5778" height="63.4802" filterUnits="userSpaceOnUse" color-interpolation-filters="sRGB">
<feFlood flood-opacity="0" result="BackgroundImageFix"/>
<feColorMatrix in="SourceAlpha" type="matrix" values="0 0 0 0 0 0 0 0 0 0 0 0 0 0 0 0 0 0 127 0" result="hardAlpha"/>
<feOffset dy="0.515267"/>
<feGaussianBlur stdDeviation="0.669847"/>
<feComposite in2="hardAlpha" operator="out"/>
<feColorMatrix type="matrix" values="0 0 0 0 1 0 0 0 0 1 0 0 0 0 1 0 0 0 1 0"/>
<feBlend mode="normal" in2="BackgroundImageFix" result="effect1_dropShadow_2599_17"/>
<feBlend mode="normal" in="SourceGraphic" in2="effect1_dropShadow_2599_17" result="shape"/>
</filter>
<filter id="filter1_d_2599_17" x="439.731" y="15.8982" width="92.8513" height="182.273" filterUnits="userSpaceOnUse" color-interpolation-filters="sRGB">
<feFlood flood-opacity="0" result="BackgroundImageFix"/>
<feColorMatrix in="SourceAlpha" type="matrix" values="0 0 0 0 0 0 0 0 0 0 0 0 0 0 0 0 0 0 127 0" result="hardAlpha"/>
<feOffset dy="0.515267"/>
<feGaussianBlur stdDeviation="0.669847"/>
<feComposite in2="hardAlpha" operator="out"/>
<feColorMatrix type="matrix" values="0 0 0 0 1 0 0 0 0 1 0 0 0 0 1 0 0 0 1 0"/>
<feBlend mode="normal" in2="BackgroundImageFix" result="effect1_dropShadow_2599_17"/>
<feBlend mode="normal" in="SourceGraphic" in2="effect1_dropShadow_2599_17" result="shape"/>
</filter>
<filter id="filter2_d_2599_17" x="-0.0010438" y="618.32" width="185.854" height="53.8556" filterUnits="userSpaceOnUse" color-interpolation-filters="sRGB">
<feFlood flood-opacity="0" result="BackgroundImageFix"/>
<feColorMatrix in="SourceAlpha" type="matrix" values="0 0 0 0 0 0 0 0 0 0 0 0 0 0 0 0 0 0 127 0" result="hardAlpha"/>
<feOffset dy="4.12214"/>
<feGaussianBlur stdDeviation="2.06107"/>
<feComposite in2="hardAlpha" operator="out"/>
<feColorMatrix type="matrix" values="0 0 0 0 0 0 0 0 0 0 0 0 0 0 0 0 0 0 0.09 0"/>
<feBlend mode="normal" in2="BackgroundImageFix" result="effect1_dropShadow_2599_17"/>
<feBlend mode="normal" in="SourceGraphic" in2="effect1_dropShadow_2599_17" result="shape"/>
</filter>
<filter id="filter3_d_2599_17" x="319.468" y="0" width="102.854" height="53.8556" filterUnits="userSpaceOnUse" color-interpolation-filters="sRGB">
<feFlood flood-opacity="0" result="BackgroundImageFix"/>
<feColorMatrix in="SourceAlpha" type="matrix" values="0 0 0 0 0 0 0 0 0 0 0 0 0 0 0 0 0 0 127 0" result="hardAlpha"/>
<feOffset dy="4.12214"/>
<feGaussianBlur stdDeviation="2.06107"/>
<feComposite in2="hardAlpha" operator="out"/>
<feColorMatrix type="matrix" values="0 0 0 0 0 0 0 0 0 0 0 0 0 0 0 0 0 0 0.09 0"/>
<feBlend mode="normal" in2="BackgroundImageFix" result="effect1_dropShadow_2599_17"/>
<feBlend mode="normal" in="SourceGraphic" in2="effect1_dropShadow_2599_17" result="shape"/>
</filter>
</defs>
</svg>
