<svg width="214" height="199" viewBox="0 0 214 199" fill="none" xmlns="http://www.w3.org/2000/svg">
<g filter="url(#filter0_d_2599_25)">
<path d="M121.602 22.6719L131.907 28.6217V16.7221L121.602 22.6719ZM210.743 22.6719H211.773V21.6413H210.743V22.6719ZM210.743 195.286V196.317H211.773V195.286H210.743ZM131.152 22.6719V23.7024H137.52V22.6719V21.6413H131.152V22.6719ZM143.887 22.6719V23.7024H150.254V22.6719V21.6413H143.887V22.6719ZM156.621 22.6719V23.7024H162.989V22.6719V21.6413H156.621V22.6719ZM169.356 22.6719V23.7024H175.723V22.6719V21.6413H169.356V22.6719ZM182.09 22.6719V23.7024H188.457V22.6719V21.6413H182.09V22.6719ZM194.825 22.6719V23.7024H201.192V22.6719V21.6413H194.825V22.6719ZM207.559 22.6719V23.7024H210.743V22.6719V21.6413H207.559V22.6719ZM210.743 22.6719H209.712V25.7543H210.743H211.773V22.6719H210.743ZM210.743 31.9191H209.712V38.0839H210.743H211.773V31.9191H210.743ZM210.743 44.2487H209.712V50.4135H210.743H211.773V44.2487H210.743ZM210.743 56.5783H209.712V62.7431H210.743H211.773V56.5783H210.743ZM210.743 68.9079H209.712V75.0727H210.743H211.773V68.9079H210.743ZM210.743 81.2375H209.712V87.4023H210.743H211.773V81.2375H210.743ZM210.743 93.5671H209.712V99.7319H210.743H211.773V93.5671H210.743ZM210.743 105.897H209.712V112.062H210.743H211.773V105.897H210.743ZM210.743 118.226H209.712V124.391H210.743H211.773V118.226H210.743ZM210.743 130.556H209.712V136.721H210.743H211.773V130.556H210.743ZM210.743 142.886H209.712V149.05H210.743H211.773V142.886H210.743ZM210.743 155.215H209.712V161.38H210.743H211.773V155.215H210.743ZM210.743 167.545H209.712V173.71H210.743H211.773V167.545H210.743ZM210.743 179.874H209.712V186.039H210.743H211.773V179.874H210.743ZM210.743 192.204H209.712V195.286H210.743H211.773V192.204H210.743ZM210.743 195.286V194.256H207.608V195.286V196.317H210.743V195.286ZM201.339 195.286V194.256H195.07V195.286V196.317H201.339V195.286ZM188.801 195.286V194.256H182.532V195.286V196.317H188.801V195.286ZM176.263 195.286V194.256H169.994V195.286V196.317H176.263V195.286ZM163.725 195.286V194.256H157.456V195.286V196.317H163.725V195.286ZM151.186 195.286V194.256H144.917V195.286V196.317H151.186V195.286ZM138.648 195.286V194.256H135.514V195.286V196.317H138.648V195.286Z" fill="#FF0000"/>
</g>
<g filter="url(#filter1_d_2599_25)">
<rect x="4.12109" width="94.6107" height="45.6107" rx="7.21374" fill="black" shape-rendering="crispEdges"/>
<path d="M24.8136 16.8451V28.3047H22.9339V23.2922H17.5421V28.3047H15.6624V16.8451H17.5421V21.7587H22.9339V16.8451H24.8136ZM31.2289 28.4531C30.3715 28.4531 29.5965 28.2607 28.904 27.876C28.2115 27.4803 27.6674 26.9306 27.2717 26.2271C26.8759 25.5126 26.6781 24.6882 26.6781 23.7538C26.6781 22.8305 26.8814 22.0116 27.2881 21.2971C27.6949 20.5825 28.25 20.0329 28.9535 19.6482C29.657 19.2635 30.4429 19.0711 31.3113 19.0711C32.1797 19.0711 32.9657 19.2635 33.6692 19.6482C34.3727 20.0329 34.9278 20.5825 35.3346 21.2971C35.7413 22.0116 35.9446 22.8305 35.9446 23.7538C35.9446 24.6772 35.7358 25.4961 35.3181 26.2106C34.9004 26.9251 34.3288 27.4803 33.6033 27.876C32.8887 28.2607 32.0973 28.4531 31.2289 28.4531ZM31.2289 26.8207C31.7126 26.8207 32.1633 26.7053 32.581 26.4745C33.0097 26.2436 33.3559 25.8974 33.6197 25.4357C33.8836 24.974 34.0155 24.4134 34.0155 23.7538C34.0155 23.0943 33.8891 22.5392 33.6362 22.0885C33.3834 21.6268 33.0481 21.2806 32.6304 21.0497C32.2127 20.8189 31.762 20.7035 31.2784 20.7035C30.7947 20.7035 30.344 20.8189 29.9263 21.0497C29.5196 21.2806 29.1953 21.6268 28.9535 22.0885C28.7117 22.5392 28.5907 23.0943 28.5907 23.7538C28.5907 24.7322 28.8381 25.4906 29.3327 26.0293C29.8384 26.5569 30.4704 26.8207 31.2289 26.8207ZM39.9958 20.7529V25.7819C39.9958 26.1227 40.0727 26.37 40.2266 26.5239C40.3915 26.6668 40.6663 26.7383 41.0511 26.7383H42.2053V28.3047H40.7213C39.8749 28.3047 39.2263 28.1068 38.7756 27.7111C38.3249 27.3154 38.0996 26.6723 38.0996 25.7819V20.7529H37.0278V19.2195H38.0996V16.9606H39.9958V19.2195H42.2053V20.7529H39.9958ZM47.2354 28.4531C46.5209 28.4531 45.8779 28.3267 45.3063 28.0738C44.7456 27.81 44.3005 27.4583 43.9707 27.0186C43.6409 26.5679 43.465 26.0677 43.4431 25.5181H45.3887C45.4217 25.9029 45.6031 26.2271 45.9328 26.4909C46.2736 26.7438 46.6968 26.8702 47.2024 26.8702C47.7301 26.8702 48.1368 26.7713 48.4226 26.5734C48.7194 26.3645 48.8678 26.1007 48.8678 25.7819C48.8678 25.4412 48.7029 25.1884 48.3731 25.0235C48.0544 24.8586 47.5432 24.6772 46.8397 24.4793C46.1582 24.2925 45.6031 24.1111 45.1744 23.9352C44.7456 23.7593 44.3719 23.49 44.0531 23.1273C43.7453 22.7645 43.5915 22.2864 43.5915 21.6928C43.5915 21.2091 43.7344 20.7694 44.0202 20.3737C44.306 19.967 44.7127 19.6482 45.2403 19.4174C45.7789 19.1865 46.3945 19.0711 47.087 19.0711C48.1203 19.0711 48.9502 19.3349 49.5768 19.8625C50.2144 20.3792 50.5551 21.0882 50.5991 21.9896H48.7194C48.6864 21.5829 48.5215 21.2586 48.2247 21.0167C47.9279 20.7749 47.5267 20.654 47.0211 20.654C46.5264 20.654 46.1472 20.7474 45.8834 20.9343C45.6195 21.1212 45.4876 21.3685 45.4876 21.6763C45.4876 21.9181 45.5756 22.1215 45.7515 22.2864C45.9273 22.4513 46.1417 22.5832 46.3945 22.6821C46.6473 22.77 47.0211 22.8855 47.5157 23.0284C48.1753 23.2042 48.7139 23.3856 49.1316 23.5725C49.5603 23.7484 49.9286 24.0122 50.2363 24.3639C50.5441 24.7157 50.7035 25.1829 50.7145 25.7655C50.7145 26.2821 50.5716 26.7438 50.2858 27.1505C50 27.5572 49.5933 27.876 49.0656 28.1068C48.549 28.3377 47.9389 28.4531 47.2354 28.4531ZM54.6253 20.5551C54.944 20.1374 55.3782 19.7856 55.9279 19.4998C56.4775 19.214 57.0985 19.0711 57.7911 19.0711C58.5825 19.0711 59.3025 19.269 59.9511 19.6647C60.6106 20.0494 61.1272 20.5935 61.501 21.2971C61.8747 22.0006 62.0616 22.8085 62.0616 23.7209C62.0616 24.6332 61.8747 25.4522 61.501 26.1777C61.1272 26.8922 60.6106 27.4528 59.9511 27.8595C59.3025 28.2552 58.5825 28.4531 57.7911 28.4531C57.0985 28.4531 56.483 28.3157 55.9443 28.0409C55.4057 27.7551 54.966 27.4033 54.6253 26.9856V32.6247H52.7456V19.2195H54.6253V20.5551ZM60.1489 23.7209C60.1489 23.0943 60.017 22.5557 59.7532 22.105C59.5004 21.6433 59.1596 21.2971 58.7309 21.0662C58.3132 20.8244 57.8625 20.7035 57.3788 20.7035C56.9062 20.7035 56.4555 20.8244 56.0268 21.0662C55.6091 21.308 55.2683 21.6598 55.0045 22.1215C54.7517 22.5832 54.6253 23.1273 54.6253 23.7538C54.6253 24.3804 54.7517 24.93 55.0045 25.4027C55.2683 25.8644 55.6091 26.2161 56.0268 26.458C56.4555 26.6998 56.9062 26.8207 57.3788 26.8207C57.8625 26.8207 58.3132 26.6998 58.7309 26.458C59.1596 26.2051 59.5004 25.8424 59.7532 25.3697C60.017 24.8971 60.1489 24.3474 60.1489 23.7209ZM67.8612 28.4531C67.0038 28.4531 66.2288 28.2607 65.5363 27.876C64.8438 27.4803 64.2997 26.9306 63.9039 26.2271C63.5082 25.5126 63.3103 24.6882 63.3103 23.7538C63.3103 22.8305 63.5137 22.0116 63.9204 21.2971C64.3271 20.5825 64.8823 20.0329 65.5858 19.6482C66.2893 19.2635 67.0752 19.0711 67.9436 19.0711C68.812 19.0711 69.598 19.2635 70.3015 19.6482C71.005 20.0329 71.5601 20.5825 71.9668 21.2971C72.3735 22.0116 72.5769 22.8305 72.5769 23.7538C72.5769 24.6772 72.3681 25.4961 71.9503 26.2106C71.5326 26.9251 70.961 27.4803 70.2355 27.876C69.521 28.2607 68.7296 28.4531 67.8612 28.4531ZM67.8612 26.8207C68.3448 26.8207 68.7955 26.7053 69.2132 26.4745C69.6419 26.2436 69.9882 25.8974 70.252 25.4357C70.5158 24.974 70.6477 24.4134 70.6477 23.7538C70.6477 23.0943 70.5213 22.5392 70.2685 22.0885C70.0157 21.6268 69.6804 21.2806 69.2627 21.0497C68.845 20.8189 68.3943 20.7035 67.9106 20.7035C67.427 20.7035 66.9763 20.8189 66.5586 21.0497C66.1519 21.2806 65.8276 21.6268 65.5858 22.0885C65.3439 22.5392 65.223 23.0943 65.223 23.7538C65.223 24.7322 65.4703 25.4906 65.965 26.0293C66.4706 26.5569 67.1027 26.8207 67.8612 26.8207ZM76.6281 20.7529V25.7819C76.6281 26.1227 76.705 26.37 76.8589 26.5239C77.0238 26.6668 77.2986 26.7383 77.6833 26.7383H78.8375V28.3047H77.3536C76.5072 28.3047 75.8586 28.1068 75.4079 27.7111C74.9572 27.3154 74.7319 26.6723 74.7319 25.7819V20.7529H73.6601V19.2195H74.7319V16.9606H76.6281V19.2195H78.8375V20.7529H76.6281ZM83.8677 28.4531C83.1532 28.4531 82.5101 28.3267 81.9385 28.0738C81.3779 27.81 80.9327 27.4583 80.603 27.0186C80.2732 26.5679 80.0973 26.0677 80.0753 25.5181H82.021C82.054 25.9029 82.2353 26.2271 82.5651 26.4909C82.9059 26.7438 83.3291 26.8702 83.8347 26.8702C84.3624 26.8702 84.7691 26.7713 85.0549 26.5734C85.3517 26.3645 85.5001 26.1007 85.5001 25.7819C85.5001 25.4412 85.3352 25.1884 85.0054 25.0235C84.6866 24.8586 84.1755 24.6772 83.472 24.4793C82.7904 24.2925 82.2353 24.1111 81.8066 23.9352C81.3779 23.7593 81.0042 23.49 80.6854 23.1273C80.3776 22.7645 80.2237 22.2864 80.2237 21.6928C80.2237 21.2091 80.3666 20.7694 80.6524 20.3737C80.9382 19.967 81.3449 19.6482 81.8726 19.4174C82.4112 19.1865 83.0268 19.0711 83.7193 19.0711C84.7526 19.0711 85.5825 19.3349 86.2091 19.8625C86.8466 20.3792 87.1874 21.0882 87.2314 21.9896H85.3517C85.3187 21.5829 85.1538 21.2586 84.857 21.0167C84.5602 20.7749 84.159 20.654 83.6533 20.654C83.1587 20.654 82.7795 20.7474 82.5156 20.9343C82.2518 21.1212 82.1199 21.3685 82.1199 21.6763C82.1199 21.9181 82.2078 22.1215 82.3837 22.2864C82.5596 22.4513 82.774 22.5832 83.0268 22.6821C83.2796 22.77 83.6533 22.8855 84.148 23.0284C84.8075 23.2042 85.3462 23.3856 85.7639 23.5725C86.1926 23.7484 86.5608 24.0122 86.8686 24.3639C87.1764 24.7157 87.3358 25.1829 87.3468 25.7655C87.3468 26.2821 87.2039 26.7438 86.9181 27.1505C86.6323 27.5572 86.2256 27.876 85.6979 28.1068C85.1813 28.3377 84.5712 28.4531 83.8677 28.4531Z" fill="white"/>
</g>
<defs>
<filter id="filter0_d_2599_25" x="120.262" y="15.8982" width="92.8513" height="182.273" filterUnits="userSpaceOnUse" color-interpolation-filters="sRGB">
<feFlood flood-opacity="0" result="BackgroundImageFix"/>
<feColorMatrix in="SourceAlpha" type="matrix" values="0 0 0 0 0 0 0 0 0 0 0 0 0 0 0 0 0 0 127 0" result="hardAlpha"/>
<feOffset dy="0.515267"/>
<feGaussianBlur stdDeviation="0.669847"/>
<feComposite in2="hardAlpha" operator="out"/>
<feColorMatrix type="matrix" values="0 0 0 0 1 0 0 0 0 1 0 0 0 0 1 0 0 0 1 0"/>
<feBlend mode="normal" in2="BackgroundImageFix" result="effect1_dropShadow_2599_25"/>
<feBlend mode="normal" in="SourceGraphic" in2="effect1_dropShadow_2599_25" result="shape"/>
</filter>
<filter id="filter1_d_2599_25" x="-0.0010438" y="0" width="102.854" height="53.8556" filterUnits="userSpaceOnUse" color-interpolation-filters="sRGB">
<feFlood flood-opacity="0" result="BackgroundImageFix"/>
<feColorMatrix in="SourceAlpha" type="matrix" values="0 0 0 0 0 0 0 0 0 0 0 0 0 0 0 0 0 0 127 0" result="hardAlpha"/>
<feOffset dy="4.12214"/>
<feGaussianBlur stdDeviation="2.06107"/>
<feComposite in2="hardAlpha" operator="out"/>
<feColorMatrix type="matrix" values="0 0 0 0 0 0 0 0 0 0 0 0 0 0 0 0 0 0 0.09 0"/>
<feBlend mode="normal" in2="BackgroundImageFix" result="effect1_dropShadow_2599_25"/>
<feBlend mode="normal" in="SourceGraphic" in2="effect1_dropShadow_2599_25" result="shape"/>
</filter>
</defs>
</svg>
