<svg width="186" height="128" viewBox="0 0 186 128" fill="none" xmlns="http://www.w3.org/2000/svg">
<g filter="url(#filter0_d_2599_24)">
<path d="M100.992 61.625L106.942 51.3197L95.0424 51.3197L100.992 61.625ZM100.992 52.5048L102.023 52.5048L102.023 46.4246L100.992 46.4246L99.9617 46.4246L99.9617 52.5048L100.992 52.5048ZM100.992 40.3445L102.023 40.3445L102.023 34.2643L100.992 34.2643L99.9617 34.2643L99.9617 40.3445L100.992 40.3445ZM100.992 28.1842L102.023 28.1842L102.023 22.104L100.992 22.104L99.9617 22.104L99.9617 28.1842L100.992 28.1842ZM100.992 16.0238L102.023 16.0238L102.023 9.9437L100.992 9.9437L99.9617 9.9437L99.9617 16.0238L100.992 16.0238ZM100.992 3.86354L102.023 3.86354L102.023 0.823471L100.992 0.823471L99.9617 0.823471L99.9617 3.86354L100.992 3.86354Z" fill="#FF0000"/>
</g>
<g filter="url(#filter1_d_2599_24)">
<rect x="4.12109" y="73.9922" width="177.611" height="45.6107" rx="7.21374" fill="black" shape-rendering="crispEdges"/>
<path d="M17.5421 90.8373V102.297H15.6624V90.8373H17.5421ZM24.5938 93.0633C25.3083 93.0633 25.9459 93.2117 26.5065 93.5085C27.0781 93.8053 27.5233 94.245 27.8421 94.8276C28.1608 95.4102 28.3202 96.1137 28.3202 96.9381V102.297H26.457V97.2184C26.457 96.405 26.2537 95.7839 25.8469 95.3552C25.4402 94.9155 24.8851 94.6957 24.1816 94.6957C23.4781 94.6957 22.9175 94.9155 22.4998 95.3552C22.093 95.7839 21.8897 96.405 21.8897 97.2184V102.297H20.01V93.2117H21.8897V94.2505C22.1975 93.8767 22.5877 93.5854 23.0604 93.3766C23.544 93.1677 24.0552 93.0633 24.5938 93.0633ZM32.9109 94.7451V99.7741C32.9109 100.115 32.9878 100.362 33.1417 100.516C33.3066 100.659 33.5814 100.73 33.9661 100.73H35.1203V102.297H33.6364C32.7899 102.297 32.1414 102.099 31.6907 101.703C31.24 101.308 31.0147 100.665 31.0147 99.7741V94.7451H29.9429V93.2117H31.0147V90.9528H32.9109V93.2117H35.1203V94.7451H32.9109ZM45.1795 97.5317C45.1795 97.8724 45.1575 98.1802 45.1135 98.455H38.1719C38.2268 99.1805 38.4961 99.7631 38.9798 100.203C39.4635 100.643 40.0571 100.862 40.7606 100.862C41.7719 100.862 42.4864 100.439 42.9041 99.5928H44.9322C44.6574 100.428 44.1572 101.115 43.4317 101.654C42.7172 102.181 41.8268 102.445 40.7606 102.445C39.8922 102.445 39.1117 102.253 38.4192 101.868C37.7377 101.472 37.199 100.923 36.8033 100.219C36.4186 99.5048 36.2262 98.6804 36.2262 97.746C36.2262 96.8117 36.4131 95.9928 36.7868 95.2892C37.1716 94.5747 37.7047 94.0251 38.3862 93.6404C39.0787 93.2557 39.8702 93.0633 40.7606 93.0633C41.618 93.0633 42.3819 93.2502 43.0525 93.6239C43.723 93.9976 44.2452 94.5253 44.6189 95.2068C44.9926 95.8773 45.1795 96.6523 45.1795 97.5317ZM43.2174 96.9381C43.2064 96.2456 42.959 95.6905 42.4754 95.2728C41.9917 94.855 41.3926 94.6462 40.6781 94.6462C40.0296 94.6462 39.4745 94.855 39.0128 95.2728C38.5511 95.6795 38.2763 96.2346 38.1884 96.9381H43.2174ZM48.909 94.5308C49.1838 94.0691 49.5466 93.7118 49.9973 93.459C50.4589 93.1952 51.0031 93.0633 51.6296 93.0633V95.0089H51.1515C50.415 95.0089 49.8544 95.1958 49.4696 95.5695C49.0959 95.9433 48.909 96.5918 48.909 97.5152V102.297H47.0293V93.2117H48.909V94.5308ZM52.7309 97.7131C52.7309 96.8007 52.9177 95.9928 53.2915 95.2892C53.6762 94.5857 54.1929 94.0416 54.8414 93.6569C55.5009 93.2611 56.2264 93.0633 57.0179 93.0633C57.7324 93.0633 58.3535 93.2062 58.8811 93.492C59.4197 93.7668 59.8484 94.1131 60.1672 94.5308V93.2117H62.0634V102.297H60.1672V100.945C59.8484 101.374 59.4142 101.731 58.8646 102.017C58.315 102.302 57.6884 102.445 56.9849 102.445C56.2045 102.445 55.49 102.247 54.8414 101.852C54.1929 101.445 53.6762 100.884 53.2915 100.17C52.9177 99.4444 52.7309 98.6254 52.7309 97.7131ZM60.1672 97.746C60.1672 97.1195 60.0353 96.5753 59.7715 96.1137C59.5187 95.652 59.1834 95.3002 58.7657 95.0584C58.348 94.8166 57.8973 94.6957 57.4136 94.6957C56.93 94.6957 56.4793 94.8166 56.0616 95.0584C55.6438 95.2892 55.3031 95.6355 55.0393 96.0972C54.7864 96.5479 54.66 97.0865 54.66 97.7131C54.66 98.3396 54.7864 98.8892 55.0393 99.3619C55.3031 99.8346 55.6438 100.197 56.0616 100.45C56.4903 100.692 56.9409 100.813 57.4136 100.813C57.8973 100.813 58.348 100.692 58.7657 100.45C59.1834 100.208 59.5187 99.8566 59.7715 99.3949C60.0353 98.9222 60.1672 98.3726 60.1672 97.746ZM63.9057 97.746C63.9057 96.8117 64.0926 95.9928 64.4663 95.2892C64.8511 94.5747 65.3787 94.0251 66.0492 93.6404C66.7198 93.2557 67.4892 93.0633 68.3576 93.0633C69.4569 93.0633 70.3637 93.3271 71.0783 93.8547C71.8037 94.3714 72.2929 95.1134 72.5457 96.0807H70.5176C70.3528 95.63 70.0889 95.2782 69.7262 95.0254C69.3634 94.7726 68.9073 94.6462 68.3576 94.6462C67.5882 94.6462 66.9726 94.921 66.5109 95.4706C66.0602 96.0092 65.8349 96.7677 65.8349 97.746C65.8349 98.7244 66.0602 99.4883 66.5109 100.038C66.9726 100.588 67.5882 100.862 68.3576 100.862C69.4459 100.862 70.1659 100.384 70.5176 99.4279H72.5457C72.2819 100.351 71.7873 101.088 71.0618 101.637C70.3363 102.176 69.4349 102.445 68.3576 102.445C67.4892 102.445 66.7198 102.253 66.0492 101.868C65.3787 101.472 64.8511 100.923 64.4663 100.219C64.0926 99.5048 63.9057 98.6804 63.9057 97.746ZM76.612 94.7451V99.7741C76.612 100.115 76.6889 100.362 76.8428 100.516C77.0077 100.659 77.2825 100.73 77.6672 100.73H78.8214V102.297H77.3375C76.491 102.297 75.8425 102.099 75.3918 101.703C74.9411 101.308 74.7158 100.665 74.7158 99.7741V94.7451H73.644V93.2117H74.7158V90.9528H76.612V93.2117H78.8214V94.7451H76.612ZM81.5102 92.008C81.1695 92.008 80.8837 91.8926 80.6528 91.6618C80.422 91.4309 80.3066 91.1451 80.3066 90.8044C80.3066 90.4636 80.422 90.1778 80.6528 89.947C80.8837 89.7161 81.1695 89.6007 81.5102 89.6007C81.84 89.6007 82.1203 89.7161 82.3511 89.947C82.582 90.1778 82.6974 90.4636 82.6974 90.8044C82.6974 91.1451 82.582 91.4309 82.3511 91.6618C82.1203 91.8926 81.84 92.008 81.5102 92.008ZM82.4336 93.2117V102.297H80.5539V93.2117H82.4336ZM88.4135 100.615L90.9857 93.2117H92.9808L89.5182 102.297H87.2758L83.8297 93.2117H85.8413L88.4135 100.615ZM102.728 97.5317C102.728 97.8724 102.706 98.1802 102.662 98.455H95.7208C95.7757 99.1805 96.045 99.7631 96.5287 100.203C97.0124 100.643 97.606 100.862 98.3095 100.862C99.3208 100.862 100.035 100.439 100.453 99.5928H102.481C102.206 100.428 101.706 101.115 100.981 101.654C100.266 102.181 99.3757 102.445 98.3095 102.445C97.4411 102.445 96.6606 102.253 95.9681 101.868C95.2866 101.472 94.7479 100.923 94.3522 100.219C93.9675 99.5048 93.7751 98.6804 93.7751 97.746C93.7751 96.8117 93.962 95.9928 94.3357 95.2892C94.7205 94.5747 95.2536 94.0251 95.9351 93.6404C96.6276 93.2557 97.4191 93.0633 98.3095 93.0633C99.1669 93.0633 99.9308 93.2502 100.601 93.6239C101.272 93.9976 101.794 94.5253 102.168 95.2068C102.542 95.8773 102.728 96.6523 102.728 97.5317ZM100.766 96.9381C100.755 96.2456 100.508 95.6905 100.024 95.2728C99.5406 94.855 98.9415 94.6462 98.227 94.6462C97.5785 94.6462 97.0234 94.855 96.5617 95.2728C96.1 95.6795 95.8252 96.2346 95.7373 96.9381H100.766ZM114.995 96.4105C115.611 96.5204 116.133 96.8447 116.562 97.3833C116.99 97.9219 117.205 98.532 117.205 99.2135C117.205 99.7961 117.051 100.324 116.743 100.796C116.446 101.258 116.012 101.626 115.44 101.901C114.869 102.165 114.204 102.297 113.445 102.297H108.861V90.8373H113.231C114.011 90.8373 114.682 90.9692 115.242 91.2331C115.803 91.4969 116.226 91.8541 116.512 92.3048C116.798 92.7445 116.941 93.2392 116.941 93.7888C116.941 94.4483 116.765 94.9979 116.413 95.4376C116.061 95.8773 115.589 96.2016 114.995 96.4105ZM110.741 95.652H113.066C113.682 95.652 114.16 95.5146 114.5 95.2398C114.852 94.954 115.028 94.5473 115.028 94.0196C115.028 93.503 114.852 93.1018 114.5 92.816C114.16 92.5192 113.682 92.3708 113.066 92.3708H110.741V95.652ZM113.28 100.763C113.918 100.763 114.418 100.61 114.781 100.302C115.144 99.994 115.325 99.5653 115.325 99.0157C115.325 98.455 115.133 98.0099 114.748 97.6801C114.363 97.3503 113.852 97.1854 113.214 97.1854H110.741V100.763H113.28ZM127.475 93.2117V102.297H125.595V101.225C125.299 101.599 124.908 101.896 124.425 102.116C123.952 102.324 123.446 102.429 122.908 102.429C122.193 102.429 121.55 102.28 120.979 101.984C120.418 101.687 119.973 101.247 119.643 100.665C119.324 100.082 119.165 99.3784 119.165 98.554V93.2117H121.028V98.2737C121.028 99.0871 121.231 99.7137 121.638 100.153C122.045 100.582 122.6 100.796 123.303 100.796C124.007 100.796 124.562 100.582 124.969 100.153C125.386 99.7137 125.595 99.0871 125.595 98.2737V93.2117H127.475ZM132.148 94.7451V99.7741C132.148 100.115 132.225 100.362 132.379 100.516C132.544 100.659 132.819 100.73 133.203 100.73H134.358V102.297H132.874C132.027 102.297 131.379 102.099 130.928 101.703C130.477 101.308 130.252 100.665 130.252 99.7741V94.7451H129.18V93.2117H130.252V90.9528H132.148V93.2117H134.358V94.7451H132.148ZM138.283 94.7451V99.7741C138.283 100.115 138.36 100.362 138.514 100.516C138.679 100.659 138.954 100.73 139.338 100.73H140.492V102.297H139.009C138.162 102.297 137.514 102.099 137.063 101.703C136.612 101.308 136.387 100.665 136.387 99.7741V94.7451H135.315V93.2117H136.387V90.9528H138.283V93.2117H140.492V94.7451H138.283ZM146.166 102.445C145.308 102.445 144.533 102.253 143.841 101.868C143.148 101.472 142.604 100.923 142.208 100.219C141.813 99.5048 141.615 98.6804 141.615 97.746C141.615 96.8227 141.818 96.0037 142.225 95.2892C142.632 94.5747 143.187 94.0251 143.89 93.6404C144.594 93.2557 145.38 93.0633 146.248 93.0633C147.117 93.0633 147.902 93.2557 148.606 93.6404C149.31 94.0251 149.865 94.5747 150.271 95.2892C150.678 96.0037 150.881 96.8227 150.881 97.746C150.881 98.6694 150.673 99.4883 150.255 100.203C149.837 100.917 149.266 101.472 148.54 101.868C147.826 102.253 147.034 102.445 146.166 102.445ZM146.166 100.813C146.649 100.813 147.1 100.697 147.518 100.467C147.946 100.236 148.293 99.8895 148.557 99.4279C148.82 98.9662 148.952 98.4056 148.952 97.746C148.952 97.0865 148.826 96.5314 148.573 96.0807C148.32 95.619 147.985 95.2728 147.567 95.0419C147.15 94.8111 146.699 94.6957 146.215 94.6957C145.731 94.6957 145.281 94.8111 144.863 95.0419C144.456 95.2728 144.132 95.619 143.89 96.0807C143.648 96.5314 143.528 97.0865 143.528 97.746C143.528 98.7244 143.775 99.4828 144.27 100.021C144.775 100.549 145.407 100.813 146.166 100.813ZM157.323 93.0633C158.038 93.0633 158.675 93.2117 159.236 93.5085C159.808 93.8053 160.253 94.245 160.572 94.8276C160.89 95.4102 161.05 96.1137 161.05 96.9381V102.297H159.187V97.2184C159.187 96.405 158.983 95.7839 158.577 95.3552C158.17 94.9155 157.615 94.6957 156.911 94.6957C156.208 94.6957 155.647 94.9155 155.229 95.3552C154.823 95.7839 154.619 96.405 154.619 97.2184V102.297H152.74V93.2117H154.619V94.2505C154.927 93.8767 155.317 93.5854 155.79 93.3766C156.274 93.1677 156.785 93.0633 157.323 93.0633ZM166.745 102.445C166.031 102.445 165.388 102.319 164.816 102.066C164.255 101.802 163.81 101.45 163.48 101.011C163.151 100.56 162.975 100.06 162.953 99.5103H164.898C164.931 99.895 165.113 100.219 165.443 100.483C165.783 100.736 166.207 100.862 166.712 100.862C167.24 100.862 167.647 100.763 167.932 100.566C168.229 100.357 168.378 100.093 168.378 99.7741C168.378 99.4334 168.213 99.1805 167.883 99.0157C167.564 98.8508 167.053 98.6694 166.349 98.4715C165.668 98.2847 165.113 98.1033 164.684 97.9274C164.255 97.7515 163.882 97.4822 163.563 97.1195C163.255 96.7567 163.101 96.2786 163.101 95.685C163.101 95.2013 163.244 94.7616 163.53 94.3659C163.816 93.9592 164.222 93.6404 164.75 93.4095C165.289 93.1787 165.904 93.0633 166.597 93.0633C167.63 93.0633 168.46 93.3271 169.087 93.8547C169.724 94.3714 170.065 95.0804 170.109 95.9818H168.229C168.196 95.575 168.031 95.2508 167.735 95.0089C167.438 94.7671 167.036 94.6462 166.531 94.6462C166.036 94.6462 165.657 94.7396 165.393 94.9265C165.129 95.1134 164.997 95.3607 164.997 95.6685C164.997 95.9103 165.085 96.1137 165.261 96.2786C165.437 96.4434 165.651 96.5753 165.904 96.6743C166.157 96.7622 166.531 96.8776 167.026 97.0205C167.685 97.1964 168.224 97.3778 168.641 97.5647C169.07 97.7405 169.438 98.0044 169.746 98.3561C170.054 98.7079 170.213 99.175 170.224 99.7576C170.224 100.274 170.081 100.736 169.796 101.143C169.51 101.549 169.103 101.868 168.575 102.099C168.059 102.33 167.449 102.445 166.745 102.445Z" fill="white"/>
</g>
<defs>
<filter id="filter0_d_2599_24" x="93.7033" y="-0.000208437" width="14.5778" height="63.4802" filterUnits="userSpaceOnUse" color-interpolation-filters="sRGB">
<feFlood flood-opacity="0" result="BackgroundImageFix"/>
<feColorMatrix in="SourceAlpha" type="matrix" values="0 0 0 0 0 0 0 0 0 0 0 0 0 0 0 0 0 0 127 0" result="hardAlpha"/>
<feOffset dy="0.515267"/>
<feGaussianBlur stdDeviation="0.669847"/>
<feComposite in2="hardAlpha" operator="out"/>
<feColorMatrix type="matrix" values="0 0 0 0 1 0 0 0 0 1 0 0 0 0 1 0 0 0 1 0"/>
<feBlend mode="normal" in2="BackgroundImageFix" result="effect1_dropShadow_2599_24"/>
<feBlend mode="normal" in="SourceGraphic" in2="effect1_dropShadow_2599_24" result="shape"/>
</filter>
<filter id="filter1_d_2599_24" x="-0.0010438" y="73.9922" width="185.854" height="53.8556" filterUnits="userSpaceOnUse" color-interpolation-filters="sRGB">
<feFlood flood-opacity="0" result="BackgroundImageFix"/>
<feColorMatrix in="SourceAlpha" type="matrix" values="0 0 0 0 0 0 0 0 0 0 0 0 0 0 0 0 0 0 127 0" result="hardAlpha"/>
<feOffset dy="4.12214"/>
<feGaussianBlur stdDeviation="2.06107"/>
<feComposite in2="hardAlpha" operator="out"/>
<feColorMatrix type="matrix" values="0 0 0 0 0 0 0 0 0 0 0 0 0 0 0 0 0 0 0.09 0"/>
<feBlend mode="normal" in2="BackgroundImageFix" result="effect1_dropShadow_2599_24"/>
<feBlend mode="normal" in="SourceGraphic" in2="effect1_dropShadow_2599_24" result="shape"/>
</filter>
</defs>
</svg>
