<svg width="78" height="25" viewBox="0 0 78 25" fill="none" xmlns="http://www.w3.org/2000/svg">
<g filter="url(#filter0_d_2609_223)">
<mask id="path-1-outside-1_2609_223" maskUnits="userSpaceOnUse" x="2.53906" y="1.75977" width="72" height="20" fill="black">
<rect fill="white" x="2.53906" y="1.75977" width="72" height="20"/>
<path d="M6.952 2.42301V3.27095H4.2623V5.14006H6.35935V5.988H4.2623V8.75977H3.22289V2.42301H6.952ZM8.95467 2.42301V8.75977H7.91526V2.42301H8.95467ZM12.4073 8.82359C11.9818 8.82359 11.5988 8.75065 11.2584 8.60477C10.9181 8.45281 10.6506 8.24006 10.4561 7.96653C10.2616 7.693 10.1643 7.37388 10.1643 7.00918H11.2767C11.301 7.28271 11.4074 7.50761 11.5958 7.68388C11.7903 7.86016 12.0608 7.9483 12.4073 7.9483C12.7659 7.9483 13.0455 7.8632 13.2461 7.693C13.4467 7.51673 13.547 7.29183 13.547 7.0183C13.547 6.80555 13.4831 6.63232 13.3555 6.49859C13.2339 6.36487 13.0789 6.26153 12.8905 6.18859C12.7081 6.11565 12.4529 6.03663 12.1246 5.95153C11.7113 5.84212 11.3739 5.73271 11.1126 5.6233C10.8573 5.50781 10.6384 5.33153 10.4561 5.09448C10.2737 4.85742 10.1826 4.54134 10.1826 4.14624C10.1826 3.78154 10.2737 3.46242 10.4561 3.18889C10.6384 2.91536 10.8937 2.70566 11.222 2.55977C11.5502 2.41389 11.9301 2.34095 12.3617 2.34095C12.9756 2.34095 13.4771 2.49595 13.8661 2.80595C14.2612 3.10987 14.48 3.52928 14.5226 4.06418H13.3737C13.3555 3.8332 13.2461 3.63565 13.0455 3.47154C12.8449 3.30742 12.5805 3.22536 12.2523 3.22536C11.9544 3.22536 11.7113 3.30134 11.5229 3.4533C11.3344 3.60526 11.2402 3.82409 11.2402 4.10977C11.2402 4.30428 11.298 4.46536 11.4134 4.59301C11.535 4.71457 11.687 4.81183 11.8693 4.88477C12.0517 4.95771 12.3009 5.03673 12.617 5.12183C13.0364 5.23732 13.3768 5.35281 13.6381 5.4683C13.9056 5.58379 14.1305 5.7631 14.3129 6.00624C14.5013 6.2433 14.5955 6.56242 14.5955 6.96359C14.5955 7.28575 14.5074 7.58967 14.3311 7.87535C14.1609 8.16104 13.9086 8.39202 13.5743 8.5683C13.2461 8.73849 12.8571 8.82359 12.4073 8.82359ZM19.9158 2.42301V3.27095H18.229V8.75977H17.1896V3.27095H15.4937V2.42301H19.9158ZM23.8587 8.82359C23.2691 8.82359 22.7251 8.68682 22.2267 8.4133C21.7343 8.13369 21.3423 7.74771 21.0505 7.25536C20.7648 6.75692 20.622 6.19771 20.622 5.57771C20.622 4.95771 20.7648 4.40154 21.0505 3.90918C21.3423 3.41683 21.7343 3.03389 22.2267 2.76036C22.7251 2.48075 23.2691 2.34095 23.8587 2.34095C24.4544 2.34095 24.9984 2.48075 25.4908 2.76036C25.9892 3.03389 26.3813 3.41683 26.667 3.90918C26.9526 4.40154 27.0955 4.95771 27.0955 5.57771C27.0955 6.19771 26.9526 6.75692 26.667 7.25536C26.3813 7.74771 25.9892 8.13369 25.4908 8.4133C24.9984 8.68682 24.4544 8.82359 23.8587 8.82359ZM23.8587 7.92094C24.2781 7.92094 24.652 7.82673 24.9802 7.6383C25.3084 7.44379 25.5637 7.17026 25.7461 6.81771C25.9345 6.45908 26.0287 6.04575 26.0287 5.57771C26.0287 5.10967 25.9345 4.69938 25.7461 4.34683C25.5637 3.99428 25.3084 3.72379 24.9802 3.53536C24.652 3.34693 24.2781 3.25271 23.8587 3.25271C23.4393 3.25271 23.0655 3.34693 22.7373 3.53536C22.409 3.72379 22.1507 3.99428 21.9623 4.34683C21.7799 4.69938 21.6887 5.10967 21.6887 5.57771C21.6887 6.04575 21.7799 6.45908 21.9623 6.81771C22.1507 7.17026 22.409 7.44379 22.7373 7.6383C23.0655 7.82673 23.4393 7.92094 23.8587 7.92094ZM34.5806 2.42301V3.27095H32.8938V8.75977H31.8544V3.27095H30.1585V2.42301H34.5806ZM36.6726 3.26183V5.12183H38.8609V5.96977H36.6726V7.91183H39.1344V8.75977H35.6332V2.41389H39.1344V3.26183H36.6726ZM40.0682 5.57771C40.0682 4.95771 40.211 4.40154 40.4967 3.90918C40.7885 3.41683 41.1805 3.03389 41.6729 2.76036C42.1713 2.48075 42.7153 2.34095 43.3049 2.34095C43.9796 2.34095 44.5784 2.50811 45.1011 2.84242C45.6299 3.17065 46.0129 3.63869 46.2499 4.24654H45.0008C44.8367 3.91222 44.6088 3.66301 44.317 3.49889C44.0252 3.33477 43.6879 3.25271 43.3049 3.25271C42.8855 3.25271 42.5117 3.34693 42.1835 3.53536C41.8552 3.72379 41.5969 3.99428 41.4085 4.34683C41.2261 4.69938 41.1349 5.10967 41.1349 5.57771C41.1349 6.04575 41.2261 6.45604 41.4085 6.80859C41.5969 7.16114 41.8552 7.43467 42.1835 7.62918C42.5117 7.81761 42.8855 7.91183 43.3049 7.91183C43.6879 7.91183 44.0252 7.82977 44.317 7.66565C44.6088 7.50153 44.8367 7.25232 45.0008 6.918H46.2499C46.0129 7.52585 45.6299 7.99388 45.1011 8.32212C44.5784 8.65035 43.9796 8.81447 43.3049 8.81447C42.7093 8.81447 42.1652 8.67771 41.6729 8.40418C41.1805 8.12457 40.7885 7.73859 40.4967 7.24624C40.211 6.75389 40.0682 6.19771 40.0682 5.57771ZM52.5269 2.42301V8.75977H51.4874V5.988H48.506V8.75977H47.4666V2.42301H48.506V5.14006H51.4874V2.42301H52.5269ZM7.65406 16.3104C7.65406 16.6325 7.57808 16.9364 7.42612 17.2221C7.27415 17.5078 7.03102 17.7418 6.6967 17.9242C6.36239 18.1005 5.93386 18.1886 5.41112 18.1886H4.2623V20.7598H3.22289V14.423H5.41112C5.89739 14.423 6.30769 14.5081 6.642 14.6783C6.98239 14.8424 7.23465 15.0673 7.39876 15.353C7.56896 15.6387 7.65406 15.9578 7.65406 16.3104ZM5.41112 17.3407C5.80622 17.3407 6.10102 17.2525 6.29553 17.0762C6.49004 16.8939 6.58729 16.6386 6.58729 16.3104C6.58729 15.6174 6.19523 15.2709 5.41112 15.2709H4.2623V17.3407H5.41112ZM11.9369 20.7598L10.478 18.2251H9.6848V20.7598H8.64539V14.423H10.8336C11.3199 14.423 11.7302 14.5081 12.0645 14.6783C12.4049 14.8485 12.6571 15.0764 12.8213 15.3621C12.9915 15.6478 13.0766 15.9669 13.0766 16.3195C13.0766 16.7328 12.955 17.1097 12.7119 17.4501C12.4748 17.7844 12.107 18.0123 11.6086 18.1339L13.1769 20.7598H11.9369ZM9.6848 17.3954H10.8336C11.2226 17.3954 11.5144 17.2981 11.7089 17.1036C11.9095 16.9091 12.0098 16.6477 12.0098 16.3195C12.0098 15.9912 11.9125 15.7359 11.718 15.5536C11.5235 15.3652 11.2287 15.2709 10.8336 15.2709H9.6848V17.3954ZM15.4456 14.423V20.7598H14.4062V14.423H15.4456ZM22.2718 14.423L19.8921 20.7598H18.6885L16.2997 14.423H17.4121L19.2903 19.693L21.1776 14.423H22.2718ZM26.9613 19.4651H24.3081L23.8522 20.7598H22.7672L25.0375 14.4139H26.241L28.5113 20.7598H27.4172L26.9613 19.4651ZM26.6695 18.6171L25.6392 15.6721L24.5998 18.6171H26.6695ZM33.5922 14.423V15.2709H31.9055V20.7598H30.8661V15.2709H29.1702V14.423H33.5922ZM35.6843 15.2618V17.1218H37.8725V17.9698H35.6843V19.9118H38.1461V20.7598H34.6449V14.4139H38.1461V15.2618H35.6843ZM42.8342 19.9209H44.9768V20.7598H41.7948V14.423H42.8342V19.9209ZM46.8855 14.423V20.7598H45.8461V14.423H46.8855ZM54.9242 14.423V20.7598H53.8848V16.4198L51.9519 20.7598H51.2316L49.2895 16.4198V20.7598H48.2501V14.423H49.3716L51.5963 19.3921L53.8119 14.423H54.9242ZM57.3298 14.423V20.7598H56.2904V14.423H57.3298ZM62.7883 14.423V15.2709H61.1015V20.7598H60.0621V15.2709H58.3662V14.423H62.7883ZM64.8803 15.2618V17.1218H67.0686V17.9698H64.8803V19.9118H67.3421V20.7598H63.8409V14.4139H67.3421V15.2618H64.8803ZM70.692 14.423C71.3667 14.423 71.9563 14.5537 72.4609 14.8151C72.9714 15.0704 73.3635 15.4411 73.637 15.9274C73.9166 16.4076 74.0564 16.9699 74.0564 17.6142C74.0564 18.2585 73.9166 18.8177 73.637 19.2918C73.3635 19.7659 72.9714 20.1306 72.4609 20.3859C71.9563 20.6352 71.3667 20.7598 70.692 20.7598H68.6223V14.423H70.692ZM70.692 19.9118C71.4336 19.9118 72.0019 19.7112 72.397 19.3101C72.7921 18.9089 72.9897 18.3436 72.9897 17.6142C72.9897 16.8787 72.7921 16.3043 72.397 15.8909C72.0019 15.4776 71.4336 15.2709 70.692 15.2709H69.6617V19.9118H70.692Z"/>
</mask>
<path d="M6.952 2.42301V3.27095H4.2623V5.14006H6.35935V5.988H4.2623V8.75977H3.22289V2.42301H6.952ZM8.95467 2.42301V8.75977H7.91526V2.42301H8.95467ZM12.4073 8.82359C11.9818 8.82359 11.5988 8.75065 11.2584 8.60477C10.9181 8.45281 10.6506 8.24006 10.4561 7.96653C10.2616 7.693 10.1643 7.37388 10.1643 7.00918H11.2767C11.301 7.28271 11.4074 7.50761 11.5958 7.68388C11.7903 7.86016 12.0608 7.9483 12.4073 7.9483C12.7659 7.9483 13.0455 7.8632 13.2461 7.693C13.4467 7.51673 13.547 7.29183 13.547 7.0183C13.547 6.80555 13.4831 6.63232 13.3555 6.49859C13.2339 6.36487 13.0789 6.26153 12.8905 6.18859C12.7081 6.11565 12.4529 6.03663 12.1246 5.95153C11.7113 5.84212 11.3739 5.73271 11.1126 5.6233C10.8573 5.50781 10.6384 5.33153 10.4561 5.09448C10.2737 4.85742 10.1826 4.54134 10.1826 4.14624C10.1826 3.78154 10.2737 3.46242 10.4561 3.18889C10.6384 2.91536 10.8937 2.70566 11.222 2.55977C11.5502 2.41389 11.9301 2.34095 12.3617 2.34095C12.9756 2.34095 13.4771 2.49595 13.8661 2.80595C14.2612 3.10987 14.48 3.52928 14.5226 4.06418H13.3737C13.3555 3.8332 13.2461 3.63565 13.0455 3.47154C12.8449 3.30742 12.5805 3.22536 12.2523 3.22536C11.9544 3.22536 11.7113 3.30134 11.5229 3.4533C11.3344 3.60526 11.2402 3.82409 11.2402 4.10977C11.2402 4.30428 11.298 4.46536 11.4134 4.59301C11.535 4.71457 11.687 4.81183 11.8693 4.88477C12.0517 4.95771 12.3009 5.03673 12.617 5.12183C13.0364 5.23732 13.3768 5.35281 13.6381 5.4683C13.9056 5.58379 14.1305 5.7631 14.3129 6.00624C14.5013 6.2433 14.5955 6.56242 14.5955 6.96359C14.5955 7.28575 14.5074 7.58967 14.3311 7.87535C14.1609 8.16104 13.9086 8.39202 13.5743 8.5683C13.2461 8.73849 12.8571 8.82359 12.4073 8.82359ZM19.9158 2.42301V3.27095H18.229V8.75977H17.1896V3.27095H15.4937V2.42301H19.9158ZM23.8587 8.82359C23.2691 8.82359 22.7251 8.68682 22.2267 8.4133C21.7343 8.13369 21.3423 7.74771 21.0505 7.25536C20.7648 6.75692 20.622 6.19771 20.622 5.57771C20.622 4.95771 20.7648 4.40154 21.0505 3.90918C21.3423 3.41683 21.7343 3.03389 22.2267 2.76036C22.7251 2.48075 23.2691 2.34095 23.8587 2.34095C24.4544 2.34095 24.9984 2.48075 25.4908 2.76036C25.9892 3.03389 26.3813 3.41683 26.667 3.90918C26.9526 4.40154 27.0955 4.95771 27.0955 5.57771C27.0955 6.19771 26.9526 6.75692 26.667 7.25536C26.3813 7.74771 25.9892 8.13369 25.4908 8.4133C24.9984 8.68682 24.4544 8.82359 23.8587 8.82359ZM23.8587 7.92094C24.2781 7.92094 24.652 7.82673 24.9802 7.6383C25.3084 7.44379 25.5637 7.17026 25.7461 6.81771C25.9345 6.45908 26.0287 6.04575 26.0287 5.57771C26.0287 5.10967 25.9345 4.69938 25.7461 4.34683C25.5637 3.99428 25.3084 3.72379 24.9802 3.53536C24.652 3.34693 24.2781 3.25271 23.8587 3.25271C23.4393 3.25271 23.0655 3.34693 22.7373 3.53536C22.409 3.72379 22.1507 3.99428 21.9623 4.34683C21.7799 4.69938 21.6887 5.10967 21.6887 5.57771C21.6887 6.04575 21.7799 6.45908 21.9623 6.81771C22.1507 7.17026 22.409 7.44379 22.7373 7.6383C23.0655 7.82673 23.4393 7.92094 23.8587 7.92094ZM34.5806 2.42301V3.27095H32.8938V8.75977H31.8544V3.27095H30.1585V2.42301H34.5806ZM36.6726 3.26183V5.12183H38.8609V5.96977H36.6726V7.91183H39.1344V8.75977H35.6332V2.41389H39.1344V3.26183H36.6726ZM40.0682 5.57771C40.0682 4.95771 40.211 4.40154 40.4967 3.90918C40.7885 3.41683 41.1805 3.03389 41.6729 2.76036C42.1713 2.48075 42.7153 2.34095 43.3049 2.34095C43.9796 2.34095 44.5784 2.50811 45.1011 2.84242C45.6299 3.17065 46.0129 3.63869 46.2499 4.24654H45.0008C44.8367 3.91222 44.6088 3.66301 44.317 3.49889C44.0252 3.33477 43.6879 3.25271 43.3049 3.25271C42.8855 3.25271 42.5117 3.34693 42.1835 3.53536C41.8552 3.72379 41.5969 3.99428 41.4085 4.34683C41.2261 4.69938 41.1349 5.10967 41.1349 5.57771C41.1349 6.04575 41.2261 6.45604 41.4085 6.80859C41.5969 7.16114 41.8552 7.43467 42.1835 7.62918C42.5117 7.81761 42.8855 7.91183 43.3049 7.91183C43.6879 7.91183 44.0252 7.82977 44.317 7.66565C44.6088 7.50153 44.8367 7.25232 45.0008 6.918H46.2499C46.0129 7.52585 45.6299 7.99388 45.1011 8.32212C44.5784 8.65035 43.9796 8.81447 43.3049 8.81447C42.7093 8.81447 42.1652 8.67771 41.6729 8.40418C41.1805 8.12457 40.7885 7.73859 40.4967 7.24624C40.211 6.75389 40.0682 6.19771 40.0682 5.57771ZM52.5269 2.42301V8.75977H51.4874V5.988H48.506V8.75977H47.4666V2.42301H48.506V5.14006H51.4874V2.42301H52.5269ZM7.65406 16.3104C7.65406 16.6325 7.57808 16.9364 7.42612 17.2221C7.27415 17.5078 7.03102 17.7418 6.6967 17.9242C6.36239 18.1005 5.93386 18.1886 5.41112 18.1886H4.2623V20.7598H3.22289V14.423H5.41112C5.89739 14.423 6.30769 14.5081 6.642 14.6783C6.98239 14.8424 7.23465 15.0673 7.39876 15.353C7.56896 15.6387 7.65406 15.9578 7.65406 16.3104ZM5.41112 17.3407C5.80622 17.3407 6.10102 17.2525 6.29553 17.0762C6.49004 16.8939 6.58729 16.6386 6.58729 16.3104C6.58729 15.6174 6.19523 15.2709 5.41112 15.2709H4.2623V17.3407H5.41112ZM11.9369 20.7598L10.478 18.2251H9.6848V20.7598H8.64539V14.423H10.8336C11.3199 14.423 11.7302 14.5081 12.0645 14.6783C12.4049 14.8485 12.6571 15.0764 12.8213 15.3621C12.9915 15.6478 13.0766 15.9669 13.0766 16.3195C13.0766 16.7328 12.955 17.1097 12.7119 17.4501C12.4748 17.7844 12.107 18.0123 11.6086 18.1339L13.1769 20.7598H11.9369ZM9.6848 17.3954H10.8336C11.2226 17.3954 11.5144 17.2981 11.7089 17.1036C11.9095 16.9091 12.0098 16.6477 12.0098 16.3195C12.0098 15.9912 11.9125 15.7359 11.718 15.5536C11.5235 15.3652 11.2287 15.2709 10.8336 15.2709H9.6848V17.3954ZM15.4456 14.423V20.7598H14.4062V14.423H15.4456ZM22.2718 14.423L19.8921 20.7598H18.6885L16.2997 14.423H17.4121L19.2903 19.693L21.1776 14.423H22.2718ZM26.9613 19.4651H24.3081L23.8522 20.7598H22.7672L25.0375 14.4139H26.241L28.5113 20.7598H27.4172L26.9613 19.4651ZM26.6695 18.6171L25.6392 15.6721L24.5998 18.6171H26.6695ZM33.5922 14.423V15.2709H31.9055V20.7598H30.8661V15.2709H29.1702V14.423H33.5922ZM35.6843 15.2618V17.1218H37.8725V17.9698H35.6843V19.9118H38.1461V20.7598H34.6449V14.4139H38.1461V15.2618H35.6843ZM42.8342 19.9209H44.9768V20.7598H41.7948V14.423H42.8342V19.9209ZM46.8855 14.423V20.7598H45.8461V14.423H46.8855ZM54.9242 14.423V20.7598H53.8848V16.4198L51.9519 20.7598H51.2316L49.2895 16.4198V20.7598H48.2501V14.423H49.3716L51.5963 19.3921L53.8119 14.423H54.9242ZM57.3298 14.423V20.7598H56.2904V14.423H57.3298ZM62.7883 14.423V15.2709H61.1015V20.7598H60.0621V15.2709H58.3662V14.423H62.7883ZM64.8803 15.2618V17.1218H67.0686V17.9698H64.8803V19.9118H67.3421V20.7598H63.8409V14.4139H67.3421V15.2618H64.8803ZM70.692 14.423C71.3667 14.423 71.9563 14.5537 72.4609 14.8151C72.9714 15.0704 73.3635 15.4411 73.637 15.9274C73.9166 16.4076 74.0564 16.9699 74.0564 17.6142C74.0564 18.2585 73.9166 18.8177 73.637 19.2918C73.3635 19.7659 72.9714 20.1306 72.4609 20.3859C71.9563 20.6352 71.3667 20.7598 70.692 20.7598H68.6223V14.423H70.692ZM70.692 19.9118C71.4336 19.9118 72.0019 19.7112 72.397 19.3101C72.7921 18.9089 72.9897 18.3436 72.9897 17.6142C72.9897 16.8787 72.7921 16.3043 72.397 15.8909C72.0019 15.4776 71.4336 15.2709 70.692 15.2709H69.6617V19.9118H70.692Z" fill="#FF0000"/>
<path d="M6.952 2.42301H7.39296V1.98205H6.952V2.42301ZM6.952 3.27095V3.71191H7.39296V3.27095H6.952ZM4.2623 3.27095V2.82999H3.82134V3.27095H4.2623ZM4.2623 5.14006H3.82134V5.58102H4.2623V5.14006ZM6.35935 5.14006H6.80031V4.69911H6.35935V5.14006ZM6.35935 5.988V6.42896H6.80031V5.988H6.35935ZM4.2623 5.988V5.54705H3.82134V5.988H4.2623ZM4.2623 8.75977V9.20072H4.70325V8.75977H4.2623ZM3.22289 8.75977H2.78193V9.20072H3.22289V8.75977ZM3.22289 2.42301V1.98205H2.78193V2.42301H3.22289ZM6.952 2.42301H6.51104V3.27095H6.952H7.39296V2.42301H6.952ZM6.952 3.27095V2.82999H4.2623V3.27095V3.71191H6.952V3.27095ZM4.2623 3.27095H3.82134V5.14006H4.2623H4.70325V3.27095H4.2623ZM4.2623 5.14006V5.58102H6.35935V5.14006V4.69911H4.2623V5.14006ZM6.35935 5.14006H5.9184V5.988H6.35935H6.80031V5.14006H6.35935ZM6.35935 5.988V5.54705H4.2623V5.988V6.42896H6.35935V5.988ZM4.2623 5.988H3.82134V8.75977H4.2623H4.70325V5.988H4.2623ZM4.2623 8.75977V8.31881H3.22289V8.75977V9.20072H4.2623V8.75977ZM3.22289 8.75977H3.66384V2.42301H3.22289H2.78193V8.75977H3.22289ZM3.22289 2.42301V2.86397H6.952V2.42301V1.98205H3.22289V2.42301ZM8.95467 2.42301H9.39563V1.98205H8.95467V2.42301ZM8.95467 8.75977V9.20072H9.39563V8.75977H8.95467ZM7.91526 8.75977H7.47431V9.20072H7.91526V8.75977ZM7.91526 2.42301V1.98205H7.47431V2.42301H7.91526ZM8.95467 2.42301H8.51372V8.75977H8.95467H9.39563V2.42301H8.95467ZM8.95467 8.75977V8.31881H7.91526V8.75977V9.20072H8.95467V8.75977ZM7.91526 8.75977H8.35622V2.42301H7.91526H7.47431V8.75977H7.91526ZM7.91526 2.42301V2.86397H8.95467V2.42301V1.98205H7.91526V2.42301ZM11.2584 8.60477L11.0787 9.00747L11.0847 9.01007L11.2584 8.60477ZM10.4561 7.96653L10.8155 7.71099L10.4561 7.96653ZM10.1643 7.00918V6.56822H9.72337V7.00918H10.1643ZM11.2767 7.00918L11.7159 6.97014L11.6802 6.56822H11.2767V7.00918ZM11.5958 7.68388L11.2945 8.00594L11.2997 8.01063L11.5958 7.68388ZM13.2461 7.693L13.5314 8.02929L13.5372 8.02423L13.2461 7.693ZM13.3555 6.49859L13.0291 6.7953L13.0365 6.80306L13.3555 6.49859ZM12.8905 6.18859L12.7267 6.59804L12.7313 6.59981L12.8905 6.18859ZM12.1246 5.95153L12.0118 6.37781L12.014 6.37838L12.1246 5.95153ZM11.1126 5.6233L10.9307 6.02522L10.9423 6.03006L11.1126 5.6233ZM10.4561 3.18889L10.823 3.43349V3.43349L10.4561 3.18889ZM11.222 2.55977L11.4011 2.96273V2.96272L11.222 2.55977ZM13.8661 2.80595L13.5912 3.15085L13.5972 3.15546L13.8661 2.80595ZM14.5226 4.06418V4.50514H15L14.9621 4.02922L14.5226 4.06418ZM13.3737 4.06418L12.9341 4.09889L12.9662 4.50514H13.3737V4.06418ZM11.5229 3.4533L11.7997 3.79655V3.79655L11.5229 3.4533ZM11.4134 4.59301L11.0865 4.88885L11.0938 4.89702L11.1016 4.90481L11.4134 4.59301ZM12.617 5.12183L12.734 4.69669L12.7316 4.69603L12.617 5.12183ZM13.6381 5.4683L13.4599 5.87165L13.4633 5.87313L13.6381 5.4683ZM14.3129 6.00624L13.9599 6.27092L13.9677 6.28062L14.3129 6.00624ZM14.3311 7.87535L13.9558 7.64378L13.9523 7.64967L14.3311 7.87535ZM13.5743 8.5683L13.7773 8.95977L13.78 8.95835L13.5743 8.5683ZM12.4073 8.82359V8.38263C12.0327 8.38263 11.7101 8.31857 11.4321 8.19946L11.2584 8.60477L11.0847 9.01007C11.4876 9.18272 11.9309 9.26455 12.4073 9.26455V8.82359ZM11.2584 8.60477L11.4382 8.20211C11.1616 8.07862 10.9594 7.9134 10.8155 7.71099L10.4561 7.96653L10.0967 8.22208C10.3418 8.56672 10.6745 8.82699 11.0787 9.00742L11.2584 8.60477ZM10.4561 7.96653L10.8155 7.71099C10.6787 7.51862 10.6053 7.29065 10.6053 7.00918H10.1643H9.72337C9.72337 7.45712 9.8445 7.86738 10.0967 8.22208L10.4561 7.96653ZM10.1643 7.00918V7.45014H11.2767V7.00918V6.56822H10.1643V7.00918ZM11.2767 7.00918L10.8375 7.04822C10.8707 7.42227 11.0215 7.75046 11.2946 8.0059L11.5958 7.68388L11.897 7.36187C11.7932 7.26476 11.7313 7.14315 11.7159 6.97014L11.2767 7.00918ZM11.5958 7.68388L11.2997 8.01063C11.5984 8.28133 11.9871 8.38925 12.4073 8.38925V7.9483V7.50734C12.1345 7.50734 11.9822 7.43899 11.8919 7.35714L11.5958 7.68388ZM12.4073 7.9483V8.38925C12.8324 8.38925 13.2263 8.28812 13.5314 8.02924L13.2461 7.693L12.9608 7.35677C12.8647 7.43828 12.6994 7.50734 12.4073 7.50734V7.9483ZM13.2461 7.693L13.5372 8.02423C13.8356 7.76194 13.9879 7.41512 13.9879 7.0183H13.547H13.106C13.106 7.16853 13.0577 7.27152 12.955 7.36177L13.2461 7.693ZM13.547 7.0183H13.9879C13.9879 6.71056 13.8923 6.42229 13.6745 6.19412L13.3555 6.49859L13.0365 6.80306C13.074 6.84234 13.106 6.90054 13.106 7.0183H13.547ZM13.3555 6.49859L13.6818 6.20197C13.509 6.01188 13.2943 5.87207 13.0497 5.77737L12.8905 6.18859L12.7313 6.59981C12.8635 6.65099 12.9589 6.71786 13.0292 6.79521L13.3555 6.49859ZM12.8905 6.18859L13.0543 5.77917C12.8466 5.6961 12.5706 5.61163 12.2353 5.52469L12.1246 5.95153L12.014 6.37838C12.3351 6.46163 12.5697 6.5352 12.7267 6.59801L12.8905 6.18859ZM12.1246 5.95153L12.2375 5.52526C11.8349 5.4187 11.5187 5.31528 11.2828 5.21654L11.1126 5.6233L10.9423 6.03006C11.2292 6.15014 11.5877 6.26554 12.0118 6.37781L12.1246 5.95153ZM11.1126 5.6233L11.2943 5.22154C11.1094 5.1379 10.9469 5.00925 10.8056 4.82562L10.4561 5.09448L10.1066 5.36333C10.33 5.65382 10.6051 5.87771 10.9308 6.02506L11.1126 5.6233ZM10.4561 5.09448L10.8056 4.82562C10.6991 4.68718 10.6235 4.47529 10.6235 4.14624H10.1826H9.7416C9.7416 4.60739 9.84837 5.02766 10.1066 5.36333L10.4561 5.09448ZM10.1826 4.14624H10.6235C10.6235 3.8587 10.6941 3.62677 10.823 3.43349L10.4561 3.18889L10.0892 2.94429C9.85334 3.29807 9.7416 3.70438 9.7416 4.14624H10.1826ZM10.4561 3.18889L10.823 3.43349C10.9547 3.23586 11.1418 3.07794 11.4011 2.96273L11.222 2.55977L11.0429 2.15682C10.6456 2.33337 10.3221 2.59486 10.0892 2.94429L10.4561 3.18889ZM11.222 2.55977L11.4011 2.96272C11.6627 2.84642 11.9796 2.78191 12.3617 2.78191V2.34095V1.89999C11.8806 1.89999 11.4377 1.98136 11.0429 2.15682L11.222 2.55977ZM12.3617 2.34095V2.78191C12.8998 2.78191 13.2973 2.9165 13.5913 3.1508L13.8661 2.80595L14.1409 2.46109C13.6569 2.0754 13.0514 1.89999 12.3617 1.89999V2.34095ZM13.8661 2.80595L13.5972 3.15546C13.8853 3.37708 14.0495 3.67783 14.083 4.09915L14.5226 4.06418L14.9621 4.02922C14.9105 3.38073 14.637 2.84266 14.1349 2.45644L13.8661 2.80595ZM14.5226 4.06418V3.62323H13.3737V4.06418V4.50514H14.5226V4.06418ZM13.3737 4.06418L13.8133 4.02948C13.7845 3.66395 13.6062 3.36052 13.3247 3.13025L13.0455 3.47154L12.7663 3.81282C12.886 3.91079 12.9265 4.00246 12.9341 4.09889L13.3737 4.06418ZM13.0455 3.47154L13.3247 3.13025C13.0263 2.88608 12.6546 2.7844 12.2523 2.7844V3.22536V3.66632C12.5064 3.66632 12.6635 3.72876 12.7663 3.81282L13.0455 3.47154ZM12.2523 3.22536V2.7844C11.8776 2.7844 11.5296 2.88134 11.246 3.11005L11.5229 3.4533L11.7997 3.79655C11.8929 3.72134 12.0313 3.66632 12.2523 3.66632V3.22536ZM11.5229 3.4533L11.246 3.11005C10.9346 3.36121 10.7993 3.71753 10.7993 4.10977H11.2402H11.6812C11.6812 3.93064 11.7342 3.84931 11.7997 3.79655L11.5229 3.4533ZM11.2402 4.10977H10.7993C10.7993 4.39836 10.888 4.66948 11.0865 4.88885L11.4134 4.59301L11.7404 4.29716C11.7079 4.26123 11.6812 4.2102 11.6812 4.10977H11.2402ZM11.4134 4.59301L11.1016 4.90481C11.271 5.0742 11.4756 5.20221 11.7056 5.29419L11.8693 4.88477L12.0331 4.47535C11.8983 4.42145 11.799 4.35495 11.7252 4.2812L11.4134 4.59301ZM11.8693 4.88477L11.7056 5.29419C11.911 5.37636 12.179 5.46057 12.5023 5.54762L12.617 5.12183L12.7316 4.69603C12.4228 4.61289 12.1924 4.53906 12.0331 4.47535L11.8693 4.88477ZM12.617 5.12183L12.4999 5.54696C12.908 5.65934 13.2258 5.76817 13.4599 5.87164L13.6381 5.4683L13.8164 5.06496C13.5278 4.93745 13.1648 4.8153 12.734 4.69669L12.617 5.12183ZM13.6381 5.4683L13.4633 5.87313C13.6572 5.95682 13.8217 6.08636 13.9601 6.27081L14.3129 6.00624L14.6656 5.74166C14.4393 5.43984 14.154 5.21076 13.813 5.06347L13.6381 5.4683ZM14.3129 6.00624L13.9677 6.28062C14.0765 6.41759 14.1545 6.62963 14.1545 6.96359H14.5955H15.0365C15.0365 6.4952 14.926 6.06901 14.658 5.73186L14.3129 6.00624ZM14.5955 6.96359H14.1545C14.1545 7.20044 14.091 7.42465 13.9558 7.64381L14.3311 7.87535L14.7064 8.1069C14.9237 7.75469 15.0365 7.37106 15.0365 6.96359H14.5955ZM14.3311 7.87535L13.9523 7.64967C13.829 7.85656 13.6412 8.03451 13.3687 8.17824L13.5743 8.5683L13.78 8.95835C14.176 8.74953 14.4928 8.46552 14.7099 8.10104L14.3311 7.87535ZM13.5743 8.5683L13.3713 8.17683C13.118 8.3082 12.8015 8.38263 12.4073 8.38263V8.82359V9.26455C12.9126 9.26455 13.3742 9.16878 13.7773 8.95976L13.5743 8.5683ZM19.9158 2.42301H20.3567V1.98205H19.9158V2.42301ZM19.9158 3.27095V3.71191H20.3567V3.27095H19.9158ZM18.229 3.27095V2.82999H17.7881V3.27095H18.229ZM18.229 8.75977V9.20072H18.67V8.75977H18.229ZM17.1896 8.75977H16.7487V9.20072H17.1896V8.75977ZM17.1896 3.27095H17.6306V2.82999H17.1896V3.27095ZM15.4937 3.27095H15.0528V3.71191H15.4937V3.27095ZM15.4937 2.42301V1.98205H15.0528V2.42301H15.4937ZM19.9158 2.42301H19.4748V3.27095H19.9158H20.3567V2.42301H19.9158ZM19.9158 3.27095V2.82999H18.229V3.27095V3.71191H19.9158V3.27095ZM18.229 3.27095H17.7881V8.75977H18.229H18.67V3.27095H18.229ZM18.229 8.75977V8.31881H17.1896V8.75977V9.20072H18.229V8.75977ZM17.1896 8.75977H17.6306V3.27095H17.1896H16.7487V8.75977H17.1896ZM17.1896 3.27095V2.82999H15.4937V3.27095V3.71191H17.1896V3.27095ZM15.4937 3.27095H15.9347V2.42301H15.4937H15.0528V3.27095H15.4937ZM15.4937 2.42301V2.86397H19.9158V2.42301V1.98205H15.4937V2.42301ZM22.2267 8.4133L22.0089 8.79678L22.0145 8.79987L22.2267 8.4133ZM21.0505 7.25536L20.6679 7.47466L20.6711 7.48016L21.0505 7.25536ZM21.0505 3.90918L20.6711 3.68437L20.6691 3.68788L21.0505 3.90918ZM22.2267 2.76036L22.4408 3.14583L22.4424 3.14494L22.2267 2.76036ZM25.4908 2.76036L25.273 3.14384L25.2786 3.14693L25.4908 2.76036ZM26.667 3.90918L26.2856 4.13049V4.13049L26.667 3.90918ZM26.667 7.25536L27.0484 7.47667L27.0495 7.47463L26.667 7.25536ZM25.4908 8.4133L25.7049 8.79876L25.7065 8.79787L25.4908 8.4133ZM24.9802 7.6383L25.1998 8.02075L25.205 8.01765L24.9802 7.6383ZM25.7461 6.81771L25.3557 6.6126L25.3544 6.61512L25.7461 6.81771ZM25.7461 4.34683L25.3544 4.54943L25.3572 4.55469L25.7461 4.34683ZM24.9802 3.53536L24.7607 3.91778V3.91778L24.9802 3.53536ZM22.7373 3.53536L22.9568 3.91778V3.91778L22.7373 3.53536ZM21.9623 4.34683L21.5733 4.13895L21.5706 4.14424L21.9623 4.34683ZM21.9623 6.81771L21.5691 7.01761L21.5734 7.02557L21.9623 6.81771ZM22.7373 7.6383L22.5124 8.01768L22.5177 8.02072L22.7373 7.6383ZM23.8587 8.82359V8.38263C23.3404 8.38263 22.8698 8.26322 22.4388 8.02672L22.2267 8.4133L22.0145 8.79987C22.5804 9.11042 23.1978 9.26455 23.8587 9.26455V8.82359ZM22.2267 8.4133L22.4444 8.02986C22.0196 7.78859 21.6829 7.45761 21.4299 7.03055L21.0505 7.25536L20.6711 7.48016C21.0016 8.03781 21.4491 8.47879 22.0089 8.79673L22.2267 8.4133ZM21.0505 7.25536L21.4331 7.03608C21.1887 6.60965 21.0629 6.12706 21.0629 5.57771H20.622H20.181C20.181 6.26836 20.341 6.9042 20.6679 7.47463L21.0505 7.25536ZM20.622 5.57771H21.0629C21.0629 5.0283 21.1887 4.54969 21.4319 4.13049L21.0505 3.90918L20.6691 3.68788C20.341 4.25338 20.181 4.88713 20.181 5.57771H20.622ZM21.0505 3.90918L21.4299 4.13398C21.6824 3.70775 22.018 3.38075 22.4408 3.14583L22.2267 2.76036L22.0125 2.3749C21.4507 2.68703 21.0021 3.12592 20.6711 3.68438L21.0505 3.90918ZM22.2267 2.76036L22.4424 3.14494C22.8728 2.9035 23.3422 2.78191 23.8587 2.78191V2.34095V1.89999C23.1961 1.89999 22.5774 2.05801 22.0109 2.37578L22.2267 2.76036ZM23.8587 2.34095V2.78191C24.3822 2.78191 24.8506 2.90388 25.273 3.1438L25.4908 2.76036L25.7085 2.37692C25.1463 2.05763 24.5266 1.89999 23.8587 1.89999V2.34095ZM25.4908 2.76036L25.2786 3.14693C25.7066 3.38177 26.0401 3.70753 26.2856 4.13049L26.667 3.90918L27.0484 3.68788C26.7224 3.12614 26.2719 2.68601 25.7029 2.37379L25.4908 2.76036ZM26.667 3.90918L26.2856 4.13049C26.5288 4.54969 26.6545 5.0283 26.6545 5.57771H27.0955H27.5364C27.5364 4.88713 27.3765 4.25338 27.0484 3.68788L26.667 3.90918ZM27.0955 5.57771H26.6545C26.6545 6.12706 26.5288 6.60965 26.2844 7.03608L26.667 7.25536L27.0495 7.47463C27.3765 6.9042 27.5364 6.26836 27.5364 5.57771H27.0955ZM26.667 7.25536L26.2856 7.03405C26.0397 7.45785 25.7049 7.78756 25.2751 8.02872L25.4908 8.4133L25.7065 8.79787C26.2735 8.47981 26.7229 8.03757 27.0484 7.47666L26.667 7.25536ZM25.4908 8.4133L25.2766 8.02783C24.8536 8.26286 24.3839 8.38263 23.8587 8.38263V8.82359V9.26455C24.5249 9.26455 25.1433 9.11079 25.7049 8.79876L25.4908 8.4133ZM23.8587 7.92094V8.3619C24.3466 8.3619 24.7977 8.25154 25.1997 8.02072L24.9802 7.6383L24.7607 7.25588C24.5063 7.40192 24.2096 7.47999 23.8587 7.47999V7.92094ZM24.9802 7.6383L25.205 8.01765C25.6073 7.77927 25.919 7.44313 26.1377 7.0203L25.7461 6.81771L25.3544 6.61512C25.2084 6.89739 25.0096 7.10831 24.7554 7.25894L24.9802 7.6383ZM25.7461 6.81771L26.1364 7.02281C26.3629 6.59174 26.4697 6.10605 26.4697 5.57771H26.0287H25.5878C25.5878 5.98545 25.5061 6.32642 25.3557 6.61261L25.7461 6.81771ZM26.0287 5.57771H26.4697C26.4697 5.04957 26.363 4.56559 26.135 4.13897L25.7461 4.34683L25.3572 4.55469C25.506 4.83316 25.5878 5.16977 25.5878 5.57771H26.0287ZM25.7461 4.34683L26.1377 4.14424C25.9185 3.72032 25.6051 3.38565 25.1997 3.15294L24.9802 3.53536L24.7607 3.91778C25.0118 4.06193 25.209 4.26824 25.3544 4.54942L25.7461 4.34683ZM24.9802 3.53536L25.1997 3.15294C24.7977 2.92212 24.3466 2.81176 23.8587 2.81176V3.25271V3.69367C24.2096 3.69367 24.5063 3.77174 24.7607 3.91778L24.9802 3.53536ZM23.8587 3.25271V2.81176C23.3708 2.81176 22.9198 2.92212 22.5177 3.15294L22.7373 3.53536L22.9568 3.91778C23.2112 3.77174 23.5078 3.69367 23.8587 3.69367V3.25271ZM22.7373 3.53536L22.5177 3.15294C22.1137 3.38489 21.7985 3.7178 21.5734 4.13897L21.9623 4.34683L22.3512 4.55469C22.5029 4.27076 22.7044 4.0627 22.9568 3.91778L22.7373 3.53536ZM21.9623 4.34683L21.5706 4.14424C21.3505 4.56972 21.2478 5.05177 21.2478 5.57771H21.6887H22.1297C22.1297 5.16757 22.2093 4.82904 22.3539 4.54942L21.9623 4.34683ZM21.6887 5.57771H21.2478C21.2478 6.10386 21.3506 6.58764 21.5692 7.01757L21.9623 6.81771L22.3553 6.61785C22.2092 6.33052 22.1297 5.98764 22.1297 5.57771H21.6887ZM21.9623 6.81771L21.5734 7.02557C21.7979 7.44566 22.1115 7.78004 22.5125 8.01765L22.7373 7.6383L22.9621 7.25894C22.7066 7.10753 22.5035 6.89486 22.3512 6.60985L21.9623 6.81771ZM22.7373 7.6383L22.5177 8.02072C22.9198 8.25154 23.3708 8.3619 23.8587 8.3619V7.92094V7.47999C23.5078 7.47999 23.2112 7.40192 22.9568 7.25588L22.7373 7.6383ZM34.5806 2.42301H35.0215V1.98205H34.5806V2.42301ZM34.5806 3.27095V3.71191H35.0215V3.27095H34.5806ZM32.8938 3.27095V2.82999H32.4529V3.27095H32.8938ZM32.8938 8.75977V9.20072H33.3348V8.75977H32.8938ZM31.8544 8.75977H31.4134V9.20072H31.8544V8.75977ZM31.8544 3.27095H32.2954V2.82999H31.8544V3.27095ZM30.1585 3.27095H29.7176V3.71191H30.1585V3.27095ZM30.1585 2.42301V1.98205H29.7176V2.42301H30.1585ZM34.5806 2.42301H34.1396V3.27095H34.5806H35.0215V2.42301H34.5806ZM34.5806 3.27095V2.82999H32.8938V3.27095V3.71191H34.5806V3.27095ZM32.8938 3.27095H32.4529V8.75977H32.8938H33.3348V3.27095H32.8938ZM32.8938 8.75977V8.31881H31.8544V8.75977V9.20072H32.8938V8.75977ZM31.8544 8.75977H32.2954V3.27095H31.8544H31.4134V8.75977H31.8544ZM31.8544 3.27095V2.82999H30.1585V3.27095V3.71191H31.8544V3.27095ZM30.1585 3.27095H30.5995V2.42301H30.1585H29.7176V3.27095H30.1585ZM30.1585 2.42301V2.86397H34.5806V2.42301V1.98205H30.1585V2.42301ZM36.6726 3.26183V2.82087H36.2317V3.26183H36.6726ZM36.6726 5.12183H36.2317V5.56279H36.6726V5.12183ZM38.8609 5.12183H39.3018V4.68087H38.8609V5.12183ZM38.8609 5.96977V6.41073H39.3018V5.96977H38.8609ZM36.6726 5.96977V5.52881H36.2317V5.96977H36.6726ZM36.6726 7.91183H36.2317V8.35278H36.6726V7.91183ZM39.1344 7.91183H39.5754V7.47087H39.1344V7.91183ZM39.1344 8.75977V9.20072H39.5754V8.75977H39.1344ZM35.6332 8.75977H35.1923V9.20072H35.6332V8.75977ZM35.6332 2.41389V1.97293H35.1923V2.41389H35.6332ZM39.1344 2.41389H39.5754V1.97293H39.1344V2.41389ZM39.1344 3.26183V3.70279H39.5754V3.26183H39.1344ZM36.6726 3.26183H36.2317V5.12183H36.6726H37.1136V3.26183H36.6726ZM36.6726 5.12183V5.56279H38.8609V5.12183V4.68087H36.6726V5.12183ZM38.8609 5.12183H38.4199V5.96977H38.8609H39.3018V5.12183H38.8609ZM38.8609 5.96977V5.52881H36.6726V5.96977V6.41073H38.8609V5.96977ZM36.6726 5.96977H36.2317V7.91183H36.6726H37.1136V5.96977H36.6726ZM36.6726 7.91183V8.35278H39.1344V7.91183V7.47087H36.6726V7.91183ZM39.1344 7.91183H38.6934V8.75977H39.1344H39.5754V7.91183H39.1344ZM39.1344 8.75977V8.31881H35.6332V8.75977V9.20072H39.1344V8.75977ZM35.6332 8.75977H36.0742V2.41389H35.6332H35.1923V8.75977H35.6332ZM35.6332 2.41389V2.85485H39.1344V2.41389V1.97293H35.6332V2.41389ZM39.1344 2.41389H38.6934V3.26183H39.1344H39.5754V2.41389H39.1344ZM39.1344 3.26183V2.82087H36.6726V3.26183V3.70279H39.1344V3.26183ZM40.4967 3.90918L40.1173 3.68437L40.1153 3.68788L40.4967 3.90918ZM41.6729 2.76036L41.887 3.14583L41.8886 3.14494L41.6729 2.76036ZM45.1011 2.84242L44.8635 3.21394L44.8686 3.21707L45.1011 2.84242ZM46.2499 4.24654V4.68749H46.8952L46.6608 4.08632L46.2499 4.24654ZM45.0008 4.24654L44.605 4.44085L44.7261 4.68749H45.0008V4.24654ZM44.317 3.49889L44.5332 3.11456V3.11456L44.317 3.49889ZM42.1835 3.53536L42.403 3.91778V3.91778L42.1835 3.53536ZM41.4085 4.34683L41.0195 4.13895L41.0168 4.14424L41.4085 4.34683ZM41.4085 6.80859L41.0168 7.0112L41.0196 7.01645L41.4085 6.80859ZM42.1835 7.62918L41.9586 8.00857L41.9639 8.0116L42.1835 7.62918ZM44.317 7.66565L44.5332 8.04998V8.04998L44.317 7.66565ZM45.0008 6.918V6.47705H44.7261L44.605 6.72369L45.0008 6.918ZM46.2499 6.918L46.6608 7.07822L46.8952 6.47705H46.2499V6.918ZM45.1011 8.32212L44.8686 7.94746L44.8666 7.94868L45.1011 8.32212ZM41.6729 8.40418L41.4551 8.78763L41.4587 8.78964L41.6729 8.40418ZM40.4967 7.24624L40.1153 7.46755L40.1174 7.47104L40.4967 7.24624ZM40.0682 5.57771H40.5091C40.5091 5.0283 40.6349 4.54969 40.8781 4.13049L40.4967 3.90918L40.1153 3.68788C39.7872 4.25338 39.6272 4.88713 39.6272 5.57771H40.0682ZM40.4967 3.90918L40.8761 4.13398C41.1286 3.70775 41.4642 3.38075 41.887 3.14583L41.6729 2.76036L41.4587 2.3749C40.8969 2.68703 40.4483 3.12592 40.1174 3.68438L40.4967 3.90918ZM41.6729 2.76036L41.8886 3.14494C42.319 2.9035 42.7884 2.78191 43.3049 2.78191V2.34095V1.89999C42.6423 1.89999 42.0236 2.05801 41.4571 2.37578L41.6729 2.76036ZM43.3049 2.34095V2.78191C43.9031 2.78191 44.4179 2.92891 44.8635 3.2139L45.1011 2.84242L45.3387 2.47094C44.7388 2.0873 44.0562 1.89999 43.3049 1.89999V2.34095ZM45.1011 2.84242L44.8686 3.21707C45.3122 3.49246 45.6349 3.88321 45.8391 4.40675L46.2499 4.24654L46.6608 4.08632C46.3908 3.39418 45.9476 2.84885 45.3337 2.46776L45.1011 2.84242ZM46.2499 4.24654V3.80558H45.0008V4.24654V4.68749H46.2499V4.24654ZM45.0008 4.24654L45.3966 4.05222C45.1978 3.64724 44.9113 3.32725 44.5332 3.11456L44.317 3.49889L44.1008 3.88322C44.3062 3.99876 44.4756 4.1772 44.605 4.44085L45.0008 4.24654ZM44.317 3.49889L44.5332 3.11456C44.1664 2.90825 43.7526 2.81176 43.3049 2.81176V3.25271V3.69367C43.6232 3.69367 43.8841 3.76129 44.1008 3.88322L44.317 3.49889ZM43.3049 3.25271V2.81176C42.817 2.81176 42.366 2.92212 41.9639 3.15294L42.1835 3.53536L42.403 3.91778C42.6574 3.77174 42.954 3.69367 43.3049 3.69367V3.25271ZM42.1835 3.53536L41.9639 3.15294C41.5599 3.38489 41.2447 3.7178 41.0196 4.13897L41.4085 4.34683L41.7974 4.55469C41.9491 4.27076 42.1506 4.0627 42.403 3.91778L42.1835 3.53536ZM41.4085 4.34683L41.0168 4.14424C40.7967 4.56972 40.694 5.05177 40.694 5.57771H41.1349H41.5759C41.5759 5.16757 41.6555 4.82904 41.8001 4.54942L41.4085 4.34683ZM41.1349 5.57771H40.694C40.694 6.10365 40.7967 6.5857 41.0168 7.01118L41.4085 6.80859L41.8001 6.60601C41.6555 6.32638 41.5759 5.98785 41.5759 5.57771H41.1349ZM41.4085 6.80859L41.0196 7.01645C41.2441 7.43654 41.5577 7.77093 41.9587 8.00853L42.1835 7.62918L42.4083 7.24983C42.1528 7.09841 41.9497 6.88574 41.7974 6.60073L41.4085 6.80859ZM42.1835 7.62918L41.9639 8.0116C42.366 8.24242 42.817 8.35278 43.3049 8.35278V7.91183V7.47087C42.954 7.47087 42.6574 7.3928 42.403 7.24676L42.1835 7.62918ZM43.3049 7.91183V8.35278C43.7526 8.35278 44.1664 8.25628 44.5332 8.04998L44.317 7.66565L44.1008 7.28132C43.8841 7.40325 43.6232 7.47087 43.3049 7.47087V7.91183ZM44.317 7.66565L44.5332 8.04998C44.9113 7.83729 45.1978 7.5173 45.3966 7.11232L45.0008 6.918L44.605 6.72369C44.4756 6.98734 44.3062 7.16578 44.1008 7.28132L44.317 7.66565ZM45.0008 6.918V7.35896H46.2499V6.918V6.47705H45.0008V6.918ZM46.2499 6.918L45.8391 6.75778C45.6349 7.28133 45.3122 7.67208 44.8686 7.94746L45.1011 8.32212L45.3337 8.69677C45.9476 8.31569 46.3908 7.77036 46.6608 7.07822L46.2499 6.918ZM45.1011 8.32212L44.8666 7.94868C44.4206 8.22873 43.9047 8.37351 43.3049 8.37351V8.81447V9.25543C44.0546 9.25543 44.7361 9.07198 45.3356 8.69556L45.1011 8.32212ZM43.3049 8.81447V8.37351C42.7797 8.37351 42.3101 8.25374 41.887 8.01871L41.6729 8.40418L41.4587 8.78964C42.0204 9.10168 42.6388 9.25543 43.3049 9.25543V8.81447ZM41.6729 8.40418L41.8906 8.02074C41.4658 7.77947 41.1291 7.44849 40.8761 7.02144L40.4967 7.24624L40.1174 7.47104C40.4478 8.02869 40.8953 8.46967 41.4551 8.78762L41.6729 8.40418ZM40.4967 7.24624L40.8781 7.02493C40.6349 6.60573 40.5091 6.12712 40.5091 5.57771H40.0682H39.6272C39.6272 6.2683 39.7872 6.90204 40.1153 7.46754L40.4967 7.24624ZM52.5269 2.42301H52.9678V1.98205H52.5269V2.42301ZM52.5269 8.75977V9.20072H52.9678V8.75977H52.5269ZM51.4874 8.75977H51.0465V9.20072H51.4874V8.75977ZM51.4874 5.988H51.9284V5.54705H51.4874V5.988ZM48.506 5.988V5.54705H48.065V5.988H48.506ZM48.506 8.75977V9.20072H48.9469V8.75977H48.506ZM47.4666 8.75977H47.0256V9.20072H47.4666V8.75977ZM47.4666 2.42301V1.98205H47.0256V2.42301H47.4666ZM48.506 2.42301H48.9469V1.98205H48.506V2.42301ZM48.506 5.14006H48.065V5.58102H48.506V5.14006ZM51.4874 5.14006V5.58102H51.9284V5.14006H51.4874ZM51.4874 2.42301V1.98205H51.0465V2.42301H51.4874ZM52.5269 2.42301H52.0859V8.75977H52.5269H52.9678V2.42301H52.5269ZM52.5269 8.75977V8.31881H51.4874V8.75977V9.20072H52.5269V8.75977ZM51.4874 8.75977H51.9284V5.988H51.4874H51.0465V8.75977H51.4874ZM51.4874 5.988V5.54705H48.506V5.988V6.42896H51.4874V5.988ZM48.506 5.988H48.065V8.75977H48.506H48.9469V5.988H48.506ZM48.506 8.75977V8.31881H47.4666V8.75977V9.20072H48.506V8.75977ZM47.4666 8.75977H47.9075V2.42301H47.4666H47.0256V8.75977H47.4666ZM47.4666 2.42301V2.86397H48.506V2.42301V1.98205H47.4666V2.42301ZM48.506 2.42301H48.065V5.14006H48.506H48.9469V2.42301H48.506ZM48.506 5.14006V5.58102H51.4874V5.14006V4.69911H48.506V5.14006ZM51.4874 5.14006H51.9284V2.42301H51.4874H51.0465V5.14006H51.4874ZM51.4874 2.42301V2.86397H52.5269V2.42301V1.98205H51.4874V2.42301ZM7.42612 17.2221L7.03681 17.015V17.015L7.42612 17.2221ZM6.6967 17.9242L6.90239 18.3143L6.90786 18.3113L6.6967 17.9242ZM4.2623 18.1886V17.7476H3.82134V18.1886H4.2623ZM4.2623 20.7598V21.2007H4.70325V20.7598H4.2623ZM3.22289 20.7598H2.78193V21.2007H3.22289V20.7598ZM3.22289 14.423V13.9821H2.78193V14.423H3.22289ZM6.642 14.6783L6.4419 15.0714L6.45049 15.0755L6.642 14.6783ZM7.39876 15.353L7.01636 15.5727L7.01994 15.5787L7.39876 15.353ZM6.29553 17.0762L6.59168 17.403L6.59712 17.3979L6.29553 17.0762ZM4.2623 15.2709V14.83H3.82134V15.2709H4.2623ZM4.2623 17.3407H3.82134V17.7816H4.2623V17.3407ZM7.65406 16.3104H7.2131C7.2131 16.56 7.15501 16.7928 7.03681 17.015L7.42612 17.2221L7.81542 17.4292C8.00114 17.0801 8.09501 16.7051 8.09501 16.3104H7.65406ZM7.42612 17.2221L7.03681 17.015C6.93208 17.2119 6.75781 17.3886 6.48555 17.5371L6.6967 17.9242L6.90786 18.3113C7.30423 18.0951 7.61623 17.8037 7.81542 17.4292L7.42612 17.2221ZM6.6967 17.9242L6.49104 17.5341C6.23971 17.6666 5.8882 17.7476 5.41112 17.7476V18.1886V18.6295C5.97952 18.6295 6.48507 18.5343 6.90237 18.3142L6.6967 17.9242ZM5.41112 18.1886V17.7476H4.2623V18.1886V18.6295H5.41112V18.1886ZM4.2623 18.1886H3.82134V20.7598H4.2623H4.70325V18.1886H4.2623ZM4.2623 20.7598V20.3188H3.22289V20.7598V21.2007H4.2623V20.7598ZM3.22289 20.7598H3.66384V14.423H3.22289H2.78193V20.7598H3.22289ZM3.22289 14.423V14.864H5.41112V14.423V13.9821H3.22289V14.423ZM5.41112 14.423V14.864C5.84777 14.864 6.18519 14.9406 6.44194 15.0713L6.642 14.6783L6.84205 14.2853C6.43018 14.0757 5.94702 13.9821 5.41112 13.9821V14.423ZM6.642 14.6783L6.45049 15.0755C6.72297 15.2069 6.90283 15.3749 7.01641 15.5727L7.39876 15.353L7.78112 15.1334C7.56646 14.7597 7.24181 14.478 6.83351 14.2811L6.642 14.6783ZM7.39876 15.353L7.01994 15.5787C7.147 15.792 7.2131 16.0323 7.2131 16.3104H7.65406H8.09501C8.09501 15.8833 7.99092 15.4854 7.77759 15.1273L7.39876 15.353ZM5.41112 17.3407V17.7816C5.86189 17.7816 6.28346 17.6823 6.59164 17.403L6.29553 17.0762L5.99942 16.7495C5.91858 16.8228 5.75054 16.8997 5.41112 16.8997V17.3407ZM6.29553 17.0762L6.59712 17.3979C6.90042 17.1136 7.02825 16.7303 7.02825 16.3104H6.58729H6.14634C6.14634 16.5469 6.07966 16.6742 5.99394 16.7545L6.29553 17.0762ZM6.58729 16.3104H7.02825C7.02825 15.8808 6.90422 15.4823 6.58525 15.2004C6.27667 14.9277 5.85866 14.83 5.41112 14.83V15.2709V15.7119C5.7477 15.7119 5.91777 15.7874 6.00125 15.8612C6.07433 15.9258 6.14634 16.047 6.14634 16.3104H6.58729ZM5.41112 15.2709V14.83H4.2623V15.2709V15.7119H5.41112V15.2709ZM4.2623 15.2709H3.82134V17.3407H4.2623H4.70325V15.2709H4.2623ZM4.2623 17.3407V17.7816H5.41112V17.3407V16.8997H4.2623V17.3407ZM11.9369 20.7598L11.5547 20.9797L11.6819 21.2007H11.9369V20.7598ZM10.478 18.2251L10.8602 18.0051L10.733 17.7841H10.478V18.2251ZM9.6848 18.2251V17.7841H9.24384V18.2251H9.6848ZM9.6848 20.7598V21.2007H10.1258V20.7598H9.6848ZM8.64539 20.7598H8.20443V21.2007H8.64539V20.7598ZM8.64539 14.423V13.9821H8.20443V14.423H8.64539ZM12.0645 14.6783L11.8644 15.0713L11.8673 15.0727L12.0645 14.6783ZM12.8213 15.3621L12.4389 15.5818L12.4424 15.5878L12.8213 15.3621ZM12.7119 17.4501L12.353 17.1938L12.3521 17.195L12.7119 17.4501ZM11.6086 18.1339L11.5041 17.7055L10.9237 17.8471L11.23 18.36L11.6086 18.1339ZM13.1769 20.7598V21.2007H13.9538L13.5554 20.5337L13.1769 20.7598ZM9.6848 17.3954H9.24384V17.8363H9.6848V17.3954ZM11.7089 17.1036L11.4019 16.787L11.3971 16.7918L11.7089 17.1036ZM11.718 15.5536L11.4112 15.8703L11.4164 15.8753L11.718 15.5536ZM9.6848 15.2709V14.83H9.24384V15.2709H9.6848ZM11.9369 20.7598L12.319 20.5398L10.8602 18.0051L10.478 18.2251L10.0959 18.445L11.5547 20.9797L11.9369 20.7598ZM10.478 18.2251V17.7841H9.6848V18.2251V18.666H10.478V18.2251ZM9.6848 18.2251H9.24384V20.7598H9.6848H10.1258V18.2251H9.6848ZM9.6848 20.7598V20.3188H8.64539V20.7598V21.2007H9.6848V20.7598ZM8.64539 20.7598H9.08634V14.423H8.64539H8.20443V20.7598H8.64539ZM8.64539 14.423V14.864H10.8336V14.423V13.9821H8.64539V14.423ZM10.8336 14.423V14.864C11.2703 14.864 11.6077 14.9406 11.8644 15.0713L12.0645 14.6783L12.2646 14.2853C11.8527 14.0757 11.3695 13.9821 10.8336 13.9821V14.423ZM12.0645 14.6783L11.8673 15.0727C12.1425 15.2103 12.3244 15.3824 12.4389 15.5818L12.8213 15.3621L13.2036 15.1425C12.9899 14.7705 12.6673 14.4867 12.2617 14.2839L12.0645 14.6783ZM12.8213 15.3621L12.4424 15.5878C12.5695 15.8011 12.6356 16.0414 12.6356 16.3195H13.0766H13.5175C13.5175 15.8925 13.4134 15.4945 13.2001 15.1364L12.8213 15.3621ZM13.0766 16.3195H12.6356C12.6356 16.6397 12.5434 16.9272 12.353 17.1938L12.7119 17.4501L13.0707 17.7064C13.3665 17.2922 13.5175 16.8259 13.5175 16.3195H13.0766ZM12.7119 17.4501L12.3521 17.195C12.1908 17.4225 11.9263 17.6025 11.5041 17.7055L11.6086 18.1339L11.7131 18.5623C12.2878 18.4221 12.7588 18.1462 13.0716 17.7051L12.7119 17.4501ZM11.6086 18.1339L11.23 18.36L12.7983 20.9859L13.1769 20.7598L13.5554 20.5337L11.9872 17.9078L11.6086 18.1339ZM13.1769 20.7598V20.3188H11.9369V20.7598V21.2007H13.1769V20.7598ZM9.6848 17.3954V17.8363H10.8336V17.3954V16.9544H9.6848V17.3954ZM10.8336 17.3954V17.8363C11.2906 17.8363 11.7143 17.7218 12.0207 17.4154L11.7089 17.1036L11.3971 16.7918C11.3145 16.8744 11.1547 16.9544 10.8336 16.9544V17.3954ZM11.7089 17.1036L12.0159 17.4202C12.3171 17.1281 12.4508 16.7444 12.4508 16.3195H12.0098H11.5688C11.5688 16.551 11.5019 16.6901 11.4019 16.787L11.7089 17.1036ZM12.0098 16.3195H12.4508C12.4508 15.8996 12.3229 15.5162 12.0196 15.2319L11.718 15.5536L11.4164 15.8753C11.5022 15.9557 11.5688 16.0829 11.5688 16.3195H12.0098ZM11.718 15.5536L12.0248 15.2369C11.7169 14.9386 11.291 14.83 10.8336 14.83V15.2709V15.7119C11.1664 15.7119 11.3301 15.7917 11.4112 15.8703L11.718 15.5536ZM10.8336 15.2709V14.83H9.6848V15.2709V15.7119H10.8336V15.2709ZM9.6848 15.2709H9.24384V17.3954H9.6848H10.1258V15.2709H9.6848ZM15.4456 14.423H15.8866V13.9821H15.4456V14.423ZM15.4456 20.7598V21.2007H15.8866V20.7598H15.4456ZM14.4062 20.7598H13.9653V21.2007H14.4062V20.7598ZM14.4062 14.423V13.9821H13.9653V14.423H14.4062ZM15.4456 14.423H15.0047V20.7598H15.4456H15.8866V14.423H15.4456ZM15.4456 20.7598V20.3188H14.4062V20.7598V21.2007H15.4456V20.7598ZM14.4062 20.7598H14.8472V14.423H14.4062H13.9653V20.7598H14.4062ZM14.4062 14.423V14.864H15.4456V14.423V13.9821H14.4062V14.423ZM22.2718 14.423L22.6846 14.578L22.9084 13.9821H22.2718V14.423ZM19.8921 20.7598V21.2007H20.1975L20.3049 20.9148L19.8921 20.7598ZM18.6885 20.7598L18.2759 20.9153L18.3835 21.2007H18.6885V20.7598ZM16.2997 14.423V13.9821H15.6622L15.8871 14.5786L16.2997 14.423ZM17.4121 14.423L17.8274 14.275L17.723 13.9821H17.4121V14.423ZM19.2903 19.693L18.8749 19.841L19.2893 21.0037L19.7054 19.8417L19.2903 19.693ZM21.1776 14.423V13.9821H20.8672L20.7625 14.2743L21.1776 14.423ZM22.2718 14.423L21.859 14.268L19.4793 20.6047L19.8921 20.7598L20.3049 20.9148L22.6846 14.578L22.2718 14.423ZM19.8921 20.7598V20.3188H18.6885V20.7598V21.2007H19.8921V20.7598ZM18.6885 20.7598L19.1011 20.6042L16.7123 14.2675L16.2997 14.423L15.8871 14.5786L18.2759 20.9153L18.6885 20.7598ZM16.2997 14.423V14.864H17.4121V14.423V13.9821H16.2997V14.423ZM17.4121 14.423L16.9967 14.571L18.8749 19.841L19.2903 19.693L19.7057 19.545L17.8274 14.275L17.4121 14.423ZM19.2903 19.693L19.7054 19.8417L21.5928 14.5717L21.1776 14.423L20.7625 14.2743L18.8752 19.5443L19.2903 19.693ZM21.1776 14.423V14.864H22.2718V14.423V13.9821H21.1776V14.423ZM26.9613 19.4651L27.3772 19.3186L27.2735 19.0241H26.9613V19.4651ZM24.3081 19.4651V19.0241H23.9958L23.8921 19.3186L24.3081 19.4651ZM23.8522 20.7598V21.2007H24.1644L24.2681 20.9062L23.8522 20.7598ZM22.7672 20.7598L22.352 20.6112L22.1411 21.2007H22.7672V20.7598ZM25.0375 14.4139V13.9729H24.7269L24.6223 14.2654L25.0375 14.4139ZM26.241 14.4139L26.6562 14.2654L26.5516 13.9729H26.241V14.4139ZM28.5113 20.7598V21.2007H29.1374L28.9265 20.6112L28.5113 20.7598ZM27.4172 20.7598L27.0012 20.9062L27.1049 21.2007H27.4172V20.7598ZM26.6695 18.6171V19.0581H27.291L27.0857 18.4715L26.6695 18.6171ZM25.6392 15.6721L26.0555 15.5265L25.6411 14.342L25.2234 15.5254L25.6392 15.6721ZM24.5998 18.6171L24.184 18.4704L23.9766 19.0581H24.5998V18.6171ZM26.9613 19.4651V19.0241H24.3081V19.4651V19.906H26.9613V19.4651ZM24.3081 19.4651L23.8921 19.3186L23.4363 20.6133L23.8522 20.7598L24.2681 20.9062L24.724 19.6115L24.3081 19.4651ZM23.8522 20.7598V20.3188H22.7672V20.7598V21.2007H23.8522V20.7598ZM22.7672 20.7598L23.1824 20.9083L25.4527 14.5624L25.0375 14.4139L24.6223 14.2654L22.352 20.6112L22.7672 20.7598ZM25.0375 14.4139V14.8548H26.241V14.4139V13.9729H25.0375V14.4139ZM26.241 14.4139L25.8258 14.5624L28.0961 20.9083L28.5113 20.7598L28.9265 20.6112L26.6562 14.2654L26.241 14.4139ZM28.5113 20.7598V20.3188H27.4172V20.7598V21.2007H28.5113V20.7598ZM27.4172 20.7598L27.8331 20.6133L27.3772 19.3186L26.9613 19.4651L26.5454 19.6115L27.0012 20.9062L27.4172 20.7598ZM26.6695 18.6171L27.0857 18.4715L26.0555 15.5265L25.6392 15.6721L25.223 15.8177L26.2533 18.7627L26.6695 18.6171ZM25.6392 15.6721L25.2234 15.5254L24.184 18.4704L24.5998 18.6171L25.0156 18.7639L26.0551 15.8189L25.6392 15.6721ZM24.5998 18.6171V19.0581H26.6695V18.6171V18.1762H24.5998V18.6171ZM33.5922 14.423H34.0332V13.9821H33.5922V14.423ZM33.5922 15.2709V15.7119H34.0332V15.2709H33.5922ZM31.9055 15.2709V14.83H31.4645V15.2709H31.9055ZM31.9055 20.7598V21.2007H32.3464V20.7598H31.9055ZM30.8661 20.7598H30.4251V21.2007H30.8661V20.7598ZM30.8661 15.2709H31.307V14.83H30.8661V15.2709ZM29.1702 15.2709H28.7292V15.7119H29.1702V15.2709ZM29.1702 14.423V13.9821H28.7292V14.423H29.1702ZM33.5922 14.423H33.1513V15.2709H33.5922H34.0332V14.423H33.5922ZM33.5922 15.2709V14.83H31.9055V15.2709V15.7119H33.5922V15.2709ZM31.9055 15.2709H31.4645V20.7598H31.9055H32.3464V15.2709H31.9055ZM31.9055 20.7598V20.3188H30.8661V20.7598V21.2007H31.9055V20.7598ZM30.8661 20.7598H31.307V15.2709H30.8661H30.4251V20.7598H30.8661ZM30.8661 15.2709V14.83H29.1702V15.2709V15.7119H30.8661V15.2709ZM29.1702 15.2709H29.6111V14.423H29.1702H28.7292V15.2709H29.1702ZM29.1702 14.423V14.864H33.5922V14.423V13.9821H29.1702V14.423ZM35.6843 15.2618V14.8209H35.2433V15.2618H35.6843ZM35.6843 17.1218H35.2433V17.5628H35.6843V17.1218ZM37.8725 17.1218H38.3135V16.6809H37.8725V17.1218ZM37.8725 17.9698V18.4107H38.3135V17.9698H37.8725ZM35.6843 17.9698V17.5288H35.2433V17.9698H35.6843ZM35.6843 19.9118H35.2433V20.3528H35.6843V19.9118ZM38.1461 19.9118H38.587V19.4709H38.1461V19.9118ZM38.1461 20.7598V21.2007H38.587V20.7598H38.1461ZM34.6449 20.7598H34.2039V21.2007H34.6449V20.7598ZM34.6449 14.4139V13.9729H34.2039V14.4139H34.6449ZM38.1461 14.4139H38.587V13.9729H38.1461V14.4139ZM38.1461 15.2618V15.7028H38.587V15.2618H38.1461ZM35.6843 15.2618H35.2433V17.1218H35.6843H36.1253V15.2618H35.6843ZM35.6843 17.1218V17.5628H37.8725V17.1218V16.6809H35.6843V17.1218ZM37.8725 17.1218H37.4316V17.9698H37.8725H38.3135V17.1218H37.8725ZM37.8725 17.9698V17.5288H35.6843V17.9698V18.4107H37.8725V17.9698ZM35.6843 17.9698H35.2433V19.9118H35.6843H36.1253V17.9698H35.6843ZM35.6843 19.9118V20.3528H38.1461V19.9118V19.4709H35.6843V19.9118ZM38.1461 19.9118H37.7051V20.7598H38.1461H38.587V19.9118H38.1461ZM38.1461 20.7598V20.3188H34.6449V20.7598V21.2007H38.1461V20.7598ZM34.6449 20.7598H35.0858V14.4139H34.6449H34.2039V20.7598H34.6449ZM34.6449 14.4139V14.8548H38.1461V14.4139V13.9729H34.6449V14.4139ZM38.1461 14.4139H37.7051V15.2618H38.1461H38.587V14.4139H38.1461ZM38.1461 15.2618V14.8209H35.6843V15.2618V15.7028H38.1461V15.2618ZM42.8342 19.9209H42.3932V20.3619H42.8342V19.9209ZM44.9768 19.9209H45.4178V19.48H44.9768V19.9209ZM44.9768 20.7598V21.2007H45.4178V20.7598H44.9768ZM41.7948 20.7598H41.3538V21.2007H41.7948V20.7598ZM41.7948 14.423V13.9821H41.3538V14.423H41.7948ZM42.8342 14.423H43.2751V13.9821H42.8342V14.423ZM42.8342 19.9209V20.3619H44.9768V19.9209V19.48H42.8342V19.9209ZM44.9768 19.9209H44.5359V20.7598H44.9768H45.4178V19.9209H44.9768ZM44.9768 20.7598V20.3188H41.7948V20.7598V21.2007H44.9768V20.7598ZM41.7948 20.7598H42.2357V14.423H41.7948H41.3538V20.7598H41.7948ZM41.7948 14.423V14.864H42.8342V14.423V13.9821H41.7948V14.423ZM42.8342 14.423H42.3932V19.9209H42.8342H43.2751V14.423H42.8342ZM46.8855 14.423H47.3264V13.9821H46.8855V14.423ZM46.8855 20.7598V21.2007H47.3264V20.7598H46.8855ZM45.8461 20.7598H45.4051V21.2007H45.8461V20.7598ZM45.8461 14.423V13.9821H45.4051V14.423H45.8461ZM46.8855 14.423H46.4445V20.7598H46.8855H47.3264V14.423H46.8855ZM46.8855 20.7598V20.3188H45.8461V20.7598V21.2007H46.8855V20.7598ZM45.8461 20.7598H46.287V14.423H45.8461H45.4051V20.7598H45.8461ZM45.8461 14.423V14.864H46.8855V14.423V13.9821H45.8461V14.423ZM54.9242 14.423H55.3652V13.9821H54.9242V14.423ZM54.9242 20.7598V21.2007H55.3652V20.7598H54.9242ZM53.8848 20.7598H53.4439V21.2007H53.8848V20.7598ZM53.8848 16.4198H54.3258L53.482 16.2404L53.8848 16.4198ZM51.9519 20.7598V21.2007H52.2382L52.3547 20.9392L51.9519 20.7598ZM51.2316 20.7598L50.8291 20.9399L50.9458 21.2007H51.2316V20.7598ZM49.2895 16.4198L49.692 16.2397L48.8486 16.4198H49.2895ZM49.2895 20.7598V21.2007H49.7305V20.7598H49.2895ZM48.2501 20.7598H47.8092V21.2007H48.2501V20.7598ZM48.2501 14.423V13.9821H47.8092V14.423H48.2501ZM49.3716 14.423L49.774 14.2428L49.6573 13.9821H49.3716V14.423ZM51.5963 19.3921L51.1938 19.5723L51.5971 20.4731L51.999 19.5717L51.5963 19.3921ZM53.8119 14.423V13.9821H53.5257L53.4091 14.2434L53.8119 14.423ZM54.9242 14.423H54.4833V20.7598H54.9242H55.3652V14.423H54.9242ZM54.9242 20.7598V20.3188H53.8848V20.7598V21.2007H54.9242V20.7598ZM53.8848 20.7598H54.3258V16.4198H53.8848H53.4439V20.7598H53.8848ZM53.8848 16.4198L53.482 16.2404L51.5491 20.5804L51.9519 20.7598L52.3547 20.9392L54.2876 16.5992L53.8848 16.4198ZM51.9519 20.7598V20.3188H51.2316V20.7598V21.2007H51.9519V20.7598ZM51.2316 20.7598L51.6341 20.5797L49.692 16.2397L49.2895 16.4198L48.887 16.5999L50.8291 20.9399L51.2316 20.7598ZM49.2895 16.4198H48.8486V20.7598H49.2895H49.7305V16.4198H49.2895ZM49.2895 20.7598V20.3188H48.2501V20.7598V21.2007H49.2895V20.7598ZM48.2501 20.7598H48.6911V14.423H48.2501H47.8092V20.7598H48.2501ZM48.2501 14.423V14.864H49.3716V14.423V13.9821H48.2501V14.423ZM49.3716 14.423L48.9691 14.6032L51.1938 19.5723L51.5963 19.3921L51.9987 19.2119L49.774 14.2428L49.3716 14.423ZM51.5963 19.3921L51.999 19.5717L54.2146 14.6026L53.8119 14.423L53.4091 14.2434L51.1936 19.2126L51.5963 19.3921ZM53.8119 14.423V14.864H54.9242V14.423V13.9821H53.8119V14.423ZM57.3298 14.423H57.7707V13.9821H57.3298V14.423ZM57.3298 20.7598V21.2007H57.7707V20.7598H57.3298ZM56.2904 20.7598H55.8494V21.2007H56.2904V20.7598ZM56.2904 14.423V13.9821H55.8494V14.423H56.2904ZM57.3298 14.423H56.8888V20.7598H57.3298H57.7707V14.423H57.3298ZM57.3298 20.7598V20.3188H56.2904V20.7598V21.2007H57.3298V20.7598ZM56.2904 20.7598H56.7313V14.423H56.2904H55.8494V20.7598H56.2904ZM56.2904 14.423V14.864H57.3298V14.423V13.9821H56.2904V14.423ZM62.7883 14.423H63.2292V13.9821H62.7883V14.423ZM62.7883 15.2709V15.7119H63.2292V15.2709H62.7883ZM61.1015 15.2709V14.83H60.6605V15.2709H61.1015ZM61.1015 20.7598V21.2007H61.5425V20.7598H61.1015ZM60.0621 20.7598H59.6211V21.2007H60.0621V20.7598ZM60.0621 15.2709H60.503V14.83H60.0621V15.2709ZM58.3662 15.2709H57.9252V15.7119H58.3662V15.2709ZM58.3662 14.423V13.9821H57.9252V14.423H58.3662ZM62.7883 14.423H62.3473V15.2709H62.7883H63.2292V14.423H62.7883ZM62.7883 15.2709V14.83H61.1015V15.2709V15.7119H62.7883V15.2709ZM61.1015 15.2709H60.6605V20.7598H61.1015H61.5425V15.2709H61.1015ZM61.1015 20.7598V20.3188H60.0621V20.7598V21.2007H61.1015V20.7598ZM60.0621 20.7598H60.503V15.2709H60.0621H59.6211V20.7598H60.0621ZM60.0621 15.2709V14.83H58.3662V15.2709V15.7119H60.0621V15.2709ZM58.3662 15.2709H58.8072V14.423H58.3662H57.9252V15.2709H58.3662ZM58.3662 14.423V14.864H62.7883V14.423V13.9821H58.3662V14.423ZM64.8803 15.2618V14.8209H64.4394V15.2618H64.8803ZM64.8803 17.1218H64.4394V17.5628H64.8803V17.1218ZM67.0686 17.1218H67.5095V16.6809H67.0686V17.1218ZM67.0686 17.9698V18.4107H67.5095V17.9698H67.0686ZM64.8803 17.9698V17.5288H64.4394V17.9698H64.8803ZM64.8803 19.9118H64.4394V20.3528H64.8803V19.9118ZM67.3421 19.9118H67.783V19.4709H67.3421V19.9118ZM67.3421 20.7598V21.2007H67.783V20.7598H67.3421ZM63.8409 20.7598H63.4V21.2007H63.8409V20.7598ZM63.8409 14.4139V13.9729H63.4V14.4139H63.8409ZM67.3421 14.4139H67.783V13.9729H67.3421V14.4139ZM67.3421 15.2618V15.7028H67.783V15.2618H67.3421ZM64.8803 15.2618H64.4394V17.1218H64.8803H65.3213V15.2618H64.8803ZM64.8803 17.1218V17.5628H67.0686V17.1218V16.6809H64.8803V17.1218ZM67.0686 17.1218H66.6276V17.9698H67.0686H67.5095V17.1218H67.0686ZM67.0686 17.9698V17.5288H64.8803V17.9698V18.4107H67.0686V17.9698ZM64.8803 17.9698H64.4394V19.9118H64.8803H65.3213V17.9698H64.8803ZM64.8803 19.9118V20.3528H67.3421V19.9118V19.4709H64.8803V19.9118ZM67.3421 19.9118H66.9011V20.7598H67.3421H67.783V19.9118H67.3421ZM67.3421 20.7598V20.3188H63.8409V20.7598V21.2007H67.3421V20.7598ZM63.8409 20.7598H64.2819V14.4139H63.8409H63.4V20.7598H63.8409ZM63.8409 14.4139V14.8548H67.3421V14.4139V13.9729H63.8409V14.4139ZM67.3421 14.4139H66.9011V15.2618H67.3421H67.783V14.4139H67.3421ZM67.3421 15.2618V14.8209H64.8803V15.2618V15.7028H67.3421V15.2618ZM72.4609 14.8151L72.258 15.2066L72.2637 15.2095L72.4609 14.8151ZM73.637 15.9274L73.2527 16.1436L73.256 16.1493L73.637 15.9274ZM73.637 19.2918L73.2572 19.0678L73.2551 19.0715L73.637 19.2918ZM72.4609 20.3859L72.6562 20.7813L72.6581 20.7803L72.4609 20.3859ZM68.6223 20.7598H68.1814V21.2007H68.6223V20.7598ZM68.6223 14.423V13.9821H68.1814V14.423H68.6223ZM72.397 19.3101L72.0829 19.0006V19.0006L72.397 19.3101ZM69.6617 15.2709V14.83H69.2208V15.2709H69.6617ZM69.6617 19.9118H69.2208V20.3528H69.6617V19.9118ZM70.692 14.423V14.864C71.3093 14.864 71.8269 14.9833 72.258 15.2066L72.4609 14.8151L72.6637 14.4235C72.0858 14.1241 71.4242 13.9821 70.692 13.9821V14.423ZM72.4609 14.8151L72.2637 15.2095C72.6974 15.4263 73.0234 15.736 73.2527 16.1436L73.637 15.9274L74.0214 15.7112C73.7036 15.1463 73.2455 14.7144 72.6581 14.4207L72.4609 14.8151ZM73.637 15.9274L73.256 16.1493C73.4905 16.552 73.6155 17.0352 73.6155 17.6142H74.0564H74.4974C74.4974 16.9045 74.3428 16.2632 74.0181 15.7055L73.637 15.9274ZM74.0564 17.6142H73.6155C73.6155 18.1933 73.4904 18.6724 73.2572 19.0678L73.637 19.2918L74.0169 19.5158C74.3429 18.963 74.4974 18.3237 74.4974 17.6142H74.0564ZM73.637 19.2918L73.2551 19.0715C73.0267 19.4674 72.7004 19.7731 72.2637 19.9915L72.4609 20.3859L72.6581 20.7803C73.2425 20.4881 73.7003 20.0645 74.019 19.5122L73.637 19.2918ZM72.4609 20.3859L72.2656 19.9906C71.8327 20.2044 71.3123 20.3188 70.692 20.3188V20.7598V21.2007C71.4211 21.2007 72.08 21.0659 72.6562 20.7813L72.4609 20.3859ZM70.692 20.7598V20.3188H68.6223V20.7598V21.2007H70.692V20.7598ZM68.6223 20.7598H69.0633V14.423H68.6223H68.1814V20.7598H68.6223ZM68.6223 14.423V14.864H70.692V14.423V13.9821H68.6223V14.423ZM70.692 19.9118V20.3528C71.5128 20.3528 72.2094 20.129 72.7112 19.6195L72.397 19.3101L72.0829 19.0006C71.7945 19.2935 71.3544 19.4709 70.692 19.4709V19.9118ZM72.397 19.3101L72.7112 19.6195C73.2095 19.1135 73.4306 18.4238 73.4306 17.6142H72.9897H72.5487C72.5487 18.2634 72.3747 18.7043 72.0829 19.0006L72.397 19.3101ZM72.9897 17.6142H73.4306C73.4306 16.7989 73.2099 16.1032 72.7158 15.5863L72.397 15.8909L72.0783 16.1956C72.3744 16.5054 72.5487 16.9584 72.5487 17.6142H72.9897ZM72.397 15.8909L72.7158 15.5863C72.2147 15.062 71.5164 14.83 70.692 14.83V15.2709V15.7119C71.3508 15.7119 71.7892 15.8932 72.0783 16.1956L72.397 15.8909ZM70.692 15.2709V14.83H69.6617V15.2709V15.7119H70.692V15.2709ZM69.6617 15.2709H69.2208V19.9118H69.6617H70.1027V15.2709H69.6617ZM69.6617 19.9118V20.3528H70.692V19.9118V19.4709H69.6617V19.9118Z" fill="white" mask="url(#path-1-outside-1_2609_223)"/>
</g>
<defs>
<filter id="filter0_d_2609_223" x="-0.00119257" y="-0.000137866" width="77.2797" height="24.8657" filterUnits="userSpaceOnUse" color-interpolation-filters="sRGB">
<feFlood flood-opacity="0" result="BackgroundImageFix"/>
<feColorMatrix in="SourceAlpha" type="matrix" values="0 0 0 0 0 0 0 0 0 0 0 0 0 0 0 0 0 0 127 0" result="hardAlpha"/>
<feOffset dy="0.881914"/>
<feGaussianBlur stdDeviation="1.39122"/>
<feComposite in2="hardAlpha" operator="out"/>
<feColorMatrix type="matrix" values="0 0 0 0 0 0 0 0 0 0 0 0 0 0 0 0 0 0 0.37 0"/>
<feBlend mode="normal" in2="BackgroundImageFix" result="effect1_dropShadow_2609_223"/>
<feBlend mode="normal" in="SourceGraphic" in2="effect1_dropShadow_2609_223" result="shape"/>
</filter>
</defs>
</svg>
