<svg width="264" height="305" viewBox="0 0 264 305" fill="none" xmlns="http://www.w3.org/2000/svg">
<g filter="url(#filter0_d_2609_236)">
<rect x="4.12109" y="250.212" width="185.611" height="45.6107" rx="7.21374" fill="black" shape-rendering="crispEdges"/>
<path d="M24.0698 270.356C23.773 269.784 23.3608 269.355 22.8331 269.07C22.3055 268.773 21.6954 268.624 21.0029 268.624C20.2444 268.624 19.5684 268.795 18.9748 269.136C18.3812 269.476 17.914 269.96 17.5733 270.587C17.2435 271.213 17.0786 271.939 17.0786 272.763C17.0786 273.588 17.2435 274.318 17.5733 274.956C17.914 275.583 18.3812 276.066 18.9748 276.407C19.5684 276.748 20.2444 276.918 21.0029 276.918C22.0252 276.918 22.8551 276.632 23.4927 276.061C24.1302 275.489 24.5205 274.714 24.6634 273.736H20.3598V272.235H26.675V273.703C26.554 274.593 26.2353 275.412 25.7186 276.16C25.213 276.907 24.5479 277.506 23.7235 277.957C22.9101 278.397 22.0032 278.617 21.0029 278.617C19.9257 278.617 18.9418 278.369 18.0515 277.875C17.1611 277.369 16.4521 276.671 15.9244 275.78C15.4078 274.89 15.1495 273.884 15.1495 272.763C15.1495 271.642 15.4078 270.636 15.9244 269.746C16.4521 268.855 17.1611 268.163 18.0515 267.668C18.9528 267.162 19.9366 266.91 21.0029 266.91C22.2231 266.91 23.3058 267.212 24.2511 267.817C25.2075 268.41 25.9 269.257 26.3287 270.356H24.0698ZM32.4697 278.666C31.6123 278.666 30.8373 278.474 30.1448 278.089C29.4523 277.693 28.9081 277.144 28.5124 276.44C28.1167 275.726 27.9188 274.901 27.9188 273.967C27.9188 273.043 28.1222 272.224 28.5289 271.51C28.9356 270.795 29.4907 270.246 30.1942 269.861C30.8977 269.476 31.6837 269.284 32.5521 269.284C33.4205 269.284 34.2065 269.476 34.91 269.861C35.6135 270.246 36.1686 270.795 36.5753 271.51C36.982 272.224 37.1854 273.043 37.1854 273.967C37.1854 274.89 36.9765 275.709 36.5588 276.424C36.1411 277.138 35.5695 277.693 34.844 278.089C34.1295 278.474 33.3381 278.666 32.4697 278.666ZM32.4697 277.034C32.9533 277.034 33.404 276.918 33.8217 276.687C34.2504 276.457 34.5967 276.11 34.8605 275.649C35.1243 275.187 35.2562 274.626 35.2562 273.967C35.2562 273.307 35.1298 272.752 34.877 272.301C34.6242 271.84 34.2889 271.493 33.8712 271.263C33.4535 271.032 33.0028 270.916 32.5191 270.916C32.0355 270.916 31.5848 271.032 31.1671 271.263C30.7603 271.493 30.4361 271.84 30.1942 272.301C29.9524 272.752 29.8315 273.307 29.8315 273.967C29.8315 274.945 30.0788 275.704 30.5735 276.242C31.0791 276.77 31.7112 277.034 32.4697 277.034ZM42.9843 278.666C42.1269 278.666 41.352 278.474 40.6594 278.089C39.9669 277.693 39.4228 277.144 39.0271 276.44C38.6314 275.726 38.4335 274.901 38.4335 273.967C38.4335 273.043 38.6368 272.224 39.0436 271.51C39.4503 270.795 40.0054 270.246 40.7089 269.861C41.4124 269.476 42.1984 269.284 43.0668 269.284C43.9352 269.284 44.7211 269.476 45.4246 269.861C46.1281 270.246 46.6833 270.795 47.09 271.51C47.4967 272.224 47.7001 273.043 47.7001 273.967C47.7001 274.89 47.4912 275.709 47.0735 276.424C46.6558 277.138 46.0842 277.693 45.3587 278.089C44.6442 278.474 43.8527 278.666 42.9843 278.666ZM42.9843 277.034C43.468 277.034 43.9187 276.918 44.3364 276.687C44.7651 276.457 45.1114 276.11 45.3752 275.649C45.639 275.187 45.7709 274.626 45.7709 273.967C45.7709 273.307 45.6445 272.752 45.3917 272.301C45.1388 271.84 44.8036 271.493 44.3859 271.263C43.9681 271.032 43.5175 270.916 43.0338 270.916C42.5501 270.916 42.0994 271.032 41.6817 271.263C41.275 271.493 40.9507 271.84 40.7089 272.301C40.4671 272.752 40.3462 273.307 40.3462 273.967C40.3462 274.945 40.5935 275.704 41.0881 276.242C41.5938 276.77 42.2259 277.034 42.9843 277.034ZM53.2187 269.284C53.9222 269.284 54.5433 269.427 55.0819 269.713C55.6315 269.988 56.0602 270.334 56.368 270.751V269.432H58.2642V278.666C58.2642 279.501 58.0883 280.243 57.7366 280.892C57.3848 281.551 56.8737 282.068 56.2031 282.442C55.5436 282.816 54.7521 283.002 53.8288 283.002C52.5976 283.002 51.5753 282.711 50.7619 282.129C49.9485 281.557 49.4868 280.777 49.3769 279.787H51.2401C51.383 280.26 51.6853 280.639 52.1469 280.925C52.6196 281.222 53.1802 281.37 53.8288 281.37C54.5872 281.37 55.1973 281.139 55.659 280.678C56.1317 280.216 56.368 279.545 56.368 278.666V277.149C56.0492 277.578 55.615 277.94 55.0654 278.237C54.5268 278.523 53.9112 278.666 53.2187 278.666C52.4272 278.666 51.7017 278.468 51.0422 278.072C50.3937 277.666 49.877 277.105 49.4923 276.391C49.1185 275.665 48.9317 274.846 48.9317 273.934C48.9317 273.021 49.1185 272.213 49.4923 271.51C49.877 270.806 50.3937 270.262 51.0422 269.878C51.7017 269.482 52.4272 269.284 53.2187 269.284ZM56.368 273.967C56.368 273.34 56.2361 272.796 55.9723 272.334C55.7195 271.873 55.3842 271.521 54.9665 271.279C54.5488 271.037 54.0981 270.916 53.6144 270.916C53.1308 270.916 52.6801 271.037 52.2624 271.279C51.8446 271.51 51.5039 271.856 51.2401 272.318C50.9872 272.769 50.8608 273.307 50.8608 273.934C50.8608 274.56 50.9872 275.11 51.2401 275.583C51.5039 276.055 51.8446 276.418 52.2624 276.671C52.6911 276.913 53.1417 277.034 53.6144 277.034C54.0981 277.034 54.5488 276.913 54.9665 276.671C55.3842 276.429 55.7195 276.077 55.9723 275.616C56.2361 275.143 56.368 274.593 56.368 273.967ZM62.6128 266.316V278.518H60.7331V266.316H62.6128ZM73.4074 273.752C73.4074 274.093 73.3854 274.401 73.3414 274.676H66.3997C66.4547 275.401 66.724 275.984 67.2077 276.424C67.6913 276.863 68.2849 277.083 68.9884 277.083C69.9997 277.083 70.7143 276.66 71.132 275.813H73.1601C72.8852 276.649 72.3851 277.336 71.6596 277.875C70.9451 278.402 70.0547 278.666 68.9884 278.666C68.1201 278.666 67.3396 278.474 66.6471 278.089C65.9655 277.693 65.4269 277.144 65.0312 276.44C64.6465 275.726 64.4541 274.901 64.4541 273.967C64.4541 273.032 64.641 272.213 65.0147 271.51C65.3994 270.795 65.9326 270.246 66.6141 269.861C67.3066 269.476 68.0981 269.284 68.9884 269.284C69.8459 269.284 70.6098 269.471 71.2804 269.845C71.9509 270.218 72.473 270.746 72.8468 271.428C73.2205 272.098 73.4074 272.873 73.4074 273.752ZM71.4452 273.159C71.4343 272.466 71.1869 271.911 70.7033 271.493C70.2196 271.076 69.6205 270.867 68.906 270.867C68.2575 270.867 67.7023 271.076 67.2407 271.493C66.779 271.9 66.5042 272.455 66.4162 273.159H71.4452ZM91.61 267.058V278.518H89.7303V270.669L86.2347 278.518H84.9321L81.42 270.669V278.518H79.5403V267.058H81.5684L85.5916 276.044L89.5984 267.058H91.61ZM93.454 273.934C93.454 273.021 93.6408 272.213 94.0146 271.51C94.3993 270.806 94.916 270.262 95.5645 269.878C96.2241 269.482 96.9496 269.284 97.741 269.284C98.4555 269.284 99.0766 269.427 99.6042 269.713C100.143 269.988 100.572 270.334 100.89 270.751V269.432H102.786V278.518H100.89V277.166C100.572 277.594 100.137 277.951 99.5877 278.237C99.0381 278.523 98.4115 278.666 97.708 278.666C96.9276 278.666 96.2131 278.468 95.5645 278.072C94.916 277.666 94.3993 277.105 94.0146 276.391C93.6408 275.665 93.454 274.846 93.454 273.934ZM100.89 273.967C100.89 273.34 100.758 272.796 100.495 272.334C100.242 271.873 99.9065 271.521 99.4888 271.279C99.0711 271.037 98.6204 270.916 98.1367 270.916C97.6531 270.916 97.2024 271.037 96.7847 271.279C96.367 271.51 96.0262 271.856 95.7624 272.318C95.5096 272.769 95.3831 273.307 95.3831 273.934C95.3831 274.56 95.5096 275.11 95.7624 275.583C96.0262 276.055 96.367 276.418 96.7847 276.671C97.2134 276.913 97.6641 277.034 98.1367 277.034C98.6204 277.034 99.0711 276.913 99.4888 276.671C99.9065 276.429 100.242 276.077 100.495 275.616C100.758 275.143 100.89 274.593 100.89 273.967ZM107.135 270.768C107.454 270.35 107.888 269.998 108.438 269.713C108.987 269.427 109.608 269.284 110.301 269.284C111.092 269.284 111.812 269.482 112.461 269.878C113.12 270.262 113.637 270.806 114.011 271.51C114.385 272.213 114.571 273.021 114.571 273.934C114.571 274.846 114.385 275.665 114.011 276.391C113.637 277.105 113.12 277.666 112.461 278.072C111.812 278.468 111.092 278.666 110.301 278.666C109.608 278.666 108.993 278.529 108.454 278.254C107.916 277.968 107.476 277.616 107.135 277.198V282.838H105.255V269.432H107.135V270.768ZM112.659 273.934C112.659 273.307 112.527 272.769 112.263 272.318C112.01 271.856 111.669 271.51 111.241 271.279C110.823 271.037 110.372 270.916 109.889 270.916C109.416 270.916 108.965 271.037 108.537 271.279C108.119 271.521 107.778 271.873 107.514 272.334C107.262 272.796 107.135 273.34 107.135 273.967C107.135 274.593 107.262 275.143 107.514 275.616C107.778 276.077 108.119 276.429 108.537 276.671C108.965 276.913 109.416 277.034 109.889 277.034C110.372 277.034 110.823 276.913 111.241 276.671C111.669 276.418 112.01 276.055 112.263 275.583C112.527 275.11 112.659 274.56 112.659 273.934ZM129.04 273.752C129.04 274.093 129.018 274.401 128.974 274.676H122.033C122.087 275.401 122.357 275.984 122.84 276.424C123.324 276.863 123.918 277.083 124.621 277.083C125.633 277.083 126.347 276.66 126.765 275.813H128.793C128.518 276.649 128.018 277.336 127.292 277.875C126.578 278.402 125.687 278.666 124.621 278.666C123.753 278.666 122.972 278.474 122.28 278.089C121.598 277.693 121.06 277.144 120.664 276.44C120.279 275.726 120.087 274.901 120.087 273.967C120.087 273.032 120.274 272.213 120.647 271.51C121.032 270.795 121.565 270.246 122.247 269.861C122.939 269.476 123.731 269.284 124.621 269.284C125.479 269.284 126.243 269.471 126.913 269.845C127.584 270.218 128.106 270.746 128.48 271.428C128.853 272.098 129.04 272.873 129.04 273.752ZM127.078 273.159C127.067 272.466 126.82 271.911 126.336 271.493C125.852 271.076 125.253 270.867 124.539 270.867C123.89 270.867 123.335 271.076 122.873 271.493C122.412 271.9 122.137 272.455 122.049 273.159H127.078ZM141.888 269.284C142.602 269.284 143.24 269.432 143.8 269.729C144.372 270.026 144.817 270.466 145.136 271.048C145.466 271.631 145.631 272.334 145.631 273.159V278.518H143.768V273.439C143.768 272.626 143.564 272.005 143.157 271.576C142.751 271.136 142.196 270.916 141.492 270.916C140.789 270.916 140.228 271.136 139.81 271.576C139.404 272.005 139.2 272.626 139.2 273.439V278.518H137.337V273.439C137.337 272.626 137.134 272.005 136.727 271.576C136.32 271.136 135.765 270.916 135.062 270.916C134.358 270.916 133.797 271.136 133.38 271.576C132.973 272.005 132.77 272.626 132.77 273.439V278.518H130.89V269.432H132.77V270.471C133.077 270.097 133.468 269.806 133.94 269.597C134.413 269.388 134.919 269.284 135.457 269.284C136.183 269.284 136.831 269.438 137.403 269.746C137.975 270.053 138.414 270.499 138.722 271.081C138.997 270.532 139.426 270.097 140.008 269.779C140.591 269.449 141.217 269.284 141.888 269.284ZM149.902 270.784C150.221 270.345 150.655 269.988 151.205 269.713C151.765 269.427 152.387 269.284 153.068 269.284C153.871 269.284 154.596 269.476 155.245 269.861C155.893 270.246 156.404 270.795 156.778 271.51C157.152 272.213 157.339 273.021 157.339 273.934C157.339 274.846 157.152 275.665 156.778 276.391C156.404 277.105 155.888 277.666 155.228 278.072C154.58 278.468 153.86 278.666 153.068 278.666C152.365 278.666 151.738 278.529 151.188 278.254C150.65 277.979 150.221 277.627 149.902 277.198V278.518H148.023V266.316H149.902V270.784ZM155.426 273.934C155.426 273.307 155.294 272.769 155.03 272.318C154.777 271.856 154.437 271.51 154.008 271.279C153.59 271.037 153.14 270.916 152.656 270.916C152.183 270.916 151.733 271.037 151.304 271.279C150.886 271.521 150.545 271.873 150.282 272.334C150.029 272.796 149.902 273.34 149.902 273.967C149.902 274.593 150.029 275.143 150.282 275.616C150.545 276.077 150.886 276.429 151.304 276.671C151.733 276.913 152.183 277.034 152.656 277.034C153.14 277.034 153.59 276.913 154.008 276.671C154.437 276.418 154.777 276.055 155.03 275.583C155.294 275.11 155.426 274.56 155.426 273.934ZM167.524 273.752C167.524 274.093 167.502 274.401 167.458 274.676H160.517C160.571 275.401 160.841 275.984 161.324 276.424C161.808 276.863 162.402 277.083 163.105 277.083C164.117 277.083 164.831 276.66 165.249 275.813H167.277C167.002 276.649 166.502 277.336 165.776 277.875C165.062 278.402 164.171 278.666 163.105 278.666C162.237 278.666 161.456 278.474 160.764 278.089C160.082 277.693 159.544 277.144 159.148 276.44C158.763 275.726 158.571 274.901 158.571 273.967C158.571 273.032 158.758 272.213 159.131 271.51C159.516 270.795 160.049 270.246 160.731 269.861C161.423 269.476 162.215 269.284 163.105 269.284C163.963 269.284 164.727 269.471 165.397 269.845C166.068 270.218 166.59 270.746 166.964 271.428C167.337 272.098 167.524 272.873 167.524 273.752ZM165.562 273.159C165.551 272.466 165.304 271.911 164.82 271.493C164.336 271.076 163.737 270.867 163.023 270.867C162.374 270.867 161.819 271.076 161.357 271.493C160.896 271.9 160.621 272.455 160.533 273.159H165.562ZM168.747 273.934C168.747 273.021 168.934 272.213 169.308 271.51C169.693 270.806 170.209 270.262 170.858 269.878C171.517 269.482 172.248 269.284 173.051 269.284C173.645 269.284 174.227 269.416 174.799 269.68C175.381 269.933 175.843 270.273 176.184 270.702V266.316H178.08V278.518H176.184V277.149C175.876 277.589 175.447 277.951 174.898 278.237C174.359 278.523 173.738 278.666 173.034 278.666C172.243 278.666 171.517 278.468 170.858 278.072C170.209 277.666 169.693 277.105 169.308 276.391C168.934 275.665 168.747 274.846 168.747 273.934ZM176.184 273.967C176.184 273.34 176.052 272.796 175.788 272.334C175.535 271.873 175.2 271.521 174.782 271.279C174.365 271.037 173.914 270.916 173.43 270.916C172.946 270.916 172.496 271.037 172.078 271.279C171.66 271.51 171.32 271.856 171.056 272.318C170.803 272.769 170.677 273.307 170.677 273.934C170.677 274.56 170.803 275.11 171.056 275.583C171.32 276.055 171.66 276.418 172.078 276.671C172.507 276.913 172.957 277.034 173.43 277.034C173.914 277.034 174.365 276.913 174.782 276.671C175.2 276.429 175.535 276.077 175.788 275.616C176.052 275.143 176.184 274.593 176.184 273.967Z" fill="white"/>
</g>
<g filter="url(#filter1_d_2609_236)">
<path d="M260.727 1.85498H261.757V0.824432H260.727V1.85498ZM260.727 269.794V270.824H261.757V269.794H260.727ZM218.776 269.065C218.374 269.468 218.374 270.12 218.776 270.523L225.335 277.081C225.737 277.483 226.39 277.483 226.792 277.081C227.195 276.678 227.195 276.026 226.792 275.624L220.963 269.794L226.792 263.964C227.195 263.562 227.195 262.909 226.792 262.507C226.39 262.105 225.737 262.105 225.335 262.507L218.776 269.065ZM219.505 269.794V270.824H222.94V269.794V268.763H219.505V269.794ZM229.811 269.794V270.824H236.681V269.794V268.763H229.811V269.794ZM243.551 269.794V270.824H250.421V269.794V268.763H243.551V269.794ZM257.291 269.794V270.824H260.727V269.794V268.763H257.291V269.794ZM260.727 269.794H261.757V266.749H260.727H259.696V269.794H260.727ZM260.727 260.66H261.757V254.57H260.727H259.696V260.66H260.727ZM260.727 248.481H261.757V242.391H260.727H259.696V248.481H260.727ZM260.727 236.302H261.757V230.212H260.727H259.696V236.302H260.727ZM260.727 224.123H261.757V218.033H260.727H259.696V224.123H260.727ZM260.727 211.943H261.757V205.854H260.727H259.696V211.943H260.727ZM260.727 199.764H261.757V193.675H260.727H259.696V199.764H260.727ZM260.727 187.585H261.757V181.496H260.727H259.696V187.585H260.727ZM260.727 175.406H261.757V169.317H260.727H259.696V175.406H260.727ZM260.727 163.227H261.757V157.138H260.727H259.696V163.227H260.727ZM260.727 151.048H261.757V144.959H260.727H259.696V151.048H260.727ZM260.727 138.869H261.757V132.78H260.727H259.696V138.869H260.727ZM260.727 126.69H261.757V120.601H260.727H259.696V126.69H260.727ZM260.727 114.511H261.757V108.422H260.727H259.696V114.511H260.727ZM260.727 102.332H261.757V96.2425H260.727H259.696V102.332H260.727ZM260.727 90.153H261.757V84.0635H260.727H259.696V90.153H260.727ZM260.727 77.974H261.757V71.8844H260.727H259.696V77.974H260.727ZM260.727 65.7949H261.757V59.7054H260.727H259.696V65.7949H260.727ZM260.727 53.6159H261.757V47.5264H260.727H259.696V53.6159H260.727ZM260.727 41.4368H261.757L261.757 35.3473H260.727H259.696L259.696 41.4368H260.727ZM260.727 29.2578H261.757V23.1682H260.727H259.696V29.2578H260.727ZM260.727 17.0787H261.757V10.9892H260.727H259.696V17.0787H260.727ZM260.727 4.89972H261.757V1.85498H260.727H259.696V4.89972H260.727ZM260.727 1.85498V0.824432H257.563V1.85498V2.8855H260.727V1.85498ZM251.237 1.85498V0.824432H244.911V1.85498V2.8855H251.237V1.85498ZM238.584 1.85498V0.824432H232.258V1.85498V2.8855H238.584V1.85498ZM225.932 1.85498V0.824432H219.605V1.85498V2.8855H225.932V1.85498ZM213.279 1.85498V0.824432H206.953V1.85498V2.8855H213.279V1.85498ZM200.626 1.85498V0.824432H194.3V1.85498V2.8855H200.626V1.85498ZM187.974 1.85498V0.824432H181.647V1.85498V2.8855H187.974V1.85498ZM175.321 1.85498V0.824432H168.995V1.85498V2.8855H175.321V1.85498ZM162.668 1.85498V0.824432H156.342V1.85498V2.8855H162.668V1.85498ZM150.016 1.85498V0.824432H143.689V1.85498V2.8855H150.016V1.85498ZM137.363 1.85498V0.824432H131.037V1.85498V2.8855H137.363V1.85498ZM124.71 1.85498V0.824432H118.384V1.85498V2.8855H124.71V1.85498ZM112.058 1.85498V0.824432H105.731V1.85498V2.8855H112.058V1.85498ZM99.4049 1.85498V0.824432H93.0786V1.85498V2.8855H99.4049V1.85498ZM86.7522 1.85498V0.824432H80.4259V1.85498V2.8855H86.7522V1.85498ZM74.0996 1.85498V0.824432H67.7732V1.85498V2.8855H74.0996V1.85498ZM61.4469 1.85498V0.824432H55.1206V1.85498V2.8855H61.4469V1.85498ZM48.7942 1.85498V0.824432H42.4679V1.85498V2.8855H48.7942V1.85498ZM36.1415 1.85498V0.824432H32.9785V1.85498V2.8855H36.1415V1.85498Z" fill="#FF0000"/>
</g>
<defs>
<filter id="filter0_d_2609_236" x="-0.0010438" y="250.212" width="193.854" height="53.8546" filterUnits="userSpaceOnUse" color-interpolation-filters="sRGB">
<feFlood flood-opacity="0" result="BackgroundImageFix"/>
<feColorMatrix in="SourceAlpha" type="matrix" values="0 0 0 0 0 0 0 0 0 0 0 0 0 0 0 0 0 0 127 0" result="hardAlpha"/>
<feOffset dy="4.12214"/>
<feGaussianBlur stdDeviation="2.06107"/>
<feComposite in2="hardAlpha" operator="out"/>
<feColorMatrix type="matrix" values="0 0 0 0 0 0 0 0 0 0 0 0 0 0 0 0 0 0 0.09 0"/>
<feBlend mode="normal" in2="BackgroundImageFix" result="effect1_dropShadow_2609_236"/>
<feBlend mode="normal" in="SourceGraphic" in2="effect1_dropShadow_2609_236" result="shape"/>
</filter>
<filter id="filter1_d_2609_236" x="31.6369" y="-0.000208437" width="231.461" height="279.238" filterUnits="userSpaceOnUse" color-interpolation-filters="sRGB">
<feFlood flood-opacity="0" result="BackgroundImageFix"/>
<feColorMatrix in="SourceAlpha" type="matrix" values="0 0 0 0 0 0 0 0 0 0 0 0 0 0 0 0 0 0 127 0" result="hardAlpha"/>
<feOffset dy="0.515267"/>
<feGaussianBlur stdDeviation="0.669847"/>
<feComposite in2="hardAlpha" operator="out"/>
<feColorMatrix type="matrix" values="0 0 0 0 1 0 0 0 0 1 0 0 0 0 1 0 0 0 1 0"/>
<feBlend mode="normal" in2="BackgroundImageFix" result="effect1_dropShadow_2609_236"/>
<feBlend mode="normal" in="SourceGraphic" in2="effect1_dropShadow_2609_236" result="shape"/>
</filter>
</defs>
</svg>
