<svg width="29" height="38" viewBox="0 0 29 38" fill="none" xmlns="http://www.w3.org/2000/svg">
<g filter="url(#filter0_d_2609_222)">
<path d="M14.3564 1.90039C7.96618 1.90039 2.78125 6.52323 2.78125 12.2195C2.78125 21.3921 14.3564 34.0044 14.3564 34.0044C14.3564 34.0044 25.9315 21.3921 25.9315 12.2195C25.9315 6.52323 20.7466 1.90039 14.3564 1.90039ZM14.3564 17.9524C13.4406 17.9524 12.5455 17.6834 11.7841 17.1795C11.0227 16.6755 10.4292 15.9592 10.0788 15.1212C9.72833 14.2832 9.63664 13.361 9.81529 12.4714C9.99394 11.5817 10.4349 10.7645 11.0824 10.1231C11.73 9.48171 12.555 9.04491 13.4531 8.86795C14.3512 8.69098 15.2822 8.78181 16.1282 9.12893C16.9743 9.47606 17.6974 10.0639 18.2061 10.8181C18.7149 11.5723 18.9864 12.459 18.9864 13.3661C18.9851 14.5821 18.4968 15.7478 17.6288 16.6076C16.7608 17.4674 15.5839 17.9511 14.3564 17.9524Z" fill="#FF0000"/>
</g>
<defs>
<filter id="filter0_d_2609_222" x="-0.00119257" y="-0.000137866" width="28.7133" height="37.6694" filterUnits="userSpaceOnUse" color-interpolation-filters="sRGB">
<feFlood flood-opacity="0" result="BackgroundImageFix"/>
<feColorMatrix in="SourceAlpha" type="matrix" values="0 0 0 0 0 0 0 0 0 0 0 0 0 0 0 0 0 0 127 0" result="hardAlpha"/>
<feOffset dy="0.881914"/>
<feGaussianBlur stdDeviation="1.39122"/>
<feComposite in2="hardAlpha" operator="out"/>
<feColorMatrix type="matrix" values="0 0 0 0 0 0 0 0 0 0 0 0 0 0 0 0 0 0 0.37 0"/>
<feBlend mode="normal" in2="BackgroundImageFix" result="effect1_dropShadow_2609_222"/>
<feBlend mode="normal" in="SourceGraphic" in2="effect1_dropShadow_2609_222" result="shape"/>
</filter>
</defs>
</svg>
