<svg width="215" height="297" viewBox="0 0 215 297" fill="none" xmlns="http://www.w3.org/2000/svg">
<g filter="url(#filter0_d_2609_235)">
<rect x="77.5977" y="242.999" width="132.611" height="45.6107" rx="7.21374" fill="black" shape-rendering="crispEdges"/>
<path d="M99.1252 259.845L94.8217 271.305H92.6452L88.3252 259.845H90.3368L93.7335 269.376L97.1466 259.845H99.1252ZM101.654 261.016C101.313 261.016 101.027 260.9 100.796 260.67C100.565 260.439 100.45 260.153 100.45 259.812C100.45 259.471 100.565 259.186 100.796 258.955C101.027 258.724 101.313 258.609 101.654 258.609C101.983 258.609 102.264 258.724 102.494 258.955C102.725 259.186 102.841 259.471 102.841 259.812C102.841 260.153 102.725 260.439 102.494 260.67C102.264 260.9 101.983 261.016 101.654 261.016ZM102.577 262.219V271.305H100.697V262.219H102.577ZM104.418 266.721C104.418 265.809 104.605 265.001 104.979 264.297C105.364 263.594 105.88 263.049 106.529 262.665C107.188 262.269 107.919 262.071 108.722 262.071C109.315 262.071 109.898 262.203 110.469 262.467C111.052 262.72 111.514 263.06 111.855 263.489V259.103H113.751V271.305H111.855V269.936C111.547 270.376 111.118 270.739 110.568 271.024C110.03 271.31 109.409 271.453 108.705 271.453C107.914 271.453 107.188 271.255 106.529 270.859C105.88 270.453 105.364 269.892 104.979 269.178C104.605 268.452 104.418 267.633 104.418 266.721ZM111.855 266.754C111.855 266.127 111.723 265.583 111.459 265.121C111.206 264.66 110.871 264.308 110.453 264.066C110.035 263.824 109.585 263.703 109.101 263.703C108.617 263.703 108.167 263.824 107.749 264.066C107.331 264.297 106.99 264.643 106.727 265.105C106.474 265.556 106.347 266.094 106.347 266.721C106.347 267.347 106.474 267.897 106.727 268.37C106.99 268.842 107.331 269.205 107.749 269.458C108.178 269.7 108.628 269.821 109.101 269.821C109.585 269.821 110.035 269.7 110.453 269.458C110.871 269.216 111.206 268.864 111.459 268.403C111.723 267.93 111.855 267.38 111.855 266.754ZM124.546 266.539C124.546 266.88 124.524 267.188 124.48 267.463H117.539C117.594 268.188 117.863 268.771 118.347 269.211C118.83 269.65 119.424 269.87 120.127 269.87C121.139 269.87 121.853 269.447 122.271 268.601H124.299C124.024 269.436 123.524 270.123 122.799 270.662C122.084 271.189 121.194 271.453 120.127 271.453C119.259 271.453 118.479 271.261 117.786 270.876C117.104 270.48 116.566 269.931 116.17 269.227C115.785 268.513 115.593 267.688 115.593 266.754C115.593 265.819 115.78 265.001 116.154 264.297C116.538 263.583 117.072 263.033 117.753 262.648C118.446 262.263 119.237 262.071 120.127 262.071C120.985 262.071 121.749 262.258 122.419 262.632C123.09 263.005 123.612 263.533 123.986 264.215C124.359 264.885 124.546 265.66 124.546 266.539ZM122.584 265.946C122.573 265.253 122.326 264.698 121.842 264.281C121.359 263.863 120.759 263.654 120.045 263.654C119.396 263.654 118.841 263.863 118.38 264.281C117.918 264.687 117.643 265.242 117.555 265.946H122.584ZM130.337 271.453C129.48 271.453 128.705 271.261 128.012 270.876C127.32 270.48 126.775 269.931 126.38 269.227C125.984 268.513 125.786 267.688 125.786 266.754C125.786 265.83 125.989 265.012 126.396 264.297C126.803 263.583 127.358 263.033 128.061 262.648C128.765 262.263 129.551 262.071 130.419 262.071C131.288 262.071 132.074 262.263 132.777 262.648C133.481 263.033 134.036 263.583 134.443 264.297C134.849 265.012 135.053 265.83 135.053 266.754C135.053 267.677 134.844 268.496 134.426 269.211C134.008 269.925 133.437 270.48 132.711 270.876C131.997 271.261 131.205 271.453 130.337 271.453ZM130.337 269.821C130.821 269.821 131.271 269.705 131.689 269.474C132.118 269.244 132.464 268.897 132.728 268.436C132.992 267.974 133.123 267.413 133.123 266.754C133.123 266.094 132.997 265.539 132.744 265.089C132.491 264.627 132.156 264.281 131.738 264.05C131.321 263.819 130.87 263.703 130.386 263.703C129.903 263.703 129.452 263.819 129.034 264.05C128.628 264.281 128.303 264.627 128.061 265.089C127.82 265.539 127.699 266.094 127.699 266.754C127.699 267.732 127.946 268.491 128.441 269.029C128.946 269.557 129.578 269.821 130.337 269.821ZM149.521 266.539C149.521 266.88 149.499 267.188 149.455 267.463H142.513C142.568 268.188 142.837 268.771 143.321 269.211C143.805 269.65 144.398 269.87 145.102 269.87C146.113 269.87 146.828 269.447 147.245 268.601H149.273C148.999 269.436 148.498 270.123 147.773 270.662C147.058 271.189 146.168 271.453 145.102 271.453C144.233 271.453 143.453 271.261 142.76 270.876C142.079 270.48 141.54 269.931 141.145 269.227C140.76 268.513 140.567 267.688 140.567 266.754C140.567 265.819 140.754 265.001 141.128 264.297C141.513 263.583 142.046 263.033 142.727 262.648C143.42 262.263 144.211 262.071 145.102 262.071C145.959 262.071 146.723 262.258 147.394 262.632C148.064 263.005 148.586 263.533 148.96 264.215C149.334 264.885 149.521 265.66 149.521 266.539ZM147.559 265.946C147.548 265.253 147.3 264.698 146.817 264.281C146.333 263.863 145.734 263.654 145.019 263.654C144.371 263.654 143.816 263.863 143.354 264.281C142.892 264.687 142.617 265.242 142.53 265.946H147.559ZM162.368 262.071C163.083 262.071 163.72 262.219 164.281 262.516C164.853 262.813 165.298 263.253 165.617 263.835C165.946 264.418 166.111 265.121 166.111 265.946V271.305H164.248V266.226C164.248 265.413 164.045 264.792 163.638 264.363C163.231 263.923 162.676 263.703 161.973 263.703C161.269 263.703 160.709 263.923 160.291 264.363C159.884 264.792 159.681 265.413 159.681 266.226V271.305H157.818V266.226C157.818 265.413 157.614 264.792 157.207 264.363C156.801 263.923 156.246 263.703 155.542 263.703C154.839 263.703 154.278 263.923 153.86 264.363C153.454 264.792 153.25 265.413 153.25 266.226V271.305H151.37V262.219H153.25V263.258C153.558 262.885 153.948 262.593 154.421 262.384C154.894 262.176 155.399 262.071 155.938 262.071C156.663 262.071 157.312 262.225 157.883 262.533C158.455 262.841 158.895 263.286 159.203 263.868C159.477 263.319 159.906 262.885 160.489 262.566C161.071 262.236 161.698 262.071 162.368 262.071ZM170.383 263.572C170.702 263.132 171.136 262.775 171.685 262.5C172.246 262.214 172.867 262.071 173.549 262.071C174.351 262.071 175.077 262.263 175.725 262.648C176.374 263.033 176.885 263.583 177.259 264.297C177.632 265.001 177.819 265.809 177.819 266.721C177.819 267.633 177.632 268.452 177.259 269.178C176.885 269.892 176.368 270.453 175.709 270.859C175.06 271.255 174.34 271.453 173.549 271.453C172.845 271.453 172.219 271.316 171.669 271.041C171.13 270.766 170.702 270.414 170.383 269.986V271.305H168.503V259.103H170.383V263.572ZM175.906 266.721C175.906 266.094 175.775 265.556 175.511 265.105C175.258 264.643 174.917 264.297 174.488 264.066C174.071 263.824 173.62 263.703 173.136 263.703C172.664 263.703 172.213 263.824 171.784 264.066C171.367 264.308 171.026 264.66 170.762 265.121C170.509 265.583 170.383 266.127 170.383 266.754C170.383 267.38 170.509 267.93 170.762 268.403C171.026 268.864 171.367 269.216 171.784 269.458C172.213 269.7 172.664 269.821 173.136 269.821C173.62 269.821 174.071 269.7 174.488 269.458C174.917 269.205 175.258 268.842 175.511 268.37C175.775 267.897 175.906 267.347 175.906 266.721ZM188.005 266.539C188.005 266.88 187.983 267.188 187.939 267.463H180.997C181.052 268.188 181.321 268.771 181.805 269.211C182.289 269.65 182.882 269.87 183.586 269.87C184.597 269.87 185.312 269.447 185.729 268.601H187.757C187.483 269.436 186.982 270.123 186.257 270.662C185.542 271.189 184.652 271.453 183.586 271.453C182.717 271.453 181.937 271.261 181.244 270.876C180.563 270.48 180.024 269.931 179.629 269.227C179.244 268.513 179.051 267.688 179.051 266.754C179.051 265.819 179.238 265.001 179.612 264.297C179.997 263.583 180.53 263.033 181.211 262.648C181.904 262.263 182.695 262.071 183.586 262.071C184.443 262.071 185.207 262.258 185.878 262.632C186.548 263.005 187.07 263.533 187.444 264.215C187.818 264.885 188.005 265.66 188.005 266.539ZM186.043 265.946C186.032 265.253 185.784 264.698 185.301 264.281C184.817 263.863 184.218 263.654 183.503 263.654C182.855 263.654 182.3 263.863 181.838 264.281C181.376 264.687 181.102 265.242 181.014 265.946H186.043ZM189.228 266.721C189.228 265.809 189.415 265.001 189.789 264.297C190.173 263.594 190.69 263.049 191.338 262.665C191.998 262.269 192.729 262.071 193.531 262.071C194.125 262.071 194.708 262.203 195.279 262.467C195.862 262.72 196.324 263.06 196.664 263.489V259.103H198.56V271.305H196.664V269.936C196.357 270.376 195.928 270.739 195.378 271.024C194.84 271.31 194.218 271.453 193.515 271.453C192.724 271.453 191.998 271.255 191.338 270.859C190.69 270.453 190.173 269.892 189.789 269.178C189.415 268.452 189.228 267.633 189.228 266.721ZM196.664 266.754C196.664 266.127 196.532 265.583 196.269 265.121C196.016 264.66 195.68 264.308 195.263 264.066C194.845 263.824 194.394 263.703 193.911 263.703C193.427 263.703 192.976 263.824 192.559 264.066C192.141 264.297 191.8 264.643 191.536 265.105C191.284 265.556 191.157 266.094 191.157 266.721C191.157 267.347 191.284 267.897 191.536 268.37C191.8 268.842 192.141 269.205 192.559 269.458C192.987 269.7 193.438 269.821 193.911 269.821C194.394 269.821 194.845 269.7 195.263 269.458C195.68 269.216 196.016 268.864 196.269 268.403C196.532 267.93 196.664 267.38 196.664 266.754Z" fill="white"/>
</g>
<g filter="url(#filter1_d_2609_235)">
<path d="M2.37109 1.85498H1.34056V0.824432H2.37109V1.85498ZM2.37109 269.794V270.824H1.34056L1.34056 269.794H2.37109ZM44.3212 269.065C44.7236 269.468 44.7236 270.12 44.3212 270.523L37.7629 277.081C37.3604 277.483 36.7079 277.483 36.3055 277.081C35.903 276.678 35.903 276.026 36.3055 275.624L42.1351 269.794L36.3055 263.964C35.903 263.562 35.903 262.909 36.3055 262.507C36.7079 262.105 37.3604 262.105 37.7629 262.507L44.3212 269.065ZM43.5925 269.794V270.824H40.1573V269.794V268.763H43.5925V269.794ZM33.2871 269.794V270.824H26.4169V269.794V268.763H33.2871V269.794ZM19.5467 269.794V270.824H12.6764V269.794V268.763H19.5467V269.794ZM5.80621 269.794V270.824H2.37109V269.794V268.763H5.80621V269.794ZM2.37109 269.794H1.34056L1.34056 266.749H2.37109H3.40163L3.40163 269.794H2.37109ZM2.37109 260.66H1.34056L1.34056 254.57H2.37109H3.40163L3.40163 260.66H2.37109ZM2.37109 248.481H1.34056L1.34056 242.391H2.37109H3.40163L3.40163 248.481H2.37109ZM2.37109 236.302H1.34056L1.34056 230.212H2.37109H3.40163L3.40163 236.302H2.37109ZM2.37109 224.123H1.34056L1.34056 218.033H2.37109H3.40163L3.40163 224.123H2.37109ZM2.37109 211.943H1.34056L1.34056 205.854H2.37109H3.40163L3.40163 211.943H2.37109ZM2.37109 199.764H1.34056L1.34056 193.675H2.37109H3.40163L3.40163 199.764H2.37109ZM2.37109 187.585H1.34056L1.34056 181.496H2.37109H3.40163L3.40163 187.585H2.37109ZM2.37109 175.406H1.34056L1.34056 169.317H2.37109H3.40163L3.40163 175.406H2.37109ZM2.37109 163.227H1.34056L1.34056 157.138H2.37109H3.40163L3.40163 163.227H2.37109ZM2.37109 151.048H1.34056L1.34056 144.959H2.37109H3.40163L3.40163 151.048H2.37109ZM2.37109 138.869H1.34056L1.34056 132.78H2.37109H3.40163L3.40163 138.869H2.37109ZM2.37109 126.69H1.34056L1.34056 120.601H2.37109H3.40163L3.40163 126.69H2.37109ZM2.37109 114.511H1.34056L1.34056 108.422H2.37109H3.40163L3.40163 114.511H2.37109ZM2.37109 102.332H1.34056L1.34056 96.2425H2.37109H3.40163L3.40163 102.332H2.37109ZM2.37109 90.153H1.34056L1.34056 84.0635H2.37109H3.40163L3.40163 90.153H2.37109ZM2.37109 77.974H1.34056L1.34056 71.8844H2.37109H3.40163L3.40163 77.974H2.37109ZM2.37109 65.7949H1.34056L1.34056 59.7054H2.37109H3.40163L3.40163 65.7949H2.37109ZM2.37109 53.6159H1.34056L1.34056 47.5264H2.37109H3.40163L3.40163 53.6159H2.37109ZM2.37109 41.4368H1.34056L1.34056 35.3473H2.37109H3.40163L3.40163 41.4368H2.37109ZM2.37109 29.2578H1.34056L1.34056 23.1682H2.37109H3.40163L3.40163 29.2578H2.37109ZM2.37109 17.0787H1.34056L1.34056 10.9892H2.37109H3.40163L3.40163 17.0787H2.37109ZM2.37109 4.89972H1.34056L1.34056 1.85498H2.37109H3.40163L3.40163 4.89972H2.37109ZM2.37109 1.85498V0.824432H5.43049V1.85498V2.8855H2.37109V1.85498ZM11.5493 1.85498L11.5493 0.824432H17.6681L17.6681 1.85498V2.8855H11.5493V1.85498ZM23.7869 1.85498V0.824432H29.9057V1.85498V2.8855H23.7869V1.85498ZM36.0245 1.85498V0.824432H42.1433V1.85498V2.8855H36.0245V1.85498ZM48.2621 1.85498V0.824432H54.3809V1.85498V2.8855H48.2621V1.85498ZM60.4997 1.85498V0.824432H66.6185V1.85498V2.8855H60.4997V1.85498ZM72.7373 1.85498V0.824432H78.8561V1.85498V2.8855H72.7373V1.85498ZM84.9749 1.85498V0.824432H91.0937V1.85498V2.8855H84.9749V1.85498ZM97.2125 1.85498V0.824432H100.272V1.85498V2.8855H97.2125V1.85498Z" fill="#FF0000"/>
</g>
<defs>
<filter id="filter0_d_2609_235" x="73.4755" y="242.999" width="140.854" height="53.8546" filterUnits="userSpaceOnUse" color-interpolation-filters="sRGB">
<feFlood flood-opacity="0" result="BackgroundImageFix"/>
<feColorMatrix in="SourceAlpha" type="matrix" values="0 0 0 0 0 0 0 0 0 0 0 0 0 0 0 0 0 0 127 0" result="hardAlpha"/>
<feOffset dy="4.12214"/>
<feGaussianBlur stdDeviation="2.06107"/>
<feComposite in2="hardAlpha" operator="out"/>
<feColorMatrix type="matrix" values="0 0 0 0 0 0 0 0 0 0 0 0 0 0 0 0 0 0 0.09 0"/>
<feBlend mode="normal" in2="BackgroundImageFix" result="effect1_dropShadow_2609_235"/>
<feBlend mode="normal" in="SourceGraphic" in2="effect1_dropShadow_2609_235" result="shape"/>
</filter>
<filter id="filter1_d_2609_235" x="0.000149369" y="-0.000208437" width="101.613" height="279.238" filterUnits="userSpaceOnUse" color-interpolation-filters="sRGB">
<feFlood flood-opacity="0" result="BackgroundImageFix"/>
<feColorMatrix in="SourceAlpha" type="matrix" values="0 0 0 0 0 0 0 0 0 0 0 0 0 0 0 0 0 0 127 0" result="hardAlpha"/>
<feOffset dy="0.515267"/>
<feGaussianBlur stdDeviation="0.669847"/>
<feComposite in2="hardAlpha" operator="out"/>
<feColorMatrix type="matrix" values="0 0 0 0 1 0 0 0 0 1 0 0 0 0 1 0 0 0 1 0"/>
<feBlend mode="normal" in2="BackgroundImageFix" result="effect1_dropShadow_2609_235"/>
<feBlend mode="normal" in="SourceGraphic" in2="effect1_dropShadow_2609_235" result="shape"/>
</filter>
</defs>
</svg>
