<svg width="134" height="189" viewBox="0 0 134 189" fill="none" xmlns="http://www.w3.org/2000/svg">
<path d="M133.485 15.3488C134.219 14.4786 134.109 13.1783 133.239 12.4445L119.059 0.485478C118.189 -0.248384 116.888 -0.1379 116.154 0.732251C115.42 1.6024 115.531 2.90271 116.401 3.63658L129.006 14.2668L118.375 26.8712C117.641 27.7413 117.752 29.0417 118.622 29.7755C119.492 30.5094 120.793 30.3989 121.526 29.5287L133.485 15.3488ZM2.0625 188.696H4.12357C4.12357 96.0455 54.717 22.6474 132.084 16.0737L131.91 14.02L131.735 11.9664C51.4309 18.7896 0.00143123 94.819 0.00143123 188.696H2.0625Z" fill="#FF0000"/>
</svg>
