<svg width="115" height="149" viewBox="0 0 115 149" fill="none" xmlns="http://www.w3.org/2000/svg">
<path d="M3.545 145.076L5.22188 136.691L6.78617 137.004L5.48032 143.534L9.50019 144.338L10.475 139.463L12.0211 139.772L11.0463 144.647L15.0844 145.454L16.3902 138.924L17.9363 139.234L16.2594 147.619L3.545 145.076ZM5.77458 134.248L6.22403 132.41L17.1414 130.325L8.41841 123.437L8.86787 121.599L21.4629 124.679L21.0267 126.463L12.0714 124.273L20.0264 130.553L19.8061 131.454L9.84618 133.372L18.8014 135.562L18.3696 137.328L5.77458 134.248ZM9.66779 118.649L11.3691 112.943C11.6977 111.841 12.2366 111.072 12.9856 110.637C13.7347 110.203 14.6543 110.148 15.7446 110.473C16.3609 110.657 16.8618 110.967 17.2475 111.405C17.6249 111.827 17.8555 112.309 17.9393 112.85C18.7262 111.639 19.8899 111.264 21.4305 111.723C22.1534 111.938 22.7338 112.286 23.1717 112.765C23.6012 113.228 23.877 113.775 23.9989 114.405C24.1207 115.035 24.0827 115.682 23.8849 116.345L22.0934 122.354L9.66779 118.649ZM16.6331 114.764C16.8063 114.183 16.7823 113.679 16.5613 113.252C16.3402 112.825 15.9157 112.518 15.2876 112.33C14.5647 112.115 14.0115 112.131 13.6282 112.378C13.2365 112.609 12.94 113.063 12.7386 113.738L11.6838 117.276L15.5413 118.426L16.6331 114.764ZM22.2875 116.314C22.496 115.615 22.501 115.036 22.3024 114.577C22.1038 114.117 21.6312 113.777 20.8846 113.554C20.138 113.331 19.5464 113.368 19.1098 113.664C18.6768 113.947 18.3454 114.474 18.1157 115.245L17.0345 118.871L21.1586 120.101L22.2875 116.314ZM13.3416 106.565L16.1532 98.4887L17.6598 99.0132L15.4703 105.302L19.3418 106.65L20.9764 101.955L22.4654 102.474L20.8309 107.169L24.7199 108.523L26.9095 102.233L28.3985 102.752L25.5869 110.828L13.3416 106.565ZM17.0898 96.0401L18.6633 92.1744C19.1902 90.8801 19.8876 89.8555 20.7557 89.1007C21.6237 88.3459 22.607 87.8983 23.7055 87.758C24.8087 87.6062 25.9674 87.7774 27.1815 88.2717C29.1745 89.0829 30.4509 90.2768 31.0109 91.8532C31.564 93.4136 31.4187 95.2303 30.5748 97.3034L29.0991 100.929L17.0898 96.0401ZM29.1074 96.7262C29.7601 95.1226 29.8545 93.7591 29.3906 92.6357C28.9266 91.5122 27.9502 90.6474 26.4612 90.0413C25.0867 89.4818 23.8377 89.434 22.7143 89.898C21.5955 90.3505 20.74 91.304 20.1479 92.7587L19.2807 94.8891L28.3521 98.5817L29.1074 96.7262ZM40.3006 77.0677C39.6757 78.2481 38.8744 79.1672 37.8966 79.8249C36.9188 80.4827 35.8458 80.8312 34.6776 80.8704C33.4986 80.9039 32.3134 80.6054 31.122 79.9748C29.9307 79.3441 29.0174 78.5319 28.3822 77.538C27.747 76.5441 27.4264 75.4579 27.4206 74.2795C27.4147 73.1011 27.7242 71.9217 28.349 70.7413C29.1822 69.1674 30.2782 68.0616 31.6373 67.4237L33.2439 68.2742C31.899 68.7796 30.8071 69.8247 29.9682 71.4095C29.4996 72.2948 29.2634 73.1772 29.2596 74.0566C29.2615 74.9252 29.5001 75.7301 29.9752 76.4713C30.4394 77.2068 31.1197 77.8117 32.0159 78.2861C32.9121 78.7605 33.8003 78.9858 34.6804 78.962C35.5663 78.9272 36.369 78.6665 37.0884 78.1798C37.8135 77.6821 38.4075 76.9961 38.8704 76.1218C39.2985 75.313 39.5765 74.5367 39.7044 73.7928C39.8272 73.0323 39.7982 72.2544 39.6175 71.4591L41.2405 72.3183C41.5396 73.7358 41.2262 75.319 40.3006 77.0677ZM34.5425 60.5784L35.5008 59.0337L49.2473 61.4708L48.2303 63.1102L44.8031 62.5121L41.7816 67.3829L43.8594 70.1562L42.8327 71.8113L34.5425 60.5784ZM43.1894 62.1224L36.8028 60.911L40.7253 66.0946L43.1894 62.1224ZM41.8017 52.4831L39.4681 55.7629L38.1683 54.838L43.9431 46.7216L45.2429 47.6465L42.9094 50.9263L52.1745 57.5184L51.0668 59.0751L41.8017 52.4831ZM47.2936 42.8463L48.4548 41.4476L61.7368 45.7481L60.5045 47.2324L57.1917 46.1697L53.5304 50.5798L55.208 53.612L53.9639 55.1106L47.2936 42.8463ZM55.6468 45.5622L49.4869 43.4859L52.6609 49.1587L55.6468 45.5622ZM53.8657 35.1599L55.1921 33.8106L63.3143 41.7949L67.9177 37.1121L69.0421 38.2175L63.1123 44.2496L53.8657 35.1599ZM74.6799 33.8765C73.6983 34.7074 72.6312 35.246 71.4788 35.4924C70.3184 35.7293 69.1801 35.6478 68.0639 35.2478C66.9477 34.8479 65.9622 34.1429 65.1073 33.1329C64.2524 32.1229 63.72 31.0345 63.5099 29.8675C63.2999 28.7006 63.4075 27.5645 63.8329 26.4592C64.2583 25.3539 64.9618 24.3857 65.9434 23.5548C66.9251 22.7239 67.9961 22.19 69.1565 21.9531C70.3169 21.7162 71.4552 21.7977 72.5714 22.1976C73.6876 22.5976 74.6732 23.3025 75.528 24.3125C76.3829 25.3225 76.9154 26.411 77.1254 27.5779C77.3355 28.7448 77.2278 29.881 76.8025 30.9863C76.3691 32.0822 75.6616 33.0456 74.6799 33.8765ZM73.5774 32.5739C74.2759 31.9826 74.7765 31.2916 75.0792 30.5007C75.3833 29.6925 75.4569 28.8606 75.2999 28.0052C75.1349 27.1403 74.7248 26.3209 74.0697 25.5469C73.4226 24.7823 72.6901 24.252 71.8724 23.9558C71.0561 23.6422 70.233 23.5694 69.403 23.7373C68.565 23.8957 67.7968 24.2706 67.0983 24.8618C66.3903 25.461 65.8803 26.16 65.5682 26.9589C65.2655 27.7497 65.1919 28.5816 65.3475 29.4544C65.5124 30.3193 65.9185 31.134 66.5656 31.8986C67.2208 32.6726 67.9612 33.2124 68.7869 33.5179C69.6047 33.8141 70.4325 33.8829 71.2705 33.7245C72.1099 33.5486 72.8789 33.1651 73.5774 32.5739ZM86.6971 24.8612C85.5853 25.6012 84.4428 26.0274 83.2698 26.1397C82.0967 26.252 80.9873 26.0471 79.9416 25.525C78.889 24.9926 77.9893 24.1654 77.2424 23.0433C76.4955 21.9212 76.0797 20.7719 75.9948 19.5954C75.9099 18.4189 76.1457 17.3112 76.7021 16.2724C77.2585 15.2336 78.0926 14.3441 79.2044 13.6041C80.6971 12.6106 82.1843 12.1555 83.6659 12.2389L84.6731 13.7522C83.2568 13.5659 81.8022 13.9696 80.3095 14.9631C79.4962 15.5045 78.8784 16.1608 78.4559 16.9322C78.0335 17.7036 77.8494 18.5318 77.9036 19.4167C77.9613 20.2845 78.2711 21.1405 78.8329 21.9846C79.3948 22.8288 80.0683 23.4501 80.8534 23.8485C81.6386 24.2469 82.4633 24.4036 83.3277 24.3185C84.1921 24.2334 85.0258 23.9236 85.8287 23.3892C86.7655 22.7656 87.4057 22.0647 87.7493 21.2864L85.8684 18.4605L83.8146 19.8275L82.9615 18.5458L86.5904 16.1305L89.8794 21.0719C89.6627 21.7954 89.2867 22.4691 88.7512 23.0929C88.2259 23.7099 87.5413 24.2993 86.6971 24.8612ZM97.0481 18.7899C95.4809 19.609 94.0881 19.8276 92.8699 19.4457C91.646 19.0528 90.6646 18.1495 89.9256 16.7357L86.1623 9.53504L87.8392 8.65865L91.6369 15.925C92.1467 16.9005 92.8073 17.497 93.6188 17.7148C94.4245 17.9216 95.3042 17.7758 96.2577 17.2775C97.2002 16.7849 97.8166 16.1488 98.1068 15.3692C98.3913 14.5786 98.2787 13.6956 97.7689 12.7202L93.9712 5.45383L95.6481 4.57745L99.4114 11.7781C100.145 13.1809 100.323 14.4969 99.9469 15.7261C99.5707 16.9553 98.6044 17.9766 97.0481 18.7899ZM98.8918 3.08277L106.819 -0.125302L107.417 1.35345L101.244 3.85171L102.782 7.65176L107.39 5.78677L107.982 7.24833L103.374 9.11332L104.918 12.9306L111.091 10.4323L111.683 11.8939L103.756 15.1019L98.8918 3.08277Z" fill="black"/>
</svg>
