<svg width="134" height="243" viewBox="0 0 134 243" fill="none" xmlns="http://www.w3.org/2000/svg">
<path d="M117.756 13.0181L118.184 14.9752L108.909 21.1822L119.929 22.9484L120.357 24.9054L106.584 22.6213L106.196 20.8455L117.756 13.0181ZM120.854 27.5161L121.173 29.4L108.389 31.5633L108.07 29.6795L120.854 27.5161ZM121.606 32.3153L122.687 40.798L121.105 40.9997L120.262 34.3939L116.196 34.9124L116.825 39.8438L115.261 40.0432L114.632 35.1118L110.547 35.6326L111.389 42.2385L109.825 42.4379L108.744 33.9552L121.606 32.3153ZM122.876 43.1778L122.961 45.1422L113.247 48.4633L123.212 50.8871L123.277 52.3697L113.561 55.6351L123.528 58.096L123.613 60.0604L110.494 56.846L110.416 55.0484L120.075 51.7484L110.166 49.3221L110.087 47.5245L122.876 43.1778ZM123.264 70.64L122.52 79.159L120.931 79.0201L121.51 72.3861L117.389 72.0261L116.957 76.9786L115.46 76.8478L115.893 71.8954L110.182 71.3966L110.347 69.5118L123.264 70.64ZM122.184 81.6945L121.373 86.8435C121.158 88.2116 120.662 89.2103 119.887 89.8394C119.112 90.4684 118.09 90.6829 116.819 90.4829C115.878 90.3348 115.118 89.9583 114.537 89.3536C113.968 88.7508 113.64 87.973 113.552 87.0203L107.904 89.0227L108.21 87.0804L113.697 85.1465L114.139 82.343L109.081 81.5466L109.376 79.6776L122.184 81.6945ZM115.247 85.5596C115.118 86.378 115.206 87.0553 115.509 87.5913C115.823 88.1415 116.359 88.4763 117.116 88.5955C117.947 88.7263 118.577 88.5814 119.006 88.1608C119.434 87.7524 119.714 87.1267 119.846 86.2838L120.314 83.3154L115.715 82.5911L115.247 85.5596ZM105.699 97.0027C106.008 95.7542 106.557 94.6925 107.347 93.8176C108.148 92.9457 109.118 92.3448 110.257 92.0149C111.396 91.685 112.608 91.6788 113.892 91.9964C115.177 92.314 116.246 92.884 117.1 93.7066C117.954 94.5292 118.532 95.513 118.835 96.6579C119.138 97.8028 119.135 98.9996 118.827 100.248C118.518 101.497 117.963 102.557 117.161 103.429C116.36 104.301 115.39 104.902 114.251 105.231C113.112 105.561 111.9 105.567 110.616 105.25C109.331 104.932 108.262 104.362 107.408 103.54C106.554 102.717 105.976 101.733 105.673 100.588C105.382 99.4465 105.391 98.2512 105.699 97.0027ZM107.356 97.4123C107.136 98.3006 107.136 99.1539 107.354 99.9722C107.581 100.805 108.009 101.523 108.637 102.124C109.277 102.728 110.09 103.152 111.074 103.395C112.047 103.636 112.951 103.636 113.787 103.397C114.632 103.173 115.342 102.75 115.916 102.127C116.503 101.508 116.906 100.754 117.125 99.8656C117.348 98.9653 117.351 98.0999 117.136 97.2697C116.918 96.4515 116.491 95.7342 115.853 95.1181C115.213 94.5139 114.406 94.0916 113.434 93.8512C112.449 93.6078 111.533 93.6042 110.685 93.8404C109.849 94.0795 109.137 94.5088 108.551 95.1282C107.974 95.7625 107.576 96.5239 107.356 97.4123ZM115.946 109.98L115.313 111.763L104.24 112.732L112.221 120.468L111.587 122.251L99.3691 117.911L99.9838 116.18L108.671 119.266L101.393 112.212L101.704 111.338L111.807 110.439L103.119 107.353L103.728 105.64L115.946 109.98ZM98.109 132.504L107.419 131.934L106.507 133.738L99.2959 134.144L103.216 140.243L102.312 142.03L97.28 134.142L92.8937 131.924L93.7226 130.285L98.109 132.504ZM86.8491 141.913C87.5188 140.815 88.3616 139.967 89.3776 139.37C90.4042 138.779 91.5101 138.498 92.6955 138.526C93.8809 138.553 95.0384 138.912 96.1681 139.601C97.2977 140.29 98.1461 141.155 98.7133 142.196C99.2805 143.237 99.5365 144.349 99.4812 145.532C99.426 146.716 99.0635 147.856 98.3938 148.954C97.7241 150.052 96.876 150.896 95.8495 151.487C94.8229 152.078 93.7169 152.359 92.5316 152.331C91.3462 152.304 90.1887 151.945 89.059 151.256C87.9294 150.567 87.0809 149.702 86.5137 148.661C85.9465 147.62 85.6906 146.508 85.7458 145.325C85.8116 144.148 86.1794 143.011 86.8491 141.913ZM88.306 142.801C87.8295 143.583 87.5723 144.396 87.5343 145.242C87.5005 146.105 87.6929 146.918 88.1115 147.68C88.5407 148.449 89.1882 149.097 90.0539 149.625C90.9091 150.147 91.7713 150.419 92.6407 150.442C93.5142 150.483 94.3184 150.292 95.0531 149.871C95.7985 149.457 96.4094 148.859 96.8859 148.078C97.3688 147.286 97.6325 146.462 97.6769 145.605C97.7149 144.759 97.5225 143.947 97.0997 143.167C96.6705 142.399 96.0283 141.753 95.1732 141.232C94.3075 140.704 93.4346 140.425 92.5547 140.395C91.6853 140.372 90.8779 140.568 90.1326 140.982C89.3914 141.414 88.7825 142.02 88.306 142.801ZM79.0693 153.671C80.1085 152.24 81.2585 151.424 82.5194 151.224C83.7904 151.032 85.0712 151.404 86.362 152.341L92.936 157.116L91.8241 158.647L85.1901 153.829C84.2996 153.182 83.4425 152.942 82.6189 153.108C81.8053 153.281 81.0824 153.803 80.4502 154.673C79.8252 155.534 79.5562 156.378 79.6431 157.205C79.7401 158.04 80.2338 158.78 81.1243 159.427L87.7583 164.245L86.6465 165.776L80.0725 161.002C78.7918 160.072 78.0464 158.972 77.8364 157.704C77.6265 156.436 78.0374 155.091 79.0693 153.671ZM84.6735 168.301L81.3299 172.3C80.4414 173.362 79.503 173.964 78.5148 174.105C77.5265 174.246 76.5391 173.904 75.5525 173.079C74.822 172.468 74.3632 171.754 74.1762 170.937C73.9986 170.127 74.1172 169.291 74.5319 168.429L68.658 167.241L69.9193 165.733L75.6199 166.897L77.4404 164.719L73.5129 161.435L74.7266 159.984L84.6735 168.301ZM76.7366 168.048C76.2051 168.684 75.9317 169.309 75.9164 169.925C75.9027 170.559 76.1899 171.121 76.7781 171.613C77.4232 172.152 78.038 172.352 78.6225 172.212C79.199 172.082 79.761 171.689 80.3084 171.035L82.236 168.729L78.6642 165.743L76.7366 168.048ZM71.7603 182.946L70.3348 184.3L61.4527 179.153L66.1658 188.261L65.0899 189.283L56.2482 184.097L60.9344 193.231L59.5089 194.585L53.3218 182.579L54.6263 181.339L63.4566 186.46L58.7818 177.391L60.0863 176.152L71.7603 182.946ZM57.2462 196.56L50.6227 201.969L49.6137 200.733L54.7717 196.521L52.1787 193.346L48.3282 196.49L47.3309 195.269L51.1814 192.125L48.5767 188.935L43.4187 193.147L42.4215 191.926L49.045 186.517L57.2462 196.56ZM48.5028 203.589L43.6902 207.095C42.7607 207.772 41.8663 208.057 41.007 207.948C40.1477 207.84 39.3831 207.326 38.7131 206.407C38.3345 205.887 38.1244 205.336 38.083 204.754C38.0389 204.19 38.1476 203.667 38.409 203.186C37.0493 203.671 35.8961 203.264 34.9494 201.965C34.5052 201.355 34.2542 200.727 34.1963 200.081C34.1358 199.452 34.248 198.85 34.533 198.275C34.818 197.7 35.2404 197.209 35.8001 196.801L40.8676 193.109L48.5028 203.589ZM40.6082 202.455C40.1184 202.812 39.8319 203.227 39.7487 203.701C39.6654 204.175 39.8168 204.677 40.2027 205.206C40.647 205.816 41.0964 206.139 41.551 206.175C42.0029 206.228 42.5137 206.047 43.0834 205.632L46.067 203.459L43.6967 200.205L40.6082 202.455ZM37.0516 197.794C36.4619 198.224 36.1068 198.681 35.9862 199.167C35.8657 199.653 36.0349 200.21 36.4936 200.84C36.9524 201.47 37.445 201.799 37.9714 201.829C38.4879 201.866 39.071 201.647 39.7206 201.174L42.7791 198.946L40.245 195.468L37.0516 197.794ZM28.5881 201.364C29.2124 200.963 29.8682 200.622 30.5556 200.342C31.2259 200.059 31.8136 199.887 32.3189 199.827L33.2413 201.263C31.9417 201.436 30.7145 201.894 29.5596 202.636C27.9365 203.678 27.4759 204.746 28.1777 205.838C28.4183 206.213 28.7006 206.458 29.0245 206.573C29.3484 206.688 29.7303 206.722 30.1702 206.675C30.6168 206.638 31.3116 206.53 32.2545 206.35C33.5519 206.105 34.5899 206.084 35.3686 206.29C36.1472 206.495 36.7805 206.977 37.2684 207.737C37.636 208.309 37.8041 208.914 37.7727 209.552C37.748 210.2 37.5316 210.824 37.1235 211.424C36.7221 212.034 36.1572 212.574 35.4289 213.042C34.8359 213.423 34.27 213.72 33.7312 213.934C33.1924 214.148 32.6273 214.298 32.0358 214.384L31.1536 213.01C32.3194 212.834 33.3653 212.449 34.2913 211.854C35.0404 211.373 35.5258 210.87 35.7474 210.346C35.969 209.821 35.9193 209.309 35.5985 208.81C35.3779 208.466 35.1075 208.229 34.7873 208.096C34.4634 207.981 34.0748 207.937 33.6216 207.963C33.1646 208.007 32.5163 208.107 31.6766 208.265C30.7441 208.438 29.9776 208.526 29.3772 208.529C28.7769 208.533 28.2404 208.407 27.768 208.152C27.2917 207.914 26.8665 207.504 26.4922 206.921C25.8839 205.974 25.7508 205.024 26.0929 204.069C26.435 203.114 27.2667 202.213 28.5881 201.364ZM29.5604 216.411L27.9129 217.379L21.3465 206.198L22.994 205.231L29.5604 216.411ZM21.6338 218.965L25.1943 217.087L25.9384 218.498L17.1272 223.144L16.3832 221.733L19.9437 219.856L14.6399 209.798L16.3299 208.906L21.6338 218.965ZM14.776 224.248L6.94464 227.683L6.30395 226.222L12.4026 223.547L10.7562 219.793L6.20342 221.79L5.57017 220.346L10.1229 218.349L8.46904 214.578L2.3704 217.252L1.73716 215.808L9.56856 212.374L14.776 224.248Z" fill="#FF0000"/>
</svg>
