<svg width="131" height="198" viewBox="0 0 131 198" fill="none" xmlns="http://www.w3.org/2000/svg">
<path d="M0.351578 184.178C-0.285721 185.121 -0.0377351 186.402 0.905441 187.039L16.2755 197.424C17.2186 198.062 18.4999 197.814 19.1371 196.871C19.7744 195.927 19.5264 194.646 18.5833 194.009L4.92104 184.778L14.1523 171.115C14.7896 170.172 14.5416 168.891 13.5984 168.254C12.6552 167.616 11.374 167.864 10.7367 168.808L0.351578 184.178ZM124.847 0.438965L122.833 0.877731C142.064 89.142 80.5066 168.049 1.6677 183.308L2.05935 185.332L2.451 187.355C83.3449 171.698 146.63 90.736 126.861 0.000198226L124.847 0.438965Z" fill="#606060"/>
</svg>
