<svg width="389" height="237" viewBox="0 0 389 237" fill="none" xmlns="http://www.w3.org/2000/svg">
<path d="M3.26757 195.122L1.58309 194.331L0.00106549 197.7L1.68555 198.491L2.47656 196.806L3.26757 195.122ZM375.917 0.545427C375.191 -0.181325 374.012 -0.181325 373.286 0.545427L361.443 12.3885C360.716 13.1153 360.716 14.2936 361.443 15.0203C362.169 15.7471 363.348 15.7471 364.074 15.0203L374.602 4.49313L385.129 15.0203C385.856 15.7471 387.034 15.7471 387.761 15.0203C388.487 14.2936 388.487 13.1153 387.761 12.3885L375.917 0.545427ZM2.47656 196.806L1.68555 198.491C97.625 243.542 191.265 248.583 261.049 215.121C330.946 181.605 376.463 109.681 376.463 1.86133H374.602H372.741C372.741 108.541 327.802 178.985 259.44 211.765C190.965 244.599 98.5423 239.861 3.26757 195.122L2.47656 196.806Z" fill="black"/>
</svg>
