<svg width="137" height="264" viewBox="0 0 137 264" fill="none" xmlns="http://www.w3.org/2000/svg">
<g filter="url(#filter0_d_2675_961)">
<rect x="4.12109" y="190.824" width="128.611" height="64.6107" rx="7.21374" fill="black" shape-rendering="crispEdges"/>
<rect x="5.15163" y="191.855" width="126.55" height="62.5496" rx="6.18321" stroke="white" stroke-width="2.06107" shape-rendering="crispEdges"/>
<path d="M23.7009 207.102V217.129H22.0561V212.743H17.3384V217.129H15.6936V207.102H17.3384V211.401H22.0561V207.102H23.7009ZM26.7029 208.126C26.4047 208.126 26.1547 208.025 25.9527 207.823C25.7507 207.621 25.6497 207.371 25.6497 207.073C25.6497 206.775 25.7507 206.525 25.9527 206.323C26.1547 206.121 26.4047 206.02 26.7029 206.02C26.9915 206.02 27.2367 206.121 27.4387 206.323C27.6407 206.525 27.7417 206.775 27.7417 207.073C27.7417 207.371 27.6407 207.621 27.4387 207.823C27.2367 208.025 26.9915 208.126 26.7029 208.126ZM27.5109 209.179V217.129H25.8661V209.179H27.5109ZM32.8731 209.05C33.4887 209.05 34.0322 209.175 34.5034 209.425C34.9844 209.665 35.3595 209.968 35.6288 210.334V209.179H37.288V217.259C37.288 217.99 37.1341 218.639 36.8263 219.206C36.5185 219.784 36.0712 220.236 35.4845 220.563C34.9074 220.89 34.2149 221.053 33.407 221.053C32.3297 221.053 31.4352 220.798 30.7234 220.289C30.0117 219.788 29.6077 219.105 29.5115 218.24H31.1418C31.2669 218.653 31.5314 218.985 31.9354 219.235C32.3489 219.495 32.8395 219.625 33.407 219.625C34.0706 219.625 34.6044 219.423 35.0084 219.019C35.422 218.615 35.6288 218.028 35.6288 217.259V215.931C35.3499 216.307 34.9699 216.624 34.489 216.884C34.0177 217.134 33.4791 217.259 32.8731 217.259C32.1806 217.259 31.5458 217.086 30.9687 216.739C30.4012 216.383 29.9492 215.893 29.6125 215.268C29.2855 214.633 29.122 213.916 29.122 213.118C29.122 212.32 29.2855 211.613 29.6125 210.997C29.9492 210.382 30.4012 209.906 30.9687 209.569C31.5458 209.223 32.1806 209.05 32.8731 209.05ZM35.6288 213.147C35.6288 212.599 35.5134 212.123 35.2825 211.719C35.0613 211.315 34.768 211.007 34.4025 210.795C34.037 210.584 33.6426 210.478 33.2194 210.478C32.7962 210.478 32.4018 210.584 32.0364 210.795C31.6709 210.997 31.3727 211.3 31.1418 211.704C30.9206 212.099 30.81 212.57 30.81 213.118C30.81 213.666 30.9206 214.147 31.1418 214.561C31.3727 214.974 31.6709 215.292 32.0364 215.513C32.4115 215.725 32.8058 215.83 33.2194 215.83C33.6426 215.83 34.037 215.725 34.4025 215.513C34.768 215.301 35.0613 214.994 35.2825 214.59C35.5134 214.176 35.6288 213.695 35.6288 213.147ZM43.5601 209.05C44.166 209.05 44.7047 209.179 45.176 209.439C45.6569 209.699 46.032 210.083 46.3013 210.593C46.5802 211.103 46.7197 211.719 46.7197 212.44V217.129H45.0894V212.685C45.0894 211.973 44.9114 211.43 44.5556 211.055C44.1997 210.67 43.714 210.478 43.0984 210.478C42.4828 210.478 41.9923 210.67 41.6268 211.055C41.2709 211.43 41.093 211.973 41.093 212.685V217.129H39.4482V206.453H41.093V210.103C41.3719 209.766 41.723 209.506 42.1462 209.324C42.579 209.141 43.0503 209.05 43.5601 209.05ZM50.4624 206.453V217.129H48.8177V206.453H50.4624ZM53.4586 208.126C53.1604 208.126 52.9103 208.025 52.7083 207.823C52.5064 207.621 52.4054 207.371 52.4054 207.073C52.4054 206.775 52.5064 206.525 52.7083 206.323C52.9103 206.121 53.1604 206.02 53.4586 206.02C53.7471 206.02 53.9924 206.121 54.1944 206.323C54.3964 206.525 54.4973 206.775 54.4973 207.073C54.4973 207.371 54.3964 207.621 54.1944 207.823C53.9924 208.025 53.7471 208.126 53.4586 208.126ZM54.2665 209.179V217.129H52.6218V209.179H54.2665ZM59.6288 209.05C60.2444 209.05 60.7878 209.175 61.2591 209.425C61.74 209.665 62.1151 209.968 62.3844 210.334V209.179H64.0436V217.259C64.0436 217.99 63.8897 218.639 63.5819 219.206C63.2741 219.784 62.8269 220.236 62.2402 220.563C61.6631 220.89 60.9706 221.053 60.1626 221.053C59.0854 221.053 58.1909 220.798 57.4791 220.289C56.7673 219.788 56.3634 219.105 56.2672 218.24H57.8975C58.0225 218.653 58.287 218.985 58.691 219.235C59.1046 219.495 59.5951 219.625 60.1626 219.625C60.8263 219.625 61.3601 219.423 61.7641 219.019C62.1777 218.615 62.3844 218.028 62.3844 217.259V215.931C62.1055 216.307 61.7256 216.624 61.2447 216.884C60.7734 217.134 60.2348 217.259 59.6288 217.259C58.9363 217.259 58.3015 217.086 57.7244 216.739C57.1569 216.383 56.7048 215.893 56.3682 215.268C56.0412 214.633 55.8777 213.916 55.8777 213.118C55.8777 212.32 56.0412 211.613 56.3682 210.997C56.7048 210.382 57.1569 209.906 57.7244 209.569C58.3015 209.223 58.9363 209.05 59.6288 209.05ZM62.3844 213.147C62.3844 212.599 62.269 212.123 62.0382 211.719C61.817 211.315 61.5236 211.007 61.1581 210.795C60.7926 210.584 60.3983 210.478 59.9751 210.478C59.5518 210.478 59.1575 210.584 58.792 210.795C58.4265 210.997 58.1283 211.3 57.8975 211.704C57.6763 212.099 57.5657 212.57 57.5657 213.118C57.5657 213.666 57.6763 214.147 57.8975 214.561C58.1283 214.974 58.4265 215.292 58.792 215.513C59.1671 215.725 59.5615 215.83 59.9751 215.83C60.3983 215.83 60.7926 215.725 61.1581 215.513C61.5236 215.301 61.817 214.994 62.0382 214.59C62.269 214.176 62.3844 213.695 62.3844 213.147ZM70.3157 209.05C70.9217 209.05 71.4603 209.179 71.9316 209.439C72.4125 209.699 72.7876 210.083 73.0569 210.593C73.3359 211.103 73.4753 211.719 73.4753 212.44V217.129H71.845V212.685C71.845 211.973 71.6671 211.43 71.3112 211.055C70.9553 210.67 70.4696 210.478 69.854 210.478C69.2385 210.478 68.7479 210.67 68.3824 211.055C68.0266 211.43 67.8486 211.973 67.8486 212.685V217.129H66.2039V206.453H67.8486V210.103C68.1276 209.766 68.4786 209.506 68.9018 209.324C69.3347 209.141 69.806 209.05 70.3157 209.05ZM77.4922 210.521V214.922C77.4922 215.22 77.5595 215.436 77.6941 215.571C77.8384 215.696 78.0789 215.758 78.4155 215.758H79.4254V217.129H78.127C77.3864 217.129 76.8189 216.956 76.4245 216.61C76.0302 216.263 75.833 215.701 75.833 214.922V210.521H74.8952V209.179H75.833V207.203H77.4922V209.179H79.4254V210.521H77.4922ZM94.3122 209.05C94.9374 209.05 95.4953 209.179 95.9858 209.439C96.486 209.699 96.8755 210.083 97.1544 210.593C97.443 211.103 97.5873 211.719 97.5873 212.44V217.129H95.957V212.685C95.957 211.973 95.779 211.43 95.4231 211.055C95.0673 210.67 94.5815 210.478 93.966 210.478C93.3504 210.478 92.8599 210.67 92.4944 211.055C92.1385 211.43 91.9606 211.973 91.9606 212.685V217.129H90.3302V212.685C90.3302 211.973 90.1523 211.43 89.7964 211.055C89.4406 210.67 88.9548 210.478 88.3393 210.478C87.7237 210.478 87.2331 210.67 86.8677 211.055C86.5118 211.43 86.3338 211.973 86.3338 212.685V217.129H84.6891V209.179H86.3338V210.088C86.6031 209.761 86.9446 209.506 87.3582 209.324C87.7718 209.141 88.2142 209.05 88.6855 209.05C89.3203 209.05 89.8878 209.184 90.388 209.453C90.8881 209.723 91.2728 210.112 91.5422 210.622C91.7826 210.141 92.1577 209.761 92.6675 209.482C93.1773 209.194 93.7255 209.05 94.3122 209.05ZM103.128 217.259C102.378 217.259 101.7 217.09 101.094 216.754C100.488 216.408 100.012 215.927 99.6657 215.311C99.3195 214.686 99.1463 213.964 99.1463 213.147C99.1463 212.339 99.3243 211.622 99.6802 210.997C100.036 210.372 100.522 209.891 101.137 209.554C101.753 209.218 102.441 209.05 103.2 209.05C103.96 209.05 104.648 209.218 105.264 209.554C105.879 209.891 106.365 210.372 106.721 210.997C107.077 211.622 107.255 212.339 107.255 213.147C107.255 213.955 107.072 214.671 106.706 215.297C106.341 215.922 105.841 216.408 105.206 216.754C104.581 217.09 103.888 217.259 103.128 217.259ZM103.128 215.83C103.552 215.83 103.946 215.729 104.311 215.527C104.686 215.325 104.989 215.022 105.22 214.619C105.451 214.215 105.567 213.724 105.567 213.147C105.567 212.57 105.456 212.084 105.235 211.69C105.014 211.286 104.72 210.983 104.355 210.781C103.989 210.579 103.595 210.478 103.172 210.478C102.748 210.478 102.354 210.579 101.989 210.781C101.633 210.983 101.349 211.286 101.137 211.69C100.926 212.084 100.82 212.57 100.82 213.147C100.82 214.003 101.036 214.667 101.469 215.138C101.912 215.6 102.465 215.83 103.128 215.83ZM110.525 210.334C110.766 209.93 111.083 209.617 111.477 209.396C111.881 209.165 112.358 209.05 112.906 209.05V210.752H112.487C111.843 210.752 111.352 210.915 111.016 211.242C110.689 211.57 110.525 212.137 110.525 212.945V217.129H108.88V209.179H110.525V210.334ZM121.703 212.959C121.703 213.258 121.684 213.527 121.646 213.767H115.572C115.62 214.402 115.856 214.912 116.279 215.297C116.702 215.681 117.221 215.874 117.837 215.874C118.722 215.874 119.347 215.503 119.712 214.763H121.487C121.247 215.494 120.809 216.095 120.174 216.566C119.549 217.028 118.77 217.259 117.837 217.259C117.077 217.259 116.394 217.09 115.788 216.754C115.192 216.408 114.721 215.927 114.374 215.311C114.038 214.686 113.869 213.964 113.869 213.147C113.869 212.329 114.033 211.613 114.36 210.997C114.697 210.372 115.163 209.891 115.759 209.554C116.365 209.218 117.058 209.05 117.837 209.05C118.587 209.05 119.256 209.213 119.842 209.54C120.429 209.867 120.886 210.329 121.213 210.925C121.54 211.512 121.703 212.19 121.703 212.959ZM119.987 212.44C119.977 211.834 119.761 211.348 119.337 210.983C118.914 210.617 118.39 210.435 117.765 210.435C117.197 210.435 116.712 210.617 116.308 210.983C115.904 211.339 115.663 211.824 115.586 212.44H119.987ZM42.6612 232.521H41.1896V239.129H39.5305V232.521H38.5927V231.179H39.5305V230.617C39.5305 229.703 39.7709 229.039 40.2518 228.626C40.7424 228.202 41.507 227.991 42.5458 227.991V229.362C42.0457 229.362 41.6946 229.458 41.4926 229.65C41.2906 229.833 41.1896 230.155 41.1896 230.617V231.179H42.6612V232.521ZM51.4047 234.959C51.4047 235.258 51.3855 235.527 51.347 235.767H45.2731C45.3211 236.402 45.5568 236.912 45.98 237.297C46.4032 237.681 46.9226 237.874 47.5382 237.874C48.4231 237.874 49.0482 237.503 49.4137 236.763H51.1883C50.9479 237.494 50.5102 238.095 49.8754 238.566C49.2502 239.028 48.4711 239.259 47.5382 239.259C46.7783 239.259 46.0954 239.09 45.4895 238.754C44.8931 238.408 44.4218 237.927 44.0756 237.311C43.7389 236.686 43.5706 235.964 43.5706 235.147C43.5706 234.329 43.7341 233.613 44.0611 232.997C44.3978 232.372 44.8643 231.891 45.4606 231.554C46.0666 231.218 46.7591 231.05 47.5382 231.05C48.2884 231.05 48.9569 231.213 49.5436 231.54C50.1303 231.867 50.5872 232.329 50.9142 232.925C51.2412 233.512 51.4047 234.19 51.4047 234.959ZM49.6879 234.44C49.6782 233.834 49.4618 233.348 49.0386 232.983C48.6154 232.617 48.0912 232.435 47.466 232.435C46.8986 232.435 46.4128 232.617 46.0089 232.983C45.6049 233.339 45.3644 233.824 45.2875 234.44H49.6879ZM52.4751 235.118C52.4751 234.32 52.6386 233.613 52.9656 232.997C53.3022 232.382 53.7543 231.906 54.3218 231.569C54.8989 231.223 55.5337 231.05 56.2262 231.05C56.8514 231.05 57.3948 231.175 57.8565 231.425C58.3278 231.665 58.7029 231.968 58.9819 232.334V231.179H60.641V239.129H58.9819V237.946C58.7029 238.321 58.323 238.634 57.8421 238.884C57.3612 239.134 56.8129 239.259 56.1974 239.259C55.5145 239.259 54.8893 239.086 54.3218 238.739C53.7543 238.383 53.3022 237.893 52.9656 237.268C52.6386 236.633 52.4751 235.916 52.4751 235.118ZM58.9819 235.147C58.9819 234.599 58.8664 234.123 58.6356 233.719C58.4144 233.315 58.121 233.007 57.7555 232.795C57.39 232.584 56.9957 232.478 56.5725 232.478C56.1493 232.478 55.7549 232.584 55.3894 232.795C55.0239 232.997 54.7258 233.3 54.4949 233.704C54.2737 234.099 54.1631 234.57 54.1631 235.118C54.1631 235.666 54.2737 236.147 54.4949 236.561C54.7258 236.974 55.0239 237.292 55.3894 237.513C55.7645 237.725 56.1589 237.83 56.5725 237.83C56.9957 237.83 57.39 237.725 57.7555 237.513C58.121 237.301 58.4144 236.994 58.6356 236.59C58.8664 236.176 58.9819 235.695 58.9819 235.147ZM64.7202 232.521V236.922C64.7202 237.22 64.7875 237.436 64.9222 237.571C65.0664 237.696 65.3069 237.758 65.6435 237.758H66.6535V239.129H65.355C64.6144 239.129 64.0469 238.956 63.6525 238.61C63.2582 238.263 63.061 237.701 63.061 236.922V232.521H62.1232V231.179H63.061V229.203H64.7202V231.179H66.6535V232.521H64.7202ZM75.3687 231.179V239.129H73.7239V238.191C73.4642 238.518 73.1228 238.778 72.6996 238.97C72.286 239.153 71.8436 239.244 71.3723 239.244C70.7471 239.244 70.1844 239.114 69.6842 238.855C69.1937 238.595 68.8042 238.21 68.5156 237.701C68.2367 237.191 68.0972 236.575 68.0972 235.854V231.179H69.7275V235.609C69.7275 236.32 69.9055 236.869 70.2613 237.253C70.6172 237.628 71.1029 237.816 71.7185 237.816C72.3341 237.816 72.8198 237.628 73.1757 237.253C73.5412 236.869 73.7239 236.32 73.7239 235.609V231.179H75.3687ZM79.1835 232.334C79.424 231.93 79.7414 231.617 80.1357 231.396C80.5397 231.165 81.0158 231.05 81.564 231.05V232.752H81.1456C80.5012 232.752 80.0107 232.915 79.674 233.242C79.347 233.57 79.1835 234.137 79.1835 234.945V239.129H77.5388V231.179H79.1835V232.334ZM90.3618 234.959C90.3618 235.258 90.3425 235.527 90.304 235.767H84.2301C84.2782 236.402 84.5138 236.912 84.937 237.297C85.3602 237.681 85.8796 237.874 86.4952 237.874C87.3801 237.874 88.0053 237.503 88.3708 236.763H90.1453C89.9049 237.494 89.4672 238.095 88.8324 238.566C88.2072 239.028 87.4282 239.259 86.4952 239.259C85.7353 239.259 85.0524 239.09 84.4465 238.754C83.8501 238.408 83.3789 237.927 83.0326 237.311C82.6959 236.686 82.5276 235.964 82.5276 235.147C82.5276 234.329 82.6911 233.613 83.0182 232.997C83.3548 232.372 83.8213 231.891 84.4176 231.554C85.0236 231.218 85.7161 231.05 86.4952 231.05C87.2454 231.05 87.9139 231.213 88.5006 231.54C89.0873 231.867 89.5442 232.329 89.8712 232.925C90.1982 233.512 90.3618 234.19 90.3618 234.959ZM88.6449 234.44C88.6353 233.834 88.4189 233.348 87.9956 232.983C87.5724 232.617 87.0482 232.435 86.423 232.435C85.8556 232.435 85.3698 232.617 84.9659 232.983C84.5619 233.339 84.3214 233.824 84.2445 234.44H88.6449ZM94.8658 239.259C94.2406 239.259 93.678 239.148 93.1778 238.927C92.6873 238.696 92.2977 238.388 92.0092 238.004C91.7206 237.609 91.5667 237.172 91.5475 236.691H93.2499C93.2788 237.027 93.4375 237.311 93.7261 237.542C94.0242 237.763 94.3945 237.874 94.837 237.874C95.2987 237.874 95.6545 237.787 95.9046 237.614C96.1643 237.431 96.2941 237.2 96.2941 236.922C96.2941 236.623 96.1499 236.402 95.8613 236.258C95.5824 236.114 95.1351 235.955 94.5196 235.782C93.9232 235.618 93.4375 235.46 93.0624 235.306C92.6873 235.152 92.3603 234.916 92.0813 234.599C91.812 234.281 91.6774 233.863 91.6774 233.343C91.6774 232.92 91.8024 232.536 92.0525 232.189C92.3025 231.833 92.6584 231.554 93.1201 231.352C93.5914 231.151 94.13 231.05 94.736 231.05C95.6401 231.05 96.3663 231.28 96.9145 231.742C97.4724 232.194 97.7706 232.814 97.809 233.603H96.1643C96.1354 233.247 95.9912 232.964 95.7315 232.752C95.4718 232.54 95.1207 232.435 94.6783 232.435C94.2454 232.435 93.9136 232.516 93.6828 232.68C93.4519 232.843 93.3365 233.06 93.3365 233.329C93.3365 233.541 93.4135 233.719 93.5674 233.863C93.7212 234.007 93.9088 234.123 94.13 234.209C94.3512 234.286 94.6783 234.387 95.1111 234.512C95.6882 234.666 96.1595 234.825 96.525 234.988C96.9001 235.142 97.2223 235.373 97.4916 235.681C97.7609 235.989 97.9004 236.397 97.91 236.907C97.91 237.359 97.785 237.763 97.5349 238.119C97.2848 238.475 96.929 238.754 96.4673 238.956C96.0152 239.158 95.4814 239.259 94.8658 239.259Z" fill="white"/>
</g>
<g filter="url(#filter1_d_2675_961)">
<path d="M104.121 169.824L110.071 159.519L98.1713 159.519L104.121 169.824ZM104.121 160.771L105.152 160.771L105.152 154.735L104.121 154.735L103.091 154.735L103.091 160.771L104.121 160.771ZM104.121 148.699L105.152 148.699L105.152 142.664L104.121 142.664L103.091 142.664L103.091 148.699L104.121 148.699ZM104.121 136.628L105.152 136.628L105.152 130.592L104.121 130.592L103.091 130.592L103.091 136.628L104.121 136.628ZM104.121 124.556L105.152 124.556L105.152 118.521L104.121 118.521L103.091 118.521L103.091 124.556L104.121 124.556ZM104.121 112.485L105.152 112.485L105.152 106.449L104.121 106.449L103.091 106.449L103.091 112.485L104.121 112.485ZM104.121 100.414L105.152 100.414L105.152 94.3778L104.121 94.3778L103.091 94.3778L103.091 100.414L104.121 100.414ZM104.121 88.3421L105.152 88.3421L105.152 82.3064L104.121 82.3064L103.091 82.3064L103.091 88.3421L104.121 88.3421ZM104.121 76.2707L105.152 76.2707L105.152 70.2349L104.121 70.2349L103.091 70.2349L103.091 76.2707L104.121 76.2707ZM104.121 64.1992L105.152 64.1992L105.152 58.1635L104.121 58.1635L103.091 58.1635L103.091 64.1992L104.121 64.1992ZM104.121 52.1278L105.152 52.1278L105.152 46.0921L104.121 46.0921L103.091 46.0921L103.091 52.1278L104.121 52.1278ZM104.121 40.0564L105.152 40.0564L105.152 34.0207L104.121 34.0207L103.091 34.0207L103.091 40.0564L104.121 40.0564ZM104.121 27.9849L105.152 27.9849L105.152 21.9492L104.121 21.9492L103.091 21.9492L103.091 27.9849L104.121 27.9849ZM104.121 15.9135L105.152 15.9135L105.152 9.87777L104.121 9.87777L103.091 9.87777L103.091 15.9135L104.121 15.9135ZM104.121 3.84205L105.152 3.84205L105.152 0.824214L104.121 0.824214L103.091 0.824214L103.091 3.84205L104.121 3.84205Z" fill="#FF0000"/>
</g>
<defs>
<filter id="filter0_d_2675_961" x="-0.0010438" y="190.824" width="136.854" height="72.8556" filterUnits="userSpaceOnUse" color-interpolation-filters="sRGB">
<feFlood flood-opacity="0" result="BackgroundImageFix"/>
<feColorMatrix in="SourceAlpha" type="matrix" values="0 0 0 0 0 0 0 0 0 0 0 0 0 0 0 0 0 0 127 0" result="hardAlpha"/>
<feOffset dy="4.12214"/>
<feGaussianBlur stdDeviation="2.06107"/>
<feComposite in2="hardAlpha" operator="out"/>
<feColorMatrix type="matrix" values="0 0 0 0 0 0 0 0 0 0 0 0 0 0 0 0 0 0 0.09 0"/>
<feBlend mode="normal" in2="BackgroundImageFix" result="effect1_dropShadow_2675_961"/>
<feBlend mode="normal" in="SourceGraphic" in2="effect1_dropShadow_2675_961" result="shape"/>
</filter>
<filter id="filter1_d_2675_961" x="96.8322" y="-0.000208437" width="14.5778" height="171.679" filterUnits="userSpaceOnUse" color-interpolation-filters="sRGB">
<feFlood flood-opacity="0" result="BackgroundImageFix"/>
<feColorMatrix in="SourceAlpha" type="matrix" values="0 0 0 0 0 0 0 0 0 0 0 0 0 0 0 0 0 0 127 0" result="hardAlpha"/>
<feOffset dy="0.515267"/>
<feGaussianBlur stdDeviation="0.669847"/>
<feComposite in2="hardAlpha" operator="out"/>
<feColorMatrix type="matrix" values="0 0 0 0 1 0 0 0 0 1 0 0 0 0 1 0 0 0 1 0"/>
<feBlend mode="normal" in2="BackgroundImageFix" result="effect1_dropShadow_2675_961"/>
<feBlend mode="normal" in="SourceGraphic" in2="effect1_dropShadow_2675_961" result="shape"/>
</filter>
</defs>
</svg>
