<svg width="231" height="261" viewBox="0 0 231 261" fill="none" xmlns="http://www.w3.org/2000/svg">
<rect x="90.7422" y="168.281" width="139" height="92" rx="3.5" stroke="#FF0000" stroke-dasharray="4 4"/>
<g filter="url(#filter0_d_2675_960)">
<rect x="4.12109" width="123.611" height="64.6107" rx="7.21374" fill="black" shape-rendering="crispEdges"/>
<rect x="5.15163" y="1.03053" width="121.55" height="62.5496" rx="6.18321" stroke="white" stroke-width="2.06107" shape-rendering="crispEdges"/>
<path d="M32.0555 16.2776V26.3047H30.4108V16.2776H32.0555ZM43.838 18.2253C44.4632 18.2253 45.0211 18.3551 45.5116 18.6148C46.0118 18.8745 46.4013 19.2593 46.6803 19.769C46.9688 20.2788 47.1131 20.8944 47.1131 21.6158V26.3047H45.4828V21.861C45.4828 21.1493 45.3048 20.6058 44.949 20.2307C44.5931 19.846 44.1074 19.6536 43.4918 19.6536C42.8762 19.6536 42.3857 19.846 42.0202 20.2307C41.6643 20.6058 41.4864 21.1493 41.4864 21.861V26.3047H39.8561V21.861C39.8561 21.1493 39.6781 20.6058 39.3222 20.2307C38.9664 19.846 38.4806 19.6536 37.8651 19.6536C37.2495 19.6536 36.759 19.846 36.3935 20.2307C36.0376 20.6058 35.8596 21.1493 35.8596 21.861V26.3047H34.2149V18.3551H35.8596V19.2641C36.129 18.9371 36.4704 18.6822 36.884 18.4994C37.2976 18.3167 37.74 18.2253 38.2113 18.2253C38.8461 18.2253 39.4136 18.36 39.9138 18.6293C40.4139 18.8986 40.7987 19.2881 41.068 19.7979C41.3084 19.317 41.6835 18.9371 42.1933 18.6581C42.7031 18.3696 43.2513 18.2253 43.838 18.2253ZM50.8507 19.5238C51.1296 19.1583 51.5096 18.8505 51.9905 18.6004C52.4714 18.3503 53.0148 18.2253 53.6208 18.2253C54.3133 18.2253 54.9433 18.3984 55.5108 18.7447C56.0879 19.0813 56.5399 19.5574 56.867 20.173C57.194 20.7886 57.3575 21.4955 57.3575 22.2938C57.3575 23.0922 57.194 23.8087 56.867 24.4435C56.5399 25.0687 56.0879 25.5593 55.5108 25.9151C54.9433 26.2614 54.3133 26.4345 53.6208 26.4345C53.0148 26.4345 52.4762 26.3143 52.0049 26.0738C51.5336 25.8238 51.1489 25.516 50.8507 25.1505V30.0847H49.206V18.3551H50.8507V19.5238ZM55.6839 22.2938C55.6839 21.7456 55.5685 21.2743 55.3376 20.88C55.1164 20.476 54.8183 20.173 54.4431 19.971C54.0776 19.7594 53.6833 19.6536 53.2601 19.6536C52.8465 19.6536 52.4521 19.7594 52.077 19.971C51.7115 20.1826 51.4134 20.4904 51.1825 20.8944C50.9613 21.2984 50.8507 21.7745 50.8507 22.3227C50.8507 22.8709 50.9613 23.3519 51.1825 23.7655C51.4134 24.1694 51.7115 24.4772 52.077 24.6888C52.4521 24.9004 52.8465 25.0062 53.2601 25.0062C53.6833 25.0062 54.0776 24.9004 54.4431 24.6888C54.8183 24.4676 55.1164 24.1502 55.3376 23.7366C55.5685 23.323 55.6839 22.8421 55.6839 22.2938ZM62.4321 26.4345C61.6819 26.4345 61.0038 26.2662 60.3979 25.9296C59.7919 25.5833 59.3158 25.1024 58.9695 24.4868C58.6233 23.8616 58.4501 23.1403 58.4501 22.3227C58.4501 21.5148 58.6281 20.7982 58.984 20.173C59.3398 19.5478 59.8256 19.0669 60.4411 18.7303C61.0567 18.3936 61.7444 18.2253 62.5043 18.2253C63.2641 18.2253 63.9518 18.3936 64.5674 18.7303C65.183 19.0669 65.6687 19.5478 66.0246 20.173C66.3805 20.7982 66.5584 21.5148 66.5584 22.3227C66.5584 23.1306 66.3756 23.8472 66.0101 24.4724C65.6446 25.0976 65.1445 25.5833 64.5097 25.9296C63.8845 26.2662 63.192 26.4345 62.4321 26.4345ZM62.4321 25.0062C62.8553 25.0062 63.2497 24.9052 63.6152 24.7032C63.9903 24.5013 64.2933 24.1983 64.5241 23.7943C64.755 23.3903 64.8704 22.8998 64.8704 22.3227C64.8704 21.7456 64.7598 21.2599 64.5385 20.8655C64.3173 20.4616 64.024 20.1586 63.6585 19.9566C63.293 19.7546 62.8986 19.6536 62.4754 19.6536C62.0522 19.6536 61.6579 19.7546 61.2924 19.9566C60.9365 20.1586 60.6527 20.4616 60.4411 20.8655C60.2295 21.2599 60.1237 21.7456 60.1237 22.3227C60.1237 23.1787 60.3401 23.8424 60.773 24.3137C61.2154 24.7754 61.7685 25.0062 62.4321 25.0062ZM69.829 19.5093C70.0695 19.1054 70.3869 18.7928 70.7812 18.5716C71.1852 18.3407 71.6613 18.2253 72.2096 18.2253V19.9277H71.7912C71.1467 19.9277 70.6562 20.0913 70.3196 20.4183C69.9925 20.7453 69.829 21.3128 69.829 22.1207V26.3047H68.1843V18.3551H69.829V19.5093ZM75.6403 19.6969V24.0973C75.6403 24.3955 75.7076 24.6119 75.8422 24.7465C75.9865 24.8716 76.227 24.9341 76.5636 24.9341H77.5735V26.3047H76.2751C75.5345 26.3047 74.967 26.1316 74.5726 25.7853C74.1783 25.439 73.9811 24.8764 73.9811 24.0973V19.6969H73.0433V18.3551H73.9811V16.3786H75.6403V18.3551H77.5735V19.6969H75.6403ZM78.5412 22.2938C78.5412 21.4955 78.7047 20.7886 79.0317 20.173C79.3684 19.5574 79.8204 19.0813 80.3879 18.7447C80.965 18.3984 81.5998 18.2253 82.2923 18.2253C82.9175 18.2253 83.461 18.3503 83.9227 18.6004C84.394 18.8409 84.7691 19.1438 85.048 19.5093V18.3551H86.7072V26.3047H85.048V25.1216C84.7691 25.4967 84.3891 25.8093 83.9082 26.0594C83.4273 26.3095 82.8791 26.4345 82.2635 26.4345C81.5806 26.4345 80.9554 26.2614 80.3879 25.9151C79.8204 25.5593 79.3684 25.0687 79.0317 24.4435C78.7047 23.8087 78.5412 23.0922 78.5412 22.2938ZM85.048 22.3227C85.048 21.7745 84.9326 21.2984 84.7017 20.8944C84.4805 20.4904 84.1872 20.1826 83.8217 19.971C83.4562 19.7594 83.0618 19.6536 82.6386 19.6536C82.2154 19.6536 81.821 19.7594 81.4556 19.971C81.0901 20.173 80.7919 20.476 80.561 20.88C80.3398 21.2743 80.2292 21.7456 80.2292 22.2938C80.2292 22.8421 80.3398 23.323 80.561 23.7366C80.7919 24.1502 81.0901 24.4676 81.4556 24.6888C81.8307 24.9004 82.225 25.0062 82.6386 25.0062C83.0618 25.0062 83.4562 24.9004 83.8217 24.6888C84.1872 24.4772 84.4805 24.1694 84.7017 23.7655C84.9326 23.3519 85.048 22.8709 85.048 22.3227ZM92.8783 18.2253C93.5035 18.2253 94.0613 18.3551 94.5519 18.6148C95.052 18.8745 95.4416 19.2593 95.7205 19.769C95.9994 20.2788 96.1389 20.8944 96.1389 21.6158V26.3047H94.5086V21.861C94.5086 21.1493 94.3307 20.6058 93.9748 20.2307C93.6189 19.846 93.1332 19.6536 92.5176 19.6536C91.902 19.6536 91.4115 19.846 91.046 20.2307C90.6901 20.6058 90.5122 21.1493 90.5122 21.861V26.3047H88.8674V18.3551H90.5122V19.2641C90.7815 18.9371 91.1229 18.6822 91.5365 18.4994C91.9597 18.3167 92.407 18.2253 92.8783 18.2253ZM100.156 19.6969V24.0973C100.156 24.3955 100.223 24.6119 100.358 24.7465C100.502 24.8716 100.742 24.9341 101.079 24.9341H102.089V26.3047H100.791C100.05 26.3047 99.4824 26.1316 99.0881 25.7853C98.6937 25.439 98.4965 24.8764 98.4965 24.0973V19.6969H97.5588V18.3551H98.4965V16.3786H100.156V18.3551H102.089V19.6969H100.156ZM19.1534 48.4057C18.4801 48.4057 17.8741 48.2903 17.3355 48.0594C16.7969 47.819 16.3737 47.4823 16.0659 47.0495C15.7581 46.6167 15.6042 46.1117 15.6042 45.5346H17.3643C17.4028 45.9674 17.5711 46.3233 17.8693 46.6022C18.1771 46.8812 18.6051 47.0206 19.1534 47.0206C19.7208 47.0206 20.1633 46.886 20.4807 46.6167C20.7981 46.3377 20.9568 45.9819 20.9568 45.549C20.9568 45.2124 20.8558 44.9383 20.6538 44.7267C20.4614 44.5151 20.2162 44.3516 19.918 44.2361C19.6295 44.1207 19.2255 43.9957 18.7061 43.861C18.0521 43.6879 17.5182 43.5148 17.1047 43.3416C16.7007 43.1589 16.3544 42.88 16.0659 42.5048C15.7773 42.1297 15.633 41.6296 15.633 41.0044C15.633 40.4273 15.7773 39.9223 16.0659 39.4895C16.3544 39.0567 16.7584 38.7248 17.2778 38.494C17.7972 38.2632 18.3983 38.1477 19.0812 38.1477C20.0527 38.1477 20.8462 38.393 21.4618 38.8835C22.0869 39.3645 22.4332 40.0281 22.5005 40.8745H20.6827C20.6538 40.509 20.4807 40.1964 20.1633 39.9367C19.8459 39.6771 19.4275 39.5472 18.9081 39.5472C18.4368 39.5472 18.0521 39.6674 17.7539 39.9079C17.4557 40.1484 17.3066 40.4946 17.3066 40.9467C17.3066 41.2545 17.398 41.5093 17.5808 41.7113C17.7731 41.9037 18.0136 42.0576 18.3021 42.173C18.5907 42.2884 18.985 42.4135 19.4852 42.5481C20.1488 42.7309 20.6875 42.9136 21.1011 43.0964C21.5243 43.2791 21.8801 43.5629 22.1687 43.9476C22.4669 44.3227 22.6159 44.8277 22.6159 45.4625C22.6159 45.9722 22.4765 46.4532 22.1976 46.9052C21.9282 47.3573 21.5291 47.7228 21.0001 48.0017C20.4807 48.271 19.8651 48.4057 19.1534 48.4057ZM26.2014 41.5238C26.4803 41.1583 26.8603 40.8505 27.3412 40.6004C27.8221 40.3503 28.3655 40.2253 28.9715 40.2253C29.664 40.2253 30.294 40.3984 30.8615 40.7447C31.4386 41.0813 31.8906 41.5574 32.2177 42.173C32.5447 42.7886 32.7082 43.4955 32.7082 44.2938C32.7082 45.0922 32.5447 45.8087 32.2177 46.4435C31.8906 47.0687 31.4386 47.5593 30.8615 47.9151C30.294 48.2614 29.664 48.4345 28.9715 48.4345C28.3655 48.4345 27.8269 48.3143 27.3556 48.0738C26.8843 47.8238 26.4996 47.516 26.2014 47.1505V52.0847H24.5567V40.3551H26.2014V41.5238ZM31.0346 44.2938C31.0346 43.7456 30.9192 43.2743 30.6883 42.88C30.4671 42.476 30.169 42.173 29.7938 41.971C29.4283 41.7594 29.034 41.6536 28.6108 41.6536C28.1972 41.6536 27.8029 41.7594 27.4277 41.971C27.0622 42.1826 26.7641 42.4904 26.5332 42.8944C26.312 43.2984 26.2014 43.7745 26.2014 44.3227C26.2014 44.8709 26.312 45.3519 26.5332 45.7655C26.7641 46.1694 27.0622 46.4772 27.4277 46.6888C27.8029 46.9004 28.1972 47.0062 28.6108 47.0062C29.034 47.0062 29.4283 46.9004 29.7938 46.6888C30.169 46.4676 30.4671 46.1502 30.6883 45.7366C30.9192 45.323 31.0346 44.8421 31.0346 44.2938ZM41.6205 44.1351C41.6205 44.4333 41.6013 44.7026 41.5628 44.9431H35.4889C35.537 45.5779 35.7726 46.0877 36.1958 46.4724C36.619 46.8571 37.1384 47.0495 37.754 47.0495C38.6389 47.0495 39.2641 46.6792 39.6296 45.9386H41.4041C41.1637 46.6696 40.726 47.2707 40.0912 47.742C39.466 48.2037 38.687 48.4345 37.754 48.4345C36.9941 48.4345 36.3112 48.2662 35.7053 47.9296C35.1089 47.5833 34.6376 47.1024 34.2914 46.4868C33.9547 45.8616 33.7864 45.1403 33.7864 44.3227C33.7864 43.5051 33.9499 42.7886 34.277 42.173C34.6136 41.5478 35.0801 41.0669 35.6764 40.7303C36.2824 40.3936 36.9749 40.2253 37.754 40.2253C38.5042 40.2253 39.1727 40.3888 39.7594 40.7158C40.3461 41.0429 40.803 41.5045 41.13 42.1009C41.457 42.6876 41.6205 43.3657 41.6205 44.1351ZM39.9037 43.6158C39.8941 43.0098 39.6776 42.5241 39.2544 42.1586C38.8312 41.7931 38.307 41.6103 37.6818 41.6103C37.1144 41.6103 36.6286 41.7931 36.2247 42.1586C35.8207 42.5145 35.5802 43.0002 35.5033 43.6158H39.9037ZM42.6909 44.3227C42.6909 43.5051 42.8544 42.7886 43.1814 42.173C43.5181 41.5478 43.9797 41.0669 44.5665 40.7303C45.1532 40.3936 45.8265 40.2253 46.5863 40.2253C47.5481 40.2253 48.3417 40.4561 48.9668 40.9178C49.6017 41.3699 50.0297 42.0191 50.2509 42.8655H48.4763C48.332 42.4712 48.1012 42.1634 47.7838 41.9422C47.4664 41.7209 47.0672 41.6103 46.5863 41.6103C45.913 41.6103 45.3744 41.8508 44.9704 42.3317C44.5761 42.803 44.3789 43.4667 44.3789 44.3227C44.3789 45.1787 44.5761 45.8472 44.9704 46.3281C45.3744 46.809 45.913 47.0495 46.5863 47.0495C47.5385 47.0495 48.1685 46.6311 48.4763 45.7943H50.2509C50.02 46.6022 49.5872 47.2467 48.9524 47.7276C48.3176 48.1989 47.5289 48.4345 46.5863 48.4345C45.8265 48.4345 45.1532 48.2662 44.5665 47.9296C43.9797 47.5833 43.5181 47.1024 43.1814 46.4868C42.8544 45.8616 42.6909 45.1403 42.6909 44.3227ZM52.7268 39.3019C52.4286 39.3019 52.1785 39.2009 51.9765 38.999C51.7746 38.797 51.6736 38.5469 51.6736 38.2487C51.6736 37.9506 51.7746 37.7005 51.9765 37.4985C52.1785 37.2965 52.4286 37.1955 52.7268 37.1955C53.0153 37.1955 53.2606 37.2965 53.4626 37.4985C53.6646 37.7005 53.7656 37.9506 53.7656 38.2487C53.7656 38.5469 53.6646 38.797 53.4626 38.999C53.2606 39.2009 53.0153 39.3019 52.7268 39.3019ZM53.5347 40.3551V48.3047H51.89V40.3551H53.5347ZM59.0269 41.6969H57.5552V48.3047H55.8961V41.6969H54.9583V40.3551H55.8961V39.7925C55.8961 38.8787 56.1365 38.2151 56.6175 37.8015C57.108 37.3783 57.8727 37.1667 58.9114 37.1667V38.5373C58.4113 38.5373 58.0602 38.6335 57.8582 38.8258C57.6562 39.0086 57.5552 39.3308 57.5552 39.7925V40.3551H59.0269V41.6969ZM61.3213 39.3019C61.0231 39.3019 60.773 39.2009 60.571 38.999C60.3691 38.797 60.2681 38.5469 60.2681 38.2487C60.2681 37.9506 60.3691 37.7005 60.571 37.4985C60.773 37.2965 61.0231 37.1955 61.3213 37.1955C61.6098 37.1955 61.8551 37.2965 62.0571 37.4985C62.2591 37.7005 62.36 37.9506 62.36 38.2487C62.36 38.5469 62.2591 38.797 62.0571 38.999C61.8551 39.2009 61.6098 39.3019 61.3213 39.3019ZM62.1292 40.3551V48.3047H60.4845V40.3551H62.1292ZM63.7404 44.3227C63.7404 43.5051 63.9039 42.7886 64.2309 42.173C64.5675 41.5478 65.0292 41.0669 65.6159 40.7303C66.2026 40.3936 66.8759 40.2253 67.6358 40.2253C68.5976 40.2253 69.3911 40.4561 70.0163 40.9178C70.6511 41.3699 71.0791 42.0191 71.3004 42.8655H69.5258C69.3815 42.4712 69.1507 42.1634 68.8333 41.9422C68.5159 41.7209 68.1167 41.6103 67.6358 41.6103C66.9625 41.6103 66.4239 41.8508 66.0199 42.3317C65.6255 42.803 65.4284 43.4667 65.4284 44.3227C65.4284 45.1787 65.6255 45.8472 66.0199 46.3281C66.4239 46.809 66.9625 47.0495 67.6358 47.0495C68.588 47.0495 69.218 46.6311 69.5258 45.7943H71.3004C71.0695 46.6022 70.6367 47.2467 70.0019 47.7276C69.3671 48.1989 68.5784 48.4345 67.6358 48.4345C66.8759 48.4345 66.2026 48.2662 65.6159 47.9296C65.0292 47.5833 64.5675 47.1024 64.2309 46.4868C63.9039 45.8616 63.7404 45.1403 63.7404 44.3227ZM72.3912 44.2938C72.3912 43.4955 72.5547 42.7886 72.8817 42.173C73.2184 41.5574 73.6704 41.0813 74.2379 40.7447C74.815 40.3984 75.4498 40.2253 76.1424 40.2253C76.7675 40.2253 77.311 40.3503 77.7727 40.6004C78.244 40.8409 78.6191 41.1438 78.898 41.5093V40.3551H80.5572V48.3047H78.898V47.1216C78.6191 47.4967 78.2391 47.8093 77.7582 48.0594C77.2773 48.3095 76.7291 48.4345 76.1135 48.4345C75.4306 48.4345 74.8054 48.2614 74.2379 47.9151C73.6704 47.5593 73.2184 47.0687 72.8817 46.4435C72.5547 45.8087 72.3912 45.0922 72.3912 44.2938ZM78.898 44.3227C78.898 43.7745 78.7826 43.2984 78.5517 42.8944C78.3305 42.4904 78.0372 42.1826 77.6717 41.971C77.3062 41.7594 76.9118 41.6536 76.4886 41.6536C76.0654 41.6536 75.6711 41.7594 75.3056 41.971C74.9401 42.173 74.6419 42.476 74.4111 42.88C74.1898 43.2743 74.0792 43.7456 74.0792 44.2938C74.0792 44.8421 74.1898 45.323 74.4111 45.7366C74.6419 46.1502 74.9401 46.4676 75.3056 46.6888C75.6807 46.9004 76.075 47.0062 76.4886 47.0062C76.9118 47.0062 77.3062 46.9004 77.6717 46.6888C78.0372 46.4772 78.3305 46.1694 78.5517 45.7655C78.7826 45.3519 78.898 44.8709 78.898 44.3227ZM84.6363 41.6969V46.0973C84.6363 46.3955 84.7036 46.6119 84.8383 46.7465C84.9826 46.8716 85.223 46.9341 85.5597 46.9341H86.5696V48.3047H85.2711C84.5305 48.3047 83.963 48.1316 83.5687 47.7853C83.1743 47.439 82.9771 46.8764 82.9771 46.0973V41.6969H82.0394V40.3551H82.9771V38.3786H84.6363V40.3551H86.5696V41.6969H84.6363ZM88.9223 39.3019C88.6241 39.3019 88.374 39.2009 88.1721 38.999C87.9701 38.797 87.8691 38.5469 87.8691 38.2487C87.8691 37.9506 87.9701 37.7005 88.1721 37.4985C88.374 37.2965 88.6241 37.1955 88.9223 37.1955C89.2108 37.1955 89.4561 37.2965 89.6581 37.4985C89.8601 37.7005 89.9611 37.9506 89.9611 38.2487C89.9611 38.5469 89.8601 38.797 89.6581 38.999C89.4561 39.2009 89.2108 39.3019 88.9223 39.3019ZM89.7302 40.3551V48.3047H88.0855V40.3551H89.7302ZM95.3378 48.4345C94.5876 48.4345 93.9095 48.2662 93.3035 47.9296C92.6976 47.5833 92.2214 47.1024 91.8752 46.4868C91.5289 45.8616 91.3558 45.1403 91.3558 44.3227C91.3558 43.5148 91.5337 42.7982 91.8896 42.173C92.2455 41.5478 92.7312 41.0669 93.3468 40.7303C93.9624 40.3936 94.6501 40.2253 95.4099 40.2253C96.1698 40.2253 96.8575 40.3936 97.4731 40.7303C98.0886 41.0669 98.5744 41.5478 98.9302 42.173C99.2861 42.7982 99.464 43.5148 99.464 44.3227C99.464 45.1306 99.2813 45.8472 98.9158 46.4724C98.5503 47.0976 98.0502 47.5833 97.4153 47.9296C96.7902 48.2662 96.0976 48.4345 95.3378 48.4345ZM95.3378 47.0062C95.761 47.0062 96.1553 46.9052 96.5208 46.7032C96.896 46.5013 97.1989 46.1983 97.4298 45.7943C97.6606 45.3903 97.776 44.8998 97.776 44.3227C97.776 43.7456 97.6654 43.2599 97.4442 42.8655C97.223 42.4616 96.9296 42.1586 96.5641 41.9566C96.1986 41.7546 95.8043 41.6536 95.3811 41.6536C94.9579 41.6536 94.5635 41.7546 94.198 41.9566C93.8421 42.1586 93.5584 42.4616 93.3468 42.8655C93.1352 43.2599 93.0294 43.7456 93.0294 44.3227C93.0294 45.1787 93.2458 45.8424 93.6786 46.3137C94.1211 46.7754 94.6741 47.0062 95.3378 47.0062ZM105.101 40.2253C105.726 40.2253 106.284 40.3551 106.774 40.6148C107.275 40.8745 107.664 41.2593 107.943 41.769C108.222 42.2788 108.361 42.8944 108.361 43.6158V48.3047H106.731V43.861C106.731 43.1493 106.553 42.6058 106.197 42.2307C105.841 41.846 105.356 41.6536 104.74 41.6536C104.125 41.6536 103.634 41.846 103.268 42.2307C102.913 42.6058 102.735 43.1493 102.735 43.861V48.3047H101.09V40.3551H102.735V41.2641C103.004 40.9371 103.345 40.6822 103.759 40.4994C104.182 40.3167 104.629 40.2253 105.101 40.2253ZM113.345 48.4345C112.72 48.4345 112.157 48.3239 111.657 48.1027C111.166 47.8719 110.777 47.5641 110.488 47.1793C110.2 46.785 110.046 46.3474 110.027 45.8664H111.729C111.758 46.2031 111.917 46.4868 112.205 46.7177C112.503 46.9389 112.874 47.0495 113.316 47.0495C113.778 47.0495 114.134 46.9629 114.384 46.7898C114.643 46.6071 114.773 46.3762 114.773 46.0973C114.773 45.7991 114.629 45.5779 114.34 45.4336C114.061 45.2893 113.614 45.1306 112.999 44.9575C112.402 44.794 111.917 44.6353 111.541 44.4814C111.166 44.3275 110.839 44.0919 110.56 43.7745C110.291 43.4571 110.156 43.0387 110.156 42.5193C110.156 42.0961 110.281 41.7113 110.531 41.3651C110.782 41.0092 111.137 40.7303 111.599 40.5283C112.07 40.3263 112.609 40.2253 113.215 40.2253C114.119 40.2253 114.845 40.4561 115.394 40.9178C115.951 41.3699 116.25 41.9903 116.288 42.779H114.643C114.614 42.4231 114.47 42.1393 114.21 41.9277C113.951 41.7161 113.6 41.6103 113.157 41.6103C112.724 41.6103 112.393 41.6921 112.162 41.8556C111.931 42.0191 111.816 42.2355 111.816 42.5048C111.816 42.7164 111.892 42.8944 112.046 43.0387C112.2 43.1829 112.388 43.2984 112.609 43.3849C112.83 43.4619 113.157 43.5629 113.59 43.6879C114.167 43.8418 114.639 44.0005 115.004 44.164C115.379 44.3179 115.701 44.5487 115.971 44.8565C116.24 45.1643 116.379 45.5731 116.389 46.0829C116.389 46.5349 116.264 46.9389 116.014 47.2948C115.764 47.6506 115.408 47.9296 114.946 48.1316C114.494 48.3335 113.96 48.4345 113.345 48.4345Z" fill="white"/>
</g>
<g filter="url(#filter1_d_2675_960)">
<path d="M114.242 85.7812L111.902 97.4484L123.176 93.6416L114.242 85.7812ZM117.028 94.0312L116.052 94.3609L117.909 99.8609L118.885 99.5312L119.861 99.2016L118.004 93.7016L117.028 94.0312ZM120.742 105.031L119.766 105.361L121.623 110.861L122.599 110.531L123.576 110.202L121.719 104.702L120.742 105.031ZM124.456 116.031L123.48 116.361L125.337 121.861L126.314 121.531L127.29 121.202L125.433 115.702L124.456 116.031ZM128.171 127.031L127.194 127.361L129.052 132.861L130.028 132.531L131.004 132.202L129.147 126.702L128.171 127.031ZM131.885 138.031L130.909 138.361L132.766 143.861L133.742 143.531L134.719 143.202L132.861 137.702L131.885 138.031ZM135.599 149.031L134.623 149.361L136.48 154.861L137.456 154.531L138.433 154.202L136.576 148.702L135.599 149.031ZM139.314 160.031L138.337 160.361L139.266 163.111L140.242 162.781L141.219 162.452L140.29 159.702L139.314 160.031Z" fill="#FF0000"/>
</g>
<defs>
<filter id="filter0_d_2675_960" x="-0.0010438" y="0" width="131.854" height="72.8556" filterUnits="userSpaceOnUse" color-interpolation-filters="sRGB">
<feFlood flood-opacity="0" result="BackgroundImageFix"/>
<feColorMatrix in="SourceAlpha" type="matrix" values="0 0 0 0 0 0 0 0 0 0 0 0 0 0 0 0 0 0 127 0" result="hardAlpha"/>
<feOffset dy="4.12214"/>
<feGaussianBlur stdDeviation="2.06107"/>
<feComposite in2="hardAlpha" operator="out"/>
<feColorMatrix type="matrix" values="0 0 0 0 0 0 0 0 0 0 0 0 0 0 0 0 0 0 0.09 0"/>
<feBlend mode="normal" in2="BackgroundImageFix" result="effect1_dropShadow_2675_960"/>
<feBlend mode="normal" in="SourceGraphic" in2="effect1_dropShadow_2675_960" result="shape"/>
</filter>
<filter id="filter1_d_2675_960" x="110.563" y="84.9568" width="31.9958" height="80.0095" filterUnits="userSpaceOnUse" color-interpolation-filters="sRGB">
<feFlood flood-opacity="0" result="BackgroundImageFix"/>
<feColorMatrix in="SourceAlpha" type="matrix" values="0 0 0 0 0 0 0 0 0 0 0 0 0 0 0 0 0 0 127 0" result="hardAlpha"/>
<feOffset dy="0.515267"/>
<feGaussianBlur stdDeviation="0.669847"/>
<feComposite in2="hardAlpha" operator="out"/>
<feColorMatrix type="matrix" values="0 0 0 0 1 0 0 0 0 1 0 0 0 0 1 0 0 0 1 0"/>
<feBlend mode="normal" in2="BackgroundImageFix" result="effect1_dropShadow_2675_960"/>
<feBlend mode="normal" in="SourceGraphic" in2="effect1_dropShadow_2675_960" result="shape"/>
</filter>
</defs>
</svg>
