<svg width="96" height="96" viewBox="0 0 96 96" fill="none" xmlns="http://www.w3.org/2000/svg">
<circle cx="47.9199" cy="47.9199" r="45.2201" fill="#00A6FF" stroke="white" stroke-width="5.39942"/>
<path d="M48 37.25C50.8995 37.25 53.25 34.8995 53.25 32C53.25 29.1005 50.8995 26.75 48 26.75C45.1005 26.75 42.75 29.1005 42.75 32C42.75 34.8995 45.1005 37.25 48 37.25Z" fill="white"/>
<path d="M67.6082 31.5537C66.0645 27.5607 63.3845 24.1074 59.8996 21.6209C56.4147 19.1343 52.2775 17.7234 47.9994 17.5625C43.7214 17.7234 39.5842 19.1343 36.0993 21.6209C32.6143 24.1074 29.9344 27.5607 28.3907 31.5537C28.2864 31.8421 28.2864 32.1579 28.3907 32.4463C29.9344 36.4393 32.6143 39.8926 36.0993 42.3791C39.5842 44.8657 43.7214 46.2766 47.9994 46.4375C52.2775 46.2766 56.4147 44.8657 59.8996 42.3791C63.3845 39.8926 66.0645 36.4393 67.6082 32.4463C67.7125 32.1579 67.7125 31.8421 67.6082 31.5537ZM47.9994 40.5312C46.3121 40.5312 44.6627 40.0309 43.2597 39.0935C41.8568 38.156 40.7633 36.8236 40.1176 35.2648C39.4719 33.7059 39.3029 31.9905 39.6321 30.3356C39.9613 28.6807 40.7738 27.1606 41.9669 25.9675C43.1601 24.7744 44.6802 23.9619 46.3351 23.6327C47.99 23.3035 49.7053 23.4724 51.2642 24.1182C52.8231 24.7639 54.1555 25.8573 55.0929 27.2603C56.0303 28.6632 56.5307 30.3127 56.5307 32C56.5272 34.2616 55.6273 36.4295 54.0281 38.0287C52.4289 39.6278 50.261 40.5278 47.9994 40.5312Z" fill="white"/>
<path d="M39.5136 56.0037L36.3816 64.3438H34.7976L31.6536 56.0037H33.1176L35.5896 62.9397L38.0736 56.0037H39.5136ZM42.9137 56.8557C42.6657 56.8557 42.4577 56.7717 42.2897 56.6037C42.1217 56.4357 42.0377 56.2277 42.0377 55.9797C42.0377 55.7317 42.1217 55.5237 42.2897 55.3557C42.4577 55.1877 42.6657 55.1037 42.9137 55.1037C43.1537 55.1037 43.3577 55.1877 43.5257 55.3557C43.6937 55.5237 43.7777 55.7317 43.7777 55.9797C43.7777 56.2277 43.6937 56.4357 43.5257 56.6037C43.3577 56.7717 43.1537 56.8557 42.9137 56.8557ZM43.5857 57.7318V64.3438H42.2177V57.7318H43.5857ZM53.0017 60.8757C53.0017 61.1237 52.9857 61.3477 52.9537 61.5477H47.9017C47.9417 62.0757 48.1377 62.4997 48.4897 62.8197C48.8417 63.1397 49.2737 63.2997 49.7857 63.2997C50.5217 63.2997 51.0417 62.9917 51.3457 62.3757H52.8217C52.6217 62.9837 52.2577 63.4837 51.7297 63.8757C51.2097 64.2598 50.5617 64.4518 49.7857 64.4518C49.1537 64.4518 48.5857 64.3118 48.0817 64.0317C47.5857 63.7437 47.1937 63.3437 46.9057 62.8317C46.6257 62.3117 46.4857 61.7117 46.4857 61.0317C46.4857 60.3517 46.6217 59.7557 46.8937 59.2437C47.1737 58.7237 47.5617 58.3237 48.0577 58.0437C48.5617 57.7637 49.1377 57.6237 49.7857 57.6237C50.4097 57.6237 50.9657 57.7597 51.4537 58.0317C51.9417 58.3037 52.3217 58.6877 52.5937 59.1837C52.8657 59.6717 53.0017 60.2357 53.0017 60.8757ZM51.5737 60.4437C51.5657 59.9397 51.3857 59.5357 51.0337 59.2317C50.6817 58.9277 50.2457 58.7757 49.7257 58.7757C49.2537 58.7757 48.8497 58.9277 48.5137 59.2317C48.1777 59.5277 47.9777 59.9317 47.9137 60.4437H51.5737ZM64.788 57.7318L62.736 64.3438H61.296L59.964 59.4597L58.632 64.3438H57.192L55.128 57.7318H56.52L57.9 63.0477L59.304 57.7318H60.732L62.076 63.0237L63.444 57.7318H64.788ZM40.3889 72.0037V80.3438H39.0209V74.6317L36.4769 80.3438H35.5289L32.9729 74.6317V80.3438H31.6049V72.0037H33.0809L36.0089 78.5437L38.9249 72.0037H40.3889ZM46.615 80.4518C45.991 80.4518 45.427 80.3118 44.923 80.0317C44.419 79.7437 44.023 79.3437 43.735 78.8317C43.447 78.3117 43.303 77.7117 43.303 77.0317C43.303 76.3597 43.451 75.7637 43.747 75.2437C44.043 74.7237 44.447 74.3237 44.959 74.0437C45.471 73.7637 46.043 73.6237 46.675 73.6237C47.307 73.6237 47.879 73.7637 48.391 74.0437C48.903 74.3237 49.307 74.7237 49.603 75.2437C49.899 75.7637 50.047 76.3597 50.047 77.0317C50.047 77.7037 49.895 78.2997 49.591 78.8197C49.287 79.3397 48.871 79.7437 48.343 80.0317C47.823 80.3118 47.247 80.4518 46.615 80.4518ZM46.615 79.2637C46.967 79.2637 47.295 79.1797 47.599 79.0117C47.911 78.8437 48.163 78.5917 48.355 78.2557C48.547 77.9197 48.643 77.5117 48.643 77.0317C48.643 76.5517 48.551 76.1477 48.367 75.8197C48.183 75.4837 47.939 75.2317 47.635 75.0637C47.331 74.8957 47.003 74.8117 46.651 74.8117C46.299 74.8117 45.971 74.8957 45.667 75.0637C45.371 75.2317 45.135 75.4837 44.959 75.8197C44.783 76.1477 44.695 76.5517 44.695 77.0317C44.695 77.7437 44.875 78.2957 45.235 78.6877C45.603 79.0717 46.063 79.2637 46.615 79.2637ZM54.3273 74.6917C54.5273 74.3557 54.7913 74.0957 55.1193 73.9117C55.4553 73.7197 55.8513 73.6237 56.3073 73.6237V75.0397H55.9593C55.4233 75.0397 55.0153 75.1757 54.7353 75.4477C54.4633 75.7197 54.3273 76.1917 54.3273 76.8637V80.3438H52.9593V73.7318H54.3273V74.6917ZM65.1848 76.8757C65.1848 77.1237 65.1688 77.3477 65.1368 77.5477H60.0848C60.1248 78.0757 60.3208 78.4997 60.6728 78.8197C61.0248 79.1397 61.4568 79.2997 61.9688 79.2997C62.7048 79.2997 63.2248 78.9917 63.5288 78.3757H65.0048C64.8048 78.9837 64.4408 79.4837 63.9128 79.8757C63.3928 80.2598 62.7448 80.4518 61.9688 80.4518C61.3368 80.4518 60.7688 80.3118 60.2648 80.0317C59.7688 79.7437 59.3768 79.3437 59.0888 78.8317C58.8088 78.3117 58.6688 77.7117 58.6688 77.0317C58.6688 76.3517 58.8048 75.7557 59.0768 75.2437C59.3568 74.7237 59.7448 74.3237 60.2408 74.0437C60.7448 73.7637 61.3208 73.6237 61.9688 73.6237C62.5928 73.6237 63.1488 73.7597 63.6368 74.0317C64.1248 74.3037 64.5048 74.6877 64.7768 75.1837C65.0488 75.6717 65.1848 76.2357 65.1848 76.8757ZM63.7568 76.4437C63.7488 75.9397 63.5688 75.5357 63.2168 75.2317C62.8648 74.9277 62.4288 74.7757 61.9088 74.7757C61.4368 74.7757 61.0328 74.9277 60.6968 75.2317C60.3608 75.5277 60.1608 75.9317 60.0968 76.4437H63.7568Z" fill="#FAFEFF"/>
</svg>
