<svg width="489" height="184" viewBox="0 0 489 184" fill="none" xmlns="http://www.w3.org/2000/svg">
<path d="M2.10433 179.313L0.04338 179.29L-0.00121403 183.412L2.05973 183.434L2.08203 181.374L2.10433 179.313ZM307.226 0.827463C306.545 -0.0846446 305.253 -0.271984 304.341 0.40903L289.478 11.5068C288.566 12.1878 288.378 13.4793 289.059 14.3914C289.74 15.3035 291.032 15.4908 291.944 14.8098L305.156 4.94515L315.021 18.1573C315.702 19.0694 316.993 19.2567 317.905 18.5757C318.817 17.8947 319.005 16.6032 318.324 15.6911L307.226 0.827463ZM2.08203 181.374L2.05973 183.434C65.0849 184.116 137.467 165.644 196.05 133.712C254.559 101.821 299.802 56.215 307.614 2.35642L305.574 2.06055L303.535 1.76467C295.999 53.7112 252.151 98.4392 194.077 130.093C136.079 161.705 64.3886 179.986 2.10433 179.313L2.08203 181.374Z" fill="#FF0E0E"/>
<path d="M323.124 67.8054C323.124 63.2254 324.146 59.1344 326.192 55.5326C328.282 51.8864 331.105 49.0627 334.663 47.0617C338.264 45.0163 342.289 43.9935 346.735 43.9935C351.938 43.9935 356.496 45.3275 360.409 47.9955C364.322 50.6635 367.057 54.3543 368.613 59.0677H357.874C356.807 56.8444 355.295 55.1769 353.339 54.0652C351.427 52.9536 349.203 52.3977 346.669 52.3977C343.956 52.3977 341.533 53.0425 339.398 54.332C337.308 55.5771 335.663 57.3558 334.463 59.668C333.306 61.9803 332.728 64.6928 332.728 67.8054C332.728 70.8736 333.306 73.5861 334.463 75.9428C335.663 78.2551 337.308 80.056 339.398 81.3455C341.533 82.5906 343.956 83.2131 346.669 83.2131C349.203 83.2131 351.427 82.6573 353.339 81.5456C355.295 80.3895 356.807 78.6997 357.874 76.4764H368.613C367.057 81.2343 364.322 84.9473 360.409 87.6153C356.54 90.2388 351.982 91.5506 346.735 91.5506C342.289 91.5506 338.264 90.5501 334.663 88.5491C331.105 86.5036 328.282 83.68 326.192 80.0782C324.146 76.4764 323.124 72.3855 323.124 67.8054ZM385.927 41.7924V91.1504H376.589V41.7924H385.927ZM399.888 49.7964C398.243 49.7964 396.865 49.2851 395.753 48.2623C394.686 47.1951 394.152 45.8834 394.152 44.327C394.152 42.7707 394.686 41.4812 395.753 40.4584C396.865 39.3912 398.243 38.8577 399.888 38.8577C401.534 38.8577 402.89 39.3912 403.957 40.4584C405.069 41.4812 405.625 42.7707 405.625 44.327C405.625 45.8834 405.069 47.1951 403.957 48.2623C402.89 49.2851 401.534 49.7964 399.888 49.7964ZM404.491 54.1986V91.1504H395.153V54.1986H404.491ZM411.315 72.6745C411.315 68.8504 412.094 65.5154 413.65 62.6695C415.206 59.7792 417.363 57.5559 420.12 55.9995C422.877 54.3987 426.034 53.5983 429.591 53.5983C434.171 53.5983 437.951 54.7545 440.93 57.0667C443.954 59.3345 445.977 62.5361 447 66.6715H436.928C436.395 65.0707 435.483 63.8257 434.194 62.9363C432.948 62.0025 431.392 61.5356 429.525 61.5356C426.857 61.5356 424.744 62.5139 423.188 64.4704C421.632 66.3825 420.854 69.1172 420.854 72.6745C420.854 76.1874 421.632 78.9221 423.188 80.8786C424.744 82.7907 426.857 83.7467 429.525 83.7467C433.304 83.7467 435.772 82.057 436.928 78.6775H447C445.977 82.6795 443.954 85.8589 440.93 88.2156C437.906 90.5723 434.127 91.7507 429.591 91.7507C426.034 91.7507 422.877 90.9725 420.12 89.4162C417.363 87.8154 415.206 85.5921 413.65 82.7462C412.094 79.8559 411.315 76.4986 411.315 72.6745ZM475.718 91.1504L463.179 75.4092V91.1504H453.841V41.7924H463.179V69.8731L475.585 54.1986H487.724L471.45 72.7412L487.858 91.1504H475.718Z" fill="black"/>
<path d="M333.646 113.44V115.32H328.818V131.15H326.506V115.32H321.653V113.44H333.646ZM342.565 131.379C341.261 131.379 340.075 131.083 339.008 130.49C337.958 129.897 337.128 129.058 336.518 127.974C335.925 126.873 335.629 125.603 335.629 124.163C335.629 122.74 335.934 121.486 336.543 120.402C337.17 119.301 338.017 118.463 339.084 117.887C340.151 117.294 341.346 116.997 342.667 116.997C343.988 116.997 345.183 117.294 346.25 117.887C347.317 118.463 348.155 119.293 348.765 120.377C349.392 121.461 349.705 122.723 349.705 124.163C349.705 125.603 349.384 126.873 348.74 127.974C348.113 129.058 347.258 129.897 346.174 130.49C345.089 131.083 343.887 131.379 342.565 131.379ZM342.565 129.346C343.395 129.346 344.175 129.152 344.903 128.762C345.631 128.372 346.216 127.788 346.656 127.009C347.114 126.229 347.342 125.281 347.342 124.163C347.342 123.045 347.122 122.096 346.682 121.317C346.241 120.538 345.665 119.962 344.954 119.589C344.242 119.199 343.472 119.005 342.642 119.005C341.795 119.005 341.015 119.199 340.304 119.589C339.609 119.962 339.05 120.538 338.627 121.317C338.203 122.096 337.992 123.045 337.992 124.163C337.992 125.298 338.195 126.255 338.602 127.034C339.025 127.813 339.584 128.398 340.279 128.787C340.973 129.16 341.735 129.346 342.565 129.346ZM364.703 129.016L369.023 117.226H371.488L366.025 131.15H363.331L357.868 117.226H360.358L364.703 129.016ZM374.957 114.965C374.517 114.965 374.144 114.812 373.839 114.507C373.534 114.202 373.382 113.83 373.382 113.389C373.382 112.949 373.534 112.576 373.839 112.271C374.144 111.966 374.517 111.814 374.957 111.814C375.381 111.814 375.737 111.966 376.025 112.271C376.329 112.576 376.482 112.949 376.482 113.389C376.482 113.83 376.329 114.202 376.025 114.507C375.737 114.812 375.381 114.965 374.957 114.965ZM376.075 117.226V131.15H373.763V117.226H376.075ZM392.721 123.655C392.721 124.095 392.696 124.561 392.645 125.052H381.515C381.6 126.424 382.066 127.5 382.913 128.279C383.777 129.041 384.819 129.423 386.038 129.423C387.038 129.423 387.868 129.194 388.528 128.736C389.206 128.262 389.68 127.635 389.951 126.856H392.441C392.069 128.194 391.323 129.287 390.205 130.134C389.087 130.964 387.698 131.379 386.038 131.379C384.717 131.379 383.531 131.083 382.481 130.49C381.448 129.897 380.635 129.058 380.042 127.974C379.449 126.873 379.152 125.603 379.152 124.163C379.152 122.723 379.44 121.461 380.016 120.377C380.592 119.293 381.397 118.463 382.43 117.887C383.48 117.294 384.683 116.997 386.038 116.997C387.36 116.997 388.528 117.285 389.545 117.861C390.561 118.437 391.34 119.233 391.882 120.25C392.441 121.249 392.721 122.384 392.721 123.655ZM390.332 123.172C390.332 122.291 390.138 121.537 389.748 120.91C389.358 120.267 388.825 119.784 388.147 119.462C387.487 119.123 386.75 118.954 385.937 118.954C384.768 118.954 383.768 119.327 382.938 120.072C382.125 120.817 381.659 121.851 381.541 123.172H390.332ZM414.322 117.226L409.977 131.15H407.588L404.234 120.097L400.88 131.15H398.492L394.121 117.226H396.485L399.686 128.914L403.142 117.226H405.505L408.884 128.94L412.035 117.226H414.322ZM322.314 157.404C322.432 155.845 323.034 154.626 324.118 153.745C325.202 152.864 326.608 152.424 328.336 152.424C329.488 152.424 330.479 152.635 331.309 153.059C332.156 153.465 332.791 154.024 333.214 154.736C333.655 155.447 333.875 156.252 333.875 157.15C333.875 158.2 333.57 159.106 332.96 159.869C332.367 160.631 331.588 161.122 330.623 161.342V161.469C331.724 161.74 332.596 162.274 333.24 163.07C333.883 163.866 334.205 164.908 334.205 166.196C334.205 167.161 333.985 168.033 333.545 168.813C333.104 169.575 332.444 170.176 331.563 170.617C330.682 171.057 329.623 171.277 328.387 171.277C326.591 171.277 325.117 170.812 323.965 169.88C322.813 168.931 322.17 167.593 322.034 165.865H324.27C324.389 166.882 324.804 167.712 325.515 168.355C326.227 168.999 327.175 169.321 328.361 169.321C329.547 169.321 330.445 169.016 331.054 168.406C331.681 167.779 331.995 166.975 331.995 165.992C331.995 164.722 331.571 163.807 330.724 163.248C329.877 162.689 328.598 162.41 326.887 162.41H326.303V160.478H326.913C328.471 160.461 329.649 160.207 330.445 159.716C331.241 159.208 331.639 158.429 331.639 157.378C331.639 156.481 331.342 155.761 330.75 155.219C330.174 154.677 329.344 154.406 328.259 154.406C327.209 154.406 326.362 154.677 325.719 155.219C325.075 155.761 324.694 156.489 324.575 157.404H322.314ZM343.222 153.44C345.153 153.44 346.822 153.804 348.228 154.533C349.651 155.244 350.735 156.269 351.48 157.607C352.243 158.945 352.624 160.521 352.624 162.333C352.624 164.146 352.243 165.721 351.48 167.059C350.735 168.381 349.651 169.397 348.228 170.109C346.822 170.803 345.153 171.15 343.222 171.15H337.708V153.44H343.222ZM343.222 169.245C345.509 169.245 347.254 168.643 348.457 167.441C349.659 166.221 350.261 164.519 350.261 162.333C350.261 160.131 349.651 158.412 348.431 157.175C347.229 155.939 345.492 155.32 343.222 155.32H340.021V169.245H343.222ZM380.412 153.567V171.15H378.1V158.039L372.256 171.15H370.63L364.76 158.014V171.15H362.448V153.567H364.938L371.443 168.101L377.948 153.567H380.412ZM390.407 171.379C389.102 171.379 387.917 171.083 386.849 170.49C385.799 169.897 384.969 169.058 384.359 167.974C383.766 166.873 383.47 165.603 383.47 164.163C383.47 162.74 383.775 161.486 384.385 160.402C385.011 159.301 385.858 158.463 386.926 157.887C387.993 157.294 389.187 156.997 390.508 156.997C391.83 156.997 393.024 157.294 394.091 157.887C395.158 158.463 395.997 159.293 396.607 160.377C397.233 161.461 397.547 162.723 397.547 164.163C397.547 165.603 397.225 166.873 396.581 167.974C395.954 169.058 395.099 169.897 394.015 170.49C392.931 171.083 391.728 171.379 390.407 171.379ZM390.407 169.346C391.237 169.346 392.016 169.152 392.744 168.762C393.473 168.372 394.057 167.788 394.498 167.009C394.955 166.229 395.184 165.281 395.184 164.163C395.184 163.045 394.963 162.096 394.523 161.317C394.083 160.538 393.507 159.962 392.795 159.589C392.084 159.199 391.313 159.005 390.483 159.005C389.636 159.005 388.857 159.199 388.145 159.589C387.451 159.962 386.892 160.538 386.468 161.317C386.045 162.096 385.833 163.045 385.833 164.163C385.833 165.298 386.036 166.255 386.443 167.034C386.866 167.813 387.425 168.398 388.12 168.787C388.814 169.16 389.577 169.346 390.407 169.346ZM399.723 164.137C399.723 162.714 400.011 161.469 400.587 160.402C401.163 159.318 401.951 158.48 402.95 157.887C403.966 157.294 405.101 156.997 406.355 156.997C407.439 156.997 408.447 157.251 409.379 157.76C410.31 158.251 411.022 158.903 411.513 159.716V152.347H413.851V171.15H411.513V168.533C411.056 169.363 410.378 170.049 409.48 170.591C408.582 171.117 407.532 171.379 406.33 171.379C405.093 171.379 403.966 171.074 402.95 170.464C401.951 169.855 401.163 168.999 400.587 167.898C400.011 166.797 399.723 165.543 399.723 164.137ZM411.513 164.163C411.513 163.113 411.301 162.198 410.878 161.419C410.454 160.639 409.878 160.046 409.15 159.64C408.439 159.216 407.651 159.005 406.787 159.005C405.923 159.005 405.135 159.208 404.424 159.614C403.712 160.021 403.145 160.614 402.721 161.393C402.298 162.172 402.086 163.087 402.086 164.137C402.086 165.205 402.298 166.136 402.721 166.932C403.145 167.712 403.712 168.313 404.424 168.736C405.135 169.143 405.923 169.346 406.787 169.346C407.651 169.346 408.439 169.143 409.15 168.736C409.878 168.313 410.454 167.712 410.878 166.932C411.301 166.136 411.513 165.213 411.513 164.163ZM430.463 163.655C430.463 164.095 430.438 164.561 430.387 165.052H419.257C419.342 166.424 419.808 167.5 420.655 168.279C421.519 169.041 422.561 169.423 423.78 169.423C424.78 169.423 425.61 169.194 426.27 168.736C426.948 168.262 427.422 167.635 427.693 166.856H430.183C429.811 168.194 429.065 169.287 427.947 170.134C426.829 170.964 425.44 171.379 423.78 171.379C422.459 171.379 421.273 171.083 420.223 170.49C419.19 169.897 418.377 169.058 417.784 167.974C417.191 166.873 416.894 165.603 416.894 164.163C416.894 162.723 417.182 161.461 417.758 160.377C418.334 159.293 419.139 158.463 420.172 157.887C421.222 157.294 422.425 156.997 423.78 156.997C425.102 156.997 426.27 157.285 427.287 157.861C428.303 158.437 429.082 159.233 429.624 160.25C430.183 161.249 430.463 162.384 430.463 163.655ZM428.074 163.172C428.074 162.291 427.88 161.537 427.49 160.91C427.1 160.267 426.567 159.784 425.889 159.462C425.229 159.123 424.492 158.954 423.679 158.954C422.51 158.954 421.51 159.327 420.68 160.072C419.867 160.817 419.401 161.851 419.283 163.172H428.074ZM435.827 152.347V171.15H433.515V152.347H435.827Z" fill="#949494"/>
</svg>
