<svg width="713" height="104" viewBox="0 0 713 104" fill="none" xmlns="http://www.w3.org/2000/svg">
<path d="M369.965 4.12214C369.965 1.84554 371.81 0 374.087 0H409.125C411.402 0 413.247 1.84554 413.247 4.12214V39.1603C413.247 41.4369 411.402 43.2824 409.125 43.2824H374.087C371.81 43.2824 369.965 41.4369 369.965 39.1603V4.12214Z" fill="#3F3F3F"/>
<path d="M391.602 27.822C391.805 27.822 392.006 27.862 392.194 27.9397C392.381 28.0174 392.552 28.1312 392.695 28.2748C392.839 28.4183 392.953 28.5887 393.03 28.7763C393.108 28.9638 393.148 29.1648 393.148 29.3678C393.148 29.5708 393.108 29.7718 393.03 29.9594C392.953 30.1469 392.839 30.3173 392.695 30.4609C392.552 30.6044 392.381 30.7183 392.194 30.7959C392.006 30.8736 391.805 30.9136 391.602 30.9136C391.192 30.9136 390.799 30.7508 390.509 30.4609C390.219 30.171 390.056 29.7778 390.056 29.3678C390.056 28.9578 390.219 28.5647 390.509 28.2748C390.799 27.9849 391.192 27.822 391.602 27.822ZM391.602 13.3945C394.203 13.3945 396.24 15.4309 396.24 18.0319C396.24 20.2641 395.073 21.4286 394.135 22.3684C393.294 23.2073 392.633 23.8689 392.633 25.2457C392.633 25.519 392.524 25.7811 392.331 25.9744C392.138 26.1676 391.876 26.2762 391.602 26.2762C391.329 26.2762 391.067 26.1676 390.874 25.9744C390.68 25.7811 390.572 25.519 390.572 25.2457C390.572 23.0135 391.738 21.849 392.676 20.9092C393.517 20.0703 394.179 19.4087 394.179 18.0319C394.179 16.5645 393.07 15.4556 391.602 15.4556C390.135 15.4556 389.026 16.5645 389.026 18.0319C389.026 18.3052 388.917 18.5674 388.724 18.7606C388.531 18.9539 388.269 19.0625 387.995 19.0625C387.722 19.0625 387.46 18.9539 387.267 18.7606C387.073 18.5674 386.965 18.3052 386.965 18.0319C386.965 15.4309 389.001 13.3945 391.602 13.3945Z" fill="white"/>
<path fill-rule="evenodd" clip-rule="evenodd" d="M391.606 7.21094C393.5 7.21121 395.376 7.58465 397.127 8.30995C398.877 9.03525 400.467 10.0982 401.807 11.4381C403.146 12.778 404.209 14.3686 404.934 16.1192C405.659 17.8697 406.031 19.7458 406.031 21.6405C406.031 24.1739 405.364 26.6626 404.097 28.8564C402.83 31.0502 401.008 32.8716 398.813 34.1376C396.619 35.4036 394.13 36.0695 391.597 36.0682C389.063 36.067 386.575 35.3987 384.382 34.1306L378.759 36.0061C378.552 36.0757 378.329 36.0872 378.115 36.0393C377.902 35.9914 377.705 35.8859 377.547 35.7343C377.389 35.5827 377.276 35.3908 377.219 35.1793C377.162 34.9678 377.165 34.7448 377.226 34.5345L378.936 28.5451C377.738 26.3476 377.132 23.8762 377.178 21.3737C377.224 18.8712 377.92 16.4237 379.198 14.2717C380.476 12.1196 382.292 10.3371 384.468 9.09914C386.643 7.86122 389.103 7.21051 391.606 7.21094ZM391.608 9.27407C384.79 9.27407 379.241 14.8225 379.241 21.6405C379.241 23.7077 379.761 25.7544 380.746 27.5578L381.15 28.2998L379.654 33.5349L383.73 32.1767L384.613 31.8819L385.416 32.3477C387.298 33.4343 389.433 34.0058 391.606 34.0048L391.608 34.0069C398.426 34.0069 403.974 28.4585 403.974 21.6405C403.974 14.8225 398.426 9.27407 391.608 9.27407Z" fill="white"/>
<path d="M433.889 14.7321V20.4948H440.172V22.3498H433.889V28.2857H440.914V30.1406H431.639V12.8771H440.914V14.7321H433.889ZM450.923 16.3397C452.572 16.3397 453.907 16.8426 454.93 17.8484C455.952 18.8377 456.463 20.2722 456.463 22.1519V30.1406H454.237V22.4734C454.237 21.1214 453.899 20.0909 453.223 19.3818C452.547 18.6564 451.624 18.2936 450.453 18.2936C449.266 18.2936 448.318 18.6646 447.609 19.4066C446.916 20.1486 446.57 21.2286 446.57 22.6466V30.1406H444.319V16.587H446.57V18.5162C447.015 17.8237 447.617 17.2878 448.375 16.9086C449.15 16.5293 450 16.3397 450.923 16.3397ZM459.299 23.3144C459.299 21.9293 459.579 20.7174 460.14 19.6786C460.7 18.6234 461.467 17.8072 462.44 17.2301C463.429 16.653 464.534 16.3644 465.754 16.3644C466.925 16.3644 467.947 16.6283 468.821 17.1559C469.711 17.667 470.362 18.3018 470.775 19.0603V16.587H473.05V36.5712H470.775V27.6426C470.346 28.4011 469.686 29.0441 468.796 29.5718C467.906 30.0994 466.867 30.3632 465.68 30.3632C464.492 30.3632 463.412 30.0664 462.44 29.4728C461.467 28.8793 460.7 28.0466 460.14 26.9748C459.579 25.9031 459.299 24.6829 459.299 23.3144ZM470.775 23.3391C470.775 22.3168 470.569 21.4264 470.156 20.668C469.744 19.9095 469.183 19.3324 468.474 18.9367C467.782 18.5244 467.015 18.3183 466.174 18.3183C465.333 18.3183 464.567 18.5162 463.874 18.9119C463.182 19.3076 462.629 19.8847 462.217 20.6432C461.805 21.4017 461.599 22.2921 461.599 23.3144C461.599 24.3531 461.805 25.26 462.217 26.035C462.629 26.7934 463.182 27.3788 463.874 27.791C464.567 28.1867 465.333 28.3846 466.174 28.3846C467.015 28.3846 467.782 28.1867 468.474 27.791C469.183 27.3788 469.744 26.7934 470.156 26.035C470.569 25.26 470.775 24.3614 470.775 23.3391ZM488.874 16.587V30.1406H486.623V28.1373C486.194 28.8298 485.592 29.3739 484.817 29.7696C484.059 30.1489 483.218 30.3385 482.295 30.3385C481.239 30.3385 480.291 30.1241 479.45 29.6954C478.61 29.2502 477.942 28.5907 477.447 27.7168C476.969 26.8429 476.73 25.7794 476.73 24.5263V16.587H478.956V24.2295C478.956 25.5651 479.294 26.5956 479.97 27.3211C480.646 28.0301 481.569 28.3846 482.74 28.3846C483.944 28.3846 484.892 28.0136 485.584 27.2716C486.277 26.5296 486.623 25.4496 486.623 24.0316V16.587H488.874ZM493.836 14.3858C493.408 14.3858 493.045 14.2374 492.748 13.9406C492.451 13.6438 492.303 13.2811 492.303 12.8524C492.303 12.4237 492.451 12.0609 492.748 11.7641C493.045 11.4673 493.408 11.3189 493.836 11.3189C494.248 11.3189 494.595 11.4673 494.875 11.7641C495.172 12.0609 495.32 12.4237 495.32 12.8524C495.32 13.2811 495.172 13.6438 494.875 13.9406C494.595 14.2374 494.248 14.3858 493.836 14.3858ZM494.924 16.587V30.1406H492.674V16.587H494.924ZM501.011 18.7883C501.407 18.0133 501.967 17.4115 502.693 16.9828C503.435 16.5541 504.334 16.3397 505.389 16.3397V18.6646H504.795C502.272 18.6646 501.011 20.0331 501.011 22.7702V30.1406H498.76V16.587H501.011V18.7883ZM519.661 16.587L511.499 36.5217H509.174L511.845 29.9922L506.379 16.587H508.877L513.131 27.5684L517.336 16.587H519.661ZM538.262 12.9018V14.7321H530.768V20.5443H536.852V22.3745H530.768V30.1406H528.517V12.9018H538.262ZM546.891 30.3632C545.622 30.3632 544.467 30.0747 543.429 29.4976C542.406 28.9205 541.598 28.1043 541.005 27.049C540.428 25.9773 540.139 24.7406 540.139 23.3391C540.139 21.9541 540.436 20.7339 541.03 19.6786C541.64 18.6069 542.464 17.7907 543.503 17.2301C544.542 16.653 545.704 16.3644 546.99 16.3644C548.276 16.3644 549.439 16.653 550.478 17.2301C551.516 17.7907 552.332 18.5986 552.926 19.6539C553.536 20.7092 553.841 21.9376 553.841 23.3391C553.841 24.7406 553.528 25.9773 552.901 27.049C552.291 28.1043 551.459 28.9205 550.403 29.4976C549.348 30.0747 548.177 30.3632 546.891 30.3632ZM546.891 28.3846C547.699 28.3846 548.458 28.195 549.167 27.8157C549.876 27.4365 550.445 26.8676 550.873 26.1092C551.318 25.3507 551.541 24.4273 551.541 23.3391C551.541 22.2509 551.327 21.3275 550.898 20.569C550.469 19.8105 549.909 19.2499 549.216 18.8872C548.524 18.508 547.773 18.3183 546.965 18.3183C546.141 18.3183 545.383 18.508 544.69 18.8872C544.014 19.2499 543.47 19.8105 543.058 20.569C542.645 21.3275 542.439 22.2509 542.439 23.3391C542.439 24.4438 542.637 25.3754 543.033 26.1339C543.445 26.8924 543.989 27.4612 544.665 27.8405C545.341 28.2032 546.083 28.3846 546.891 28.3846ZM559.051 18.7883C559.447 18.0133 560.007 17.4115 560.733 16.9828C561.475 16.5541 562.374 16.3397 563.429 16.3397V18.6646H562.835C560.312 18.6646 559.051 20.0331 559.051 22.7702V30.1406H556.8V16.587H559.051V18.7883ZM582.326 16.3397C583.381 16.3397 584.321 16.5623 585.145 17.0075C585.97 17.4362 586.621 18.0875 587.099 18.9614C587.577 19.8353 587.817 20.8988 587.817 22.1519V30.1406H585.591V22.4734C585.591 21.1214 585.253 20.0909 584.577 19.3818C583.917 18.6564 583.018 18.2936 581.881 18.2936C580.71 18.2936 579.778 18.6728 579.086 19.4313C578.393 20.1733 578.047 21.2533 578.047 22.6713V30.1406H575.821V22.4734C575.821 21.1214 575.483 20.0909 574.807 19.3818C574.148 18.6564 573.249 18.2936 572.111 18.2936C570.94 18.2936 570.009 18.6728 569.316 19.4313C568.624 20.1733 568.278 21.2533 568.278 22.6713V30.1406H566.027V16.587H568.278V18.5409C568.723 17.8319 569.316 17.2878 570.058 16.9086C570.817 16.5293 571.65 16.3397 572.556 16.3397C573.694 16.3397 574.7 16.5953 575.574 17.1064C576.448 17.6176 577.099 18.3678 577.528 19.3571C577.907 18.4008 578.533 17.6588 579.407 17.1312C580.281 16.6035 581.254 16.3397 582.326 16.3397ZM596.307 30.3632C595.268 30.3632 594.336 30.1901 593.512 29.8438C592.687 29.4811 592.036 28.9864 591.558 28.3599C591.08 27.7168 590.816 26.9831 590.766 26.1586H593.091C593.157 26.8347 593.471 27.387 594.031 27.8157C594.608 28.2444 595.359 28.4588 596.282 28.4588C597.139 28.4588 597.815 28.2692 598.31 27.8899C598.805 27.5107 599.052 27.0325 599.052 26.4554C599.052 25.8618 598.788 25.4249 598.261 25.1446C597.733 24.8478 596.917 24.5593 595.812 24.2789C594.806 24.0151 593.982 23.7513 593.339 23.4875C592.712 23.2072 592.168 22.8032 591.706 22.2756C591.261 21.7315 591.039 21.0225 591.039 20.1486C591.039 19.456 591.245 18.8212 591.657 18.2441C592.069 17.667 592.654 17.2136 593.413 16.8838C594.171 16.5376 595.037 16.3644 596.01 16.3644C597.51 16.3644 598.722 16.7437 599.646 17.5022C600.569 18.2606 601.064 19.2994 601.13 20.6185H598.879C598.829 19.9095 598.541 19.3406 598.013 18.9119C597.502 18.4832 596.81 18.2689 595.936 18.2689C595.128 18.2689 594.485 18.442 594.006 18.7883C593.528 19.1345 593.289 19.588 593.289 20.1486C593.289 20.5938 593.429 20.9647 593.71 21.2615C594.006 21.5418 594.369 21.7727 594.798 21.9541C595.243 22.1189 595.853 22.3086 596.628 22.5229C597.601 22.7867 598.392 23.0505 599.003 23.3144C599.613 23.5617 600.132 23.9409 600.561 24.4521C601.006 24.9632 601.237 25.631 601.253 26.4554C601.253 27.1974 601.047 27.8652 600.635 28.4588C600.223 29.0524 599.637 29.5223 598.879 29.8686C598.137 30.1983 597.279 30.3632 596.307 30.3632Z" fill="#5D5D5D"/>
<path d="M369.965 63.8936C369.965 61.617 371.81 59.7715 374.087 59.7715H409.125C411.402 59.7715 413.247 61.617 413.247 63.8936V98.9318C413.247 101.208 411.402 103.054 409.125 103.054H374.087C371.81 103.054 369.965 101.208 369.965 98.9318V63.8936Z" fill="#3F3F3F"/>
<g clip-path="url(#clip0_2662_151)">
<path d="M393.664 65.9551H381.503C378.824 65.9551 376.557 67.81 376.145 70.2833C375.939 72.3444 376.763 73.9932 378.206 75.0238V80.7948C378.206 81.6192 379.236 82.2375 380.061 81.6192L385.419 76.2604H393.458C395.725 76.2604 397.992 74.8177 398.61 72.5505C399.641 69.0467 396.961 65.9551 393.664 65.9551ZM389.542 80.3826H401.702C404.381 80.3826 406.648 82.2375 407.061 84.7108C407.267 86.7719 406.442 88.4207 405 89.4513V95.2223C405 96.0467 403.969 96.665 403.145 96.0467L397.786 90.6879H389.748C387.48 90.6879 385.213 89.2452 384.595 86.978C383.564 83.4742 386.244 80.3826 389.542 80.3826Z" stroke="white" stroke-width="1.5458"/>
</g>
<path d="M433.889 72.6733V89.9121H431.639V72.6733H433.889ZM444.329 76.1112C445.978 76.1112 447.313 76.6141 448.336 77.6199C449.358 78.6092 449.869 80.0437 449.869 81.9234V89.9121H447.643V82.2449C447.643 80.8929 447.305 79.8623 446.629 79.1533C445.953 78.4278 445.03 78.0651 443.859 78.0651C442.672 78.0651 441.724 78.4361 441.015 79.1781C440.322 79.92 439.976 81 439.976 82.4181V89.9121H437.725V76.3585H439.976V78.2877C440.421 77.5952 441.023 77.0593 441.782 76.68C442.557 76.3008 443.406 76.1112 444.329 76.1112ZM452.705 83.1106C452.705 81.7091 452.985 80.4889 453.546 79.4501C454.106 78.3949 454.881 77.5787 455.871 77.0016C456.876 76.4245 458.022 76.1359 459.308 76.1359C460.974 76.1359 462.342 76.5399 463.414 77.3478C464.502 78.1558 465.22 79.277 465.566 80.7115H463.142C462.911 79.8871 462.458 79.2358 461.782 78.7576C461.122 78.2794 460.298 78.0404 459.308 78.0404C458.022 78.0404 456.984 78.4855 456.192 79.3759C455.401 80.2498 455.005 81.4947 455.005 83.1106C455.005 84.7429 455.401 86.0043 456.192 86.8947C456.984 87.7851 458.022 88.2303 459.308 88.2303C460.298 88.2303 461.122 87.9994 461.782 87.5378C462.441 87.0761 462.895 86.4165 463.142 85.5591H465.566C465.203 86.9442 464.478 88.0571 463.389 88.8981C462.301 89.7225 460.941 90.1347 459.308 90.1347C458.022 90.1347 456.876 89.8462 455.871 89.2691C454.881 88.692 454.106 87.8758 453.546 86.8205C452.985 85.7652 452.705 84.5286 452.705 83.1106ZM470.82 78.5597C471.215 77.7848 471.776 77.1829 472.501 76.7542C473.243 76.3255 474.142 76.1112 475.197 76.1112V78.4361H474.604C472.081 78.4361 470.82 79.8046 470.82 82.5417V89.9121H468.569V76.3585H470.82V78.5597ZM490.162 82.6159C490.162 83.0446 490.137 83.4981 490.088 83.9762H479.255C479.337 85.3118 479.791 86.3588 480.615 87.1173C481.456 87.8593 482.47 88.2303 483.657 88.2303C484.63 88.2303 485.438 88.0077 486.081 87.5625C486.741 87.1008 487.202 86.4907 487.466 85.7323H489.89C489.527 87.0349 488.802 88.0984 487.713 88.9228C486.625 89.7307 485.273 90.1347 483.657 90.1347C482.371 90.1347 481.217 89.8462 480.195 89.2691C479.189 88.692 478.397 87.8758 477.82 86.8205C477.243 85.7488 476.955 84.5121 476.955 83.1106C476.955 81.7091 477.235 80.4807 477.795 79.4254C478.356 78.3701 479.139 77.5622 480.145 77.0016C481.167 76.4245 482.338 76.1359 483.657 76.1359C484.943 76.1359 486.081 76.4162 487.07 76.9768C488.06 77.5375 488.818 78.3124 489.346 79.3017C489.89 80.2746 490.162 81.3793 490.162 82.6159ZM487.837 82.146C487.837 81.2886 487.647 80.5549 487.268 79.9448C486.889 79.3182 486.37 78.8483 485.71 78.535C485.067 78.2052 484.35 78.0404 483.558 78.0404C482.421 78.0404 481.448 78.4031 480.64 79.1286C479.848 79.8541 479.395 80.8599 479.279 82.146H487.837ZM492.292 83.0858C492.292 81.7008 492.572 80.4889 493.133 79.4501C493.693 78.3949 494.46 77.5787 495.433 77.0016C496.422 76.4245 497.519 76.1359 498.722 76.1359C499.91 76.1359 500.94 76.3915 501.814 76.9026C502.688 77.4138 503.339 78.0568 503.768 78.8318V76.3585H506.043V89.9121H503.768V87.3894C503.323 88.1808 502.655 88.8404 501.764 89.368C500.891 89.8791 499.868 90.1347 498.698 90.1347C497.494 90.1347 496.406 89.8379 495.433 89.2443C494.46 88.6507 493.693 87.8181 493.133 86.7463C492.572 85.6746 492.292 84.4544 492.292 83.0858ZM503.768 83.1106C503.768 82.0883 503.562 81.1979 503.15 80.4394C502.737 79.681 502.177 79.1039 501.468 78.7081C500.775 78.2959 500.008 78.0898 499.168 78.0898C498.327 78.0898 497.56 78.2877 496.867 78.6834C496.175 79.0791 495.622 79.6562 495.21 80.4147C494.798 81.1732 494.592 82.0636 494.592 83.0858C494.592 84.1246 494.798 85.0315 495.21 85.8065C495.622 86.5649 496.175 87.1503 496.867 87.5625C497.56 87.9582 498.327 88.1561 499.168 88.1561C500.008 88.1561 500.775 87.9582 501.468 87.5625C502.177 87.1503 502.737 86.5649 503.15 85.8065C503.562 85.0315 503.768 84.1329 503.768 83.1106ZM514.645 90.1347C513.606 90.1347 512.674 89.9616 511.85 89.6153C511.026 89.2526 510.374 88.7579 509.896 88.1313C509.418 87.4883 509.154 86.7546 509.105 85.9301H511.43C511.496 86.6062 511.809 87.1585 512.369 87.5872C512.947 88.0159 513.697 88.2303 514.62 88.2303C515.478 88.2303 516.154 88.0407 516.648 87.6614C517.143 87.2822 517.39 86.804 517.39 86.2269C517.39 85.6333 517.126 85.1964 516.599 84.9161C516.071 84.6193 515.255 84.3307 514.15 84.0504C513.144 83.7866 512.32 83.5228 511.677 83.259C511.05 82.9787 510.506 82.5747 510.045 82.0471C509.599 81.5029 509.377 80.7939 509.377 79.92C509.377 79.2275 509.583 78.5927 509.995 78.0156C510.407 77.4385 510.993 76.9851 511.751 76.6553C512.51 76.3091 513.375 76.1359 514.348 76.1359C515.849 76.1359 517.06 76.5152 517.984 77.2736C518.907 78.0321 519.402 79.0709 519.468 80.39H517.217C517.168 79.681 516.879 79.1121 516.351 78.6834C515.84 78.2547 515.148 78.0404 514.274 78.0404C513.466 78.0404 512.823 78.2135 512.345 78.5597C511.867 78.906 511.627 79.3594 511.627 79.92C511.627 80.3652 511.768 80.7362 512.048 81.033C512.345 81.3133 512.707 81.5442 513.136 81.7255C513.581 81.8904 514.191 82.08 514.966 82.2944C515.939 82.5582 516.731 82.822 517.341 83.0858C517.951 83.3332 518.47 83.7124 518.899 84.2236C519.344 84.7347 519.575 85.4025 519.591 86.2269C519.591 86.9689 519.385 87.6367 518.973 88.2303C518.561 88.8239 517.976 89.2938 517.217 89.64C516.475 89.9698 515.618 90.1347 514.645 90.1347ZM535.135 82.6159C535.135 83.0446 535.11 83.4981 535.061 83.9762H524.228C524.31 85.3118 524.764 86.3588 525.588 87.1173C526.429 87.8593 527.443 88.2303 528.63 88.2303C529.603 88.2303 530.411 88.0077 531.054 87.5625C531.714 87.1008 532.175 86.4907 532.439 85.7323H534.863C534.5 87.0349 533.775 88.0984 532.686 88.9228C531.598 89.7307 530.246 90.1347 528.63 90.1347C527.344 90.1347 526.19 89.8462 525.168 89.2691C524.162 88.692 523.37 87.8758 522.793 86.8205C522.216 85.7488 521.928 84.5121 521.928 83.1106C521.928 81.7091 522.208 80.4807 522.769 79.4254C523.329 78.3701 524.112 77.5622 525.118 77.0016C526.141 76.4245 527.311 76.1359 528.63 76.1359C529.916 76.1359 531.054 76.4162 532.043 76.9768C533.033 77.5375 533.791 78.3124 534.319 79.3017C534.863 80.2746 535.135 81.3793 535.135 82.6159ZM532.81 82.146C532.81 81.2886 532.621 80.5549 532.241 79.9448C531.862 79.3182 531.343 78.8483 530.683 78.535C530.04 78.2052 529.323 78.0404 528.531 78.0404C527.394 78.0404 526.421 78.4031 525.613 79.1286C524.821 79.8541 524.368 80.8599 524.253 82.146H532.81ZM537.265 83.0858C537.265 81.7008 537.545 80.4889 538.106 79.4501C538.666 78.3949 539.433 77.5787 540.406 77.0016C541.395 76.4245 542.5 76.1359 543.72 76.1359C544.775 76.1359 545.757 76.3833 546.663 76.8779C547.57 77.3561 548.263 77.9909 548.741 78.7823V71.6098H551.016V89.9121H548.741V87.3646C548.296 88.1726 547.636 88.8404 546.762 89.368C545.888 89.8791 544.866 90.1347 543.695 90.1347C542.492 90.1347 541.395 89.8379 540.406 89.2443C539.433 88.6507 538.666 87.8181 538.106 86.7463C537.545 85.6746 537.265 84.4544 537.265 83.0858ZM548.741 83.1106C548.741 82.0883 548.535 81.1979 548.123 80.4394C547.71 79.681 547.15 79.1039 546.441 78.7081C545.748 78.2959 544.982 78.0898 544.141 78.0898C543.3 78.0898 542.533 78.2877 541.841 78.6834C541.148 79.0791 540.596 79.6562 540.183 80.4147C539.771 81.1732 539.565 82.0636 539.565 83.0858C539.565 84.1246 539.771 85.0315 540.183 85.8065C540.596 86.5649 541.148 87.1503 541.841 87.5625C542.533 87.9582 543.3 88.1561 544.141 88.1561C544.982 88.1561 545.748 87.9582 546.441 87.5625C547.15 87.1503 547.71 86.5649 548.123 85.8065C548.535 85.0315 548.741 84.1329 548.741 83.1106ZM560.573 81.2804C560.573 79.5985 560.952 78.0898 561.71 76.7542C562.469 75.4022 563.499 74.3469 564.802 73.5884C566.121 72.83 567.58 72.4507 569.18 72.4507C571.059 72.4507 572.7 72.9042 574.102 73.811C575.503 74.7179 576.525 76.004 577.168 77.6694H574.473C573.994 76.6306 573.302 75.8309 572.395 75.2703C571.505 74.7097 570.433 74.4294 569.18 74.4294C567.976 74.4294 566.896 74.7097 565.94 75.2703C564.983 75.8309 564.233 76.6306 563.689 77.6694C563.145 78.6917 562.873 79.8953 562.873 81.2804C562.873 82.6489 563.145 83.8526 563.689 84.8913C564.233 85.9136 564.983 86.7051 565.94 87.2657C566.896 87.8263 567.976 88.1066 569.18 88.1066C570.433 88.1066 571.505 87.8346 572.395 87.2904C573.302 86.7298 573.994 85.9301 574.473 84.8913H577.168C576.525 86.5402 575.503 87.8181 574.102 88.7249C572.7 89.6153 571.059 90.0605 569.18 90.0605C567.58 90.0605 566.121 89.6895 564.802 88.9475C563.499 88.1891 562.469 87.142 561.71 85.8065C560.952 84.4709 560.573 82.9622 560.573 81.2804ZM586.43 90.1347C585.16 90.1347 584.006 89.8462 582.967 89.2691C581.945 88.692 581.137 87.8758 580.544 86.8205C579.966 85.7488 579.678 84.5121 579.678 83.1106C579.678 81.7255 579.975 80.5054 580.568 79.4501C581.178 78.3784 582.003 77.5622 583.042 77.0016C584.08 76.4245 585.243 76.1359 586.529 76.1359C587.815 76.1359 588.977 76.4245 590.016 77.0016C591.055 77.5622 591.871 78.3701 592.465 79.4254C593.075 80.4807 593.38 81.7091 593.38 83.1106C593.38 84.5121 593.067 85.7488 592.44 86.8205C591.83 87.8758 590.997 88.692 589.942 89.2691C588.887 89.8462 587.716 90.1347 586.43 90.1347ZM586.43 88.1561C587.238 88.1561 587.996 87.9665 588.705 87.5872C589.414 87.208 589.983 86.6391 590.412 85.8807C590.857 85.1222 591.08 84.1988 591.08 83.1106C591.08 82.0223 590.865 81.099 590.437 80.3405C590.008 79.582 589.447 79.0214 588.755 78.6587C588.062 78.2794 587.312 78.0898 586.504 78.0898C585.68 78.0898 584.921 78.2794 584.229 78.6587C583.553 79.0214 583.009 79.582 582.596 80.3405C582.184 81.099 581.978 82.0223 581.978 83.1106C581.978 84.2153 582.176 85.1469 582.572 85.9054C582.984 86.6639 583.528 87.2327 584.204 87.612C584.88 87.9747 585.622 88.1561 586.43 88.1561ZM602.943 76.1112C604.592 76.1112 605.927 76.6141 606.949 77.6199C607.972 78.6092 608.483 80.0437 608.483 81.9234V89.9121H606.257V82.2449C606.257 80.8929 605.919 79.8623 605.243 79.1533C604.567 78.4278 603.644 78.0651 602.473 78.0651C601.286 78.0651 600.338 78.4361 599.629 79.1781C598.936 79.92 598.59 81 598.59 82.4181V89.9121H596.339V76.3585H598.59V78.2877C599.035 77.5952 599.637 77.0593 600.395 76.68C601.17 76.3008 602.019 76.1112 602.943 76.1112ZM617.205 87.8346L621.409 76.3585H623.809L618.491 89.9121H615.869L610.552 76.3585H612.976L617.205 87.8346ZM638.39 82.6159C638.39 83.0446 638.365 83.4981 638.316 83.9762H627.483C627.565 85.3118 628.018 86.3588 628.843 87.1173C629.684 87.8593 630.698 88.2303 631.885 88.2303C632.858 88.2303 633.666 88.0077 634.309 87.5625C634.968 87.1008 635.43 86.4907 635.694 85.7323H638.118C637.755 87.0349 637.029 88.0984 635.941 88.9228C634.853 89.7307 633.501 90.1347 631.885 90.1347C630.599 90.1347 629.445 89.8462 628.422 89.2691C627.417 88.692 626.625 87.8758 626.048 86.8205C625.471 85.7488 625.182 84.5121 625.182 83.1106C625.182 81.7091 625.463 80.4807 626.023 79.4254C626.584 78.3701 627.367 77.5622 628.373 77.0016C629.395 76.4245 630.566 76.1359 631.885 76.1359C633.171 76.1359 634.309 76.4162 635.298 76.9768C636.287 77.5375 637.046 78.3124 637.574 79.3017C638.118 80.2746 638.39 81.3793 638.39 82.6159ZM636.065 82.146C636.065 81.2886 635.875 80.5549 635.496 79.9448C635.117 79.3182 634.597 78.8483 633.938 78.535C633.295 78.2052 632.578 78.0404 631.786 78.0404C630.648 78.0404 629.676 78.4031 628.868 79.1286C628.076 79.8541 627.623 80.8599 627.507 82.146H636.065ZM643.611 78.5597C644.007 77.7848 644.568 77.1829 645.293 76.7542C646.035 76.3255 646.934 76.1112 647.989 76.1112V78.4361H647.395C644.873 78.4361 643.611 79.8046 643.611 82.5417V89.9121H641.361V76.3585H643.611V78.5597ZM655.385 90.1347C654.346 90.1347 653.415 89.9616 652.59 89.6153C651.766 89.2526 651.115 88.7579 650.637 88.1313C650.158 87.4883 649.895 86.7546 649.845 85.9301H652.17C652.236 86.6062 652.549 87.1585 653.11 87.5872C653.687 88.0159 654.437 88.2303 655.361 88.2303C656.218 88.2303 656.894 88.0407 657.389 87.6614C657.883 87.2822 658.131 86.804 658.131 86.2269C658.131 85.6333 657.867 85.1964 657.339 84.9161C656.812 84.6193 655.995 84.3307 654.891 84.0504C653.885 83.7866 653.06 83.5228 652.417 83.259C651.791 82.9787 651.247 82.5747 650.785 82.0471C650.34 81.5029 650.117 80.7939 650.117 79.92C650.117 79.2275 650.323 78.5927 650.735 78.0156C651.148 77.4385 651.733 76.9851 652.492 76.6553C653.25 76.3091 654.116 76.1359 655.088 76.1359C656.589 76.1359 657.801 76.5152 658.724 77.2736C659.648 78.0321 660.142 79.0709 660.208 80.39H657.957C657.908 79.681 657.619 79.1121 657.092 78.6834C656.581 78.2547 655.888 78.0404 655.014 78.0404C654.206 78.0404 653.563 78.2135 653.085 78.5597C652.607 78.906 652.368 79.3594 652.368 79.92C652.368 80.3652 652.508 80.7362 652.788 81.033C653.085 81.3133 653.448 81.5442 653.877 81.7255C654.322 81.8904 654.932 82.08 655.707 82.2944C656.68 82.5582 657.471 82.822 658.081 83.0858C658.691 83.3332 659.211 83.7124 659.639 84.2236C660.084 84.7347 660.315 85.4025 660.332 86.2269C660.332 86.9689 660.126 87.6367 659.713 88.2303C659.301 88.8239 658.716 89.2938 657.957 89.64C657.215 89.9698 656.358 90.1347 655.385 90.1347ZM664.671 74.1573C664.243 74.1573 663.88 74.0089 663.583 73.7121C663.286 73.4153 663.138 73.0526 663.138 72.6239C663.138 72.1952 663.286 71.8324 663.583 71.5356C663.88 71.2388 664.243 71.0904 664.671 71.0904C665.084 71.0904 665.43 71.2388 665.71 71.5356C666.007 71.8324 666.155 72.1952 666.155 72.6239C666.155 73.0526 666.007 73.4153 665.71 73.7121C665.43 74.0089 665.084 74.1573 664.671 74.1573ZM665.76 76.3585V89.9121H663.509V76.3585H665.76ZM675.507 90.1347C674.237 90.1347 673.083 89.8462 672.044 89.2691C671.022 88.692 670.214 87.8758 669.62 86.8205C669.043 85.7488 668.755 84.5121 668.755 83.1106C668.755 81.7255 669.051 80.5054 669.645 79.4501C670.255 78.3784 671.08 77.5622 672.118 77.0016C673.157 76.4245 674.32 76.1359 675.606 76.1359C676.892 76.1359 678.054 76.4245 679.093 77.0016C680.132 77.5622 680.948 78.3701 681.542 79.4254C682.152 80.4807 682.457 81.7091 682.457 83.1106C682.457 84.5121 682.143 85.7488 681.517 86.8205C680.907 87.8758 680.074 88.692 679.019 89.2691C677.964 89.8462 676.793 90.1347 675.507 90.1347ZM675.507 88.1561C676.315 88.1561 677.073 87.9665 677.782 87.5872C678.491 87.208 679.06 86.6391 679.489 85.8807C679.934 85.1222 680.157 84.1988 680.157 83.1106C680.157 82.0223 679.942 81.099 679.513 80.3405C679.085 79.582 678.524 79.0214 677.832 78.6587C677.139 78.2794 676.389 78.0898 675.581 78.0898C674.757 78.0898 673.998 78.2794 673.306 78.6587C672.629 79.0214 672.085 79.582 671.673 80.3405C671.261 81.099 671.055 82.0223 671.055 83.1106C671.055 84.2153 671.253 85.1469 671.648 85.9054C672.061 86.6639 672.605 87.2327 673.281 87.612C673.957 87.9747 674.699 88.1561 675.507 88.1561ZM692.02 76.1112C693.668 76.1112 695.004 76.6141 696.026 77.6199C697.049 78.6092 697.56 80.0437 697.56 81.9234V89.9121H695.334V82.2449C695.334 80.8929 694.996 79.8623 694.32 79.1533C693.644 78.4278 692.72 78.0651 691.55 78.0651C690.362 78.0651 689.414 78.4361 688.705 79.1781C688.013 79.92 687.667 81 687.667 82.4181V89.9121H685.416V76.3585H687.667V78.2877C688.112 77.5952 688.714 77.0593 689.472 76.68C690.247 76.3008 691.096 76.1112 692.02 76.1112ZM706.034 90.1347C704.996 90.1347 704.064 89.9616 703.24 89.6153C702.415 89.2526 701.764 88.7579 701.286 88.1313C700.808 87.4883 700.544 86.7546 700.494 85.9301H702.819C702.885 86.6062 703.198 87.1585 703.759 87.5872C704.336 88.0159 705.086 88.2303 706.01 88.2303C706.867 88.2303 707.543 88.0407 708.038 87.6614C708.532 87.2822 708.78 86.804 708.78 86.2269C708.78 85.6333 708.516 85.1964 707.988 84.9161C707.461 84.6193 706.644 84.3307 705.54 84.0504C704.534 83.7866 703.709 83.5228 703.066 83.259C702.44 82.9787 701.896 82.5747 701.434 82.0471C700.989 81.5029 700.766 80.7939 700.766 79.92C700.766 79.2275 700.972 78.5927 701.385 78.0156C701.797 77.4385 702.382 76.9851 703.141 76.6553C703.899 76.3091 704.765 76.1359 705.738 76.1359C707.238 76.1359 708.45 76.5152 709.373 77.2736C710.297 78.0321 710.791 79.0709 710.857 80.39H708.607C708.557 79.681 708.269 79.1121 707.741 78.6834C707.23 78.2547 706.537 78.0404 705.663 78.0404C704.855 78.0404 704.212 78.2135 703.734 78.5597C703.256 78.906 703.017 79.3594 703.017 79.92C703.017 80.3652 703.157 80.7362 703.437 81.033C703.734 81.3133 704.097 81.5442 704.526 81.7255C704.971 81.8904 705.581 82.08 706.356 82.2944C707.329 82.5582 708.12 82.822 708.73 83.0858C709.34 83.3332 709.86 83.7124 710.288 84.2236C710.734 84.7347 710.964 85.4025 710.981 86.2269C710.981 86.9689 710.775 87.6367 710.363 88.2303C709.95 88.8239 709.365 89.2938 708.607 89.64C707.865 89.9698 707.007 90.1347 706.034 90.1347Z" fill="#5D5D5D"/>
<path d="M0 4.12214C0 1.84554 1.84554 0 4.12214 0H39.1603C41.4369 0 43.2824 1.84554 43.2824 4.12214V39.1603C43.2824 41.4369 41.4369 43.2824 39.1603 43.2824H4.12214C1.84554 43.2824 0 41.4369 0 39.1603V4.12214Z" fill="#3F3F3F"/>
<path d="M11.6778 31.2621H17.174V20.2697H11.6778V31.2621ZM19.9221 31.2621H25.4182V12.0254H19.9221V31.2621ZM28.1663 31.2621H33.6625V23.0178H28.1663V31.2621ZM8.92969 31.2621V20.2697C8.92969 19.514 9.199 18.8673 9.73763 18.3296C10.2763 17.7918 10.923 17.5225 11.6778 17.5216H17.174V12.0254C17.174 11.2697 17.4433 10.623 17.9819 10.0853C18.5205 9.54757 19.1672 9.27826 19.9221 9.27734H25.4182C26.174 9.27734 26.8211 9.54666 27.3598 10.0853C27.8984 10.6239 28.1672 11.2706 28.1663 12.0254V20.2697H33.6625C34.4182 20.2697 35.0654 20.539 35.604 21.0776C36.1427 21.6163 36.4115 22.263 36.4106 23.0178V31.2621C36.4106 32.0178 36.1417 32.665 35.604 33.2036C35.0663 33.7422 34.4192 34.0111 33.6625 34.0102H11.6778C10.9221 34.0102 10.2753 33.7413 9.73763 33.2036C9.19992 32.6659 8.9306 32.0187 8.92969 31.2621Z" fill="white"/>
<path d="M63.9246 28.3104H69.9595V30.1406H61.674V12.9018H63.9246V28.3104ZM84.7161 22.8444C84.7161 23.2731 84.6913 23.7266 84.6419 24.2047H73.8089C73.8913 25.5403 74.3448 26.5873 75.1692 27.3458C76.0101 28.0878 77.0242 28.4588 78.2113 28.4588C79.1842 28.4588 79.9921 28.2362 80.6351 27.791C81.2947 27.3293 81.7564 26.7193 82.0202 25.9608H84.444C84.0813 27.2634 83.3558 28.3269 82.2675 29.1513C81.1793 29.9593 79.8272 30.3632 78.2113 30.3632C76.9252 30.3632 75.771 30.0747 74.7487 29.4976C73.7429 28.9205 72.9515 28.1043 72.3744 27.049C71.7973 25.9773 71.5087 24.7406 71.5087 23.3391C71.5087 21.9376 71.789 20.7092 72.3496 19.6539C72.9103 18.5986 73.6935 17.7907 74.6993 17.2301C75.7216 16.653 76.8922 16.3644 78.2113 16.3644C79.4974 16.3644 80.6351 16.6447 81.6245 17.2054C82.6138 17.766 83.3722 18.5409 83.8999 19.5302C84.444 20.5031 84.7161 21.6078 84.7161 22.8444ZM82.3912 22.3745C82.3912 21.5171 82.2016 20.7834 81.8223 20.1733C81.4431 19.5467 80.9237 19.0768 80.2642 18.7635C79.6211 18.4338 78.9038 18.2689 78.1124 18.2689C76.9747 18.2689 76.0019 18.6316 75.1939 19.3571C74.4025 20.0826 73.949 21.0884 73.8336 22.3745H82.3912ZM86.846 23.3144C86.846 21.9293 87.1263 20.7174 87.6869 19.6786C88.2475 18.6234 89.0142 17.8072 89.9871 17.2301C90.9764 16.653 92.0729 16.3644 93.2765 16.3644C94.4637 16.3644 95.4942 16.62 96.3681 17.1312C97.242 17.6423 97.8933 18.2854 98.322 19.0603V16.587H100.597V30.1406H98.322V27.6179C97.8768 28.4093 97.209 29.0689 96.3187 29.5965C95.4448 30.1076 94.4225 30.3632 93.2518 30.3632C92.0481 30.3632 90.9599 30.0664 89.9871 29.4728C89.0142 28.8793 88.2475 28.0466 87.6869 26.9748C87.1263 25.9031 86.846 24.6829 86.846 23.3144ZM98.322 23.3391C98.322 22.3168 98.1159 21.4264 97.7037 20.668C97.2915 19.9095 96.7309 19.3324 96.0219 18.9367C95.3293 18.5244 94.5626 18.3183 93.7217 18.3183C92.8808 18.3183 92.1141 18.5162 91.4216 18.9119C90.729 19.3076 90.1767 19.8847 89.7645 20.6432C89.3522 21.4017 89.1461 22.2921 89.1461 23.3144C89.1461 24.3531 89.3522 25.26 89.7645 26.035C90.1767 26.7934 90.729 27.3788 91.4216 27.791C92.1141 28.1867 92.8808 28.3846 93.7217 28.3846C94.5626 28.3846 95.3293 28.1867 96.0219 27.791C96.7309 27.3788 97.2915 26.7934 97.7037 26.035C98.1159 25.26 98.322 24.3614 98.322 23.3391ZM103.56 23.3144C103.56 21.9293 103.84 20.7174 104.401 19.6786C104.961 18.6234 105.728 17.8072 106.701 17.2301C107.69 16.653 108.795 16.3644 110.015 16.3644C111.07 16.3644 112.052 16.6118 112.958 17.1064C113.865 17.5846 114.558 18.2194 115.036 19.0109V11.8383H117.311V30.1406H115.036V27.5931C114.591 28.4011 113.931 29.0689 113.057 29.5965C112.183 30.1076 111.161 30.3632 109.99 30.3632C108.787 30.3632 107.69 30.0664 106.701 29.4728C105.728 28.8793 104.961 28.0466 104.401 26.9748C103.84 25.9031 103.56 24.6829 103.56 23.3144ZM115.036 23.3391C115.036 22.3168 114.83 21.4264 114.418 20.668C114.005 19.9095 113.445 19.3324 112.736 18.9367C112.043 18.5244 111.277 18.3183 110.436 18.3183C109.595 18.3183 108.828 18.5162 108.136 18.9119C107.443 19.3076 106.891 19.8847 106.478 20.6432C106.066 21.4017 105.86 22.2921 105.86 23.3144C105.86 24.3531 106.066 25.26 106.478 26.035C106.891 26.7934 107.443 27.3788 108.136 27.791C108.828 28.1867 109.595 28.3846 110.436 28.3846C111.277 28.3846 112.043 28.1867 112.736 27.791C113.445 27.3788 114.005 26.7934 114.418 26.035C114.83 25.26 115.036 24.3614 115.036 23.3391ZM137.453 12.9018V14.7321H129.959V20.5443H136.044V22.3745H129.959V30.1406H127.709V12.9018H137.453ZM146.083 30.3632C144.813 30.3632 143.659 30.0747 142.62 29.4976C141.598 28.9205 140.79 28.1043 140.196 27.049C139.619 25.9773 139.331 24.7406 139.331 23.3391C139.331 21.9541 139.628 20.7339 140.221 19.6786C140.831 18.6069 141.656 17.7907 142.694 17.2301C143.733 16.653 144.896 16.3644 146.182 16.3644C147.468 16.3644 148.63 16.653 149.669 17.2301C150.708 17.7907 151.524 18.5986 152.118 19.6539C152.728 20.7092 153.033 21.9376 153.033 23.3391C153.033 24.7406 152.719 25.9773 152.093 27.049C151.483 28.1043 150.65 28.9205 149.595 29.4976C148.54 30.0747 147.369 30.3632 146.083 30.3632ZM146.083 28.3846C146.891 28.3846 147.649 28.195 148.358 27.8157C149.067 27.4365 149.636 26.8676 150.065 26.1092C150.51 25.3507 150.733 24.4273 150.733 23.3391C150.733 22.2509 150.518 21.3275 150.09 20.569C149.661 19.8105 149.1 19.2499 148.408 18.8872C147.715 18.508 146.965 18.3183 146.157 18.3183C145.333 18.3183 144.574 18.508 143.882 18.8872C143.206 19.2499 142.661 19.8105 142.249 20.569C141.837 21.3275 141.631 22.2509 141.631 23.3391C141.631 24.4438 141.829 25.3754 142.225 26.1339C142.637 26.8924 143.181 27.4612 143.857 27.8405C144.533 28.2032 145.275 28.3846 146.083 28.3846ZM158.243 18.7883C158.638 18.0133 159.199 17.4115 159.925 16.9828C160.667 16.5541 161.565 16.3397 162.62 16.3397V18.6646H162.027C159.504 18.6646 158.243 20.0331 158.243 22.7702V30.1406H155.992V16.587H158.243V18.7883ZM181.517 16.3397C182.573 16.3397 183.513 16.5623 184.337 17.0075C185.161 17.4362 185.813 18.0875 186.291 18.9614C186.769 19.8353 187.008 20.8988 187.008 22.1519V30.1406H184.782V22.4734C184.782 21.1214 184.444 20.0909 183.768 19.3818C183.109 18.6564 182.21 18.2936 181.072 18.2936C179.902 18.2936 178.97 18.6728 178.277 19.4313C177.585 20.1733 177.239 21.2533 177.239 22.6713V30.1406H175.013V22.4734C175.013 21.1214 174.675 20.0909 173.999 19.3818C173.339 18.6564 172.44 18.2936 171.303 18.2936C170.132 18.2936 169.2 18.6728 168.508 19.4313C167.815 20.1733 167.469 21.2533 167.469 22.6713V30.1406H165.218V16.587H167.469V18.5409C167.914 17.8319 168.508 17.2878 169.25 16.9086C170.008 16.5293 170.841 16.3397 171.748 16.3397C172.886 16.3397 173.891 16.5953 174.765 17.1064C175.639 17.6176 176.291 18.3678 176.719 19.3571C177.098 18.4008 177.725 17.6588 178.599 17.1312C179.473 16.6035 180.446 16.3397 181.517 16.3397ZM195.498 30.3632C194.459 30.3632 193.528 30.1901 192.703 29.8438C191.879 29.4811 191.228 28.9864 190.75 28.3599C190.271 27.7168 190.008 26.9831 189.958 26.1586H192.283C192.349 26.8347 192.662 27.387 193.223 27.8157C193.8 28.2444 194.55 28.4588 195.474 28.4588C196.331 28.4588 197.007 28.2692 197.502 27.8899C197.996 27.5107 198.244 27.0325 198.244 26.4554C198.244 25.8618 197.98 25.4249 197.452 25.1446C196.924 24.8478 196.108 24.5593 195.004 24.2789C193.998 24.0151 193.173 23.7513 192.53 23.4875C191.904 23.2072 191.36 22.8032 190.898 22.2756C190.453 21.7315 190.23 21.0225 190.23 20.1486C190.23 19.456 190.436 18.8212 190.848 18.2441C191.261 17.667 191.846 17.2136 192.604 16.8838C193.363 16.5376 194.229 16.3644 195.201 16.3644C196.702 16.3644 197.914 16.7437 198.837 17.5022C199.761 18.2606 200.255 19.2994 200.321 20.6185H198.07C198.021 19.9095 197.732 19.3406 197.205 18.9119C196.694 18.4832 196.001 18.2689 195.127 18.2689C194.319 18.2689 193.676 18.442 193.198 18.7883C192.72 19.1345 192.481 19.588 192.481 20.1486C192.481 20.5938 192.621 20.9647 192.901 21.2615C193.198 21.5418 193.561 21.7727 193.99 21.9541C194.435 22.1189 195.045 22.3086 195.82 22.5229C196.793 22.7867 197.584 23.0505 198.194 23.3144C198.804 23.5617 199.324 23.9409 199.752 24.4521C200.197 24.9632 200.428 25.631 200.445 26.4554C200.445 27.1974 200.239 27.8652 199.826 28.4588C199.414 29.0524 198.829 29.5223 198.07 29.8686C197.328 30.1983 196.471 30.3632 195.498 30.3632Z" fill="#5D5D5D"/>
<path d="M0 63.8936C0 61.617 1.84554 59.7715 4.12214 59.7715H39.1603C41.4369 59.7715 43.2824 61.617 43.2824 63.8936V98.9318C43.2824 101.208 41.4369 103.054 39.1603 103.054H4.12214C1.84554 103.054 0 101.208 0 98.9318V63.8936Z" fill="#3F3F3F"/>
<path d="M31.2621 91.0297H12.0254V71.793H31.2621M31.2621 69.0449H12.0254C11.2966 69.0449 10.5976 69.3345 10.0822 69.8498C9.56687 70.3652 9.27734 71.0642 9.27734 71.793V91.0297C9.27734 91.7585 9.56687 92.4575 10.0822 92.9728C10.5976 93.4882 11.2966 93.7777 12.0254 93.7777H31.2621C31.9909 93.7777 32.6899 93.4882 33.2053 92.9728C33.7206 92.4575 34.0102 91.7585 34.0102 91.0297V71.793C34.0102 71.0642 33.7206 70.3652 33.2053 69.8498C32.6899 69.3345 31.9909 69.0449 31.2621 69.0449ZM27.827 87.251C27.827 85.19 23.7048 84.1594 21.6438 84.1594C19.5827 84.1594 15.4605 85.19 15.4605 87.251V88.2816H27.827M21.6438 81.7548C22.4637 81.7548 23.2501 81.4291 23.8298 80.8493C24.4096 80.2695 24.7354 79.4832 24.7354 78.6632C24.7354 77.8433 24.4096 77.0569 23.8298 76.4771C23.2501 75.8974 22.4637 75.5716 21.6438 75.5716C20.8238 75.5716 20.0375 75.8974 19.4577 76.4771C18.8779 77.0569 18.5522 77.8433 18.5522 78.6632C18.5522 79.4832 18.8779 80.2695 19.4577 80.8493C20.0375 81.4291 20.8238 81.7548 21.6438 81.7548Z" fill="white"/>
<path d="M60.833 81.2804C60.833 79.5985 61.2123 78.0898 61.9708 76.7542C62.7292 75.4022 63.7598 74.3469 65.0624 73.5884C66.3814 72.83 67.8407 72.4507 69.4401 72.4507C71.3198 72.4507 72.9604 72.9042 74.3619 73.811C75.7634 74.7179 76.7857 76.004 77.4288 77.6694H74.7329C74.2547 76.6306 73.5622 75.8309 72.6553 75.2703C71.765 74.7097 70.6932 74.4294 69.4401 74.4294C68.2364 74.4294 67.1564 74.7097 66.2001 75.2703C65.2437 75.8309 64.4935 76.6306 63.9494 77.6694C63.4053 78.6917 63.1332 79.8953 63.1332 81.2804C63.1332 82.6489 63.4053 83.8526 63.9494 84.8913C64.4935 85.9136 65.2437 86.7051 66.2001 87.2657C67.1564 87.8263 68.2364 88.1066 69.4401 88.1066C70.6932 88.1066 71.765 87.8346 72.6553 87.2904C73.5622 86.7298 74.2547 85.9301 74.7329 84.8913H77.4288C76.7857 86.5402 75.7634 87.8181 74.3619 88.7249C72.9604 89.6153 71.3198 90.0605 69.4401 90.0605C67.8407 90.0605 66.3814 89.6895 65.0624 88.9475C63.7598 88.1891 62.7292 87.142 61.9708 85.8065C61.2123 84.4709 60.833 82.9622 60.833 81.2804ZM86.6902 90.1347C85.4206 90.1347 84.2664 89.8462 83.2276 89.2691C82.2054 88.692 81.3974 87.8758 80.8038 86.8205C80.2267 85.7488 79.9382 84.5121 79.9382 83.1106C79.9382 81.7255 80.235 80.5054 80.8286 79.4501C81.4386 78.3784 82.2631 77.5622 83.3018 77.0016C84.3406 76.4245 85.5031 76.1359 86.7892 76.1359C88.0753 76.1359 89.2377 76.4245 90.2765 77.0016C91.3153 77.5622 92.1315 78.3701 92.7251 79.4254C93.3351 80.4807 93.6402 81.7091 93.6402 83.1106C93.6402 84.5121 93.3269 85.7488 92.7003 86.8205C92.0902 87.8758 91.2576 88.692 90.2023 89.2691C89.147 89.8462 87.9763 90.1347 86.6902 90.1347ZM86.6902 88.1561C87.4982 88.1561 88.2567 87.9665 88.9657 87.5872C89.6747 87.208 90.2435 86.6391 90.6722 85.8807C91.1174 85.1222 91.34 84.1988 91.34 83.1106C91.34 82.0223 91.1257 81.099 90.697 80.3405C90.2683 79.582 89.7076 79.0214 89.0151 78.6587C88.3226 78.2794 87.5724 78.0898 86.7644 78.0898C85.94 78.0898 85.1815 78.2794 84.489 78.6587C83.813 79.0214 83.2689 79.582 82.8567 80.3405C82.4444 81.099 82.2383 82.0223 82.2383 83.1106C82.2383 84.2153 82.4362 85.1469 82.8319 85.9054C83.2441 86.6639 83.7883 87.2327 84.4643 87.612C85.1403 87.9747 85.8823 88.1561 86.6902 88.1561ZM103.203 76.1112C104.852 76.1112 106.187 76.6141 107.21 77.6199C108.232 78.6092 108.743 80.0437 108.743 81.9234V89.9121H106.517V82.2449C106.517 80.8929 106.179 79.8623 105.503 79.1533C104.827 78.4278 103.904 78.0651 102.733 78.0651C101.546 78.0651 100.598 78.4361 99.8889 79.1781C99.1964 79.92 98.8501 81 98.8501 82.4181V89.9121H96.5994V76.3585H98.8501V78.2877C99.2953 77.5952 99.8971 77.0593 100.656 76.68C101.431 76.3008 102.28 76.1112 103.203 76.1112ZM115.165 78.2135V86.2022C115.165 86.8617 115.305 87.3317 115.586 87.612C115.866 87.8758 116.352 88.0077 117.045 88.0077H118.702V89.9121H116.674C115.421 89.9121 114.481 89.6236 113.854 89.0465C113.228 88.4694 112.914 87.5213 112.914 86.2022V78.2135H111.158V76.3585H112.914V72.9454H115.165V76.3585H118.702V78.2135H115.165ZM120.588 83.0858C120.588 81.7008 120.868 80.4889 121.429 79.4501C121.989 78.3949 122.756 77.5787 123.729 77.0016C124.718 76.4245 125.815 76.1359 127.018 76.1359C128.206 76.1359 129.236 76.3915 130.11 76.9026C130.984 77.4138 131.635 78.0568 132.064 78.8318V76.3585H134.339V89.9121H132.064V87.3894C131.619 88.1808 130.951 88.8404 130.061 89.368C129.187 89.8791 128.164 90.1347 126.994 90.1347C125.79 90.1347 124.702 89.8379 123.729 89.2443C122.756 88.6507 121.989 87.8181 121.429 86.7463C120.868 85.6746 120.588 84.4544 120.588 83.0858ZM132.064 83.1106C132.064 82.0883 131.858 81.1979 131.446 80.4394C131.033 79.681 130.473 79.1039 129.764 78.7081C129.071 78.2959 128.305 78.0898 127.464 78.0898C126.623 78.0898 125.856 78.2877 125.164 78.6834C124.471 79.0791 123.919 79.6562 123.506 80.4147C123.094 81.1732 122.888 82.0636 122.888 83.0858C122.888 84.1246 123.094 85.0315 123.506 85.8065C123.919 86.5649 124.471 87.1503 125.164 87.5625C125.856 87.9582 126.623 88.1561 127.464 88.1561C128.305 88.1561 129.071 87.9582 129.764 87.5625C130.473 87.1503 131.033 86.5649 131.446 85.8065C131.858 85.0315 132.064 84.1329 132.064 83.1106ZM137.302 83.1106C137.302 81.7091 137.582 80.4889 138.143 79.4501C138.703 78.3949 139.478 77.5787 140.468 77.0016C141.474 76.4245 142.619 76.1359 143.906 76.1359C145.571 76.1359 146.939 76.5399 148.011 77.3478C149.099 78.1558 149.817 79.277 150.163 80.7115H147.739C147.508 79.8871 147.055 79.2358 146.379 78.7576C145.719 78.2794 144.895 78.0404 143.906 78.0404C142.619 78.0404 141.581 78.4855 140.789 79.3759C139.998 80.2498 139.602 81.4947 139.602 83.1106C139.602 84.7429 139.998 86.0043 140.789 86.8947C141.581 87.7851 142.619 88.2303 143.906 88.2303C144.895 88.2303 145.719 87.9994 146.379 87.5378C147.038 87.0761 147.492 86.4165 147.739 85.5591H150.163C149.8 86.9442 149.075 88.0571 147.986 88.8981C146.898 89.7225 145.538 90.1347 143.906 90.1347C142.619 90.1347 141.474 89.8462 140.468 89.2691C139.478 88.692 138.703 87.8758 138.143 86.8205C137.582 85.7652 137.302 84.5286 137.302 83.1106ZM155.911 78.2135V86.2022C155.911 86.8617 156.052 87.3317 156.332 87.612C156.612 87.8758 157.099 88.0077 157.791 88.0077H159.448V89.9121H157.42C156.167 89.9121 155.227 89.6236 154.601 89.0465C153.974 88.4694 153.661 87.5213 153.661 86.2022V78.2135H151.905V76.3585H153.661V72.9454H155.911V76.3585H159.448V78.2135H155.911ZM178.514 72.6733V74.5036H171.02V80.3158H177.104V82.146H171.02V89.9121H168.769V72.6733H178.514ZM187.143 90.1347C185.874 90.1347 184.719 89.8462 183.681 89.2691C182.658 88.692 181.85 87.8758 181.257 86.8205C180.68 85.7488 180.391 84.5121 180.391 83.1106C180.391 81.7255 180.688 80.5054 181.281 79.4501C181.892 78.3784 182.716 77.5622 183.755 77.0016C184.794 76.4245 185.956 76.1359 187.242 76.1359C188.528 76.1359 189.691 76.4245 190.729 77.0016C191.768 77.5622 192.584 78.3701 193.178 79.4254C193.788 80.4807 194.093 81.7091 194.093 83.1106C194.093 84.5121 193.78 85.7488 193.153 86.8205C192.543 87.8758 191.711 88.692 190.655 89.2691C189.6 89.8462 188.429 90.1347 187.143 90.1347ZM187.143 88.1561C187.951 88.1561 188.71 87.9665 189.419 87.5872C190.128 87.208 190.696 86.6391 191.125 85.8807C191.57 85.1222 191.793 84.1988 191.793 83.1106C191.793 82.0223 191.579 81.099 191.15 80.3405C190.721 79.582 190.161 79.0214 189.468 78.6587C188.776 78.2794 188.025 78.0898 187.217 78.0898C186.393 78.0898 185.634 78.2794 184.942 78.6587C184.266 79.0214 183.722 79.582 183.31 80.3405C182.897 81.099 182.691 82.0223 182.691 83.1106C182.691 84.2153 182.889 85.1469 183.285 85.9054C183.697 86.6639 184.241 87.2327 184.917 87.612C185.593 87.9747 186.335 88.1561 187.143 88.1561ZM199.303 78.5597C199.699 77.7848 200.259 77.1829 200.985 76.7542C201.727 76.3255 202.625 76.1112 203.681 76.1112V78.4361H203.087C200.564 78.4361 199.303 79.8046 199.303 82.5417V89.9121H197.052V76.3585H199.303V78.5597ZM222.578 76.1112C223.633 76.1112 224.573 76.3338 225.397 76.779C226.222 77.2077 226.873 77.859 227.351 78.7329C227.829 79.6068 228.068 80.6703 228.068 81.9234V89.9121H225.843V82.2449C225.843 80.8929 225.504 79.8623 224.828 79.1533C224.169 78.4278 223.27 78.0651 222.133 78.0651C220.962 78.0651 220.03 78.4443 219.338 79.2028C218.645 79.9448 218.299 81.0248 218.299 82.4428V89.9121H216.073V82.2449C216.073 80.8929 215.735 79.8623 215.059 79.1533C214.399 78.4278 213.501 78.0651 212.363 78.0651C211.192 78.0651 210.261 78.4443 209.568 79.2028C208.876 79.9448 208.53 81.0248 208.53 82.4428V89.9121H206.279V76.3585H208.53V78.3124C208.975 77.6034 209.568 77.0593 210.31 76.68C211.069 76.3008 211.901 76.1112 212.808 76.1112C213.946 76.1112 214.952 76.3668 215.826 76.8779C216.7 77.3891 217.351 78.1393 217.78 79.1286C218.159 78.1723 218.785 77.4303 219.659 76.9026C220.533 76.375 221.506 76.1112 222.578 76.1112ZM236.559 90.1347C235.52 90.1347 234.588 89.9616 233.764 89.6153C232.939 89.2526 232.288 88.7579 231.81 88.1313C231.332 87.4883 231.068 86.7546 231.018 85.9301H233.343C233.409 86.6062 233.723 87.1585 234.283 87.5872C234.86 88.0159 235.61 88.2303 236.534 88.2303C237.391 88.2303 238.067 88.0407 238.562 87.6614C239.057 87.2822 239.304 86.804 239.304 86.2269C239.304 85.6333 239.04 85.1964 238.512 84.9161C237.985 84.6193 237.169 84.3307 236.064 84.0504C235.058 83.7866 234.234 83.5228 233.591 83.259C232.964 82.9787 232.42 82.5747 231.958 82.0471C231.513 81.5029 231.29 80.7939 231.29 79.92C231.29 79.2275 231.497 78.5927 231.909 78.0156C232.321 77.4385 232.906 76.9851 233.665 76.6553C234.423 76.3091 235.289 76.1359 236.262 76.1359C237.762 76.1359 238.974 76.5152 239.898 77.2736C240.821 78.0321 241.316 79.0709 241.381 80.39H239.131C239.081 79.681 238.793 79.1121 238.265 78.6834C237.754 78.2547 237.061 78.0404 236.188 78.0404C235.38 78.0404 234.737 78.2135 234.258 78.5597C233.78 78.906 233.541 79.3594 233.541 79.92C233.541 80.3652 233.681 80.7362 233.962 81.033C234.258 81.3133 234.621 81.5442 235.05 81.7255C235.495 81.8904 236.105 82.08 236.88 82.2944C237.853 82.5582 238.644 82.822 239.254 83.0858C239.865 83.3332 240.384 83.7124 240.813 84.2236C241.258 84.7347 241.489 85.4025 241.505 86.2269C241.505 86.9689 241.299 87.6367 240.887 88.2303C240.475 88.8239 239.889 89.2938 239.131 89.64C238.389 89.9698 237.531 90.1347 236.559 90.1347Z" fill="#5D5D5D"/>
<defs>
<clipPath id="clip0_2662_151">
<rect width="32.9771" height="32.9771" fill="white" transform="translate(375.113 64.9238)"/>
</clipPath>
</defs>
</svg>
