<svg width="69" height="25" viewBox="0 0 69 25" fill="none" xmlns="http://www.w3.org/2000/svg">
<path d="M1.35537 23.3359C1.43795 23.899 1.9614 24.2885 2.52452 24.206L11.7012 22.8602C12.2643 22.7777 12.6539 22.2542 12.5713 21.6911C12.4887 21.128 11.9653 20.7384 11.4021 20.821L3.2451 22.0172L2.04891 13.8601C1.96633 13.297 1.44288 12.9075 0.879751 12.99C0.316626 13.0726 -0.072933 13.5961 0.00964713 14.1592L1.35537 23.3359ZM67.8139 2.0613L68.8445 2.06129L68.8445 0.000218749L67.8139 0.000227332L67.8139 1.03076L67.8139 2.0613ZM2.375 23.1863L3.20172 23.8016C19.3392 2.11768 41.9658 2.06151 67.8139 2.0613L67.8139 1.03076L67.8139 0.000227332C42.1354 0.000440836 18.3879 -0.0561547 1.54828 22.5711L2.375 23.1863Z" fill="black"/>
</svg>
