<svg width="38" height="361" viewBox="0 0 38 361" fill="none" xmlns="http://www.w3.org/2000/svg">
<path d="M1.13508 0.0528632L0.105913 -0.000186682L-0.000186682 2.05815L1.02898 2.1112L1.08203 1.08203L1.13508 0.0528632ZM22.3298 360.368C22.6944 360.805 23.3443 360.864 23.7813 360.499L30.9025 354.557C31.3395 354.192 31.3981 353.543 31.0335 353.106C30.6688 352.669 30.019 352.61 29.582 352.975L23.252 358.257L17.97 351.927C17.6053 351.49 16.9555 351.431 16.5185 351.796C16.0815 352.16 16.0229 352.81 16.3875 353.247L22.3298 360.368ZM1.08203 1.08203L1.02898 2.1112C6.87067 2.41232 11.8554 5.65129 16.0999 11.6169C20.3589 17.6029 23.8089 26.2561 26.5336 37.156C31.9806 58.9465 34.4543 89.3985 34.9393 124.58C35.9091 194.923 28.9288 283.886 22.0947 359.615L23.121 359.708L24.1474 359.801C30.981 284.077 37.9716 195.015 37.0002 124.552C36.5146 89.331 34.0397 58.685 28.5331 36.6562C25.781 25.6464 22.2529 16.7096 17.7793 10.422C13.2912 4.11407 7.78862 0.395829 1.13508 0.0528632L1.08203 1.08203Z" fill="white"/>
</svg>
