<svg width="643" height="50" viewBox="0 0 643 50" fill="none" xmlns="http://www.w3.org/2000/svg">
<path d="M0.205078 32.2383C0.0683594 31.8555 0.0273438 31.4727 0.0820312 31.0898C0.164062 30.6797 0.287109 30.2695 0.451172 29.8594C0.615234 29.4492 0.792969 29.0527 0.984375 28.6699C1.20312 28.2871 1.38086 27.918 1.51758 27.5625C1.6543 27.2891 1.87305 26.8105 2.17383 26.127C2.50195 25.416 2.83008 24.6777 3.1582 23.9121C3.51367 23.1191 3.8418 22.3672 4.14258 21.6562C4.44336 20.9453 4.66211 20.4531 4.79883 20.1797C4.96289 19.8516 4.93555 19.5645 4.7168 19.3184C4.52539 19.0449 4.30664 18.7852 4.06055 18.5391C3.8418 18.293 3.66406 18.0469 3.52734 17.8008C3.41797 17.5547 3.52734 17.2676 3.85547 16.9395C4.04688 16.748 4.29297 16.625 4.59375 16.5703C4.89453 16.5156 5.20898 16.4746 5.53711 16.4473C5.86523 16.3926 6.16602 16.3105 6.43945 16.2012C6.71289 16.0918 6.93164 15.873 7.0957 15.5449L11.7715 6.68555C11.5801 5.94727 11.5117 5.33203 11.5664 4.83984C11.6484 4.34766 11.8125 3.92383 12.0586 3.56836C12.332 3.21289 12.6738 2.88477 13.084 2.58398C13.5215 2.2832 14.0137 1.94141 14.5605 1.55859C17.377 1.12109 20.1387 0.751953 22.8457 0.451172C25.5801 0.150391 28.3828 0.0683594 31.2539 0.205078C31.418 0.232422 31.623 0.355469 31.8691 0.574219C32.1152 0.765625 32.3203 0.998047 32.4844 1.27148C32.6484 1.51758 32.7168 1.76367 32.6895 2.00977C32.6895 2.25586 32.5117 2.41992 32.1562 2.50195C32.1289 2.50195 32.0469 2.48828 31.9102 2.46094C31.7734 2.40625 31.623 2.35156 31.459 2.29688C31.2949 2.24219 31.1445 2.1875 31.0078 2.13281C30.8711 2.07812 30.7891 2.05078 30.7617 2.05078C28.5742 2.05078 26.6738 2.07812 25.0605 2.13281C23.4473 2.1875 22.0391 2.31055 20.8359 2.50195C19.6602 2.66602 18.6348 2.92578 17.7598 3.28125C16.9121 3.63672 16.1465 4.12891 15.4629 4.75781C14.8066 5.35938 14.1777 6.125 13.5762 7.05469C13.002 7.98438 12.4004 9.11914 11.7715 10.459C11.4707 11.0332 11.1973 11.5801 10.9512 12.0996C10.7324 12.5645 10.5547 13.0293 10.418 13.4941C10.2812 13.9316 10.2676 14.3008 10.377 14.6016C11.9082 14.875 13.4531 14.8477 15.0117 14.5195C16.5977 14.1914 18.1836 13.7949 19.7695 13.3301C21.3555 12.8652 22.9414 12.4551 24.5273 12.0996C26.1406 11.7168 27.7539 11.6211 29.3672 11.8125V12.7559C29.3672 12.8105 28.8613 12.9336 27.8496 13.125C26.8379 13.2891 25.5391 13.5352 23.9531 13.8633C22.3945 14.1641 20.6719 14.5469 18.7852 15.0117C16.9258 15.4492 15.1348 15.9688 13.4121 16.5703C11.6895 17.1719 10.1719 17.8555 8.85938 18.6211C7.54688 19.3867 6.6582 20.2207 6.19336 21.123C5.31836 22.9004 4.48438 24.7324 3.69141 26.6191C2.89844 28.4785 2.17383 30.3516 1.51758 32.2383C1.35352 32.4844 1.12109 32.6348 0.820312 32.6895C0.546875 32.7441 0.341797 32.5938 0.205078 32.2383ZM47.6191 32.2383C46.8809 31.9375 46.293 31.541 45.8555 31.0488C45.418 30.5566 45.0762 29.9961 44.8301 29.3672C44.584 28.7383 44.3926 28.082 44.2559 27.3984C44.1191 26.6875 43.9961 25.9766 43.8867 25.2656C43.6406 25.1016 43.2031 25.2656 42.5742 25.7578C41.9453 26.2227 41.2207 26.8105 40.4004 27.5215C39.5801 28.2324 38.6914 28.9707 37.7344 29.7363C36.8047 30.4746 35.9023 31.0215 35.0273 31.377C34.1523 31.7324 33.3457 31.8008 32.6074 31.582C31.8965 31.3633 31.3359 30.6523 30.9258 29.4492C30.7891 29.0391 30.8301 28.4512 31.0488 27.6855C31.2949 26.8926 31.6504 26.0312 32.1152 25.1016C32.5801 24.1719 33.1133 23.2148 33.7148 22.2305C34.3438 21.2188 34.9453 20.2891 35.5195 19.4414C36.1211 18.5664 36.668 17.8281 37.1602 17.2266C37.6797 16.5977 38.0762 16.1875 38.3496 15.9961C38.9785 16.2969 39.252 16.7617 39.1699 17.3906C39.1152 17.9922 38.8691 18.6895 38.4316 19.4824C38.0215 20.2754 37.4746 21.123 36.791 22.0254C36.1348 22.9277 35.5059 23.8301 34.9043 24.7324C34.3301 25.6074 33.8652 26.4551 33.5098 27.2754C33.1543 28.0957 33.0586 28.8203 33.2227 29.4492C33.8242 29.6953 34.5625 29.5723 35.4375 29.0801C36.3398 28.5605 37.2969 27.8496 38.3086 26.9473C39.3477 26.0449 40.4004 25.0195 41.4668 23.8711C42.5605 22.6953 43.5723 21.5742 44.502 20.5078C45.4316 19.4141 46.252 18.457 46.9629 17.6367C47.6738 16.8164 48.1934 16.2695 48.5215 15.9961C49.0957 16.2695 49.3828 16.7207 49.3828 17.3496C49.3828 17.9512 49.2188 18.6484 48.8906 19.4414C48.5898 20.2344 48.207 21.0957 47.7422 22.0254C47.3047 22.9277 46.9219 23.8301 46.5938 24.7324C46.2656 25.6348 46.0742 26.4961 46.0195 27.3164C45.9648 28.1367 46.1836 28.8477 46.6758 29.4492L48.0703 31.0898H52.2129C52.4043 31.0898 52.4453 31.1719 52.3359 31.3359C52.2266 31.5 52.0625 31.6777 51.8438 31.8691C51.6523 32.0605 51.4473 32.252 51.2285 32.4434C51.0098 32.6074 50.8867 32.6895 50.8594 32.6895C50.1484 32.8262 49.5742 32.8398 49.1367 32.7305C48.6992 32.6484 48.1934 32.4844 47.6191 32.2383ZM55.9453 32.2383C55.1523 31.6641 54.6328 30.9395 54.3867 30.0645C54.168 29.1895 54.1406 28.2461 54.3047 27.2344C54.4688 26.1953 54.7559 25.1289 55.166 24.0352C55.6035 22.9414 56.0684 21.8887 56.5605 20.877C57.0801 19.8652 57.5723 18.9355 58.0371 18.0879C58.5293 17.2402 58.9121 16.543 59.1855 15.9961C59.2676 15.832 59.459 15.4355 59.7598 14.8066C60.0879 14.1777 60.4297 13.4941 60.7852 12.7559C61.1406 12.0176 61.4688 11.334 61.7695 10.7051C62.0977 10.0488 62.3027 9.63867 62.3848 9.47461C62.4668 9.33789 62.5762 9.07812 62.7129 8.69531C62.877 8.28516 63.0547 7.84766 63.2461 7.38281C63.4375 6.91797 63.6426 6.48047 63.8613 6.07031C64.1074 5.63281 64.3535 5.31836 64.5996 5.12695C64.873 4.93555 65.1328 4.9082 65.3789 5.04492C65.6523 5.18164 65.9121 5.5918 66.1582 6.27539C66.0488 6.54883 65.7754 7.0957 65.3379 7.91602C64.9277 8.73633 64.4355 9.7207 63.8613 10.8691C63.2871 12.0176 62.6445 13.2891 61.9336 14.6836C61.25 16.0781 60.5801 17.4863 59.9238 18.9082C59.2676 20.3301 58.6523 21.7246 58.0781 23.0918C57.5039 24.4316 57.0254 25.6621 56.6426 26.7832C56.2871 27.877 56.0684 28.793 55.9863 29.5312C55.9316 30.2422 56.0684 30.6797 56.3965 30.8438C56.7793 31.0352 57.2715 31.1172 57.873 31.0898C58.502 31.0352 59.1445 30.9531 59.8008 30.8438C60.457 30.7344 61.0996 30.625 61.7285 30.5156C62.3574 30.3789 62.9043 30.3242 63.3691 30.3516C63.4785 30.5977 63.3965 30.8438 63.123 31.0898C62.8496 31.3086 62.4668 31.5137 61.9746 31.7051C61.4824 31.8691 60.9082 32.0195 60.252 32.1562C59.623 32.2656 59.0078 32.3477 58.4062 32.4023C57.832 32.457 57.3125 32.4707 56.8477 32.4434C56.4102 32.416 56.1094 32.3477 55.9453 32.2383ZM69.3984 32.2383C68.6055 31.6641 68.0859 30.9395 67.8398 30.0645C67.6211 29.1895 67.5938 28.2461 67.7578 27.2344C67.9219 26.1953 68.209 25.1289 68.6191 24.0352C69.0566 22.9414 69.5215 21.8887 70.0137 20.877C70.5332 19.8652 71.0254 18.9355 71.4902 18.0879C71.9824 17.2402 72.3652 16.543 72.6387 15.9961C72.7207 15.832 72.9121 15.4355 73.2129 14.8066C73.541 14.1777 73.8828 13.4941 74.2383 12.7559C74.5938 12.0176 74.9219 11.334 75.2227 10.7051C75.5508 10.0488 75.7559 9.63867 75.8379 9.47461C75.9199 9.33789 76.0293 9.07812 76.166 8.69531C76.3301 8.28516 76.5078 7.84766 76.6992 7.38281C76.8906 6.91797 77.0957 6.48047 77.3145 6.07031C77.5605 5.63281 77.8066 5.31836 78.0527 5.12695C78.3262 4.93555 78.5859 4.9082 78.832 5.04492C79.1055 5.18164 79.3652 5.5918 79.6113 6.27539C79.502 6.54883 79.2285 7.0957 78.791 7.91602C78.3809 8.73633 77.8887 9.7207 77.3145 10.8691C76.7402 12.0176 76.0977 13.2891 75.3867 14.6836C74.7031 16.0781 74.0332 17.4863 73.377 18.9082C72.7207 20.3301 72.1055 21.7246 71.5312 23.0918C70.957 24.4316 70.4785 25.6621 70.0957 26.7832C69.7402 27.877 69.5215 28.793 69.4395 29.5312C69.3848 30.2422 69.5215 30.6797 69.8496 30.8438C70.2324 31.0352 70.7246 31.1172 71.3262 31.0898C71.9551 31.0352 72.5977 30.9531 73.2539 30.8438C73.9102 30.7344 74.5527 30.625 75.1816 30.5156C75.8105 30.3789 76.3574 30.3242 76.8223 30.3516C76.9316 30.5977 76.8496 30.8438 76.5762 31.0898C76.3027 31.3086 75.9199 31.5137 75.4277 31.7051C74.9355 31.8691 74.3613 32.0195 73.7051 32.1562C73.0762 32.2656 72.4609 32.3477 71.8594 32.4023C71.2852 32.457 70.7656 32.4707 70.3008 32.4434C69.8633 32.416 69.5625 32.3477 69.3984 32.2383ZM73.541 48.4395C73.2949 48.0566 73.3086 47.4551 73.582 46.6348C73.8281 45.8418 74.1973 45.0078 74.6895 44.1328C75.1543 43.2852 75.6465 42.4785 76.166 41.7129C76.6582 40.9746 77.0273 40.4414 77.2734 40.1133C77.4922 39.8125 77.834 39.3613 78.2988 38.7598C78.7363 38.1582 79.2422 37.4746 79.8164 36.709C80.3906 35.9434 80.9922 35.1367 81.6211 34.2891C82.2773 33.4414 82.8926 32.6484 83.4668 31.9102C84.041 31.1445 84.5605 30.4609 85.0254 29.8594C85.4902 29.2578 85.832 28.8066 86.0508 28.5059C86.2695 28.2598 86.2695 27.877 86.0508 27.3574C85.832 26.8379 85.4902 26.2363 85.0254 25.5527C84.5879 24.8418 84.082 24.0762 83.5078 23.2559C82.9609 22.4082 82.4551 21.5605 81.9902 20.7129C81.5527 19.8379 81.2109 18.9766 80.9648 18.1289C80.7461 17.2812 80.7461 16.4883 80.9648 15.75C81.2656 15.5312 81.5938 15.668 81.9492 16.1602C82.3047 16.625 82.6738 17.2812 83.0566 18.1289C83.4668 18.9492 83.8906 19.8652 84.3281 20.877C84.7656 21.8613 85.1895 22.7637 85.5996 23.584C86.0098 24.377 86.4062 25.0059 86.7891 25.4707C87.1992 25.9355 87.582 26.0312 87.9375 25.7578C88.6484 25.2383 89.3457 24.582 90.0293 23.7891C90.7129 22.9688 91.3691 22.1211 91.998 21.2461C92.627 20.3711 93.2148 19.5234 93.7617 18.7031C94.3359 17.8555 94.8691 17.1172 95.3613 16.4883C95.5527 16.2422 95.7305 16.0781 95.8945 15.9961C96.0859 15.8867 96.373 15.9004 96.7559 16.0371C97.0566 16.1465 97.002 16.625 96.5918 17.4727C96.1816 18.3203 95.5391 19.4141 94.6641 20.7539C93.7891 22.0938 92.7363 23.625 91.5059 25.3477C90.3027 27.043 89.0176 28.8203 87.6504 30.6797C86.3105 32.5117 84.957 34.3438 83.5898 36.1758C82.25 38.0078 81.0195 39.7031 79.8984 41.2617C78.75 42.8477 77.7793 44.2285 76.9863 45.4043C76.166 46.6074 75.6328 47.4824 75.3867 48.0293C75.2773 48.2754 75.168 48.5215 75.0586 48.7676C74.9219 49.0137 74.7441 49.2188 74.5254 49.3828C74.4707 49.3555 74.4023 49.3008 74.3203 49.2188C74.2109 49.1367 74.1152 49.041 74.0332 48.9316C73.9238 48.8496 73.8281 48.7539 73.7461 48.6445C73.6367 48.5625 73.5684 48.4941 73.541 48.4395ZM125.057 32.2383C123.389 31.582 122.24 30.6934 121.611 29.5723C120.982 28.4512 120.723 27.207 120.832 25.8398C120.969 24.4453 121.406 22.9688 122.145 21.4102C122.91 19.8242 123.84 18.2383 124.934 16.6523C126.055 15.0664 127.285 13.5215 128.625 12.0176C129.965 10.5137 131.291 9.13281 132.604 7.875C133.916 6.61719 135.146 5.52344 136.295 4.59375C137.443 3.66406 138.373 2.98047 139.084 2.54297C140.068 1.94141 140.889 1.6543 141.545 1.68164C142.201 1.68164 142.721 1.88672 143.104 2.29688C143.514 2.67969 143.787 3.22656 143.924 3.9375C144.088 4.62109 144.156 5.35938 144.129 6.15234C144.129 6.91797 144.047 7.69727 143.883 8.49023C143.746 9.25586 143.555 9.92578 143.309 10.5C143.09 11.0742 142.844 11.498 142.57 11.7715C142.324 12.0449 142.078 12.0586 141.832 11.8125C141.805 11.5938 141.832 11.2656 141.914 10.8281C141.996 10.3633 142.092 9.84375 142.201 9.26953C142.338 8.69531 142.461 8.10742 142.57 7.50586C142.68 6.9043 142.748 6.35742 142.775 5.86523C142.83 5.3457 142.816 4.9082 142.734 4.55273C142.68 4.19727 142.529 3.99219 142.283 3.9375C141.326 3.69141 140.178 3.92383 138.838 4.63477C137.525 5.31836 136.145 6.31641 134.695 7.62891C133.273 8.91406 131.852 10.418 130.43 12.1406C129.035 13.8359 127.764 15.5859 126.615 17.3906C125.467 19.1953 124.523 20.959 123.785 22.6816C123.047 24.377 122.623 25.8809 122.514 27.1934C122.432 28.4785 122.719 29.4766 123.375 30.1875C124.059 30.8711 125.248 31.0898 126.943 30.8438C128.502 30.625 129.938 30.0781 131.25 29.2031C132.59 28.3008 133.875 27.3164 135.105 26.25C136.363 25.1562 137.607 24.0898 138.838 23.0508C140.068 21.9844 141.354 21.1777 142.693 20.6309C143.186 20.4395 143.568 20.5078 143.842 20.8359C144.143 21.1641 144.225 21.5605 144.088 22.0254C143.924 22.4902 143.432 23.1055 142.611 23.8711C141.818 24.6367 140.82 25.4434 139.617 26.291C138.441 27.1113 137.143 27.9453 135.721 28.793C134.299 29.6133 132.904 30.3242 131.537 30.9258C130.197 31.5273 128.939 31.9648 127.764 32.2383C126.615 32.5117 125.713 32.5117 125.057 32.2383ZM164.268 32.2383C163.529 31.9375 162.941 31.541 162.504 31.0488C162.066 30.5566 161.725 29.9961 161.479 29.3672C161.232 28.7383 161.041 28.082 160.904 27.3984C160.768 26.6875 160.645 25.9766 160.535 25.2656C160.289 25.1016 159.852 25.2656 159.223 25.7578C158.594 26.2227 157.869 26.8105 157.049 27.5215C156.229 28.2324 155.34 28.9707 154.383 29.7363C153.453 30.4746 152.551 31.0215 151.676 31.377C150.801 31.7324 149.994 31.8008 149.256 31.582C148.545 31.3633 147.984 30.6523 147.574 29.4492C147.438 29.0391 147.479 28.4512 147.697 27.6855C147.943 26.8926 148.299 26.0312 148.764 25.1016C149.229 24.1719 149.762 23.2148 150.363 22.2305C150.992 21.2188 151.594 20.2891 152.168 19.4414C152.77 18.5664 153.316 17.8281 153.809 17.2266C154.328 16.5977 154.725 16.1875 154.998 15.9961C155.627 16.2969 155.9 16.7617 155.818 17.3906C155.764 17.9922 155.518 18.6895 155.08 19.4824C154.67 20.2754 154.123 21.123 153.439 22.0254C152.783 22.9277 152.154 23.8301 151.553 24.7324C150.979 25.6074 150.514 26.4551 150.158 27.2754C149.803 28.0957 149.707 28.8203 149.871 29.4492C150.473 29.6953 151.211 29.5723 152.086 29.0801C152.988 28.5605 153.945 27.8496 154.957 26.9473C155.996 26.0449 157.049 25.0195 158.115 23.8711C159.209 22.6953 160.221 21.5742 161.15 20.5078C162.08 19.4141 162.9 18.457 163.611 17.6367C164.322 16.8164 164.842 16.2695 165.17 15.9961C165.744 16.2695 166.031 16.7207 166.031 17.3496C166.031 17.9512 165.867 18.6484 165.539 19.4414C165.238 20.2344 164.855 21.0957 164.391 22.0254C163.953 22.9277 163.57 23.8301 163.242 24.7324C162.914 25.6348 162.723 26.4961 162.668 27.3164C162.613 28.1367 162.832 28.8477 163.324 29.4492L164.719 31.0898H168.861C169.053 31.0898 169.094 31.1719 168.984 31.3359C168.875 31.5 168.711 31.6777 168.492 31.8691C168.301 32.0605 168.096 32.252 167.877 32.4434C167.658 32.6074 167.535 32.6895 167.508 32.6895C166.797 32.8262 166.223 32.8398 165.785 32.7305C165.348 32.6484 164.842 32.4844 164.268 32.2383ZM171.445 32.2383C171.117 32.0195 171.104 31.7324 171.404 31.377C171.732 30.9941 172.238 30.5977 172.922 30.1875C173.633 29.75 174.453 29.2988 175.383 28.834C176.312 28.3691 177.201 27.9316 178.049 27.5215C178.924 27.1113 179.689 26.7559 180.346 26.4551C181.002 26.127 181.426 25.8809 181.617 25.7168C182.52 24.9512 182.984 24.3223 183.012 23.8301C183.066 23.3105 182.848 22.9004 182.355 22.5996C181.863 22.2715 181.166 22.0254 180.264 21.8613C179.389 21.6699 178.473 21.5059 177.516 21.3691C176.586 21.2051 175.684 21.041 174.809 20.877C173.961 20.7129 173.318 20.4941 172.881 20.2207C172.443 19.9473 172.293 19.5918 172.43 19.1543C172.594 18.6895 173.195 18.1016 174.234 17.3906C174.617 17.1172 175.178 16.7207 175.916 16.2012C176.654 15.6816 177.447 15.1484 178.295 14.6016C179.17 14.0547 180.031 13.5625 180.879 13.125C181.727 12.6875 182.438 12.4004 183.012 12.2637C183.312 12.209 183.613 12.2363 183.914 12.3457C184.242 12.4551 184.502 12.6191 184.693 12.8379C184.885 13.0293 184.967 13.248 184.939 13.4941C184.939 13.7402 184.762 13.959 184.406 14.1504C182.848 15.0254 181.344 15.8457 179.895 16.6113C178.473 17.377 177.037 18.252 175.588 19.2363C175.506 19.4551 175.52 19.6465 175.629 19.8105C175.766 19.9746 175.916 20.0977 176.08 20.1797C178.979 20.4805 181.152 20.9043 182.602 21.4512C184.078 21.998 185.008 22.5996 185.391 23.2559C185.801 23.9121 185.76 24.6094 185.268 25.3477C184.775 26.0859 184.037 26.8105 183.053 27.5215C182.096 28.2324 180.988 28.9023 179.73 29.5312C178.473 30.1602 177.256 30.6934 176.08 31.1309C174.932 31.5684 173.92 31.8965 173.045 32.1152C172.17 32.334 171.637 32.375 171.445 32.2383ZM190.23 32.2383C190.203 32.1836 190.189 32.0332 190.189 31.7871C190.189 31.541 190.203 31.377 190.23 31.2949C190.312 30.9941 190.463 30.4746 190.682 29.7363C190.9 28.9707 191.133 28.1777 191.379 27.3574C191.625 26.5098 191.857 25.7168 192.076 24.9785C192.295 24.2402 192.445 23.7207 192.527 23.4199C192.637 23.0371 192.76 22.5996 192.896 22.1074C193.033 21.5879 193.061 21.0957 192.979 20.6309C192.568 20.5762 192.062 20.6309 191.461 20.7949C190.859 20.9316 190.258 21.0547 189.656 21.1641C189.082 21.2461 188.535 21.2461 188.016 21.1641C187.523 21.0547 187.168 20.7266 186.949 20.1797C187.277 19.4961 187.77 19.0586 188.426 18.8672C189.082 18.6484 189.793 18.498 190.559 18.416C191.324 18.334 192.049 18.2109 192.732 18.0469C193.443 17.8828 194.004 17.5137 194.414 16.9395C194.66 16.2285 194.947 15.3672 195.275 14.3555C195.631 13.3164 196 12.2363 196.383 11.1152C196.766 9.99414 197.176 8.88672 197.613 7.79297C198.078 6.69922 198.557 5.72852 199.049 4.88086C199.35 4.68945 199.596 4.67578 199.787 4.83984C199.979 5.00391 200.115 5.25 200.197 5.57812C200.307 5.87891 200.375 6.19336 200.402 6.52148C200.43 6.84961 200.43 7.06836 200.402 7.17773C200.238 7.88867 199.951 8.6543 199.541 9.47461C199.158 10.2676 198.789 11.0742 198.434 11.8945C198.105 12.7148 197.832 13.5352 197.613 14.3555C197.422 15.1758 197.422 15.9551 197.613 16.6934H206.432C206.459 16.6934 206.527 16.7891 206.637 16.9805C206.746 17.1445 206.842 17.2812 206.924 17.3906C207.061 17.7734 206.91 18.0332 206.473 18.1699C206.035 18.3066 205.447 18.4023 204.709 18.457C203.971 18.4844 203.123 18.5117 202.166 18.5391C201.236 18.5391 200.334 18.6074 199.459 18.7441C198.611 18.8535 197.846 19.0586 197.162 19.3594C196.479 19.6328 196.014 20.0566 195.768 20.6309C195.057 22.4629 194.4 24.3086 193.799 26.168C193.197 28 192.623 29.8594 192.076 31.7461C192.021 31.8281 191.912 31.9648 191.748 32.1562C191.584 32.3203 191.406 32.4707 191.215 32.6074C191.023 32.7168 190.832 32.7578 190.641 32.7305C190.477 32.7031 190.34 32.5391 190.23 32.2383ZM207.375 32.2383C206.227 31.7734 205.502 31.0762 205.201 30.1465C204.928 29.2168 204.941 28.1914 205.242 27.0703C205.543 25.9219 206.062 24.7461 206.801 23.543C207.539 22.3125 208.359 21.1914 209.262 20.1797C210.164 19.168 211.066 18.3203 211.969 17.6367C212.898 16.9258 213.691 16.5293 214.348 16.4473C216.043 16.2285 217.369 16.3516 218.326 16.8164C219.311 17.2539 219.98 17.8965 220.336 18.7441C220.691 19.5918 220.787 20.5898 220.623 21.7383C220.459 22.8594 220.09 23.9941 219.516 25.1426C218.969 26.291 218.244 27.3984 217.342 28.4648C216.467 29.5312 215.482 30.4336 214.389 31.1719C213.322 31.8828 212.188 32.3613 210.984 32.6074C209.781 32.8262 208.578 32.7031 207.375 32.2383ZM206.924 29.9004C207.143 30.7754 207.607 31.2676 208.318 31.377C209.029 31.459 209.85 31.2812 210.779 30.8438C211.736 30.3789 212.734 29.7227 213.773 28.875C214.812 28 215.756 27.0566 216.604 26.0449C217.479 25.0332 218.189 24.0215 218.736 23.0098C219.311 21.9707 219.584 21.0684 219.557 20.3027C219.557 19.5371 219.188 18.9629 218.449 18.5801C217.738 18.1699 216.535 18.0879 214.84 18.334C214.457 18.6895 213.965 19.127 213.363 19.6465C212.762 20.1387 212.133 20.6855 211.477 21.2871C210.848 21.8887 210.219 22.5449 209.59 23.2559C208.961 23.9395 208.414 24.6504 207.949 25.3887C207.484 26.127 207.143 26.8789 206.924 27.6445C206.732 28.4102 206.732 29.1621 206.924 29.9004ZM247.283 31.7461C246.982 31.3906 246.805 30.9941 246.75 30.5566C246.723 30.0918 246.75 29.6406 246.832 29.2031C246.941 28.7383 247.078 28.3008 247.242 27.8906C247.434 27.4531 247.611 27.0566 247.775 26.7012C247.885 26.4277 248.104 25.9355 248.432 25.2246C248.787 24.4863 249.156 23.7207 249.539 22.9277C249.949 22.1348 250.332 21.3965 250.688 20.7129C251.043 20.002 251.289 19.5098 251.426 19.2363V18.334C251.152 18.1973 250.592 18.3887 249.744 18.9082C248.896 19.4004 247.912 20.0977 246.791 21C245.67 21.875 244.48 22.8594 243.223 23.9531C241.965 25.0469 240.775 26.0996 239.654 27.1113C238.561 28.0957 237.604 28.9844 236.783 29.7773C235.963 30.543 235.443 31.0488 235.225 31.2949C234.623 31.4863 234.227 31.3633 234.035 30.9258C233.871 30.4609 233.83 29.832 233.912 29.0391C233.994 28.2188 234.158 27.3164 234.404 26.332C234.65 25.3203 234.896 24.377 235.143 23.502C235.416 22.5996 235.648 21.834 235.84 21.2051C236.059 20.5762 236.154 20.2344 236.127 20.1797C235.58 19.9883 235.006 20.0566 234.404 20.3848C233.803 20.7129 233.188 21.2051 232.559 21.8613C231.93 22.4902 231.301 23.2422 230.672 24.1172C230.043 24.9648 229.414 25.8262 228.785 26.7012C228.156 27.5488 227.555 28.3691 226.98 29.1621C226.406 29.9277 225.859 30.5566 225.34 31.0488C224.82 31.541 224.328 31.8281 223.863 31.9102C223.426 31.9922 223.043 31.7871 222.715 31.2949C222.688 31.2676 222.674 31.1992 222.674 31.0898C222.674 30.9805 222.688 30.8984 222.715 30.8438C222.852 30.5703 223.057 30.1465 223.33 29.5723C223.631 28.9707 223.959 28.3008 224.314 27.5625C224.67 26.8242 225.053 26.0586 225.463 25.2656C225.873 24.4453 226.256 23.6797 226.611 22.9688C226.994 22.2305 227.322 21.5742 227.596 21C227.896 20.4258 228.129 20.002 228.293 19.7285C228.43 19.4551 228.621 19.1133 228.867 18.7031C229.113 18.2656 229.359 17.8555 229.605 17.4727C229.852 17.0625 230.07 16.7207 230.262 16.4473C230.453 16.1465 230.549 15.9961 230.549 15.9961H231.533C231.725 16.625 231.697 17.2129 231.451 17.7598C231.205 18.3066 230.904 18.8398 230.549 19.3594C230.221 19.8789 229.934 20.3984 229.688 20.918C229.469 21.4102 229.469 21.9434 229.688 22.5176C232.039 20.4395 233.844 18.9082 235.102 17.9238C236.387 16.9395 237.289 16.3789 237.809 16.2422C238.328 16.1055 238.574 16.3105 238.547 16.8574C238.52 17.4043 238.396 18.1426 238.178 19.0723C237.986 20.002 237.781 21.0684 237.562 22.2715C237.371 23.4473 237.357 24.5957 237.521 25.7168H238.014C238.178 25.6074 238.451 25.4023 238.834 25.1016C239.217 24.8008 239.627 24.4727 240.064 24.1172C240.529 23.7617 240.953 23.4336 241.336 23.1328C241.746 22.832 242.033 22.627 242.197 22.5176C242.498 22.2715 242.936 21.9297 243.51 21.4922C244.084 21.0547 244.658 20.6172 245.232 20.1797C245.834 19.7148 246.367 19.3184 246.832 18.9902C247.324 18.6348 247.639 18.416 247.775 18.334C247.885 18.252 248.117 18.0879 248.473 17.8418C248.855 17.5684 249.266 17.2812 249.703 16.9805C250.168 16.6797 250.605 16.4062 251.016 16.1602C251.426 15.8867 251.727 15.6816 251.918 15.5449C252.328 15.2715 252.711 15.1484 253.066 15.1758C253.422 15.2031 253.709 15.3398 253.928 15.5859C254.174 15.8047 254.324 16.1191 254.379 16.5293C254.434 16.9121 254.379 17.3496 254.215 17.8418C253.559 19.0723 252.902 20.2754 252.246 21.4512C251.617 22.627 251.029 23.8164 250.482 25.0195C249.963 26.1953 249.525 27.4121 249.17 28.6699C248.842 29.9277 248.664 31.2676 248.637 32.6895C248.5 32.7715 248.35 32.7715 248.186 32.6895C248.049 32.6074 247.912 32.498 247.775 32.3613C247.639 32.2246 247.516 32.0879 247.406 31.9512C247.324 31.8145 247.283 31.7461 247.283 31.7461ZM256.061 32.2383C257.182 28.6289 258.193 25.7715 259.096 23.666C260.025 21.5332 260.791 20.043 261.393 19.1953C262.021 18.3477 262.445 18.0742 262.664 18.375C262.883 18.6758 262.855 19.4414 262.582 20.6719C262.336 21.9023 261.789 23.5566 260.941 25.6348C260.121 27.6855 258.959 30.0371 257.455 32.6895C257.236 32.7715 256.977 32.7852 256.676 32.7305C256.375 32.6758 256.17 32.5117 256.061 32.2383ZM263.238 12.5098C263.184 12.373 263.156 12.127 263.156 11.7715C263.156 11.416 263.184 11.1973 263.238 11.1152C263.867 10.8965 264.346 10.8691 264.674 11.0332C265.002 11.1973 265.207 11.4434 265.289 11.7715C265.371 12.0723 265.357 12.4004 265.248 12.7559C265.166 13.1113 265.016 13.3848 264.797 13.5762C264.578 13.7402 264.318 13.7676 264.018 13.6582C263.744 13.5215 263.484 13.1387 263.238 12.5098ZM267.668 32.2383C267.148 31.9375 266.957 31.5137 267.094 30.9668C267.258 30.4199 267.654 29.8047 268.283 29.1211C268.912 28.4102 269.705 27.6582 270.662 26.8652C271.646 26.0449 272.699 25.1973 273.82 24.3223C274.969 23.4473 276.131 22.5723 277.307 21.6973C278.482 20.7949 279.576 19.9199 280.588 19.0723C281.627 18.2246 282.516 17.418 283.254 16.6523C284.02 15.8867 284.539 15.2031 284.812 14.6016C284.758 14.2461 284.484 14.0547 283.992 14.0273C283.5 13.9727 282.912 14 282.229 14.1094C281.545 14.1914 280.82 14.3145 280.055 14.4785C279.289 14.6426 278.605 14.7383 278.004 14.7656C277.402 14.7656 276.938 14.6699 276.609 14.4785C276.309 14.2598 276.254 13.8496 276.445 13.248C276.473 13.1934 276.76 13.084 277.307 12.9199C277.881 12.7285 278.592 12.5371 279.439 12.3457C280.287 12.1543 281.203 11.9902 282.188 11.8535C283.172 11.7168 284.088 11.6621 284.936 11.6895C285.783 11.6895 286.494 11.8125 287.068 12.0586C287.67 12.3047 287.984 12.7148 288.012 13.2891C288.066 13.8633 287.779 14.6289 287.15 15.5859C286.521 16.543 285.428 17.7598 283.869 19.2363C283.787 19.3457 283.555 19.5645 283.172 19.8926C282.816 20.2207 282.406 20.5898 281.941 21C281.504 21.3828 281.066 21.7656 280.629 22.1484C280.219 22.5039 279.918 22.7637 279.727 22.9277C279.535 23.0918 279.193 23.3652 278.701 23.748C278.209 24.1035 277.648 24.5273 277.02 25.0195C276.418 25.4844 275.789 25.9766 275.133 26.4961C274.477 27.0156 273.889 27.5078 273.369 27.9727C272.85 28.4375 272.439 28.8477 272.139 29.2031C271.838 29.5312 271.742 29.7637 271.852 29.9004C273 30.0098 274.148 30.0098 275.297 29.9004C276.473 29.7637 277.635 29.6133 278.783 29.4492C279.932 29.2852 281.08 29.1484 282.229 29.0391C283.404 28.9023 284.58 28.8887 285.756 28.998C286.029 29.1621 286.289 29.4219 286.535 29.7773C286.809 30.1055 286.85 30.4609 286.658 30.8438C285.947 30.8984 285.059 31.0215 283.992 31.2129C282.953 31.377 281.818 31.5684 280.588 31.7871C279.385 32.0059 278.141 32.2246 276.855 32.4434C275.57 32.6348 274.34 32.7715 273.164 32.8535C272.016 32.9355 270.949 32.9355 269.965 32.8535C269.008 32.7988 268.242 32.5938 267.668 32.2383ZM291.58 31.7461C290.924 31.1992 290.555 30.3926 290.473 29.3262C290.418 28.2598 290.568 27.0566 290.924 25.7168C291.307 24.377 291.854 22.9824 292.564 21.5332C293.303 20.0566 294.15 18.6621 295.107 17.3496C296.064 16.0098 297.104 14.8203 298.225 13.7812C299.346 12.7148 300.467 11.9355 301.588 11.4434C302.709 10.9238 303.803 10.7461 304.869 10.9102C305.936 11.0469 306.906 11.6621 307.781 12.7559C308.328 13.4395 308.656 14.1367 308.766 14.8477C308.875 15.5312 308.861 16.2422 308.725 16.9805C308.588 17.6914 308.369 18.4297 308.068 19.1953C307.768 19.9336 307.467 20.6855 307.166 21.4512C306.893 22.2168 306.66 22.9961 306.469 23.7891C306.305 24.582 306.277 25.3887 306.387 26.209C306.523 27.248 306.988 27.8633 307.781 28.0547C308.574 28.2461 309.518 28.1914 310.611 27.8906C311.732 27.5898 312.908 27.1113 314.139 26.4551C315.369 25.7988 316.504 25.1426 317.543 24.4863C318.609 23.8301 319.484 23.2559 320.168 22.7637C320.879 22.2715 321.234 22.0254 321.234 22.0254C322 21.8613 322.424 21.916 322.506 22.1895C322.615 22.4355 322.465 22.8184 322.055 23.3379C321.672 23.8301 321.084 24.4043 320.291 25.0605C319.498 25.6895 318.596 26.3047 317.584 26.9062C316.572 27.5078 315.492 28.0547 314.344 28.5469C313.195 29.0391 312.074 29.3809 310.98 29.5723C309.887 29.7363 308.848 29.7227 307.863 29.5312C306.906 29.3125 306.113 28.8203 305.484 28.0547C305.184 27.7266 304.951 27.3984 304.787 27.0703C304.65 26.7422 304.418 26.4551 304.09 26.209C303.68 26.5918 303.188 27.0977 302.613 27.7266C302.039 28.3281 301.41 28.9434 300.727 29.5723C300.07 30.1738 299.359 30.748 298.594 31.2949C297.855 31.8418 297.09 32.252 296.297 32.5254C295.504 32.7988 294.697 32.8945 293.877 32.8125C293.084 32.7305 292.318 32.375 291.58 31.7461ZM292.031 30.3516C292.277 31.2266 292.824 31.6367 293.672 31.582C294.52 31.5 295.504 31.0762 296.625 30.3105C297.746 29.5449 298.908 28.5059 300.111 27.1934C301.314 25.8535 302.395 24.377 303.352 22.7637C304.309 21.123 305.033 19.4004 305.525 17.5957C306.045 15.791 306.182 14.0137 305.936 12.2637C305.279 11.7441 304.459 11.7305 303.475 12.2227C302.49 12.6875 301.438 13.4668 300.316 14.5605C299.223 15.627 298.129 16.9121 297.035 18.416C295.969 19.8926 295.025 21.3965 294.205 22.9277C293.385 24.4316 292.756 25.8535 292.318 27.1934C291.908 28.5332 291.812 29.5859 292.031 30.3516ZM318.773 31.2949C318.719 31.2676 318.691 31.1992 318.691 31.0898C318.691 30.9805 318.719 30.8984 318.773 30.8438C319.129 30.1328 319.525 29.2031 319.963 28.0547C320.4 26.8789 320.865 25.6074 321.357 24.2402C321.85 22.8457 322.342 21.4102 322.834 19.9336C323.354 18.4297 323.859 16.9941 324.352 15.627C324.871 14.2324 325.377 12.9609 325.869 11.8125C326.361 10.6641 326.826 9.74805 327.264 9.06445C327.701 8.35352 328.098 7.94336 328.453 7.83398C328.809 7.69727 329.123 7.95703 329.396 8.61328C329.643 9.24219 329.711 9.89844 329.602 10.582C329.492 11.2383 329.273 11.9219 328.945 12.6328C328.645 13.3164 328.275 14.0273 327.838 14.7656C327.428 15.4766 327.045 16.1875 326.689 16.8984C326.334 17.6094 326.047 18.3203 325.828 19.0312C325.609 19.7422 325.555 20.4395 325.664 21.123C326.43 20.9316 327.113 20.5625 327.715 20.0156C328.344 19.4688 328.945 18.8945 329.52 18.293C330.121 17.6641 330.736 17.0898 331.365 16.5703C331.994 16.0508 332.719 15.709 333.539 15.5449C334.824 15.2988 335.904 15.3672 336.779 15.75C337.654 16.1055 338.297 16.666 338.707 17.4316C339.145 18.1973 339.35 19.1133 339.322 20.1797C339.295 21.2461 339.021 22.3535 338.502 23.502C337.982 24.6504 337.203 25.7715 336.164 26.8652C335.125 27.959 333.812 28.9297 332.227 29.7773C330.641 30.625 328.768 31.2812 326.607 31.7461C324.447 32.2109 321.986 32.375 319.225 32.2383C319.17 32.1836 319.074 32.0332 318.938 31.7871C318.828 31.541 318.773 31.377 318.773 31.2949ZM322.424 28.998C322.396 29.1074 322.383 29.3398 322.383 29.6953C322.383 30.0234 322.396 30.2422 322.424 30.3516C324.256 30.5977 326.088 30.4609 327.92 29.9414C329.779 29.3945 331.434 28.5605 332.883 27.4395C334.332 26.291 335.48 24.8965 336.328 23.2559C337.176 21.6152 337.504 19.8105 337.312 17.8418C337.285 17.7871 337.203 17.7051 337.066 17.5957C336.957 17.4863 336.875 17.418 336.82 17.3906C335.918 17.2539 334.975 17.3359 333.99 17.6367C333.006 17.9375 332.021 18.3887 331.037 18.9902C330.053 19.5645 329.096 20.2617 328.166 21.082C327.264 21.9023 326.43 22.7637 325.664 23.666C324.898 24.5684 324.229 25.4844 323.654 26.4141C323.107 27.3438 322.697 28.2051 322.424 28.998ZM342.85 32.2383C342.057 31.6641 341.537 30.9395 341.291 30.0645C341.072 29.1895 341.045 28.2461 341.209 27.2344C341.373 26.1953 341.66 25.1289 342.07 24.0352C342.508 22.9414 342.973 21.8887 343.465 20.877C343.984 19.8652 344.477 18.9355 344.941 18.0879C345.434 17.2402 345.816 16.543 346.09 15.9961C346.172 15.832 346.363 15.4355 346.664 14.8066C346.992 14.1777 347.334 13.4941 347.689 12.7559C348.045 12.0176 348.373 11.334 348.674 10.7051C349.002 10.0488 349.207 9.63867 349.289 9.47461C349.371 9.33789 349.48 9.07812 349.617 8.69531C349.781 8.28516 349.959 7.84766 350.15 7.38281C350.342 6.91797 350.547 6.48047 350.766 6.07031C351.012 5.63281 351.258 5.31836 351.504 5.12695C351.777 4.93555 352.037 4.9082 352.283 5.04492C352.557 5.18164 352.816 5.5918 353.062 6.27539C352.953 6.54883 352.68 7.0957 352.242 7.91602C351.832 8.73633 351.34 9.7207 350.766 10.8691C350.191 12.0176 349.549 13.2891 348.838 14.6836C348.154 16.0781 347.484 17.4863 346.828 18.9082C346.172 20.3301 345.557 21.7246 344.982 23.0918C344.408 24.4316 343.93 25.6621 343.547 26.7832C343.191 27.877 342.973 28.793 342.891 29.5312C342.836 30.2422 342.973 30.6797 343.301 30.8438C343.684 31.0352 344.176 31.1172 344.777 31.0898C345.406 31.0352 346.049 30.9531 346.705 30.8438C347.361 30.7344 348.004 30.625 348.633 30.5156C349.262 30.3789 349.809 30.3242 350.273 30.3516C350.383 30.5977 350.301 30.8438 350.027 31.0898C349.754 31.3086 349.371 31.5137 348.879 31.7051C348.387 31.8691 347.812 32.0195 347.156 32.1562C346.527 32.2656 345.912 32.3477 345.311 32.4023C344.736 32.457 344.217 32.4707 343.752 32.4434C343.314 32.416 343.014 32.3477 342.85 32.2383ZM357.451 32.2383C356.631 31.9648 356.002 31.5547 355.564 31.0078C355.154 30.4336 354.881 29.8047 354.744 29.1211C354.607 28.4375 354.58 27.7266 354.662 26.9883C354.771 26.2227 354.936 25.498 355.154 24.8145C355.975 23.9395 356.891 22.9414 357.902 21.8203C358.941 20.6719 360.035 19.5508 361.184 18.457C362.332 17.3633 363.521 16.3516 364.752 15.4219C366.01 14.4648 367.281 13.7402 368.566 13.248C369.004 13.0566 369.346 13.0703 369.592 13.2891C369.865 13.4805 370.057 13.7949 370.166 14.2324C370.275 14.6699 370.316 15.1758 370.289 15.75C370.289 16.3242 370.248 16.8848 370.166 17.4316C370.084 17.9785 369.975 18.4707 369.838 18.9082C369.701 19.3457 369.564 19.6465 369.428 19.8105C369.1 20.1934 368.457 20.6445 367.5 21.1641C366.57 21.6836 365.531 22.2578 364.383 22.8867C363.234 23.4883 362.086 24.1172 360.938 24.7734C359.789 25.4297 358.846 26.0859 358.107 26.7422C357.369 27.3711 356.932 28 356.795 28.6289C356.658 29.2578 357.041 29.832 357.943 30.3516C358.873 30.4609 359.994 30.4199 361.307 30.2285C362.646 30.0098 364 29.7363 365.367 29.4082C366.762 29.0527 368.102 28.6973 369.387 28.3418C370.672 27.959 371.725 27.6582 372.545 27.4395L373.037 27.8906C372.436 28.6836 371.451 29.4082 370.084 30.0645C368.717 30.7207 367.24 31.2676 365.654 31.7051C364.068 32.1152 362.523 32.3887 361.02 32.5254C359.516 32.6348 358.326 32.5391 357.451 32.2383ZM367.254 16.5703C367.227 16.543 367.021 16.666 366.639 16.9395C366.256 17.1855 365.777 17.5273 365.203 17.9648C364.656 18.375 364.055 18.8398 363.398 19.3594C362.77 19.8516 362.182 20.3164 361.635 20.7539C361.115 21.1914 360.678 21.5742 360.322 21.9023C359.967 22.2031 359.816 22.3535 359.871 22.3535C360.309 22.4355 360.869 22.3809 361.553 22.1895C362.264 21.9707 362.988 21.6699 363.727 21.2871C364.492 20.9043 365.217 20.4805 365.9 20.0156C366.584 19.5234 367.117 19.0449 367.5 18.5801C367.91 18.1152 368.115 17.7051 368.115 17.3496C368.143 16.9941 367.855 16.7344 367.254 16.5703ZM396.908 32.5664C396.088 32.1016 395.514 31.6504 395.186 31.2129C394.857 30.7754 394.693 30.3105 394.693 29.8184C394.693 29.3262 394.816 28.7793 395.062 28.1777C395.309 27.5762 395.596 26.8789 395.924 26.0859C396.006 25.9219 396.17 25.5938 396.416 25.1016C396.662 24.582 396.936 23.9805 397.236 23.2969C397.564 22.6133 397.906 21.9023 398.262 21.1641C398.645 20.3984 398.986 19.6738 399.287 18.9902C399.615 18.3066 399.889 17.7188 400.107 17.2266C400.354 16.707 400.518 16.3652 400.6 16.2012C400.955 15.4355 401.105 14.7656 401.051 14.1914C401.023 13.5898 400.955 13.0293 400.846 12.5098C400.764 11.9902 400.723 11.4844 400.723 10.9922C400.75 10.5 401.01 9.93945 401.502 9.31055C401.584 9.22852 401.762 9.03711 402.035 8.73633C402.309 8.43555 402.596 8.12109 402.896 7.79297C403.225 7.4375 403.525 7.12305 403.799 6.84961C404.072 6.54883 404.236 6.35742 404.291 6.27539C404.428 6.11133 404.811 5.83789 405.439 5.45508C406.096 5.07227 406.889 4.66211 407.818 4.22461C408.748 3.75977 409.773 3.29492 410.895 2.83008C412.043 2.33789 413.178 1.91406 414.299 1.55859C415.42 1.17578 416.5 0.888672 417.539 0.697266C418.578 0.505859 419.467 0.451172 420.205 0.533203C420.943 0.615234 421.477 0.875 421.805 1.3125C422.16 1.75 422.215 2.41992 421.969 3.32227C421.559 4.79883 420.889 6.09766 419.959 7.21875C419.057 8.33984 418.1 9.33789 417.088 10.2129C416.076 11.0879 415.105 11.8672 414.176 12.5508C413.273 13.2344 412.604 13.877 412.166 14.4785C415.447 14.5879 417.84 14.9844 419.344 15.668C420.875 16.3516 421.736 17.2129 421.928 18.252C422.146 19.291 421.818 20.4531 420.943 21.7383C420.068 22.9961 418.865 24.2539 417.334 25.5117C415.803 26.7422 414.066 27.918 412.125 29.0391C410.184 30.1328 408.242 31.0352 406.301 31.7461C404.387 32.457 402.582 32.9082 400.887 33.0996C399.219 33.291 397.893 33.1133 396.908 32.5664ZM400.148 22.6406C399.629 23.2695 399.15 23.9668 398.713 24.7324C398.275 25.4707 397.934 26.209 397.688 26.9473C397.469 27.6582 397.373 28.3418 397.4 28.998C397.428 29.627 397.633 30.1465 398.016 30.5566C398.398 30.9395 398.973 31.1719 399.738 31.2539C400.531 31.3359 401.584 31.1855 402.896 30.8027C405.795 30.1465 408.311 29.3125 410.443 28.3008C412.604 27.2891 414.381 26.2363 415.775 25.1426C417.197 24.0215 418.236 22.9141 418.893 21.8203C419.576 20.7266 419.891 19.7695 419.836 18.9492C419.809 18.1016 419.412 17.459 418.646 17.0215C417.908 16.584 416.828 16.4609 415.406 16.6523C413.984 16.8164 412.221 17.377 410.115 18.334C408.037 19.2637 405.631 20.6992 402.896 22.6406C402.596 22.8867 402.322 23.0098 402.076 23.0098C401.83 22.9824 401.598 22.9277 401.379 22.8457C401.16 22.7363 400.955 22.6406 400.764 22.5586C400.572 22.4766 400.367 22.5039 400.148 22.6406ZM401.051 19.1953C401.051 19.2773 401.037 19.4004 401.01 19.5645C401.01 19.7285 401.01 19.9062 401.01 20.0977C401.01 20.2617 401.01 20.4258 401.01 20.5898C401.037 20.7539 401.051 20.877 401.051 20.959C401.27 20.9043 401.721 20.6445 402.404 20.1797C403.088 19.7148 403.908 19.1133 404.865 18.375C405.85 17.6367 406.916 16.8027 408.064 15.873C409.213 14.916 410.361 13.9316 411.51 12.9199C412.686 11.8809 413.793 10.8555 414.832 9.84375C415.898 8.80469 416.814 7.83398 417.58 6.93164C418.346 6.0293 418.92 5.23633 419.303 4.55273C419.713 3.8418 419.836 3.29492 419.672 2.91211C418.469 2.74805 417.197 2.83008 415.857 3.1582C414.545 3.45898 413.246 3.91016 411.961 4.51172C410.703 5.11328 409.527 5.81055 408.434 6.60352C407.34 7.36914 406.424 8.12109 405.686 8.85938C405.521 9.21484 405.248 9.84375 404.865 10.7461C404.482 11.6484 404.059 12.6055 403.594 13.6172C403.156 14.6289 402.732 15.5859 402.322 16.4883C401.939 17.3633 401.666 17.9785 401.502 18.334C401.502 18.3887 401.434 18.5391 401.297 18.7852C401.16 19.0039 401.078 19.1406 401.051 19.1953ZM425.66 31.7461C425.004 31.1992 424.635 30.3926 424.553 29.3262C424.498 28.2598 424.648 27.0566 425.004 25.7168C425.387 24.377 425.934 22.9824 426.645 21.5332C427.383 20.0566 428.23 18.6621 429.188 17.3496C430.145 16.0098 431.184 14.8203 432.305 13.7812C433.426 12.7148 434.547 11.9355 435.668 11.4434C436.789 10.9238 437.883 10.7461 438.949 10.9102C440.016 11.0469 440.986 11.6621 441.861 12.7559C442.408 13.4395 442.736 14.1367 442.846 14.8477C442.955 15.5312 442.941 16.2422 442.805 16.9805C442.668 17.6914 442.449 18.4297 442.148 19.1953C441.848 19.9336 441.547 20.6855 441.246 21.4512C440.973 22.2168 440.74 22.9961 440.549 23.7891C440.385 24.582 440.357 25.3887 440.467 26.209C440.604 27.248 441.068 27.8633 441.861 28.0547C442.654 28.2461 443.598 28.1914 444.691 27.8906C445.812 27.5898 446.988 27.1113 448.219 26.4551C449.449 25.7988 450.584 25.1426 451.623 24.4863C452.689 23.8301 453.564 23.2559 454.248 22.7637C454.959 22.2715 455.314 22.0254 455.314 22.0254C456.08 21.8613 456.504 21.916 456.586 22.1895C456.695 22.4355 456.545 22.8184 456.135 23.3379C455.752 23.8301 455.164 24.4043 454.371 25.0605C453.578 25.6895 452.676 26.3047 451.664 26.9062C450.652 27.5078 449.572 28.0547 448.424 28.5469C447.275 29.0391 446.154 29.3809 445.061 29.5723C443.967 29.7363 442.928 29.7227 441.943 29.5312C440.986 29.3125 440.193 28.8203 439.564 28.0547C439.264 27.7266 439.031 27.3984 438.867 27.0703C438.73 26.7422 438.498 26.4551 438.17 26.209C437.76 26.5918 437.268 27.0977 436.693 27.7266C436.119 28.3281 435.49 28.9434 434.807 29.5723C434.15 30.1738 433.439 30.748 432.674 31.2949C431.936 31.8418 431.17 32.252 430.377 32.5254C429.584 32.7988 428.777 32.8945 427.957 32.8125C427.164 32.7305 426.398 32.375 425.66 31.7461ZM426.111 30.3516C426.357 31.2266 426.904 31.6367 427.752 31.582C428.6 31.5 429.584 31.0762 430.705 30.3105C431.826 29.5449 432.988 28.5059 434.191 27.1934C435.395 25.8535 436.475 24.377 437.432 22.7637C438.389 21.123 439.113 19.4004 439.605 17.5957C440.125 15.791 440.262 14.0137 440.016 12.2637C439.359 11.7441 438.539 11.7305 437.555 12.2227C436.57 12.6875 435.518 13.4668 434.396 14.5605C433.303 15.627 432.209 16.9121 431.115 18.416C430.049 19.8926 429.105 21.3965 428.285 22.9277C427.465 24.4316 426.836 25.8535 426.398 27.1934C425.988 28.5332 425.893 29.5859 426.111 30.3516ZM456.299 32.2383C454.904 31.7734 453.975 31.0488 453.51 30.0645C453.072 29.0801 452.949 27.9727 453.141 26.7422C453.359 25.4844 453.838 24.1719 454.576 22.8047C455.314 21.4102 456.189 20.084 457.201 18.8262C458.213 17.5684 459.279 16.4336 460.4 15.4219C461.521 14.4102 462.574 13.6445 463.559 13.125C464.57 12.6055 465.432 12.4004 466.143 12.5098C466.854 12.6191 467.291 13.166 467.455 14.1504C467.537 14.5879 467.482 15.0664 467.291 15.5859C467.127 16.1055 466.881 16.6113 466.553 17.1035C466.252 17.5684 465.896 18.0059 465.486 18.416C465.104 18.7988 464.721 19.0859 464.338 19.2773C463.982 19.4688 463.654 19.5371 463.354 19.4824C463.08 19.4277 462.902 19.1953 462.82 18.7852C463.148 18.2383 463.518 17.6914 463.928 17.1445C464.338 16.5703 464.734 16.0371 465.117 15.5449C464.953 15.2441 464.639 15.1758 464.174 15.3398C463.709 15.5039 463.148 15.832 462.492 16.3242C461.836 16.8164 461.139 17.4453 460.4 18.2109C459.689 18.9492 458.992 19.7559 458.309 20.6309C457.625 21.5059 457.01 22.4219 456.463 23.3789C455.943 24.3086 455.561 25.2109 455.314 26.0859C455.068 26.9609 455 27.7812 455.109 28.5469C455.246 29.2852 455.643 29.8867 456.299 30.3516C457.201 30.4336 458.24 30.3516 459.416 30.1055C460.592 29.832 461.795 29.4902 463.025 29.0801C464.256 28.6699 465.473 28.2324 466.676 27.7676C467.906 27.2754 469.014 26.8242 469.998 26.4141C471.01 26.0039 471.857 25.6895 472.541 25.4707C473.252 25.2246 473.717 25.1562 473.936 25.2656C474.455 25.5391 474.482 25.9355 474.018 26.4551C473.58 26.9746 472.828 27.5352 471.762 28.1367C470.695 28.7383 469.424 29.3398 467.947 29.9414C466.498 30.5156 465.035 31.0215 463.559 31.459C462.082 31.8691 460.688 32.1699 459.375 32.3613C458.062 32.5254 457.037 32.4844 456.299 32.2383ZM492.434 31.2949C490.684 28.8887 489.275 26.9062 488.209 25.3477C487.143 23.7617 486.268 22.5859 485.584 21.8203C484.9 21.0547 484.34 20.6855 483.902 20.7129C483.465 20.7402 482.986 21.1641 482.467 21.9844C481.975 22.7773 481.359 23.9531 480.621 25.5117C479.883 27.0703 478.871 28.998 477.586 31.2949C477.422 31.5957 477.244 31.7871 477.053 31.8691C476.889 31.9238 476.725 31.9238 476.561 31.8691C476.396 31.7871 476.246 31.6504 476.109 31.459C475.973 31.2676 475.863 31.0625 475.781 30.8438C475.699 30.5703 475.795 30.0508 476.068 29.2852C476.342 28.4922 476.738 27.5488 477.258 26.4551C477.805 25.334 478.434 24.1035 479.145 22.7637C479.883 21.3965 480.648 20.002 481.441 18.5801C482.262 17.1582 483.068 15.75 483.861 14.3555C484.682 12.9609 485.434 11.6758 486.117 10.5C486.828 9.29688 487.457 8.24414 488.004 7.3418C488.551 6.43945 488.947 5.76953 489.193 5.33203C489.385 5.19531 489.576 5.18164 489.768 5.29102C489.986 5.40039 490.164 5.57812 490.301 5.82422C490.465 6.04297 490.574 6.28906 490.629 6.5625C490.684 6.80859 490.656 7.01367 490.547 7.17773L486.855 13.6582V14.6016C487.43 14.7383 488.141 14.6973 488.988 14.4785C489.863 14.2324 490.793 13.8906 491.777 13.4531C492.789 13.0156 493.814 12.5098 494.854 11.9355C495.893 11.334 496.877 10.7461 497.807 10.1719C498.764 9.57031 499.611 9.00977 500.35 8.49023C501.115 7.94336 501.717 7.50586 502.154 7.17773C502.51 6.98633 502.824 6.93164 503.098 7.01367C503.398 7.0957 503.617 7.24609 503.754 7.46484C503.918 7.68359 503.986 7.94336 503.959 8.24414C503.932 8.54492 503.795 8.81836 503.549 9.06445C502.783 9.85742 501.867 10.541 500.801 11.1152C499.762 11.6621 498.654 12.168 497.479 12.6328C496.303 13.0703 495.1 13.4941 493.869 13.9043C492.666 14.2871 491.504 14.7109 490.383 15.1758C489.262 15.6406 488.236 16.1602 487.307 16.7344C486.377 17.3086 485.611 17.9922 485.01 18.7852C485.365 19.0859 485.83 19.5645 486.404 20.2207C487.006 20.8496 487.648 21.5605 488.332 22.3535C489.043 23.1465 489.754 23.9941 490.465 24.8965C491.176 25.7715 491.805 26.6328 492.352 27.4805C492.926 28.3008 493.391 29.0527 493.746 29.7363C494.129 30.3926 494.32 30.9121 494.32 31.2949V32.2383C494.102 32.3477 493.896 32.3887 493.705 32.3613C493.541 32.3066 493.377 32.2246 493.213 32.1152C493.049 32.0059 492.898 31.8828 492.762 31.7461C492.652 31.582 492.543 31.4316 492.434 31.2949ZM499.406 44.2559C498.559 43.9551 497.875 43.5039 497.355 42.9023C496.809 42.3008 496.398 41.6445 496.125 40.9336C495.824 40.25 495.646 39.5527 495.592 38.8418C495.51 38.1309 495.523 37.502 495.633 36.9551C495.715 36.4082 495.879 35.9844 496.125 35.6836C496.344 35.4102 496.604 35.3418 496.904 35.4785C496.877 37.8574 497.164 39.6484 497.766 40.8516C498.34 42.082 499.105 42.8477 500.062 43.1484C500.992 43.4766 502.059 43.4082 503.262 42.9434C504.438 42.4785 505.627 41.7539 506.83 40.7695C508.061 39.8125 509.223 38.6504 510.316 37.2832C511.438 35.9434 512.381 34.5352 513.146 33.0586C513.912 31.6094 514.459 30.1738 514.787 28.752C515.115 27.3027 515.102 25.9902 514.746 24.8145C512.285 26.5918 510.371 27.7129 509.004 28.1777C507.637 28.6426 506.68 28.6699 506.133 28.2598C505.613 27.8223 505.449 27.0566 505.641 25.9629C505.832 24.8691 506.242 23.666 506.871 22.3535C507.5 21.041 508.293 19.7285 509.25 18.416C510.207 17.0762 511.191 15.9551 512.203 15.0527C513.215 14.1504 514.186 13.5762 515.115 13.3301C516.072 13.084 516.865 13.3711 517.494 14.1914C518.123 15.0391 518.52 16.1875 518.684 17.6367C518.848 19.0586 518.807 20.6445 518.561 22.3945C518.314 24.1445 517.877 25.9766 517.248 27.8906C516.646 29.8047 515.895 31.6641 514.992 33.4688C514.09 35.3008 513.051 36.9961 511.875 38.5547C510.727 40.1133 509.482 41.4121 508.143 42.4512C506.803 43.4902 505.395 44.1875 503.918 44.543C502.441 44.9258 500.938 44.8301 499.406 44.2559ZM507.773 23.9121C507.746 23.9941 507.719 24.1445 507.691 24.3633C507.691 24.582 507.691 24.8145 507.691 25.0605C507.691 25.3066 507.691 25.5391 507.691 25.7578C507.719 25.9766 507.746 26.127 507.773 26.209C508.648 26.4277 509.551 26.2227 510.48 25.5938C511.41 24.9648 512.258 24.1582 513.023 23.1738C513.816 22.1895 514.473 21.1504 514.992 20.0566C515.539 18.9629 515.867 18.0469 515.977 17.3086C516.113 16.5703 515.977 16.1602 515.566 16.0781C515.156 15.9688 514.404 16.4062 513.311 17.3906C512.982 17.6914 512.545 18.1016 511.998 18.6211C511.451 19.1406 510.891 19.7012 510.316 20.3027C509.77 20.9043 509.25 21.5332 508.758 22.1895C508.293 22.8184 507.965 23.3926 507.773 23.9121ZM520.98 32.2383C520.926 32.2109 520.926 31.8965 520.98 31.2949C521.062 30.666 521.172 29.8867 521.309 28.957C521.445 28.0273 521.623 27.002 521.842 25.8809C522.061 24.7598 522.293 23.6934 522.539 22.6816C522.785 21.6426 523.045 20.7402 523.318 19.9746C523.619 19.1816 523.906 18.6348 524.18 18.334C524.371 18.1426 524.562 18.1426 524.754 18.334C524.945 18.498 525.137 18.7168 525.328 18.9902C525.52 19.2363 525.711 19.4688 525.902 19.6875C526.094 19.8789 526.299 19.8926 526.518 19.7285C527.283 18.6621 528.117 17.6504 529.02 16.6934C529.949 15.709 530.975 14.8613 532.096 14.1504C532.205 14.0684 532.506 13.9453 532.998 13.7812C533.49 13.5898 534.051 13.4121 534.68 13.248C535.309 13.0566 535.951 12.9062 536.607 12.7969C537.291 12.6602 537.865 12.6055 538.33 12.6328C538.822 12.6328 539.15 12.7559 539.314 13.002C539.506 13.2207 539.424 13.6035 539.068 14.1504C537.428 14.1777 535.896 14.6562 534.475 15.5859C533.053 16.5156 531.74 17.6641 530.537 19.0312C529.334 20.3984 528.24 21.8887 527.256 23.502C526.271 25.0879 525.41 26.5645 524.672 27.9316C523.961 29.2988 523.359 30.4336 522.867 31.3359C522.402 32.2383 522.061 32.6895 521.842 32.6895C521.814 32.6895 521.691 32.6348 521.473 32.5254C521.254 32.3887 521.09 32.293 520.98 32.2383ZM542.965 32.2383C541.816 31.7734 541.092 31.0762 540.791 30.1465C540.518 29.2168 540.531 28.1914 540.832 27.0703C541.133 25.9219 541.652 24.7461 542.391 23.543C543.129 22.3125 543.949 21.1914 544.852 20.1797C545.754 19.168 546.656 18.3203 547.559 17.6367C548.488 16.9258 549.281 16.5293 549.938 16.4473C551.633 16.2285 552.959 16.3516 553.916 16.8164C554.9 17.2539 555.57 17.8965 555.926 18.7441C556.281 19.5918 556.377 20.5898 556.213 21.7383C556.049 22.8594 555.68 23.9941 555.105 25.1426C554.559 26.291 553.834 27.3984 552.932 28.4648C552.057 29.5312 551.072 30.4336 549.979 31.1719C548.912 31.8828 547.777 32.3613 546.574 32.6074C545.371 32.8262 544.168 32.7031 542.965 32.2383ZM542.514 29.9004C542.732 30.7754 543.197 31.2676 543.908 31.377C544.619 31.459 545.439 31.2812 546.369 30.8438C547.326 30.3789 548.324 29.7227 549.363 28.875C550.402 28 551.346 27.0566 552.193 26.0449C553.068 25.0332 553.779 24.0215 554.326 23.0098C554.9 21.9707 555.174 21.0684 555.146 20.3027C555.146 19.5371 554.777 18.9629 554.039 18.5801C553.328 18.1699 552.125 18.0879 550.43 18.334C550.047 18.6895 549.555 19.127 548.953 19.6465C548.352 20.1387 547.723 20.6855 547.066 21.2871C546.438 21.8887 545.809 22.5449 545.18 23.2559C544.551 23.9395 544.004 24.6504 543.539 25.3887C543.074 26.127 542.732 26.8789 542.514 27.6445C542.322 28.4102 542.322 29.1621 542.514 29.9004ZM574.998 32.2383C574.26 31.9375 573.672 31.541 573.234 31.0488C572.797 30.5566 572.455 29.9961 572.209 29.3672C571.963 28.7383 571.771 28.082 571.635 27.3984C571.498 26.6875 571.375 25.9766 571.266 25.2656C571.02 25.1016 570.582 25.2656 569.953 25.7578C569.324 26.2227 568.6 26.8105 567.779 27.5215C566.959 28.2324 566.07 28.9707 565.113 29.7363C564.184 30.4746 563.281 31.0215 562.406 31.377C561.531 31.7324 560.725 31.8008 559.986 31.582C559.275 31.3633 558.715 30.6523 558.305 29.4492C558.168 29.0391 558.209 28.4512 558.428 27.6855C558.674 26.8926 559.029 26.0312 559.494 25.1016C559.959 24.1719 560.492 23.2148 561.094 22.2305C561.723 21.2188 562.324 20.2891 562.898 19.4414C563.5 18.5664 564.047 17.8281 564.539 17.2266C565.059 16.5977 565.455 16.1875 565.729 15.9961C566.357 16.2969 566.631 16.7617 566.549 17.3906C566.494 17.9922 566.248 18.6895 565.811 19.4824C565.4 20.2754 564.854 21.123 564.17 22.0254C563.514 22.9277 562.885 23.8301 562.283 24.7324C561.709 25.6074 561.244 26.4551 560.889 27.2754C560.533 28.0957 560.438 28.8203 560.602 29.4492C561.203 29.6953 561.941 29.5723 562.816 29.0801C563.719 28.5605 564.676 27.8496 565.688 26.9473C566.727 26.0449 567.779 25.0195 568.846 23.8711C569.939 22.6953 570.951 21.5742 571.881 20.5078C572.811 19.4141 573.631 18.457 574.342 17.6367C575.053 16.8164 575.572 16.2695 575.9 15.9961C576.475 16.2695 576.762 16.7207 576.762 17.3496C576.762 17.9512 576.598 18.6484 576.27 19.4414C575.969 20.2344 575.586 21.0957 575.121 22.0254C574.684 22.9277 574.301 23.8301 573.973 24.7324C573.645 25.6348 573.453 26.4961 573.398 27.3164C573.344 28.1367 573.562 28.8477 574.055 29.4492L575.449 31.0898H579.592C579.783 31.0898 579.824 31.1719 579.715 31.3359C579.605 31.5 579.441 31.6777 579.223 31.8691C579.031 32.0605 578.826 32.252 578.607 32.4434C578.389 32.6074 578.266 32.6895 578.238 32.6895C577.527 32.8262 576.953 32.8398 576.516 32.7305C576.078 32.6484 575.572 32.4844 574.998 32.2383ZM596.982 32.2383C596.9 31.3359 596.969 30.4473 597.188 29.5723C597.434 28.6699 597.748 27.7949 598.131 26.9473C598.541 26.0723 598.965 25.2109 599.402 24.3633C599.867 23.4883 600.264 22.6406 600.592 21.8203C600.92 20.9727 601.152 20.1523 601.289 19.3594C601.426 18.5391 601.371 17.7324 601.125 16.9395C600.441 16.6934 599.648 16.748 598.746 17.1035C597.871 17.459 596.941 18.0059 595.957 18.7441C594.973 19.4551 593.947 20.3027 592.881 21.2871C591.842 22.2441 590.816 23.2285 589.805 24.2402C588.82 25.2246 587.877 26.168 586.975 27.0703C586.072 27.9727 585.252 28.7246 584.514 29.3262C583.803 29.9004 583.201 30.2695 582.709 30.4336C582.217 30.5703 581.889 30.3926 581.725 29.9004C581.697 29.873 581.848 29.5312 582.176 28.875C582.531 28.1914 582.955 27.3438 583.447 26.332C583.967 25.3203 584.527 24.2266 585.129 23.0508C585.758 21.875 586.346 20.7812 586.893 19.7695C587.439 18.7305 587.918 17.8555 588.328 17.1445C588.738 16.4336 588.998 16.0508 589.107 15.9961C589.682 16.3789 589.969 16.8027 589.969 17.2676C589.996 17.7051 589.928 18.1699 589.764 18.6621C589.6 19.127 589.408 19.6055 589.189 20.0977C588.998 20.5898 588.971 21.082 589.107 21.5742C589.545 21.2734 590.146 20.8633 590.912 20.3438C591.705 19.7969 592.553 19.2363 593.455 18.6621C594.385 18.0879 595.342 17.5273 596.326 16.9805C597.338 16.4336 598.281 16.0098 599.156 15.709C600.031 15.3809 600.811 15.2031 601.494 15.1758C602.205 15.1484 602.725 15.3535 603.053 15.791C603.381 16.2285 603.477 16.9531 603.34 17.9648C603.23 18.9492 602.807 20.3027 602.068 22.0254C601.986 22.2168 601.781 22.6816 601.453 23.4199C601.152 24.1309 600.811 24.9102 600.428 25.7578C600.072 26.5781 599.73 27.3574 599.402 28.0957C599.102 28.8066 598.91 29.2578 598.828 29.4492C598.801 29.5586 598.76 29.7637 598.705 30.0645C598.678 30.3379 598.637 30.6523 598.582 31.0078C598.527 31.3359 598.445 31.6641 598.336 31.9922C598.227 32.293 598.09 32.5254 597.926 32.6895C597.762 32.8535 597.57 32.8398 597.352 32.6484C597.133 32.4297 597.01 32.293 596.982 32.2383ZM622.248 31.7461C621.209 31.0352 620.457 30.1602 619.992 29.1211C619.527 28.0547 619.186 26.9199 618.967 25.7168H618.516C616.301 27.5215 614.373 28.875 612.732 29.7773C611.119 30.6797 609.752 31.2402 608.631 31.459C607.51 31.6504 606.635 31.5547 606.006 31.1719C605.377 30.7891 604.967 30.2422 604.775 29.5312C604.611 28.793 604.652 27.9316 604.898 26.9473C605.145 25.9629 605.568 24.9785 606.17 23.9941C606.771 22.9824 607.551 22.0254 608.508 21.123C609.465 20.2207 610.559 19.4824 611.789 18.9082C613.047 18.334 614.428 17.9785 615.932 17.8418C617.463 17.6777 619.104 17.8418 620.854 18.334L621.305 17.8418L626.842 6.72656C627.58 6.83594 628.018 7.16406 628.154 7.71094C628.291 8.25781 628.277 8.85938 628.113 9.51562C627.977 10.1719 627.758 10.8145 627.457 11.4434C627.184 12.0449 626.979 12.4824 626.842 12.7559C626.76 12.9199 626.596 13.2344 626.35 13.6992C626.131 14.1641 625.857 14.7246 625.529 15.3809C625.229 16.0098 624.9 16.6797 624.545 17.3906C624.189 18.1016 623.848 18.7852 623.52 19.4414C623.219 20.0703 622.945 20.6309 622.699 21.123C622.453 21.5879 622.303 21.8887 622.248 22.0254C621.756 23.0371 621.523 24.1172 621.551 25.2656C621.605 26.3867 621.674 27.4668 621.756 28.5059C621.865 28.998 622.084 29.4082 622.412 29.7363C622.74 30.0371 623.082 30.3242 623.438 30.5977C623.82 30.8438 624.189 31.0898 624.545 31.3359C624.928 31.582 625.242 31.8828 625.488 32.2383C625.379 32.5938 625.16 32.7715 624.832 32.7715C624.504 32.7988 624.162 32.7441 623.807 32.6074C623.451 32.4707 623.123 32.3066 622.822 32.1152C622.521 31.9238 622.33 31.8008 622.248 31.7461ZM606.949 29.9004C607.059 30.3652 607.469 30.502 608.18 30.3105C608.918 30.1191 609.779 29.7227 610.764 29.1211C611.748 28.4922 612.787 27.7402 613.881 26.8652C615.002 25.9902 616 25.1152 616.875 24.2402C617.777 23.3652 618.475 22.5586 618.967 21.8203C619.486 21.082 619.65 20.5352 619.459 20.1797C618.611 19.7148 617.668 19.4824 616.629 19.4824C615.59 19.4824 614.551 19.6738 613.512 20.0566C612.5 20.4121 611.516 20.9316 610.559 21.6152C609.629 22.2715 608.836 23.0371 608.18 23.9121C607.551 24.7871 607.1 25.7441 606.826 26.7832C606.58 27.7949 606.621 28.834 606.949 29.9004ZM628.113 32.2383C627.785 32.0195 627.771 31.7324 628.072 31.377C628.4 30.9941 628.906 30.5977 629.59 30.1875C630.301 29.75 631.121 29.2988 632.051 28.834C632.98 28.3691 633.869 27.9316 634.717 27.5215C635.592 27.1113 636.357 26.7559 637.014 26.4551C637.67 26.127 638.094 25.8809 638.285 25.7168C639.188 24.9512 639.652 24.3223 639.68 23.8301C639.734 23.3105 639.516 22.9004 639.023 22.5996C638.531 22.2715 637.834 22.0254 636.932 21.8613C636.057 21.6699 635.141 21.5059 634.184 21.3691C633.254 21.2051 632.352 21.041 631.477 20.877C630.629 20.7129 629.986 20.4941 629.549 20.2207C629.111 19.9473 628.961 19.5918 629.098 19.1543C629.262 18.6895 629.863 18.1016 630.902 17.3906C631.285 17.1172 631.846 16.7207 632.584 16.2012C633.322 15.6816 634.115 15.1484 634.963 14.6016C635.838 14.0547 636.699 13.5625 637.547 13.125C638.395 12.6875 639.105 12.4004 639.68 12.2637C639.98 12.209 640.281 12.2363 640.582 12.3457C640.91 12.4551 641.17 12.6191 641.361 12.8379C641.553 13.0293 641.635 13.248 641.607 13.4941C641.607 13.7402 641.43 13.959 641.074 14.1504C639.516 15.0254 638.012 15.8457 636.562 16.6113C635.141 17.377 633.705 18.252 632.256 19.2363C632.174 19.4551 632.188 19.6465 632.297 19.8105C632.434 19.9746 632.584 20.0977 632.748 20.1797C635.646 20.4805 637.82 20.9043 639.27 21.4512C640.746 21.998 641.676 22.5996 642.059 23.2559C642.469 23.9121 642.428 24.6094 641.936 25.3477C641.443 26.0859 640.705 26.8105 639.721 27.5215C638.764 28.2324 637.656 28.9023 636.398 29.5312C635.141 30.1602 633.924 30.6934 632.748 31.1309C631.6 31.5684 630.588 31.8965 629.713 32.1152C628.838 32.334 628.305 32.375 628.113 32.2383Z" fill="#667B6A"/>
</svg>
